<?xml version="1.0" encoding="UTF-8"?>
<svg version="1.1" xmlns="http://www.w3.org/2000/svg" width="612" height="408">
<path d="M0 0 C1.46411208 -0.00576172 1.46411208 -0.00576172 2.95780218 -0.01163983 C4.04306743 -0.01077335 5.12833268 -0.00990687 6.24648476 -0.00901413 C7.96112575 -0.01347081 7.96112575 -0.01347081 9.71040595 -0.01801753 C12.89811891 -0.02522134 16.08579915 -0.0278787 19.27351904 -0.028615 C22.70675929 -0.03046099 26.13998774 -0.03800668 29.57322121 -0.04475021 C37.09279133 -0.05836079 44.61235615 -0.06436433 52.13193655 -0.06876087 C56.83224634 -0.07152239 61.53255407 -0.07575993 66.23286247 -0.08026505 C79.25652818 -0.09246823 92.28019223 -0.10276093 105.30386353 -0.10614014 C106.5556423 -0.10646949 106.5556423 -0.10646949 107.83270953 -0.10680549 C108.66921798 -0.10702377 109.50572644 -0.10724204 110.36758363 -0.10746694 C112.06261977 -0.1079104 113.7576559 -0.10835696 115.45269203 -0.10880661 C116.7138839 -0.10913875 116.7138839 -0.10913875 118.0005544 -0.10947761 C131.5835519 -0.11341417 145.16649538 -0.1308284 158.74947207 -0.15416613 C172.70864079 -0.17795526 186.66778254 -0.19034565 200.62697184 -0.19150805 C208.45853016 -0.19242133 216.29001836 -0.19808409 224.12155724 -0.21632767 C230.80084625 -0.23183194 237.48004355 -0.23678946 244.15934716 -0.22858956 C247.56021585 -0.22471725 250.96075238 -0.22711775 254.36162186 -0.23964691 C290.71500773 -0.36562624 320.8115454 6.38038077 347.76030922 31.94392776 C367.58721551 52.6159153 376.88246202 79.04328942 376.75754738 107.49477005 C376.75996179 108.77515679 376.76237621 110.05554353 376.76486379 111.37472987 C376.77121127 114.88935876 376.76526122 118.40387053 376.75709951 121.9184916 C376.75047121 125.72336556 376.75548184 129.52822751 376.7589817 133.33310318 C376.76400162 140.76795364 376.75841132 148.20275932 376.7491314 155.63760421 C376.7387148 164.29575655 376.7388184 172.95389939 376.73930398 181.61205682 C376.73980361 197.0516287 376.73066682 212.49117979 376.71611977 227.93074417 C376.70200491 242.91935479 376.69495032 257.90794713 376.69561195 272.89656448 C376.69565191 273.8215393 376.69569187 274.74651412 376.69573303 275.69951847 C376.69577339 276.6228869 376.69581374 277.54625532 376.69585532 278.49760461 C376.69654419 295.56742803 376.69066456 312.63724368 376.6817021 329.70706458 C376.67868177 335.74708134 376.67762211 341.78709668 376.6771698 347.82711411 C376.67648936 355.17488331 376.67204783 362.52263939 376.66283699 369.87040302 C376.65820588 373.62141542 376.65517836 377.37241099 376.6564312 381.12342644 C376.65772036 385.17959957 376.65130559 389.23572241 376.64402199 393.29188919 C376.64557059 394.49019371 376.64711919 395.68849823 376.64871472 396.92311502 C376.64549028 398.000425 376.64226583 399.07773499 376.63894367 400.18769073 C376.63788703 401.59366701 376.63788703 401.59366701 376.63680905 403.02804685 C376.51030922 405.13142776 376.51030922 405.13142776 375.51030922 406.13142776 C374.17191449 406.22884844 372.82844097 406.25774335 371.48650551 406.25841141 C370.61991814 406.26123123 369.75333076 406.26405106 368.86048317 406.26695633 C367.90252342 406.2649321 366.94456367 406.26290787 365.95757484 406.2608223 C364.95441734 406.26257462 363.95125984 406.26432693 362.91770363 406.26613235 C359.5839715 406.27055293 356.25029193 406.26761216 352.91655922 406.26424026 C350.6110985 406.26491324 348.30563786 406.26588322 346.00017738 406.26713943 C341.16126265 406.26861669 336.32236634 406.26646097 331.48345375 406.26179886 C325.26536277 406.25610156 319.04731494 406.25938042 312.82922554 406.26537132 C308.06647857 406.2689762 303.30374192 406.26783869 298.54099464 406.26524353 C296.24754773 406.26457406 293.9540999 406.26540339 291.66065407 406.26772308 C288.46142515 406.2702484 285.26226719 406.26641071 282.06304359 406.2608223 C280.62610397 406.26385864 280.62610397 406.26385864 279.16013527 406.26695633 C278.2935479 406.26413651 277.42696053 406.26131668 276.53411293 406.25841141 C275.39810772 406.25784587 275.39810772 406.25784587 274.23915291 406.25726891 C272.51030922 406.13142776 272.51030922 406.13142776 271.51030922 405.13142776 C271.41416789 403.46118107 271.388432 401.786845 271.3900547 400.11383438 C271.38867721 399.02930449 271.38729971 397.94477461 271.38588047 396.82738018 C271.38947858 395.62245954 271.39307669 394.41753889 271.39678383 393.1761055 C271.39660303 391.25791677 271.39660303 391.25791677 271.39641857 389.30097675 C271.3961921 385.83064067 271.40200291 382.36033882 271.40902901 378.89001083 C271.41470891 375.63784248 271.41499131 372.38567569 271.41570473 369.13350296 C271.42095951 359.61197333 271.43492056 350.09045012 271.44780922 340.56892776 C271.46843422 319.30455276 271.48905922 298.04017776 271.51030922 276.13142776 C193.63030922 276.13142776 115.75030922 276.13142776 35.51030922 276.13142776 C35.54992903 318.54049168 35.54992903 318.54049168 35.60039711 360.949543 C35.60491371 369.13350296 35.60491371 369.13350296 35.60575294 372.95920181 C35.60729314 375.64334296 35.61045044 378.32743786 35.61588478 381.01156998 C35.62398633 385.0664242 35.62421681 389.12124321 35.62383461 393.1761055 C35.62743272 394.38102614 35.63103083 395.58594679 35.63473797 396.82738018 C35.63336047 397.91191007 35.63198298 398.99643995 35.63056374 400.11383438 C35.63148553 401.06420295 35.63240732 402.01457151 35.63335705 402.99373913 C35.51030922 405.13142776 35.51030922 405.13142776 34.51030922 406.13142776 C31.34954578 406.23212555 28.21058895 406.267568 25.04937172 406.2608223 C24.05596779 406.26257462 23.06256386 406.26432693 22.03905678 406.26613235 C18.7377901 406.27055287 15.43657649 406.26761218 12.13530922 406.26424026 C9.85226875 406.26491325 7.56922835 406.26588322 5.28618813 406.26713943 C0.49435178 406.26861668 -4.29746597 406.266461 -9.08930016 406.26179886 C-15.24685713 406.25610156 -21.40437052 406.25938042 -27.56192589 406.26537132 C-32.27834975 406.26897622 -36.9947632 406.26783868 -41.71118736 406.26524353 C-43.98230558 406.26457406 -46.25342473 406.26540337 -48.52454185 406.26772308 C-51.692638 406.27024844 -54.8606625 406.26641066 -58.02875328 406.2608223 C-58.97736229 406.26284653 -59.9259713 406.26487076 -60.90332603 406.26695633 C-67.37542854 406.24569 -67.37542854 406.24569 -68.48969078 405.13142776 C-68.58807315 403.32970758 -68.61524704 401.52408215 -68.61553192 399.71967793 C-68.61813967 398.53804917 -68.62074742 397.35642042 -68.62343419 396.13898474 C-68.62120346 394.82423035 -68.61897274 393.50947596 -68.61667442 392.15488052 C-68.61782528 390.75713512 -68.61941257 389.35939001 -68.62140167 387.96164554 C-68.62559986 384.10262446 -68.6235021 380.24362792 -68.62041545 376.38460672 C-68.61816353 372.22980794 -68.62163993 368.07501353 -68.62439537 363.92021561 C-68.62885442 355.77352626 -68.62787597 347.62684609 -68.62498273 339.48015637 C-68.62272907 332.86167923 -68.62241601 326.24320467 -68.62350655 319.62472725 C-68.62365978 318.68459272 -68.62381301 317.7444582 -68.62397089 316.77583475 C-68.6242906 314.86626474 -68.62461481 312.95669474 -68.62494348 311.04712474 C-68.62779871 293.11826525 -68.62451066 275.18941087 -68.61914311 257.26055222 C-68.61467576 241.86163253 -68.61545036 226.46272037 -68.62006187 211.06380081 C-68.62540814 193.20290135 -68.62752324 175.34200637 -68.62444961 157.48110622 C-68.62413105 155.57805216 -68.62381668 153.67499811 -68.62350655 151.77194405 C-68.62335227 150.83548708 -68.62319799 149.89903011 -68.62303904 148.93419566 C-68.62217399 142.3207095 -68.62363653 135.70722618 -68.6259861 129.09374046 C-68.62878491 121.03827605 -68.62804415 112.98282139 -68.62270536 104.9273581 C-68.62006933 100.81378165 -68.61906162 96.70022147 -68.62235451 92.58664513 C-68.62531952 88.8258928 -68.62372119 85.06517194 -68.61837696 81.30442249 C-68.61671873 79.2888197 -68.62000854 77.27321475 -68.62343419 75.2576142 C-68.62082644 74.0733777 -68.61821869 72.8891412 -68.61553192 71.66901875 C-68.61536957 70.64051872 -68.61520722 69.6120187 -68.61503994 68.55235201 C-68.48969078 66.13142776 -68.48969078 66.13142776 -67.48969078 64.13142776 C-47.02969078 64.13142776 -26.56969078 64.13142776 -5.48969078 64.13142776 C-5.50129234 59.59521683 -5.51289391 55.05900589 -5.52484703 50.38533401 C-5.52995401 47.51879613 -5.53476779 44.65226383 -5.53851891 41.78572464 C-5.54450651 37.23159501 -5.55160461 32.67748541 -5.56513023 28.12337112 C-5.57596198 24.45350232 -5.58196822 20.78365498 -5.58456802 17.11377144 C-5.58642175 15.71067784 -5.59004138 14.30758547 -5.59542084 12.90450096 C-5.60263497 10.94573096 -5.60309887 8.98693956 -5.60321617 7.02815628 C-5.60543678 5.91118866 -5.60765739 4.79422104 -5.6099453 3.64340591 C-5.40672884 -0.60155138 -3.80351033 0.00558424 0 0 Z M35.51030922 66.13142776 C35.51030922 113.98142776 35.51030922 161.83142776 35.51030922 211.13142776 C113.39030922 211.13142776 191.27030922 211.13142776 271.51030922 211.13142776 C281.32140307 147.69672973 281.32140307 147.69672973 259.66265297 76.22517776 C251.58732414 68.64753322 243.14213573 65.97079543 232.24669838 66.01117325 C231.40615245 66.01031882 230.56560651 66.0094644 229.69958949 66.00858408 C226.87898751 66.00693506 224.0584448 66.01244124 221.23784828 66.01790237 C219.21757954 66.0181844 217.19731069 66.01802622 215.17704201 66.01745987 C209.68777557 66.01717248 204.1985309 66.02305979 198.70926952 66.03003383 C192.97439178 66.03627708 187.23951356 66.03687194 181.50463295 66.03805923 C170.64268417 66.04116967 159.78074543 66.04937921 148.91880107 66.05940872 C134.24255914 66.0726666 119.56631446 66.07807209 104.89006805 66.08391094 C81.76347425 66.09331928 58.63690164 66.11324013 35.51030922 66.13142776 Z " fill="#7FD958" transform="translate(149.48969078063965,-0.13142776489257813)"/>
<path d="M0 0 C32.1027834 -0.08829802 64.20544828 -0.1621098 96.30831671 -0.20426132 C100.10438909 -0.20926372 103.90046121 -0.21444105 107.6965332 -0.21972656 C108.4522147 -0.2207758 109.20789619 -0.22182505 109.98647713 -0.22290608 C122.1981189 -0.24027805 134.40968481 -0.27179791 146.62128169 -0.30861118 C159.16561705 -0.34611017 171.70991286 -0.36825472 184.25430197 -0.37635398 C191.98545982 -0.38182326 199.71640319 -0.39905299 207.44749498 -0.43166587 C213.39082248 -0.4554494 219.33404184 -0.45779736 225.27741814 -0.45243073 C227.70447987 -0.45352576 230.13155018 -0.4614097 232.55856323 -0.4768219 C245.3490152 -0.55401978 256.85503348 -0.30639044 269 4 C269.77213868 4.25499645 270.54427736 4.5099929 271.33981419 4.77271652 C284.37853323 9.26907157 295.48612576 16.16251472 306 25 C306.82886719 25.63292969 307.65773438 26.26585938 308.51171875 26.91796875 C313.01070229 30.68242436 316.41040327 35.3874612 320 40 C320.61230469 40.7734375 321.22460938 41.546875 321.85546875 42.34375 C340.01182098 66.60761659 341.31695754 94.60824456 341.23213124 123.69568217 C341.22341231 127.45209942 341.22642281 131.20851077 341.22793579 134.9649353 C341.22897936 141.45700683 341.22275838 147.94903783 341.21146011 154.44109917 C341.19513589 163.82727204 341.18999006 173.21342552 341.18748413 182.59961105 C341.18311783 197.8317993 341.16983778 213.06396601 341.15087891 228.29614258 C341.13249243 243.08390191 341.11834951 257.87165536 341.10986328 272.65942383 C341.10933783 273.57249062 341.10881239 274.48555741 341.10827102 275.42629289 C341.10566075 280.00734321 341.10313338 284.58839357 341.10064721 289.16944396 C341.07994792 327.11298178 341.04309616 365.05647971 341 403 C319.88 403 298.76 403 277 403 C277 301.36 277 199.72 277 95 C276.34 95 275.68 95 275 95 C274.78085937 94.29875 274.56171875 93.5975 274.3359375 92.875 C270.92747415 82.67732104 265.54752682 74.15395599 255.90625 68.84765625 C247.01978228 64.70168099 238.52113633 62.54855112 228.72409058 62.60127258 C227.73957731 62.59462576 226.75506405 62.58797893 225.74071705 62.58113068 C222.46880146 62.56260001 219.19725476 62.5650993 215.92529297 62.56762695 C213.56916288 62.55860375 211.21303748 62.54827516 208.85691833 62.53674316 C202.47960225 62.50921287 196.10237534 62.49989397 189.72500753 62.49388909 C183.72974544 62.48544772 177.73454025 62.4633151 171.73931636 62.44127061 C159.87082468 62.39807331 148.00233821 62.36806635 136.13378906 62.34643555 C124.60999996 62.32540464 113.08625352 62.29811119 101.5625 62.26245117 C100.49560294 62.25915293 100.49560294 62.25915293 99.4071524 62.25578807 C95.83866539 62.24471789 92.27017878 62.23352518 88.70169234 62.22227156 C59.13449542 62.12918646 29.56728602 62.05998698 0 62 C0 41.54 0 21.08 0 0 Z " fill="#7ED857" transform="translate(145,2)"/>
<path d="M0 0 C1.46411208 -0.00576172 1.46411208 -0.00576172 2.95780218 -0.01163983 C4.04306743 -0.01077335 5.12833268 -0.00990687 6.24648476 -0.00901413 C7.96112575 -0.01347081 7.96112575 -0.01347081 9.71040595 -0.01801753 C12.89811891 -0.02522134 16.08579915 -0.0278787 19.27351904 -0.028615 C22.70675929 -0.03046099 26.13998774 -0.03800668 29.57322121 -0.04475021 C37.09279133 -0.05836079 44.61235615 -0.06436433 52.13193655 -0.06876087 C56.83224634 -0.07152239 61.53255407 -0.07575993 66.23286247 -0.08026505 C79.25652818 -0.09246823 92.28019223 -0.10276093 105.30386353 -0.10614014 C106.5556423 -0.10646949 106.5556423 -0.10646949 107.83270953 -0.10680549 C108.66921798 -0.10702377 109.50572644 -0.10724204 110.36758363 -0.10746694 C112.06261977 -0.1079104 113.7576559 -0.10835696 115.45269203 -0.10880661 C116.7138839 -0.10913875 116.7138839 -0.10913875 118.0005544 -0.10947761 C131.5835519 -0.11341417 145.16649538 -0.1308284 158.74947207 -0.15416613 C172.70864079 -0.17795526 186.66778254 -0.19034565 200.62697184 -0.19150805 C208.45853016 -0.19242133 216.29001836 -0.19808409 224.12155724 -0.21632767 C230.80084625 -0.23183194 237.48004355 -0.23678946 244.15934716 -0.22858956 C247.56021585 -0.22471725 250.96075238 -0.22711775 254.36162186 -0.23964691 C290.71500773 -0.36562624 320.8115454 6.38038077 347.76030922 31.94392776 C367.58721551 52.6159153 376.88246202 79.04328942 376.75754738 107.49477005 C376.75996179 108.77515679 376.76237621 110.05554353 376.76486379 111.37472987 C376.77121127 114.88935876 376.76526122 118.40387053 376.75709951 121.9184916 C376.75047121 125.72336556 376.75548184 129.52822751 376.7589817 133.33310318 C376.76400162 140.76795364 376.75841132 148.20275932 376.7491314 155.63760421 C376.7387148 164.29575655 376.7388184 172.95389939 376.73930398 181.61205682 C376.73980361 197.0516287 376.73066682 212.49117979 376.71611977 227.93074417 C376.70200491 242.91935479 376.69495032 257.90794713 376.69561195 272.89656448 C376.69565191 273.8215393 376.69569187 274.74651412 376.69573303 275.69951847 C376.69577339 276.6228869 376.69581374 277.54625532 376.69585532 278.49760461 C376.69654419 295.56742803 376.69066456 312.63724368 376.6817021 329.70706458 C376.67868177 335.74708134 376.67762211 341.78709668 376.6771698 347.82711411 C376.67648936 355.17488331 376.67204783 362.52263939 376.66283699 369.87040302 C376.65820588 373.62141542 376.65517836 377.37241099 376.6564312 381.12342644 C376.65772036 385.17959957 376.65130559 389.23572241 376.64402199 393.29188919 C376.64557059 394.49019371 376.64711919 395.68849823 376.64871472 396.92311502 C376.64549028 398.000425 376.64226583 399.07773499 376.63894367 400.18769073 C376.63788703 401.59366701 376.63788703 401.59366701 376.63680905 403.02804685 C376.51030922 405.13142776 376.51030922 405.13142776 375.51030922 406.13142776 C374.17191449 406.22884844 372.82844097 406.25774335 371.48650551 406.25841141 C370.61991814 406.26123123 369.75333076 406.26405106 368.86048317 406.26695633 C367.90252342 406.2649321 366.94456367 406.26290787 365.95757484 406.2608223 C364.95441734 406.26257462 363.95125984 406.26432693 362.91770363 406.26613235 C359.5839715 406.27055293 356.25029193 406.26761216 352.91655922 406.26424026 C350.6110985 406.26491324 348.30563786 406.26588322 346.00017738 406.26713943 C341.16126265 406.26861669 336.32236634 406.26646097 331.48345375 406.26179886 C325.26536277 406.25610156 319.04731494 406.25938042 312.82922554 406.26537132 C308.06647857 406.2689762 303.30374192 406.26783869 298.54099464 406.26524353 C296.24754773 406.26457406 293.9540999 406.26540339 291.66065407 406.26772308 C288.46142515 406.2702484 285.26226719 406.26641071 282.06304359 406.2608223 C280.62610397 406.26385864 280.62610397 406.26385864 279.16013527 406.26695633 C278.2935479 406.26413651 277.42696053 406.26131668 276.53411293 406.25841141 C275.39810772 406.25784587 275.39810772 406.25784587 274.23915291 406.25726891 C272.51030922 406.13142776 272.51030922 406.13142776 271.51030922 405.13142776 C271.41416789 403.46118107 271.388432 401.786845 271.3900547 400.11383438 C271.38867721 399.02930449 271.38729971 397.94477461 271.38588047 396.82738018 C271.38947858 395.62245954 271.39307669 394.41753889 271.39678383 393.1761055 C271.39660303 391.25791677 271.39660303 391.25791677 271.39641857 389.30097675 C271.3961921 385.83064067 271.40200291 382.36033882 271.40902901 378.89001083 C271.41470891 375.63784248 271.41499131 372.38567569 271.41570473 369.13350296 C271.42095951 359.61197333 271.43492056 350.09045012 271.44780922 340.56892776 C271.46843422 319.30455276 271.48905922 298.04017776 271.51030922 276.13142776 C193.63030922 276.13142776 115.75030922 276.13142776 35.51030922 276.13142776 C35.54992903 318.54049168 35.54992903 318.54049168 35.60039711 360.949543 C35.60491371 369.13350296 35.60491371 369.13350296 35.60575294 372.95920181 C35.60729314 375.64334296 35.61045044 378.32743786 35.61588478 381.01156998 C35.62398633 385.0664242 35.62421681 389.12124321 35.62383461 393.1761055 C35.62743272 394.38102614 35.63103083 395.58594679 35.63473797 396.82738018 C35.63336047 397.91191007 35.63198298 398.99643995 35.63056374 400.11383438 C35.63148553 401.06420295 35.63240732 402.01457151 35.63335705 402.99373913 C35.51030922 405.13142776 35.51030922 405.13142776 34.51030922 406.13142776 C21.64030922 406.13142776 8.77030922 406.13142776 -4.48969078 406.13142776 C-4.48969078 363.23142776 -4.48969078 320.33142776 -4.48969078 276.13142776 C40.34786064 274.98174696 40.34786064 274.98174696 57.1135807 275.01790237 C59.07004736 275.01818659 61.02651413 275.01802199 62.98298073 275.01745987 C68.13754167 275.017181 73.29207778 275.02292494 78.4466331 275.03003383 C83.89169029 275.03642422 89.33674849 275.03688323 94.78180885 275.03805923 C105.02281308 275.0411275 115.26380621 275.04927796 125.50480562 275.05940872 C137.19351515 275.07071257 148.88222529 275.0761157 160.57093894 275.08110416 C184.55073654 275.09146614 208.530519 275.10975315 232.51030922 275.13142776 C232.51030922 254.34142776 232.51030922 233.55142776 232.51030922 212.13142776 C153.97030922 212.13142776 75.43030922 212.13142776 -5.48969078 212.13142776 C-5.48969078 163.62142776 -5.48969078 115.11142776 -5.48969078 65.13142776 C-25.94969078 65.13142776 -46.40969078 65.13142776 -67.48969078 65.13142776 C-67.48969078 64.80142776 -67.48969078 64.47142776 -67.48969078 64.13142776 C-47.02969078 64.13142776 -26.56969078 64.13142776 -5.48969078 64.13142776 C-5.50129234 59.59521683 -5.51289391 55.05900589 -5.52484703 50.38533401 C-5.52995401 47.51879613 -5.53476779 44.65226383 -5.53851891 41.78572464 C-5.54450651 37.23159501 -5.55160461 32.67748541 -5.56513023 28.12337112 C-5.57596198 24.45350232 -5.58196822 20.78365498 -5.58456802 17.11377144 C-5.58642175 15.71067784 -5.59004138 14.30758547 -5.59542084 12.90450096 C-5.60263497 10.94573096 -5.60309887 8.98693956 -5.60321617 7.02815628 C-5.60543678 5.91118866 -5.60765739 4.79422104 -5.6099453 3.64340591 C-5.40672884 -0.60155138 -3.80351033 0.00558424 0 0 Z M-4.48969078 2.13142776 C-4.48969078 22.59142776 -4.48969078 43.05142776 -4.48969078 64.13142776 C74.38030922 64.46142776 153.25030922 64.79142776 234.51030922 65.13142776 C168.84030922 65.46142776 103.17030922 65.79142776 35.51030922 66.13142776 C35.51030922 113.98142776 35.51030922 161.83142776 35.51030922 211.13142776 C113.39030922 211.13142776 191.27030922 211.13142776 271.51030922 211.13142776 C272.00530922 307.16142776 272.00530922 307.16142776 272.51030922 405.13142776 C293.63030922 405.13142776 314.75030922 405.13142776 336.51030922 405.13142776 C336.55444025 366.27676681 336.59135316 327.42212959 336.61243988 288.56745073 C336.61494115 283.97525097 336.61752981 279.38305127 336.6201725 274.79085159 C336.62069712 273.87666751 336.62122174 272.96248344 336.62176226 272.02059681 C336.63045337 257.23854273 336.6462162 242.45650427 336.66461481 227.67445945 C336.6833499 212.49493142 336.69443357 197.31541154 336.69848621 182.13587242 C336.70122379 172.77718715 336.70985507 163.41854608 336.72614215 154.05987442 C336.73675363 147.6331856 336.73990046 141.20651946 336.73731197 134.77982252 C336.73603714 131.07777186 336.7379241 127.37579817 336.74872017 123.67376137 C336.83991607 90.77765946 333.42530074 61.54299424 310.51030922 36.13142776 C309.54351234 34.8823262 309.54351234 34.8823262 308.55718422 33.60799026 C294.78008107 16.93874714 270.47763305 5.61017155 249.51030922 2.13142776 C245.93193254 1.8700189 242.37188114 1.8692004 238.7851963 1.89091873 C237.21782812 1.88835546 237.21782812 1.88835546 235.61879593 1.8857404 C232.13651779 1.88246043 228.65443468 1.89342465 225.17217445 1.90437698 C222.66841575 1.90494142 220.16465672 1.90462391 217.66089821 1.90349197 C212.28023166 1.90303734 206.89962519 1.90869013 201.5189743 1.91996765 C193.73958672 1.93626212 185.96022256 1.94143469 178.18081976 1.94394363 C165.55748195 1.94831456 152.93417007 1.96160727 140.31084633 1.98054886 C128.05270962 1.99892328 115.79457997 2.01307213 103.53643227 2.02156448 C102.40193372 2.02235265 102.40193372 2.02235265 101.24451601 2.02315675 C97.44999766 2.02576693 93.65547927 2.02829432 89.86096084 2.03078055 C58.41072065 2.05149428 26.96052871 2.0883539 -4.48969078 2.13142776 Z " fill="#FE6AC5" transform="translate(149.48969078063965,-0.13142776489257813)"/>
<path d="M0 0 C12.87 0 25.74 0 39 0 C39 48.51 39 97.02 39 147 C26.13 147 13.26 147 0 147 C0 98.49 0 49.98 0 0 Z " fill="#FE66C4" transform="translate(145,65)"/>
<path d="M0 0 C12.87 0 25.74 0 39 0 C39 42.9 39 85.8 39 130 C26.13 130 13.26 130 0 130 C0 87.1 0 44.2 0 0 Z " fill="#FE66C4" transform="translate(145,276)"/>
<path d="M0 0 C12.87 0 25.74 0 39 0 C39 20.79 39 41.58 39 63 C26.13 63 13.26 63 0 63 C0 42.21 0 21.42 0 0 Z " fill="#FE65C3" transform="translate(382,212)"/>
<path d="M0 0 C0.93003086 0.00223072 1.86006172 0.00446144 2.81827533 0.00675976 C3.79832692 0.00519977 4.7783785 0.00363978 5.78812861 0.00203252 C9.09920767 -0.00198224 12.41024153 0.00121406 15.72132099 0.00434887 C18.08446518 0.00299499 20.44760917 0.00121513 22.81075275 -0.00096118 C28.58084897 -0.00506222 34.35093063 -0.00444157 40.12102731 -0.00154854 C44.8120206 0.00070631 49.50301026 0.00101765 54.19400394 -0.00007236 C54.86070945 -0.00022559 55.52741496 -0.00037883 56.21432366 -0.0005367 C57.56863901 -0.00085642 58.92295436 -0.00118063 60.27726971 -0.00150929 C72.99479476 -0.00436479 85.71231262 -0.00107666 98.4298365 0.00429107 C109.33868781 0.00875302 120.24752847 0.00798834 131.15637958 0.00337231 C143.81790197 -0.00198283 156.47941802 -0.0040836 169.14094138 -0.00101542 C170.49221655 -0.00069687 171.84349171 -0.0003825 173.19476688 -0.00007236 C173.85963748 0.00008192 174.52450808 0.00023619 175.20952628 0.00039514 C179.8910428 0.00125793 184.5725541 -0.00024647 189.25407016 -0.00255191 C195.56259567 -0.00544114 201.8711011 -0.00343551 208.17962444 0.00234234 C210.49554207 0.00366462 212.81146139 0.00328483 215.12737834 0.00107968 C218.28877112 -0.00165287 221.45009955 0.00177525 224.61148822 0.00675976 C225.52813475 0.00452904 226.44478128 0.00229832 227.38920498 0 C232.23224104 0.01480902 236.82024476 0.31666753 241.59583271 1.13374341 C241.59583271 1.46374341 241.59583271 1.79374341 241.59583271 2.13374341 C159.75583271 2.13374341 77.91583271 2.13374341 -6.40416729 2.13374341 C-6.40416729 22.59374341 -6.40416729 43.05374341 -6.40416729 64.13374341 C0.81490497 64.12326977 8.03397724 64.11279614 15.47180927 64.10200512 C38.55891196 64.06991857 61.64601535 64.04766424 84.73313399 64.03161275 C88.31806356 64.02911127 91.90299307 64.02652264 95.48792255 64.02388012 C96.55848408 64.02309319 96.55848408 64.02309319 97.65067312 64.02229036 C109.21336397 64.01358308 120.77603497 63.99781133 132.33871403 63.97943781 C144.19934226 63.96074776 156.05996009 63.94962858 167.92060244 63.94556642 C174.58411573 63.94306624 181.24758947 63.93679588 187.91108692 63.92228329 C194.17856045 63.90874336 200.44597022 63.90451349 206.71345699 63.90752804 C209.01773729 63.90697627 211.32201965 63.90297755 213.62628734 63.89533246 C216.76475421 63.88542743 219.90297825 63.88775832 223.04145038 63.89323437 C223.95973566 63.88740869 224.87802094 63.88158301 225.82413304 63.87558079 C226.66462878 63.87956288 227.50512451 63.88354498 228.37108982 63.88764775 C229.09559621 63.88688831 229.8201026 63.88612887 230.56656373 63.88534641 C232.59583271 64.13374341 232.59583271 64.13374341 236.59583271 66.13374341 C169.60583271 66.13374341 102.61583271 66.13374341 33.59583271 66.13374341 C33.92583271 83.29374341 34.25583271 100.45374341 34.59583271 118.13374341 C34.77527174 149.17669663 34.21698965 180.07589613 33.59583271 211.13374341 C111.47583271 211.13374341 189.35583271 211.13374341 269.59583271 211.13374341 C269.59583271 173.51374341 269.59583271 135.89374341 269.59583271 97.13374341 C269.92583271 97.13374341 270.25583271 97.13374341 270.59583271 97.13374341 C270.59583271 198.77374341 270.59583271 300.41374341 270.59583271 405.13374341 C270.26583271 405.13374341 269.93583271 405.13374341 269.59583271 405.13374341 C269.59583271 362.56374341 269.59583271 319.99374341 269.59583271 276.13374341 C191.71583271 276.13374341 113.83583271 276.13374341 33.59583271 276.13374341 C33.59583271 318.70374341 33.59583271 361.27374341 33.59583271 405.13374341 C33.26583271 405.13374341 32.93583271 405.13374341 32.59583271 405.13374341 C32.59583271 362.23374341 32.59583271 319.33374341 32.59583271 275.13374341 C110.80583271 275.13374341 189.01583271 275.13374341 269.59583271 275.13374341 C269.59583271 254.34374341 269.59583271 233.55374341 269.59583271 212.13374341 C191.38583271 212.13374341 113.17583271 212.13374341 32.59583271 212.13374341 C32.59583271 163.62374341 32.59583271 115.11374341 32.59583271 65.13374341 C19.72583271 65.13374341 6.85583271 65.13374341 -6.40416729 65.13374341 C-6.40416729 113.64374341 -6.40416729 162.15374341 -6.40416729 212.13374341 C-6.73416729 212.13374341 -7.06416729 212.13374341 -7.40416729 212.13374341 C-7.40416729 163.62374341 -7.40416729 115.11374341 -7.40416729 65.13374341 C-27.86416729 65.13374341 -48.32416729 65.13374341 -69.40416729 65.13374341 C-69.40416729 64.80374341 -69.40416729 64.47374341 -69.40416729 64.13374341 C-48.94416729 64.13374341 -28.48416729 64.13374341 -7.40416729 64.13374341 C-7.41576886 59.59753247 -7.42737042 55.06132153 -7.43932354 50.38764966 C-7.44443052 47.52111177 -7.44924431 44.65457947 -7.45299542 41.78804028 C-7.45898303 37.23391066 -7.46608112 32.67980105 -7.47960675 28.12568676 C-7.49043849 24.45581797 -7.49644474 20.78597062 -7.49904454 17.11608708 C-7.50089827 15.71299348 -7.5045179 14.30990111 -7.50989735 12.9068166 C-7.51711149 10.9480466 -7.51757538 8.9892552 -7.51769269 7.03047192 C-7.5199133 5.9135043 -7.52213391 4.79653668 -7.52442181 3.64572155 C-7.28735471 -1.30633666 -4.24482405 0.0132224 0 0 Z " fill="#F5EFEE" transform="translate(151.40416729450226,-0.13374340534210205)"/>
<path d="M0 0 C0.93003086 0.00223072 1.86006172 0.00446144 2.81827533 0.00675976 C3.79832692 0.00519977 4.7783785 0.00363978 5.78812861 0.00203252 C9.09920767 -0.00198224 12.41024153 0.00121406 15.72132099 0.00434887 C18.08446518 0.00299499 20.44760917 0.00121513 22.81075275 -0.00096118 C28.58084897 -0.00506222 34.35093063 -0.00444157 40.12102731 -0.00154854 C44.8120206 0.00070631 49.50301026 0.00101765 54.19400394 -0.00007236 C54.86070945 -0.00022559 55.52741496 -0.00037883 56.21432366 -0.0005367 C57.56863901 -0.00085642 58.92295436 -0.00118063 60.27726971 -0.00150929 C72.99479476 -0.00436479 85.71231262 -0.00107666 98.4298365 0.00429107 C109.33868781 0.00875302 120.24752847 0.00798834 131.15637958 0.00337231 C143.81790197 -0.00198283 156.47941802 -0.0040836 169.14094138 -0.00101542 C170.49221655 -0.00069687 171.84349171 -0.0003825 173.19476688 -0.00007236 C173.85963748 0.00008192 174.52450808 0.00023619 175.20952628 0.00039514 C179.8910428 0.00125793 184.5725541 -0.00024647 189.25407016 -0.00255191 C195.56259567 -0.00544114 201.8711011 -0.00343551 208.17962444 0.00234234 C210.49554207 0.00366462 212.81146139 0.00328483 215.12737834 0.00107968 C218.28877112 -0.00165287 221.45009955 0.00177525 224.61148822 0.00675976 C225.52813475 0.00452904 226.44478128 0.00229832 227.38920498 0 C232.23224104 0.01480902 236.82024476 0.31666753 241.59583271 1.13374341 C241.59583271 1.46374341 241.59583271 1.79374341 241.59583271 2.13374341 C159.75583271 2.13374341 77.91583271 2.13374341 -6.40416729 2.13374341 C-6.40416729 22.59374341 -6.40416729 43.05374341 -6.40416729 64.13374341 C72.46583271 64.13374341 151.33583271 64.13374341 232.59583271 64.13374341 C232.59583271 64.46374341 232.59583271 64.79374341 232.59583271 65.13374341 C153.72583271 65.13374341 74.85583271 65.13374341 -6.40416729 65.13374341 C-6.40416729 113.64374341 -6.40416729 162.15374341 -6.40416729 212.13374341 C-6.73416729 212.13374341 -7.06416729 212.13374341 -7.40416729 212.13374341 C-7.40416729 163.62374341 -7.40416729 115.11374341 -7.40416729 65.13374341 C-27.86416729 65.13374341 -48.32416729 65.13374341 -69.40416729 65.13374341 C-69.40416729 64.80374341 -69.40416729 64.47374341 -69.40416729 64.13374341 C-48.94416729 64.13374341 -28.48416729 64.13374341 -7.40416729 64.13374341 C-7.41576886 59.59753247 -7.42737042 55.06132153 -7.43932354 50.38764966 C-7.44443052 47.52111177 -7.44924431 44.65457947 -7.45299542 41.78804028 C-7.45898303 37.23391066 -7.46608112 32.67980105 -7.47960675 28.12568676 C-7.49043849 24.45581797 -7.49644474 20.78597062 -7.49904454 17.11608708 C-7.50089827 15.71299348 -7.5045179 14.30990111 -7.50989735 12.9068166 C-7.51711149 10.9480466 -7.51757538 8.9892552 -7.51769269 7.03047192 C-7.5199133 5.9135043 -7.52213391 4.79653668 -7.52442181 3.64572155 C-7.28735471 -1.30633666 -4.24482405 0.0132224 0 0 Z " fill="#C1DAA7" transform="translate(151.40416729450226,-0.13374340534210205)"/>
<path d="M0 0 C2.15377564 2.62198774 3.40072174 4.64404172 4 8 C3.01 7.67 2.02 7.34 1 7 C-0.1875 3.9375 -0.1875 3.9375 -1 1 C-0.67 0.67 -0.34 0.34 0 0 Z " fill="#FFA2DB" transform="translate(512,53)"/>
</svg>
