<?xml version="1.0" encoding="UTF-8"?>
<svg version="1.1" xmlns="http://www.w3.org/2000/svg" width="612" height="408">
<path d="M0 0 C0.64136719 -0.00260729 1.28273438 -0.00521457 1.94353694 -0.00790086 C4.10734302 -0.01423135 6.27086224 -0.00621908 8.43465996 0.00165081 C9.99571207 0.00006355 11.55676349 -0.00239922 13.11781299 -0.0056656 C17.41893248 -0.01209869 21.71995831 -0.00599588 26.02107167 0.00209868 C30.65503132 0.00866078 35.28898024 0.00373049 39.92294121 0.00021648 C49.00483305 -0.00483237 58.08668857 0.00082452 67.1685759 0.01006678 C77.73445387 0.02043414 88.30032393 0.02038105 98.86620604 0.01989421 C117.71104301 0.01939325 136.55586303 0.02856462 155.40069389 0.04307842 C173.70733766 0.05717052 192.0139665 0.06424905 210.32061577 0.06358624 C212.0122119 0.0635263 212.0122119 0.0635263 213.73798169 0.06346516 C214.8637198 0.0634248 215.9894579 0.06338445 217.14930928 0.06334287 C237.96303501 0.06265388 258.77675437 0.06853769 279.59047804 0.07749609 C286.96438244 0.08051838 294.33828568 0.08157634 301.71219063 0.08202839 C310.69063319 0.08270896 319.66906503 0.08715187 328.64750303 0.0963612 C333.23285487 0.10099318 337.81819295 0.10401956 342.40354729 0.10276699 C346.59408325 0.10167773 350.78458868 0.10515464 354.97511826 0.11241551 C356.49791544 0.11423955 358.02071575 0.11434885 359.54351307 0.11264823 C361.59975918 0.1106047 363.6560088 0.11521965 365.71224976 0.12025452 C366.8585181 0.12095894 368.00478644 0.12166337 369.18579018 0.12238914 C371.73028374 0.24888897 371.73028374 0.24888897 372.73028374 1.24888897 C372.82958906 3.23776391 372.85827835 5.23019314 372.85967827 7.22154522 C372.86283043 8.49957012 372.86598259 9.77759502 372.86923027 11.09434795 C372.86744049 12.50002864 372.86538954 13.90570901 372.86309624 15.31138897 C372.86376932 16.7424601 372.86473938 18.17353112 372.86599541 19.60460186 C372.86747218 22.60746121 372.8653185 25.61029087 372.86065483 28.61314678 C372.85495754 32.47041468 372.85823666 36.32761301 372.86422729 40.18487835 C372.86783348 43.14102488 372.86669406 46.09715479 372.8640995 49.05330181 C372.86343039 50.47592966 372.86425811 51.898559 372.86657906 53.32118511 C372.86910647 55.3062007 372.86457416 57.29122156 372.85967827 59.27623272 C372.85848488 60.97380718 372.85848488 60.97380718 372.85726738 62.70567608 C372.73028374 65.24888897 372.73028374 65.24888897 371.73028374 66.24888897 C369.92667171 66.34637285 368.11919172 66.37260306 366.31294727 66.3719368 C365.13008512 66.37392785 363.94722298 66.3759189 362.72851652 66.37797028 C361.41239789 66.37505744 360.09627926 66.3721446 358.74027824 66.36914349 C357.34110767 66.36957907 355.94193717 66.37045372 354.54276711 66.37173265 C350.67988262 66.37398024 346.81702559 66.36995275 342.9541446 66.36495459 C338.79529577 66.36065403 334.63644861 66.36209623 330.47759819 66.36285686 C323.26610698 66.36338235 316.05462478 66.36023298 308.84313583 66.35461903 C298.41640985 66.34650736 287.98968824 66.34388915 277.56295944 66.34263103 C260.64810999 66.34043999 243.73326534 66.33377848 226.8184185 66.32432842 C210.38287187 66.31515566 193.94732655 66.30807416 177.51177788 66.30382061 C175.99328471 66.30342652 175.99328471 66.30342652 174.44411492 66.30302448 C169.3657854 66.30171948 164.28745588 66.30045576 159.20912635 66.29921257 C117.04950788 66.28883833 74.88989829 66.27039915 32.73028374 66.24888897 C32.73028374 100.89888897 32.73028374 135.54888897 32.73028374 171.24888897 C40.40745659 171.218596 48.08462944 171.18830303 55.99444389 171.15709209 C80.71535726 171.05965303 105.43627346 170.96295426 130.15719149 170.8667067 C134.01374961 170.85169104 137.8703077 170.83666895 141.72686577 170.82164288 C142.49445781 170.81865226 143.26204986 170.81566165 144.05290227 170.81258041 C156.39123101 170.7644938 168.72955765 170.71588887 181.06788357 170.66708356 C193.78070444 170.61680878 206.49352748 170.56711144 219.20635259 170.51792192 C226.32477053 170.49036293 233.44318727 170.46254973 240.56160164 170.43408489 C243.30236873 170.42315721 246.04313592 170.41225401 248.78390312 170.40135479 C249.45128943 170.39869155 250.11867574 170.39602832 250.80628587 170.39328438 C261.45031215 170.35094384 272.09434924 170.31643271 282.73841369 170.28531885 C289.14974705 170.26520293 295.56081206 170.23268877 301.9720031 170.18555117 C305.61604596 170.15984114 309.26010105 170.14139096 312.90419459 170.12456894 C314.54100182 170.11512604 316.17779322 170.10217822 317.81454206 170.08543587 C319.99390223 170.06332722 322.17299348 170.05306758 324.3524456 170.04588604 C325.54835005 170.0368047 326.74425449 170.02772335 327.97639847 170.01836681 C330.73028374 170.24888897 330.73028374 170.24888897 332.73028374 172.24888897 C332.9775219 174.87439251 332.9775219 174.87439251 332.97320366 178.24327374 C332.97628029 179.50120235 332.97935692 180.75913097 332.98252678 182.05517864 C332.97562956 183.43355269 332.96836263 184.81192493 332.96075249 186.19029522 C332.95956078 187.59751627 332.9591075 189.00473812 332.95936394 190.41195965 C332.95779887 193.36180376 332.94950672 196.31152655 332.93609428 199.26134014 C332.91908878 203.05020725 332.91528037 206.83894114 332.91603947 210.62784195 C332.91576811 213.53338178 332.91029267 216.43889225 332.90303802 219.34442234 C332.89984708 220.74192806 332.89788296 222.13943713 332.89714432 223.5369463 C332.89498616 225.48594254 332.88545687 227.43492649 332.87554741 229.38389874 C332.87173561 230.49483395 332.86792381 231.60576916 332.86399651 232.75036907 C332.73028374 235.24888897 332.73028374 235.24888897 331.73028374 236.24888897 C330.13515954 236.34593633 328.53571561 236.37260517 326.9376421 236.3719368 C325.89411577 236.37392785 324.85058945 236.3759189 323.77544111 236.37797028 C322.03472006 236.37360102 322.03472006 236.37360102 320.25883293 236.36914349 C319.03699635 236.36999791 317.81515977 236.37085234 316.55629784 236.37173265 C313.14946543 236.37310089 309.74268976 236.36995324 306.33586419 236.36495459 C302.66781749 236.36065353 298.99977268 236.36209627 295.33172417 236.36285686 C288.97146943 236.36338232 282.61122491 236.36023328 276.25097275 236.35461903 C267.05501029 236.34650693 257.85905279 236.34388911 248.66308714 236.34263103 C233.74480937 236.34044006 218.82653706 236.33377873 203.90826225 236.32432842 C189.41281982 236.31515549 174.91737887 236.30807408 160.42193413 236.30382061 C159.0826607 236.30342652 159.0826607 236.30342652 157.71633124 236.30302448 C153.23736457 236.30171948 148.7583979 236.30045576 144.27943122 236.29921257 C107.09637821 236.28883854 69.9133314 236.27121898 32.73028374 236.24888897 C32.76848915 245.57718297 32.8280645 254.90503391 32.91418648 264.23300934 C32.95353006 268.56538398 32.98578231 272.89755937 33.00127983 277.23009014 C33.0165336 281.41897564 33.05113119 285.60731284 33.09859276 289.7959528 C33.11331736 291.3861051 33.12131957 292.97633573 33.12216759 294.56655598 C33.13596568 307.47869954 34.8847324 319.1858854 43.73028374 329.24888897 C53.73615941 338.12932344 64.58514886 340.85645378 77.70126152 340.76114178 C78.9636052 340.76793746 80.22594888 340.77473315 81.52654541 340.78173476 C85.00018189 340.79992538 88.47339264 340.79361443 91.94704437 340.7830354 C95.70427151 340.77599697 99.46141035 340.79211566 103.21861076 340.80537701 C109.71840303 340.82523194 116.21807802 340.83073676 122.71789742 340.82643986 C132.11646343 340.82033508 141.51488018 340.83724076 150.91341589 340.85984979 C166.16551964 340.89601253 181.41759394 340.91521126 196.66973686 340.92296124 C211.47801884 340.93053561 226.28627386 340.94365493 241.09454155 340.96592999 C242.00809383 340.96730068 242.92164611 340.96867138 243.86288179 340.97008362 C253.82888753 340.98519994 263.79489 341.00192553 273.76089096 341.01990509 C274.63567637 341.02147706 275.51046177 341.02304903 276.41175582 341.02466864 C283.60270278 341.03759981 283.60270278 341.03759981 286.89967857 341.04368625 C297.14497215 341.06252015 307.39024594 341.07638798 317.63555603 341.08148191 C324.05222626 341.08471335 330.46888822 341.09096129 336.88555343 341.09961017 C341.30687461 341.10534874 345.72817072 341.10695299 350.14949501 341.10537628 C353.44271884 341.10547811 356.73592339 341.11199852 360.02914238 341.11758709 C361.21324735 341.11583672 362.39735232 341.11408635 363.61733925 341.11228293 C364.68194906 341.11529058 365.74655886 341.11829823 366.84342957 341.12139702 C367.76968018 341.12188677 368.69593079 341.12237652 369.6502496 341.12288111 C371.73028374 341.24888897 371.73028374 341.24888897 372.73028374 342.24888897 C372.82954147 344.20713595 372.85827788 346.16898794 372.85967827 348.12974834 C372.86283043 349.38775249 372.86598259 350.64575665 372.86923027 351.94188213 C372.86744049 353.3254681 372.86538954 354.70905375 372.86309624 356.09263897 C372.86376932 357.50128986 372.86473939 358.90994063 372.86599541 360.31859112 C372.86747216 363.2743722 372.86531857 366.23012311 372.86065483 369.18590069 C372.85495754 372.98263481 372.85823667 376.77929825 372.86422729 380.57602978 C372.86783353 383.48585325 372.86669404 386.39565985 372.8640995 389.30548382 C372.86343041 390.70578297 372.86425806 392.10608364 372.86657906 393.50638103 C372.86910656 395.46026361 372.86457407 397.41415152 372.85967827 399.36802959 C372.85848488 401.03895672 372.85848488 401.03895672 372.85726738 402.74363995 C372.73028374 405.24888897 372.73028374 405.24888897 371.73028374 406.24888897 C369.89141681 406.34914687 368.04864989 406.37813059 366.20705318 406.38031673 C365.00045766 406.38415788 363.79386213 406.38799902 362.55070311 406.39195657 C361.19438996 406.39117617 359.83807687 406.39029735 358.48176384 406.38933086 C357.05417311 406.39191234 355.6265831 406.39492488 354.1989941 406.39833426 C350.25685164 406.40643455 346.31472735 406.40819553 342.37257755 406.40893173 C338.12748909 406.4107773 333.88241017 406.4183226 329.63732719 406.42506695 C320.34102105 406.43867719 311.0447192 406.44468054 301.74840474 406.44907761 C295.94052873 406.45183823 290.13265439 406.45607552 284.32477951 406.46058178 C268.23949507 406.47278313 252.15421197 406.48307736 236.068923 406.48645687 C234.52297337 406.48678622 234.52297337 406.48678622 232.94579243 406.48712222 C231.91268195 406.4873405 230.87957147 406.48755878 229.81515461 406.48778367 C227.72167877 406.48822714 225.62820293 406.4886737 223.5347271 406.48912334 C222.49628963 406.48934477 221.45785216 406.4895662 220.3879469 406.48979434 C203.59688151 406.49373433 186.80585974 406.51115997 170.01481117 406.53448287 C152.7684416 406.55824409 135.52209385 406.57066107 118.27570766 406.57182479 C108.59585986 406.57273943 98.91606871 406.57843737 89.23623657 406.5966444 C80.98431632 406.61211057 72.7324702 406.61712805 64.4805382 406.6089063 C60.27581719 406.60502132 56.07124513 406.60582258 51.86654282 406.61996365 C14.83503863 406.73705272 -15.32364791 401.42761819 -42.95721626 374.99888897 C-62.00945519 355.22665264 -72.46188414 329.50440636 -72.39669991 302.03676128 C-72.3982599 301.02284844 -72.39981989 300.0089356 -72.40142715 298.96429813 C-72.40540831 295.57493462 -72.40225872 292.18561608 -72.39911079 288.79625225 C-72.40046606 286.3633754 -72.4022467 283.93049875 -72.40442085 281.49762249 C-72.40850575 275.58197146 -72.40791032 269.66633206 -72.40500821 263.75068136 C-72.40274844 258.94536354 -72.40244415 254.14004929 -72.40353203 249.3347311 C-72.40368526 248.65045403 -72.40383849 247.96617695 -72.40399637 247.26116421 C-72.4043161 245.87108168 -72.40464031 244.48099915 -72.40496896 243.09091662 C-72.40781818 230.06738161 -72.40454481 217.04385365 -72.3991686 204.0203198 C-72.39469505 192.83674038 -72.3954821 181.65317133 -72.40008736 170.46959209 C-72.40543262 157.48286801 -72.40754987 144.49615008 -72.40447509 131.50942504 C-72.40415654 130.12633411 -72.40384217 128.74324318 -72.40353203 127.36015224 C-72.40337775 126.67962263 -72.40322348 125.99909302 -72.40306453 125.2979413 C-72.40219967 120.49331108 -72.40366144 115.68868476 -72.40601158 110.88405514 C-72.40910028 104.427731 -72.40691815 97.97142191 -72.40111732 91.51509953 C-72.39978903 89.1386045 -72.40018501 86.76210783 -72.40237999 84.38561344 C-72.40508858 81.15675774 -72.40171405 77.92796633 -72.39669991 74.6991148 C-72.39893063 73.74573825 -72.40116135 72.7923617 -72.40345967 71.81009495 C-72.38386659 65.36303929 -72.38386659 65.36303929 -71.26971626 64.24888897 C-69.33665128 64.1549284 -67.40012788 64.13145379 -65.46478462 64.13536358 C-64.22357353 64.13543911 -62.98236244 64.13551464 -61.70353889 64.13559246 C-60.33887887 64.14069986 -58.97421924 64.14591587 -57.60956001 64.15123272 C-56.22093443 64.15309697 -54.83230819 64.15452084 -53.44368172 64.15552044 C-49.78250512 64.1593451 -46.12136796 64.16917494 -42.46020699 64.18022442 C-38.72679363 64.19043965 -34.99337393 64.1950183 -31.25995064 64.20006084 C-23.9298545 64.21079726 -16.5997909 64.22787305 -9.26971626 64.24888897 C-9.2763781 63.47658947 -9.28303993 62.70428997 -9.28990364 61.90858746 C-9.34995123 54.63945431 -9.39565804 47.37044097 -9.42515278 40.10112476 C-9.44082598 36.36365101 -9.46209387 32.62638174 -9.49603462 28.88902569 C-9.52856993 25.28397257 -9.54655681 21.67911645 -9.55434799 18.07392788 C-9.55990207 16.69675246 -9.57074761 15.31958812 -9.58690643 13.9424963 C-9.60860062 12.01755266 -9.60994098 10.09241185 -9.61029243 8.167346 C-9.61695427 7.07036388 -9.6236161 5.97338177 -9.63047981 4.84315777 C-9.51142784 3.98704906 -9.39237587 3.13094036 -9.26971626 2.24888897 C-5.7124973 -0.12259034 -4.21947091 -0.00079992 0 0 Z " fill="#7ED958" transform="translate(153.26971626281738,-0.24888896942138672)"/>
<path d="M0 0 C112.2 0 224.4 0 340 0 C340 0.33 340 0.66 340 1 C241.33 1 142.66 1 41 1 C41 35.65 41 70.3 41 106 C48.67717285 105.96970703 56.3543457 105.93941406 64.26416016 105.90820312 C88.98507352 105.81076406 113.70598973 105.71406529 138.42690776 105.61781773 C142.28346587 105.60280207 146.14002396 105.58777998 149.99658203 105.57275391 C150.76417408 105.56976329 151.53176612 105.56677268 152.32261853 105.56369144 C164.66094727 105.51560483 176.99927391 105.4669999 189.33759983 105.41819459 C202.0504207 105.36791981 214.76324374 105.31822247 227.47606885 105.26903296 C234.59448679 105.24147396 241.71290353 105.21366076 248.8313179 105.18519592 C251.57208499 105.17426824 254.31285218 105.16336504 257.05361938 105.15246582 C257.72100569 105.14980259 258.388392 105.14713935 259.07600214 105.14439541 C269.72002842 105.10205487 280.3640655 105.06754374 291.00812995 105.03642988 C297.41946331 105.01631396 303.83052833 104.9837998 310.24171937 104.9366622 C313.88576222 104.91095217 317.52981732 104.89250199 321.17391086 104.87567997 C322.81071808 104.86623707 324.44750948 104.85328925 326.08425832 104.8365469 C328.26361849 104.81443825 330.44270974 104.80417861 332.62216187 104.79699707 C333.81806631 104.78791573 335.01397076 104.77883438 336.24611473 104.76947784 C339 105 339 105 341 107 C341.24723816 109.62550354 341.24723816 109.62550354 341.24291992 112.99438477 C341.24599655 114.25231339 341.24907318 115.510242 341.25224304 116.80628967 C341.24534582 118.18466372 341.23807889 119.56303596 341.23046875 120.94140625 C341.22927704 122.3486273 341.22882377 123.75584915 341.2290802 125.16307068 C341.22751513 128.11291479 341.21922299 131.06263758 341.20581055 134.01245117 C341.18880504 137.80131829 341.18499663 141.59005217 341.18575573 145.37895298 C341.18548437 148.28449281 341.18000893 151.19000328 341.17275429 154.09553337 C341.16956334 155.49303909 341.16759922 156.89054816 341.16686058 158.28805733 C341.16470242 160.23705357 341.15517313 162.18603752 341.14526367 164.13500977 C341.14145187 165.24594498 341.13764008 166.35688019 341.13371277 167.5014801 C341 170 341 170 340 171 C338.4048758 171.09704736 336.80543188 171.1237162 335.20735836 171.12304783 C334.16383203 171.12503888 333.12030571 171.12702993 332.04515737 171.12908131 C330.30443632 171.12471205 330.30443632 171.12471205 328.52854919 171.12025452 C327.30671261 171.12110894 326.08487603 171.12196337 324.8260141 171.12284368 C321.41918169 171.12421192 318.01240603 171.12106427 314.60558045 171.11606562 C310.93753375 171.11176457 307.26948894 171.1132073 303.60144043 171.1139679 C297.24118569 171.11449335 290.88094118 171.11134431 284.52068901 171.10573006 C275.32472655 171.09761796 266.12876905 171.09500014 256.9328034 171.09374207 C242.01452563 171.09155109 227.09625332 171.08488976 212.17797852 171.07543945 C197.68253609 171.06626652 183.18709514 171.05918511 168.69165039 171.05493164 C167.35237696 171.05453756 167.35237696 171.05453756 165.9860475 171.05413551 C161.50708084 171.05283051 157.02811417 171.05156679 152.54914749 171.05032361 C115.36609447 171.03994957 78.18304766 171.02233001 41 171 C41.03820541 180.328294 41.09778076 189.65614494 41.18390274 198.98412037 C41.22324633 203.31649501 41.25549858 207.6486704 41.27099609 211.98120117 C41.28624986 216.17008667 41.32084745 220.35842387 41.36830902 224.54706383 C41.38303362 226.13721613 41.39103584 227.72744676 41.39188385 229.31766701 C41.40568194 242.22981057 43.15444866 253.93699643 52 264 C62.00587568 272.88043447 72.85486512 275.60756481 85.97097778 275.51225281 C87.23332147 275.51904849 88.49566515 275.52584418 89.79626167 275.5328458 C93.26989816 275.55103641 96.74310891 275.54472546 100.21676064 275.53414643 C103.97398777 275.527108 107.73112661 275.54322669 111.48832703 275.55648804 C117.9881193 275.57634297 124.48779428 275.58184779 130.98761368 275.57755089 C140.38617969 275.57144611 149.78459645 275.58835179 159.18313216 275.61096082 C174.4352359 275.64712356 189.68731021 275.66632229 204.93945312 275.67407227 C219.74773511 275.68164664 234.55599012 275.69476596 249.36425781 275.71704102 C250.27781009 275.71841171 251.19136237 275.71978241 252.13259806 275.72119465 C262.09860379 275.73631098 272.06460626 275.75303656 282.03060722 275.77101612 C282.90539263 275.77258809 283.78017803 275.77416006 284.68147209 275.77577967 C291.87241904 275.78871084 291.87241904 275.78871084 295.16939484 275.79479728 C305.41468842 275.81363118 315.6599622 275.82749901 325.90527229 275.83259294 C332.32194252 275.83582438 338.73860448 275.84207232 345.1552697 275.8507212 C349.57659088 275.85645977 353.99788698 275.85806402 358.41921128 275.85648732 C361.71243511 275.85658915 365.00563965 275.86310955 368.29885864 275.86869812 C369.48296361 275.86694775 370.66706858 275.86519738 371.88705552 275.86339396 C372.95166532 275.86640161 374.01627512 275.86940926 375.11314583 275.87250805 C376.03939644 275.8729978 376.96564705 275.87348755 377.91996586 275.87399215 C380 276 380 276 381 277 C381.09925773 278.95824698 381.12799414 280.92009897 381.12939453 282.88085938 C381.13254669 284.13886353 381.13569885 285.39686768 381.13894653 286.69299316 C381.13715675 288.07657913 381.1351058 289.46016478 381.1328125 290.84375 C381.13348559 292.25240089 381.13445565 293.66105166 381.13571167 295.06970215 C381.13718842 298.02548323 381.13503483 300.98123414 381.13037109 303.93701172 C381.12467381 307.73374584 381.12795293 311.53040928 381.13394356 315.32714081 C381.13754979 318.23696428 381.1364103 321.14677088 381.13381577 324.05659485 C381.13314667 325.456894 381.13397432 326.85719467 381.13629532 328.25749207 C381.13882283 330.21137464 381.13429033 332.16526255 381.12939453 334.11914062 C381.12820114 335.79006775 381.12820114 335.79006775 381.12698364 337.49475098 C381 340 381 340 380 341 C378.14427422 341.09757776 376.28477914 341.12371364 374.42648983 341.12304783 C373.20879373 341.12503888 371.99109762 341.12702993 370.73650163 341.12908131 C369.36778618 341.12622772 367.99907092 341.12328211 366.63035583 341.12025452 C365.18993726 341.12069009 363.74951876 341.12156474 362.30910069 341.12284368 C358.33220075 341.12509134 354.35532749 341.12106368 350.37843096 341.11606562 C346.0968816 341.11176517 341.81533387 341.11320726 337.53378296 341.1139679 C330.10948261 341.11449339 322.68519102 341.11134395 315.26089287 341.10573006 C304.526476 341.09761848 293.79206338 341.09500019 283.05764378 341.09374207 C265.64365139 341.09155101 248.22966368 341.08488946 230.81567383 341.07543945 C213.89510115 341.06626673 196.97452974 341.05918521 180.05395508 341.05493164 C179.01175634 341.05466892 177.96955761 341.05440619 176.8957771 341.05413551 C171.66760687 341.05283051 166.43943664 341.0515668 161.2112664 341.05032361 C117.80750769 341.03994931 74.40375409 341.02232953 31 341 C31 340.67 31 340.34 31 340 C133.3 340 235.6 340 341 340 C341 319.21 341 298.42 341 277 C327.14435059 277.0314209 327.14435059 277.0314209 313.00878906 277.06347656 C283.43348569 277.12771391 253.85818202 277.1721859 224.28282697 277.20426132 C219.68676078 277.20926398 215.09069479 277.21444128 210.49462891 277.21972656 C209.5796579 277.2207758 208.66468689 277.22182505 207.72198948 277.22290608 C192.91848434 277.24029819 178.11504151 277.2718293 163.3115733 277.30861118 C148.11511248 277.34605385 132.91868423 277.36824288 117.72217917 277.37635398 C108.34960841 277.38183486 98.97721379 277.39912844 89.60469726 277.43166587 C83.17240893 277.45285482 76.7402113 277.45919015 70.30789062 277.45400551 C66.6000454 277.45145052 62.89250739 277.45529039 59.18471718 277.4768219 C55.15560003 277.50004724 51.12713073 277.49191327 47.09796143 277.48101807 C45.9383944 277.49266943 44.77882737 277.5043208 43.58412194 277.51632524 C30.20946535 277.41889649 20.65309878 273.29750025 11.06640625 264.15625 C1.9563562 254.59559532 -0.16061139 243.87606631 -0.12025452 231.12918091 C-0.12111053 230.14229782 -0.12196655 229.15541473 -0.12284851 228.1386261 C-0.1245025 224.82433258 -0.11898196 221.51008968 -0.11352539 218.19580078 C-0.11321904 215.78210387 -0.11335257 213.36840687 -0.11389065 210.95471001 C-0.11411648 204.48875555 -0.10831899 198.02281959 -0.10128021 191.55686951 C-0.09558691 185.49030499 -0.09531718 179.42374497 -0.09460449 173.35717773 C-0.08935636 155.61311604 -0.07539522 137.86905779 -0.0625 120.125 C-0.041875 80.48375 -0.02125 40.8425 0 0 Z " fill="#7FD958" transform="translate(145,65)"/>
<path d="M0 0 C0.64136719 -0.00260729 1.28273438 -0.00521457 1.94353694 -0.00790086 C4.10734302 -0.01423135 6.27086224 -0.00621908 8.43465996 0.00165081 C9.99571207 0.00006355 11.55676349 -0.00239922 13.11781299 -0.0056656 C17.41893248 -0.01209869 21.71995831 -0.00599588 26.02107167 0.00209868 C30.65503132 0.00866078 35.28898024 0.00373049 39.92294121 0.00021648 C49.00483305 -0.00483237 58.08668857 0.00082452 67.1685759 0.01006678 C77.73445387 0.02043414 88.30032393 0.02038105 98.86620604 0.01989421 C117.71104301 0.01939325 136.55586303 0.02856462 155.40069389 0.04307842 C173.70733766 0.05717052 192.0139665 0.06424905 210.32061577 0.06358624 C212.0122119 0.0635263 212.0122119 0.0635263 213.73798169 0.06346516 C214.8637198 0.0634248 215.9894579 0.06338445 217.14930928 0.06334287 C237.96303501 0.06265388 258.77675437 0.06853769 279.59047804 0.07749609 C286.96438244 0.08051838 294.33828568 0.08157634 301.71219063 0.08202839 C310.69063319 0.08270896 319.66906503 0.08715187 328.64750303 0.0963612 C333.23285487 0.10099318 337.81819295 0.10401956 342.40354729 0.10276699 C346.59408325 0.10167773 350.78458868 0.10515464 354.97511826 0.11241551 C356.49791544 0.11423955 358.02071575 0.11434885 359.54351307 0.11264823 C361.59975918 0.1106047 363.6560088 0.11521965 365.71224976 0.12025452 C366.8585181 0.12095894 368.00478644 0.12166337 369.18579018 0.12238914 C371.73028374 0.24888897 371.73028374 0.24888897 372.73028374 1.24888897 C372.82958906 3.23776391 372.85827835 5.23019314 372.85967827 7.22154522 C372.86283043 8.49957012 372.86598259 9.77759502 372.86923027 11.09434795 C372.86744049 12.50002864 372.86538954 13.90570901 372.86309624 15.31138897 C372.86376932 16.7424601 372.86473938 18.17353112 372.86599541 19.60460186 C372.86747218 22.60746121 372.8653185 25.61029087 372.86065483 28.61314678 C372.85495754 32.47041468 372.85823666 36.32761301 372.86422729 40.18487835 C372.86783348 43.14102488 372.86669406 46.09715479 372.8640995 49.05330181 C372.86343039 50.47592966 372.86425811 51.898559 372.86657906 53.32118511 C372.86910647 55.3062007 372.86457416 57.29122156 372.85967827 59.27623272 C372.85848488 60.97380718 372.85848488 60.97380718 372.85726738 62.70567608 C372.73028374 65.24888897 372.73028374 65.24888897 371.73028374 66.24888897 C369.3733318 66.34252896 367.04597702 66.37040549 364.68874073 66.35631943 C363.93963734 66.3557849 363.19053396 66.35525037 362.41873047 66.35469964 C359.87646649 66.35164069 357.33428082 66.34135644 354.79203606 66.33117962 C352.96388725 66.3274894 351.13573752 66.32423923 349.30758721 66.32139438 C344.25893123 66.31225115 339.21031056 66.29681667 334.16167367 66.2804116 C328.72674745 66.26383376 323.29180954 66.25300979 317.85687065 66.24150372 C308.43215676 66.2207557 299.00745812 66.19632391 289.58275986 66.1694231 C275.95605796 66.13053383 262.329347 66.09714896 248.70262743 66.06512784 C226.5966825 66.01303118 204.49075121 65.95646237 182.38482475 65.89708233 C160.90501254 65.83939474 139.42519658 65.78380565 117.94537163 65.7310667 C116.95276876 65.72862833 116.95276876 65.72862833 115.94011332 65.7261407 C108.63552022 65.70819919 101.33092698 65.69031527 94.02633369 65.67245495 C38.92763334 65.53768061 -16.17104661 65.39564453 -71.26971626 65.24888897 C-71.26971626 64.91888897 -71.26971626 64.58888897 -71.26971626 64.24888897 C-50.80971626 64.24888897 -30.34971626 64.24888897 -9.26971626 64.24888897 C-9.38851146 43.93456107 -9.38851146 43.93456107 -9.53997993 23.620471 C-9.54873791 21.08255165 -9.55638347 18.54462811 -9.56268501 16.00670147 C-9.57052513 15.34508007 -9.57836525 14.68345867 -9.58644295 14.00178814 C-9.60833797 12.0570811 -9.60973218 10.11217621 -9.61029243 8.167346 C-9.61695427 7.07036388 -9.6236161 5.97338177 -9.63047981 4.84315777 C-9.51142784 3.98704906 -9.39237587 3.13094036 -9.26971626 2.24888897 C-5.7124973 -0.12259034 -4.21947091 -0.00079992 0 0 Z " fill="#7ED857" transform="translate(153.26971626281738,-0.24888896942138672)"/>
<path d="M0 0 C112.2 0 224.4 0 340 0 C340 0.33 340 0.66 340 1 C241.33 1 142.66 1 41 1 C41 35.65 41 70.3 41 106 C40.67 127.12 40.34 148.24 40 170 C125.8 170 211.6 170 300 170 C300 170.33 300 170.66 300 171 C214.53 171 129.06 171 41 171 C36.24065602 216.9066396 36.24065602 216.9066396 52 264 C62.00587568 272.88043447 72.85486512 275.60756481 85.97097778 275.51225281 C87.23332147 275.51904849 88.49566515 275.52584418 89.79626167 275.5328458 C93.26989816 275.55103641 96.74310891 275.54472546 100.21676064 275.53414643 C103.97398777 275.527108 107.73112661 275.54322669 111.48832703 275.55648804 C117.9881193 275.57634297 124.48779428 275.58184779 130.98761368 275.57755089 C140.38617969 275.57144611 149.78459645 275.58835179 159.18313216 275.61096082 C174.4352359 275.64712356 189.68731021 275.66632229 204.93945312 275.67407227 C219.74773511 275.68164664 234.55599012 275.69476596 249.36425781 275.71704102 C250.27781009 275.71841171 251.19136237 275.71978241 252.13259806 275.72119465 C262.09860379 275.73631098 272.06460626 275.75303656 282.03060722 275.77101612 C282.90539263 275.77258809 283.78017803 275.77416006 284.68147209 275.77577967 C291.87241904 275.78871084 291.87241904 275.78871084 295.16939484 275.79479728 C305.41468842 275.81363118 315.6599622 275.82749901 325.90527229 275.83259294 C332.32194252 275.83582438 338.73860448 275.84207232 345.1552697 275.8507212 C349.57659088 275.85645977 353.99788698 275.85806402 358.41921128 275.85648732 C361.71243511 275.85658915 365.00563965 275.86310955 368.29885864 275.86869812 C369.48296361 275.86694775 370.66706858 275.86519738 371.88705552 275.86339396 C372.95166532 275.86640161 374.01627512 275.86940926 375.11314583 275.87250805 C376.03939644 275.8729978 376.96564705 275.87348755 377.91996586 275.87399215 C380 276 380 276 381 277 C381.09925773 278.95824698 381.12799414 280.92009897 381.12939453 282.88085938 C381.13254669 284.13886353 381.13569885 285.39686768 381.13894653 286.69299316 C381.13715675 288.07657913 381.1351058 289.46016478 381.1328125 290.84375 C381.13348559 292.25240089 381.13445565 293.66105166 381.13571167 295.06970215 C381.13718842 298.02548323 381.13503483 300.98123414 381.13037109 303.93701172 C381.12467381 307.73374584 381.12795293 311.53040928 381.13394356 315.32714081 C381.13754979 318.23696428 381.1364103 321.14677088 381.13381577 324.05659485 C381.13314667 325.456894 381.13397432 326.85719467 381.13629532 328.25749207 C381.13882283 330.21137464 381.13429033 332.16526255 381.12939453 334.11914062 C381.12820114 335.79006775 381.12820114 335.79006775 381.12698364 337.49475098 C381 340 381 340 380 341 C378.14427422 341.09757776 376.28477914 341.12371364 374.42648983 341.12304783 C373.20879373 341.12503888 371.99109762 341.12702993 370.73650163 341.12908131 C369.36778618 341.12622772 367.99907092 341.12328211 366.63035583 341.12025452 C365.18993726 341.12069009 363.74951876 341.12156474 362.30910069 341.12284368 C358.33220075 341.12509134 354.35532749 341.12106368 350.37843096 341.11606562 C346.0968816 341.11176517 341.81533387 341.11320726 337.53378296 341.1139679 C330.10948261 341.11449339 322.68519102 341.11134395 315.26089287 341.10573006 C304.526476 341.09761848 293.79206338 341.09500019 283.05764378 341.09374207 C265.64365139 341.09155101 248.22966368 341.08488946 230.81567383 341.07543945 C213.89510115 341.06626673 196.97452974 341.05918521 180.05395508 341.05493164 C179.01175634 341.05466892 177.96955761 341.05440619 176.8957771 341.05413551 C171.66760687 341.05283051 166.43943664 341.0515668 161.2112664 341.05032361 C117.80750769 341.03994931 74.40375409 341.02232953 31 341 C31 340.67 31 340.34 31 340 C133.3 340 235.6 340 341 340 C341 319.21 341 298.42 341 277 C327.14435059 277.0314209 327.14435059 277.0314209 313.00878906 277.06347656 C283.43348569 277.12771391 253.85818202 277.1721859 224.28282697 277.20426132 C219.68676078 277.20926398 215.09069479 277.21444128 210.49462891 277.21972656 C209.5796579 277.2207758 208.66468689 277.22182505 207.72198948 277.22290608 C192.91848434 277.24029819 178.11504151 277.2718293 163.3115733 277.30861118 C148.11511248 277.34605385 132.91868423 277.36824288 117.72217917 277.37635398 C108.34960841 277.38183486 98.97721379 277.39912844 89.60469726 277.43166587 C83.17240893 277.45285482 76.7402113 277.45919015 70.30789062 277.45400551 C66.6000454 277.45145052 62.89250739 277.45529039 59.18471718 277.4768219 C55.15560003 277.50004724 51.12713073 277.49191327 47.09796143 277.48101807 C45.9383944 277.49266943 44.77882737 277.5043208 43.58412194 277.51632524 C30.20946535 277.41889649 20.65309878 273.29750025 11.06640625 264.15625 C1.9563562 254.59559532 -0.16061139 243.87606631 -0.12025452 231.12918091 C-0.12111053 230.14229782 -0.12196655 229.15541473 -0.12284851 228.1386261 C-0.1245025 224.82433258 -0.11898196 221.51008968 -0.11352539 218.19580078 C-0.11321904 215.78210387 -0.11335257 213.36840687 -0.11389065 210.95471001 C-0.11411648 204.48875555 -0.10831899 198.02281959 -0.10128021 191.55686951 C-0.09558691 185.49030499 -0.09531718 179.42374497 -0.09460449 173.35717773 C-0.08935636 155.61311604 -0.07539522 137.86905779 -0.0625 120.125 C-0.041875 80.48375 -0.02125 40.8425 0 0 Z " fill="#FE71C7" transform="translate(145,65)"/>
<path d="M0 0 C0.64136719 -0.00260729 1.28273438 -0.00521457 1.94353694 -0.00790086 C4.10734302 -0.01423135 6.27086224 -0.00621908 8.43465996 0.00165081 C9.99571207 0.00006355 11.55676349 -0.00239922 13.11781299 -0.0056656 C17.41893248 -0.01209869 21.71995831 -0.00599588 26.02107167 0.00209868 C30.65503132 0.00866078 35.28898024 0.00373049 39.92294121 0.00021648 C49.00483305 -0.00483237 58.08668857 0.00082452 67.1685759 0.01006678 C77.73445387 0.02043414 88.30032393 0.02038105 98.86620604 0.01989421 C117.71104301 0.01939325 136.55586303 0.02856462 155.40069389 0.04307842 C173.70733766 0.05717052 192.0139665 0.06424905 210.32061577 0.06358624 C212.0122119 0.0635263 212.0122119 0.0635263 213.73798169 0.06346516 C214.8637198 0.0634248 215.9894579 0.06338445 217.14930928 0.06334287 C237.96303501 0.06265388 258.77675437 0.06853769 279.59047804 0.07749609 C286.96438244 0.08051838 294.33828568 0.08157634 301.71219063 0.08202839 C310.69063319 0.08270896 319.66906503 0.08715187 328.64750303 0.0963612 C333.23285487 0.10099318 337.81819295 0.10401956 342.40354729 0.10276699 C346.59408325 0.10167773 350.78458868 0.10515464 354.97511826 0.11241551 C356.49791544 0.11423955 358.02071575 0.11434885 359.54351307 0.11264823 C361.59975918 0.1106047 363.6560088 0.11521965 365.71224976 0.12025452 C366.8585181 0.12095894 368.00478644 0.12166337 369.18579018 0.12238914 C371.73028374 0.24888897 371.73028374 0.24888897 372.73028374 1.24888897 C372.82958906 3.23776391 372.85827835 5.23019314 372.85967827 7.22154522 C372.86283043 8.49957012 372.86598259 9.77759502 372.86923027 11.09434795 C372.86744049 12.50002864 372.86538954 13.90570901 372.86309624 15.31138897 C372.86376932 16.7424601 372.86473938 18.17353112 372.86599541 19.60460186 C372.86747218 22.60746121 372.8653185 25.61029087 372.86065483 28.61314678 C372.85495754 32.47041468 372.85823666 36.32761301 372.86422729 40.18487835 C372.86783348 43.14102488 372.86669406 46.09715479 372.8640995 49.05330181 C372.86343039 50.47592966 372.86425811 51.898559 372.86657906 53.32118511 C372.86910647 55.3062007 372.86457416 57.29122156 372.85967827 59.27623272 C372.85848488 60.97380718 372.85848488 60.97380718 372.85726738 62.70567608 C372.73028374 65.24888897 372.73028374 65.24888897 371.73028374 66.24888897 C368.84617199 66.33753409 365.98545565 66.36417423 363.10137749 66.34654522 C361.95288322 66.3450346 361.95288322 66.3450346 360.78118706 66.34349346 C357.91003747 66.3382456 355.03890916 66.32428444 352.16778374 66.31138897 C345.75340874 66.29076397 339.33903374 66.27013897 332.73028374 66.24888897 C332.73028374 45.12888897 332.73028374 24.00888897 332.73028374 2.24888897 C220.53028374 2.24888897 108.33028374 2.24888897 -7.26971626 2.24888897 C-7.26971626 22.70888897 -7.26971626 43.16888897 -7.26971626 64.24888897 C-8.26971626 65.24888897 -8.26971626 65.24888897 -10.78169441 65.36914349 C-11.89866203 65.36692287 -13.01562965 65.36470226 -14.16644478 65.36241436 C-15.42767662 65.36233883 -16.68890846 65.3622633 -17.98835945 65.36218548 C-19.3751142 65.35707807 -20.76186855 65.35186206 -22.14862251 65.34654522 C-23.55966835 65.34468098 -24.97071484 65.34325711 -26.38176155 65.3422575 C-30.10212162 65.33843276 -33.82244286 65.32860287 -37.54278755 65.31755352 C-41.33652407 65.30733845 -45.13026684 65.30275967 -48.92401314 65.29771709 C-56.37259857 65.28698055 -63.82115199 65.26990467 -71.26971626 65.24888897 C-71.26971626 64.91888897 -71.26971626 64.58888897 -71.26971626 64.24888897 C-50.80971626 64.24888897 -30.34971626 64.24888897 -9.26971626 64.24888897 C-9.38851146 43.93456107 -9.38851146 43.93456107 -9.53997993 23.620471 C-9.54873791 21.08255165 -9.55638347 18.54462811 -9.56268501 16.00670147 C-9.57052513 15.34508007 -9.57836525 14.68345867 -9.58644295 14.00178814 C-9.60833797 12.0570811 -9.60973218 10.11217621 -9.61029243 8.167346 C-9.61695427 7.07036388 -9.6236161 5.97338177 -9.63047981 4.84315777 C-9.51142784 3.98704906 -9.39237587 3.13094036 -9.26971626 2.24888897 C-5.7124973 -0.12259034 -4.21947091 -0.00079992 0 0 Z " fill="#F38CC5" transform="translate(153.26971626281738,-0.24888896942138672)"/>
<path d="M0 0 C39.09296239 -0.02286486 78.18592391 -0.04049745 117.27889165 -0.05106533 C121.88913416 -0.05231611 126.49937665 -0.05361042 131.10961914 -0.05493164 C132.02747557 -0.05519395 132.94533199 -0.05545626 133.89100225 -0.05572652 C148.77303936 -0.06008354 163.65507263 -0.06797126 178.53710746 -0.0771528 C193.79566949 -0.08648846 209.0542295 -0.09205542 224.31279427 -0.09408849 C233.73599554 -0.0954639 243.15918595 -0.09981546 252.58238388 -0.10791647 C259.03513198 -0.11318285 265.48787443 -0.11480454 271.94062453 -0.11350138 C275.6692715 -0.11285783 279.39789942 -0.11387741 283.12654305 -0.11920547 C287.15932079 -0.1249264 291.19205742 -0.12300118 295.22483826 -0.12025452 C297.01225068 -0.12462378 297.01225068 -0.12462378 298.83577245 -0.12908131 C300.44286269 -0.12609474 300.44286269 -0.12609474 302.0824194 -0.12304783 C303.48073951 -0.12361741 303.48073951 -0.12361741 304.90730852 -0.1241985 C307 0 307 0 308 1 C308.09925773 2.95824698 308.12799414 4.92009897 308.12939453 6.88085938 C308.13254669 8.13886353 308.13569885 9.39686768 308.13894653 10.69299316 C308.13715675 12.07657913 308.1351058 13.46016478 308.1328125 14.84375 C308.13348559 16.25240089 308.13445565 17.66105166 308.13571167 19.06970215 C308.13718842 22.02548323 308.13503483 24.98123414 308.13037109 27.93701172 C308.12467381 31.73374584 308.12795293 35.53040928 308.13394356 39.32714081 C308.13754979 42.23696428 308.1364103 45.14677088 308.13381577 48.05659485 C308.13314667 49.456894 308.13397432 50.85719467 308.13629532 52.25749207 C308.13882283 54.21137464 308.13429033 56.16526255 308.12939453 58.11914062 C308.12820114 59.79006775 308.12820114 59.79006775 308.12698364 61.49475098 C308 64 308 64 307 65 C305.14427422 65.09757776 303.28477914 65.12371364 301.42648983 65.12304783 C300.20879373 65.12503888 298.99109762 65.12702993 297.73650163 65.12908131 C296.36778618 65.12622772 294.99907092 65.12328211 293.63035583 65.12025452 C292.18993726 65.12069009 290.74951876 65.12156474 289.30910069 65.12284368 C285.33220075 65.12509134 281.35532749 65.12106368 277.37843096 65.11606562 C273.0968816 65.11176517 268.81533387 65.11320726 264.53378296 65.1139679 C257.10948261 65.11449339 249.68519102 65.11134395 242.26089287 65.10573006 C231.526476 65.09761848 220.79206338 65.09500019 210.05764378 65.09374207 C192.64365139 65.09155101 175.22966368 65.08488946 157.81567383 65.07543945 C140.89510115 65.06626673 123.97452974 65.05918521 107.05395508 65.05493164 C106.01175634 65.05466892 104.96955761 65.05440619 103.8957771 65.05413551 C98.66760687 65.05283051 93.43943664 65.0515668 88.2112664 65.05032361 C44.80750769 65.03994931 1.40375409 65.02232953 -42 65 C-42 64.67 -42 64.34 -42 64 C60.3 64 162.6 64 268 64 C268 43.21 268 22.42 268 1 C179.56 1 91.12 1 0 1 C0 0.67 0 0.34 0 0 Z " fill="#F881C6" transform="translate(218,341)"/>
<path d="M0 0 C0.83729141 -0.0033284 1.67458282 -0.0066568 2.5372467 -0.01008606 C4.31185353 -0.01515881 6.08646992 -0.01749428 7.86108398 -0.01733398 C10.58267881 -0.01951922 13.30386768 -0.03766758 16.02539062 -0.05664062 C17.74609236 -0.05957467 19.46679602 -0.06155939 21.1875 -0.0625 C22.00524399 -0.06968552 22.82298798 -0.07687103 23.66551208 -0.08427429 C29.43133421 -0.06085329 29.43133421 -0.06085329 31.66015625 2.16796875 C31.90739441 4.79347229 31.90739441 4.79347229 31.90307617 8.16235352 C31.90769112 10.04924644 31.90769112 10.04924644 31.91239929 11.97425842 C31.90550207 13.35263247 31.89823514 14.73100471 31.890625 16.109375 C31.88943329 17.51659605 31.88898002 18.9238179 31.88923645 20.33103943 C31.88767138 23.28088354 31.87937924 26.23060633 31.8659668 29.18041992 C31.84896129 32.96928704 31.84515288 36.75802092 31.84591198 40.54692173 C31.84564062 43.45246156 31.84016518 46.35797203 31.83291054 49.26350212 C31.82971959 50.66100784 31.82775547 52.05851691 31.82701683 53.45602608 C31.82485867 55.40502232 31.81532938 57.35400627 31.80541992 59.30297852 C31.79970222 60.96938133 31.79970222 60.96938133 31.79386902 62.66944885 C31.66015625 65.16796875 31.66015625 65.16796875 30.66015625 66.16796875 C27.78751569 66.26903749 24.93941997 66.30766547 22.06640625 66.30078125 C21.20454712 66.30173798 20.34268799 66.3026947 19.45471191 66.30368042 C17.62882413 66.30436225 15.80293394 66.30250779 13.97705078 66.29833984 C11.17214547 66.29299161 8.3674003 66.29828474 5.5625 66.3046875 C3.79296839 66.30402672 2.02343689 66.30274556 0.25390625 66.30078125 C-0.5908728 66.30280548 -1.43565186 66.30482971 -2.30603027 66.30691528 C-8.22489344 66.28291906 -8.22489344 66.28291906 -9.33984375 65.16796875 C-9.43914908 63.17909381 -9.46783837 61.18666458 -9.46923828 59.1953125 C-9.47239044 57.9172876 -9.4755426 56.6392627 -9.47879028 55.32250977 C-9.4770005 53.91682908 -9.47494955 52.5111487 -9.47265625 51.10546875 C-9.47332933 49.67439762 -9.47429939 48.2433266 -9.47555542 46.81225586 C-9.47703219 43.80939651 -9.47487851 40.80656685 -9.47021484 37.80371094 C-9.46451756 33.94644304 -9.46779667 30.08924471 -9.47378731 26.23197937 C-9.47739349 23.27583284 -9.47625407 20.31970292 -9.47365952 17.36355591 C-9.4729904 15.94092806 -9.47381812 14.51829872 -9.47613907 13.09567261 C-9.47866649 11.11065701 -9.47413417 9.12563616 -9.46923828 7.140625 C-9.46844269 6.00890869 -9.46764709 4.87719238 -9.46682739 3.71118164 C-9.19588241 -1.71527138 -4.30199903 0.0058399 0 0 Z " fill="#FD70C7" transform="translate(454.33984375,169.83203125)"/>
<path d="M0 0 C112.2 0 224.4 0 340 0 C340 20.79 340 41.58 340 63 C227.47 63 114.94 63 -1 63 C-0.67 42.21 -0.34 21.42 0 0 Z M1 1 C1 20.8 1 40.6 1 61 C112.21 61 223.42 61 338 61 C338 41.2 338 21.4 338 1 C226.79 1 115.58 1 1 1 Z " fill="#86D65F" transform="translate(146,2)"/>
</svg>
