<?xml version="1.0" encoding="UTF-8"?>
<svg version="1.1" xmlns="http://www.w3.org/2000/svg" width="612" height="408">
<path d="M0 0 C1.12550923 0.00414807 1.12550923 0.00414807 2.27375603 0.00837994 C3.13474907 0.00425594 3.99574211 0.00013195 4.88282585 -0.00411701 C5.82941063 0.00666882 6.77599541 0.01745464 7.75126457 0.02856731 C8.74642082 0.02812923 9.74157707 0.02769115 10.76688957 0.0272398 C14.06770525 0.02933566 17.36801772 0.05270449 20.66874504 0.07617474 C22.95274897 0.08176785 25.23675649 0.08603929 27.5207653 0.0890379 C33.5411397 0.10050904 39.561298 0.12999583 45.58158684 0.16314983 C51.72128692 0.1938018 57.8610218 0.2075328 64.00077629 0.22265911 C76.05425681 0.25486329 88.10757673 0.30608707 100.16093254 0.36914349 C101.41255624 2.87239088 101.28693645 4.55838701 101.28842449 7.3606348 C101.29143214 8.42313556 101.29443979 9.48563632 101.29753858 10.58033407 C101.29578821 11.75695313 101.29403783 12.93357219 101.29223442 14.14584637 C101.29540799 16.01005999 101.29540799 16.01005999 101.29864568 17.91193449 C101.30257766 20.64895783 101.30466164 23.38591213 101.30368042 26.12293148 C101.30209098 30.57606429 101.30728282 35.02917455 101.31330681 39.48230267 C101.32142943 45.94945932 101.3263671 52.41661203 101.32959747 58.88377285 C101.33509131 69.1115488 101.3519874 79.33929134 101.37093925 89.56704998 C101.37729659 93.06588835 101.38360499 96.5647268 101.38991642 100.06356525 C101.39150018 100.93808314 101.39308394 101.81260103 101.3947157 102.71361946 C101.4126629 112.67512637 101.42888254 122.63663564 101.44389153 132.59814739 C101.4452674 133.50899678 101.44664327 134.41984618 101.44806083 135.35829706 C101.46996415 150.10020837 101.48074004 164.8421111 101.48826227 179.5840358 C101.49634243 194.72184164 101.5196647 209.85957404 101.55621594 224.99733794 C101.57820989 234.33162007 101.58791509 243.66575105 101.58171561 253.00005777 C101.57853315 259.40479784 101.5899229 265.80940922 101.61261002 272.21410947 C101.62523793 275.90573772 101.63149649 279.59707914 101.62019348 283.28871822 C101.60806951 287.30026778 101.6270167 291.31109486 101.64867973 295.32260418 C101.6402372 296.47691602 101.63179466 297.63122786 101.62309629 298.82051885 C101.73393868 309.960934 104.58722851 320.899625 112.16093254 329.36914349 C125.13012905 340.85679734 138.83649954 340.95742392 155.2712841 340.91504192 C157.51502508 340.92378727 159.75875984 340.93427639 162.00248528 340.94636822 C168.08282074 340.97419524 174.16295251 340.97763281 180.2433424 340.97664833 C186.64997945 340.97979453 193.05652729 341.00546734 199.4631176 341.02862835 C210.25008947 341.06459704 221.03699571 341.08668245 231.82401848 341.09814739 C242.83186694 341.10988424 253.83964603 341.12995792 264.84745598 341.16162395 C265.52147226 341.16356006 266.19548854 341.16549616 266.88992956 341.16749093 C270.27727166 341.17726984 273.66461328 341.18720381 277.05195475 341.19719553 C297.36196137 341.25684446 317.67197993 341.30575421 337.98205328 341.33566236 C340.25948033 341.33907361 342.53690707 341.34269232 344.81433344 341.34652948 C356.27141755 341.36581319 367.72816575 341.37275335 379.18522453 341.33850384 C381.0434384 341.33406294 382.90165245 341.3297028 384.75986671 341.32543087 C388.16963896 341.31758507 391.57929941 341.30336612 394.98903084 341.28526211 C396.47664896 341.28133613 397.96426773 341.27764421 399.45188713 341.27423382 C400.73296223 341.26849976 402.01403732 341.26276569 403.33393288 341.25685787 C406.16093254 341.36914349 406.16093254 341.36914349 407.16093254 342.36914349 C407.26019027 344.32739046 407.28892668 346.28924246 407.29032707 348.25000286 C407.29347923 349.50800701 407.29663139 350.76601116 407.29987907 352.06213665 C407.29808929 353.44572262 407.29603834 354.82930826 407.29374504 356.21289349 C407.29441813 357.62154437 407.29538819 359.03019515 407.29664421 360.43884563 C407.29812096 363.39462671 407.29596737 366.35037762 407.29130363 369.3061552 C407.28560635 373.10288933 407.28888547 376.89955277 407.2948761 380.69628429 C407.29848233 383.60610777 407.29734284 386.51591437 407.29474831 389.42573833 C407.29407921 390.82603749 407.29490686 392.22633816 407.29722786 393.62663555 C407.29975537 395.58051812 407.29522287 397.53440604 407.29032707 399.48828411 C407.28913368 401.15921124 407.28913368 401.15921124 407.28791618 402.86389446 C407.16093254 405.36914349 407.16093254 405.36914349 406.16093254 406.36914349 C404.49551737 406.46815043 402.82587437 406.49653945 401.15751934 406.49777794 C400.06689247 406.50100239 398.9762656 406.50422683 397.85258943 406.50754899 C396.03281014 406.50522608 396.03281014 406.50522608 394.17626762 406.50285625 C392.26032438 406.50625459 392.26032438 406.50625459 390.30567521 406.50972158 C386.74346099 406.51587022 383.18127013 406.51570238 379.61905181 406.5145272 C375.78304292 406.51432394 371.94704167 406.51983511 368.1110363 406.52458477 C360.58597199 406.5329109 353.06091551 406.53564058 345.53584699 406.53619715 C339.41518434 406.53667181 333.29452428 406.53872405 327.17386246 406.54189777 C309.81936712 406.55071316 292.46487798 406.55531629 275.11038039 406.5545673 C274.17372031 406.55452734 273.23706024 406.55448739 272.27201653 406.55444622 C271.33421072 406.55440534 270.39640491 406.55436446 269.43018075 406.55432234 C254.25952068 406.55391661 239.08888553 406.56346533 223.91823266 406.57758459 C208.33978067 406.59196869 192.7613408 406.59885351 177.18288201 406.59799081 C168.43767859 406.59765933 159.69250121 406.60038448 150.94730377 406.61116886 C143.49384243 406.62030109 136.04041892 406.62242719 128.58695439 406.61565944 C124.78781168 406.61240665 120.98874142 406.61229207 117.18960571 406.62101269 C113.05847797 406.63039705 108.92751607 406.6240685 104.79638481 406.61638165 C103.612198 406.62152521 102.42801118 406.62666877 101.20793992 406.6319682 C89.95062215 406.585931 78.81924936 405.44825739 68.16093254 401.68164349 C67.40530022 401.41964153 66.64966789 401.15763958 65.87113762 400.88769817 C38.774834 391.2090185 17.7152219 371.74070422 5.28593254 345.86914349 C2.00037938 338.65539536 -0.3885741 331.16830461 -1.83906746 323.36914349 C-2.09096903 322.05702829 -2.09096903 322.05702829 -2.34795952 320.71840572 C-4.4792938 307.52183187 -4.12472688 294.21734404 -4.1005168 280.88652444 C-4.09595068 277.16071722 -4.10299609 273.43492807 -4.10847664 269.70912457 C-4.11732518 262.43296684 -4.11546993 255.1568506 -4.10965136 247.88069132 C-4.10512106 241.96955355 -4.10452784 236.05842734 -4.10669899 230.14728832 C-4.10700546 229.30370166 -4.10731192 228.460115 -4.10762767 227.59096511 C-4.10826715 225.87700031 -4.10891558 224.16303551 -4.10957286 222.44907072 C-4.11526174 206.41814631 -4.10873878 190.38724487 -4.09797212 174.35632423 C-4.08901836 160.59805333 -4.09060643 146.83981614 -4.09980965 133.08154583 C-4.11050414 117.08649333 -4.11473309 101.09146084 -4.10858512 85.09640527 C-4.10794803 83.39267334 -4.10731929 81.6889414 -4.10669899 79.98520947 C-4.10639044 79.14700279 -4.10608189 78.30879611 -4.10576399 77.44518922 C-4.10403603 71.534325 -4.10695389 65.62347346 -4.1116581 59.7126112 C-4.11725693 52.52011234 -4.11577076 45.32765716 -4.10509661 38.13516334 C-4.09982942 34.46488002 -4.09780117 30.79466962 -4.10439491 27.12438679 C-4.11142353 23.15219953 -4.1030497 19.18013256 -4.09303474 15.20794964 C-4.09749619 14.04018073 -4.10195763 12.87241182 -4.10655427 11.66925597 C-4.10133878 10.61009766 -4.09612328 9.55093935 -4.09074974 8.45968533 C-4.09042504 7.54243797 -4.09010033 6.62519062 -4.08976579 5.68014789 C-3.77009839 2.73336809 -3.13854597 0.62997896 0 0 Z " fill="#80D959" transform="translate(101.83906745910645,-0.3691434860229492)"/>
<path d="M0 0 C12.87 0 25.74 0 39 0 C40.25162369 2.50324739 40.12600391 4.18924353 40.12749195 6.99149132 C40.1304996 8.05399207 40.13350725 9.11649283 40.13660604 10.21119058 C40.13485567 11.38780964 40.13310529 12.5644287 40.13130188 13.77670288 C40.13341759 15.01951196 40.13553331 16.26232105 40.13771313 17.54279101 C40.14164512 20.27981434 40.1437291 23.01676864 40.14274788 25.75378799 C40.14115843 30.20692081 40.14635028 34.66003107 40.15237427 39.11315918 C40.16049689 45.58031584 40.16543456 52.04746854 40.16866493 58.51462936 C40.17415877 68.74240531 40.19105486 78.97014785 40.21000671 89.19790649 C40.21636404 92.69674486 40.22267245 96.19558332 40.22898388 99.69442177 C40.23056764 100.56893966 40.2321514 101.44345755 40.23378316 102.34447598 C40.25173036 112.30598288 40.26795 122.26749216 40.28295898 132.22900391 C40.28433486 133.1398533 40.28571073 134.05070269 40.28712829 134.98915358 C40.30903161 149.73106489 40.3198075 164.47296762 40.32732973 179.21489231 C40.33540989 194.35269815 40.35873216 209.49043055 40.3952834 224.62819445 C40.41727735 233.96247658 40.42698255 243.29660756 40.42078307 252.63091429 C40.41760061 259.03565436 40.42899036 265.44026573 40.45167748 271.84496598 C40.46430539 275.53659423 40.47056394 279.22793565 40.45926094 282.91957474 C40.44713697 286.93112429 40.46608416 290.94195138 40.48774719 294.95346069 C40.47930466 296.10777254 40.47086212 297.26208438 40.46216375 298.45137537 C40.57300614 309.59179051 43.42629597 320.53048151 51 329 C54.13384952 331.77585265 57.29519316 334.05035133 61 336 C61.62974889 336.33415546 62.25949778 336.66831093 62.90832996 337.01259232 C72.9709309 341.49084042 83.85671492 340.57302869 94.63745117 340.54589844 C96.9346181 340.5546414 99.23177894 340.56512969 101.52893066 340.57722473 C107.74093981 340.60501644 113.95274957 340.60849091 120.16481185 340.60750484 C126.66577192 340.61063979 133.16664297 340.63627016 139.66755676 340.65948486 C150.57109593 340.69540465 161.47458255 340.71753704 172.37817383 340.72900391 C183.60411966 340.74084782 194.82999932 340.76107421 206.0559082 340.79248047 C206.74898821 340.79441657 207.44206823 340.79635267 208.15615066 340.79834744 C211.63346268 340.80811263 215.11077421 340.81804163 218.58808553 340.82805204 C247.39202134 340.91076067 276.19596877 340.96452208 305 341 C305 341.33 305 341.66 305 342 C270.53606959 342.09161649 236.07216705 342.16206964 201.60814111 342.20426132 C197.53653072 342.20926396 193.46492057 342.21444127 189.39331055 342.21972656 C188.58274874 342.2207758 187.77218694 342.22182505 186.93706266 342.22290608 C173.82387435 342.24029684 160.7107564 342.27182718 147.59760978 342.30861118 C134.13572333 342.34605765 120.67387365 342.36824368 107.21193725 342.37635398 C98.90957852 342.38183408 90.6074187 342.39912334 82.30512122 342.43166587 C76.60683618 342.45285954 70.90865351 342.45918911 65.21033194 342.45400551 C61.92585723 342.45145121 58.64180095 342.45749022 55.35737228 342.4768219 C51.78763131 342.49679906 48.21873309 342.49191004 44.64897156 342.48101807 C43.62267488 342.49266943 42.5963782 342.5043208 41.53898162 342.51632524 C29.73698382 342.41936336 19.32900024 338.06998421 10.8046875 329.89453125 C0.54813339 318.89995941 -1.31262487 308.07631514 -1.24723816 293.39015198 C-1.24965257 292.14247337 -1.25206699 290.89479476 -1.25455457 289.60930771 C-1.25919723 286.16734275 -1.25492764 282.7256028 -1.24679029 279.28365862 C-1.24018594 275.56390373 -1.24516757 271.84416151 -1.24867249 268.12440491 C-1.25370295 260.84775654 -1.24808817 253.57115378 -1.23882218 246.29451109 C-1.22842252 237.82246326 -1.22850876 229.3504252 -1.22899476 220.87837218 C-1.22949488 205.76827041 -1.2203455 190.65818983 -1.20581055 175.5480957 C-1.1917066 160.87849542 -1.18464056 146.20891379 -1.18530273 131.53930664 C-1.18534269 130.6347553 -1.18538265 129.73020396 -1.18542381 128.79824198 C-1.18548435 127.44377853 -1.18548435 127.44377853 -1.1855461 126.06195217 C-1.18623522 109.36303258 -1.18035232 92.66412092 -1.17139288 75.9652039 C-1.16837306 70.05544678 -1.16731293 64.14569111 -1.16686058 58.2359333 C-1.16617972 51.04253833 -1.16173242 43.84915674 -1.15252777 36.65576745 C-1.14789983 32.98364426 -1.14486797 29.31153823 -1.14612198 25.63941193 C-1.14741296 21.6665819 -1.14099039 17.69378662 -1.13371277 13.72096252 C-1.13526137 12.550079 -1.13680997 11.37919548 -1.1384055 10.17283064 C-1.13518106 9.11544658 -1.13195661 8.05806252 -1.12863445 6.96863651 C-1.12793003 6.05079476 -1.1272256 5.13295302 -1.12649983 4.18729788 C-1 2 -1 2 0 0 Z " fill="#FC6DC4" transform="translate(163,0)"/>
<path d="M0 0 C0.84477905 0.00202423 1.68955811 0.00404846 2.55993652 0.00613403 C3.42179565 0.00517731 4.28365479 0.00422058 5.17163086 0.00323486 C6.99751864 0.00255304 8.82340884 0.00440749 10.64929199 0.00857544 C13.45419731 0.01392367 16.25894248 0.00863054 19.06384277 0.00222778 C20.83337438 0.00288856 22.60290588 0.00416973 24.37243652 0.00613403 C25.21721558 0.0041098 26.06199463 0.00208557 26.93237305 0 C32.85123621 0.02399622 32.85123621 0.02399622 33.96618652 1.13894653 C34.06544425 3.09719351 34.09418066 5.0590455 34.09558105 7.01980591 C34.09873322 8.27781006 34.10188538 9.53581421 34.10513306 10.8319397 C34.10334328 12.21552566 34.10129232 13.59911131 34.09899902 14.98269653 C34.09967211 16.39134742 34.10064218 17.79999819 34.10189819 19.20864868 C34.10337494 22.16442976 34.10122135 25.12018067 34.09655762 28.07595825 C34.09086033 31.87269237 34.09413946 35.66935581 34.10013008 39.46608734 C34.10373632 42.37591081 34.10259682 45.28571741 34.10000229 48.19554138 C34.09933319 49.59584054 34.10016084 50.99614121 34.10248184 52.3964386 C34.10500935 54.35032117 34.10047686 56.30420908 34.09558105 58.25808716 C34.09478546 59.37203857 34.09398987 60.48598999 34.09317017 61.63369751 C33.96618652 64.13894653 33.96618652 64.13894653 32.96618652 65.13894653 C30.09354596 65.24001527 27.24545024 65.27864325 24.37243652 65.27175903 C23.51057739 65.27271576 22.64871826 65.27367249 21.76074219 65.2746582 C19.9348544 65.27534003 18.10896421 65.27348558 16.28308105 65.26931763 C13.47817574 65.26396939 10.67343057 65.26926253 7.86853027 65.27566528 C6.09899867 65.2750045 4.32946716 65.27372334 2.55993652 65.27175903 C1.71515747 65.27378326 0.87037842 65.2758075 0 65.27789307 C-5.91886316 65.25389685 -5.91886316 65.25389685 -7.03381348 64.13894653 C-7.13307121 62.18069955 -7.16180762 60.21884756 -7.16320801 58.25808716 C-7.16636017 57.00008301 -7.16951233 55.74207886 -7.17276001 54.44595337 C-7.17097023 53.0623674 -7.16891928 51.67878176 -7.16662598 50.29519653 C-7.16729906 48.88654565 -7.16826913 47.47789487 -7.16952515 46.06924438 C-7.1710019 43.11346331 -7.16884831 40.15771239 -7.16418457 37.20193481 C-7.15848728 33.40520069 -7.16176641 29.60853725 -7.16775703 25.81180573 C-7.17136327 22.90198225 -7.17022378 19.99217565 -7.16762924 17.08235168 C-7.16696015 15.68205253 -7.1677878 14.28175186 -7.1701088 12.88145447 C-7.1726363 10.9275719 -7.16810381 8.97368398 -7.16320801 7.01980591 C-7.16241241 5.90585449 -7.16161682 4.79190308 -7.16079712 3.64419556 C-6.91663509 -1.17285552 -4.17795901 0.01693826 0 0 Z " fill="#FD6EC5" transform="translate(475.0338134765625,340.8610534667969)"/>
</svg>
