<?xml version="1.0" encoding="UTF-8"?>
<svg version="1.1" xmlns="http://www.w3.org/2000/svg" width="612" height="408">
<path d="M0 0 C3.08298131 0.05153459 6.00548684 0.2368641 9.0625 0.5625 C10.3923291 0.69760986 10.3923291 0.69760986 11.74902344 0.83544922 C20.50604745 1.8485167 28.67510366 4.17471134 37 7 C37.66 4.69 38.32 2.38 39 0 C69.93859246 0.82283491 94.58664183 13.10410615 117 34 C117.86496094 34.80566406 118.72992188 35.61132812 119.62109375 36.44140625 C140.23860787 56.41573969 155.2176661 82.15420751 168.56054688 107.29736328 C169.91541192 109.84118215 171.2906974 112.37274256 172.671875 114.90234375 C183.66236761 135.21865851 192.69422078 156.52534596 202.04321289 177.62939453 C202.37644562 178.38158264 202.70967834 179.13377075 203.05300903 179.90875244 C203.72619719 181.4283558 204.39927248 182.94800916 205.07223511 184.4677124 C211.84123846 199.74425223 218.85111322 214.89792319 226 230 C226.52045898 231.10408203 227.04091797 232.20816406 227.57714844 233.34570312 C236.69782603 252.674368 246.09494412 271.8017977 257.125 290.125 C257.66237793 291.02428223 258.19975586 291.92356445 258.75341797 292.85009766 C261.96481919 298.08823275 265.45734421 302.99975471 269.22607422 307.84326172 C269.68670761 308.43852158 270.147341 309.03378143 270.62193298 309.64707947 C271.74620005 311.09941345 272.87285303 312.54989995 274 314 C274.00135653 313.3430726 274.00271306 312.68614519 274.00411069 312.0093109 C274.0847002 273.10434629 274.1756298 234.1994182 274.28005161 195.29450993 C274.292571 190.62676007 274.30500369 185.95900999 274.31738281 181.29125977 C274.31984881 180.3619655 274.3223148 179.43267124 274.32485552 178.47521655 C274.36461673 163.41347969 274.39734917 148.35173531 274.42749982 133.2899765 C274.45857586 117.84379981 274.49716866 102.39765519 274.54279006 86.95151454 C274.57071934 77.41470093 274.59273306 67.87791088 274.60726251 58.34106729 C274.61777655 51.80791796 274.63556897 45.27481415 274.65916704 38.74169906 C274.67257952 34.96824293 274.68270426 31.19485081 274.68421364 27.42136955 C274.68593103 23.33667128 274.7029345 19.25218248 274.7215271 15.16752625 C274.71959237 13.96617985 274.71765763 12.76483345 274.71566427 11.52708262 C274.72312976 10.43777345 274.73059525 9.34846428 274.73828697 8.22614574 C274.74056529 7.28254072 274.74284362 6.3389357 274.74519098 5.36673659 C275 3 275 3 277 0 C278.83906746 -0.36914349 278.83906746 -0.36914349 281.11282349 -0.36076355 C282.40431305 -0.36694954 282.40431305 -0.36694954 283.72189331 -0.3732605 C284.66847809 -0.36247467 285.61506287 -0.35168884 286.59033203 -0.34057617 C287.58548828 -0.34101425 288.58064453 -0.34145233 289.60595703 -0.34190369 C292.90677271 -0.33980783 296.20708518 -0.316439 299.5078125 -0.29296875 C301.79181643 -0.28737564 304.07582395 -0.2831042 306.35983276 -0.28010559 C312.38020715 -0.26863444 318.40036546 -0.23914765 324.4206543 -0.20599365 C330.56035437 -0.17534169 336.70008926 -0.16161069 342.83984375 -0.14648438 C354.89332426 -0.1142802 366.94664419 -0.06305642 379 0 C380.31902378 2.63804756 380.12537593 4.59737644 380.12584114 7.55320835 C380.12975276 9.33478819 380.12975276 9.33478819 380.13374341 11.15235955 C380.13039732 13.12698147 380.13039732 13.12698147 380.12698364 15.14149475 C380.12813485 16.54494071 380.12972237 17.94838636 380.13171089 19.35183138 C380.13590419 23.22192528 380.13381351 27.09199468 380.13072467 30.9620887 C380.12847082 35.13048417 380.13195009 39.29887529 380.13470459 43.4672699 C380.13916132 51.6382185 380.13818628 59.80915793 380.13529195 67.9801069 C380.13303769 74.61763813 380.13272549 81.25516678 380.13381577 87.89269829 C380.133969 88.83576141 380.13412223 89.77882453 380.13428011 90.75046531 C380.13459982 92.66599652 380.13492403 94.58152772 380.1352527 96.49705892 C380.13810717 114.47692007 380.13482091 132.45677613 380.12945233 150.43663644 C380.1249836 165.88134416 380.12576086 181.32604437 380.13037109 196.77075195 C380.13571619 214.6858517 380.13783324 232.60094698 380.13475883 250.51604742 C380.13444026 252.4244041 380.13412589 254.33276079 380.13381577 256.24111748 C380.13366149 257.18018428 380.13350721 258.11925108 380.13334826 259.08677446 C380.13248297 265.72077962 380.13394624 272.35478197 380.13629532 278.9887867 C380.13909277 287.06694609 380.13835619 295.14509576 380.13301457 303.22325403 C380.13037693 307.34886512 380.12937357 311.47445997 380.13266373 315.60007095 C380.13562535 319.37059996 380.13403614 323.14109753 380.12868617 326.91162365 C380.12702519 328.93487707 380.13032072 330.95813265 380.13374341 332.98138386 C380.13113566 334.16649601 380.12852791 335.35160815 380.12584114 336.57263279 C380.12567879 337.60400822 380.12551644 338.63538365 380.12534916 339.69801289 C380 342 380 342 379 343 C377.06693502 343.09396057 375.13041162 343.11743517 373.19506836 343.11352539 C371.95385727 343.11344986 370.71264618 343.11337433 369.43382263 343.11329651 C368.0691626 343.10818911 366.70450298 343.1029731 365.33984375 343.09765625 C363.95121817 343.095792 362.56259193 343.09436813 361.17396545 343.09336853 C357.51278885 343.08954387 353.8516517 343.07971403 350.19049072 343.06866455 C346.45707737 343.05844932 342.72365766 343.05387067 338.99023438 343.04882812 C331.66013823 343.03809171 324.33007464 343.02101591 317 343 C317.00222061 343.77452011 317.00444122 344.54904022 317.00672913 345.34703064 C317.02673134 352.63121021 317.04197377 359.91537655 317.05181217 367.19957638 C317.05704014 370.94483037 317.06413622 374.69006176 317.07543945 378.43530273 C317.08627141 382.04681687 317.09227749 385.65830921 317.09487724 389.26983833 C317.09673094 390.65060329 317.10035049 392.031367 317.10573006 393.41212273 C317.11294447 395.33975952 317.11340809 397.26741807 317.11352539 399.19506836 C317.115746 400.29427109 317.11796661 401.39347382 317.12025452 402.52598572 C317 405 317 405 316 406 C307.93148547 406.76071003 300.41866623 405.93954783 292.5625 404.1875 C291.81814697 404.0222583 291.07379395 403.8570166 290.30688477 403.68676758 C285.61374111 402.56885139 281.38297 401.01535775 277 399 C277.0309375 400.4540625 277.0309375 400.4540625 277.0625 401.9375 C277 405 277 405 276 406 C253.39098465 408.36553078 228.55208293 397.50141945 211.25 383.625 C209.48486502 382.10068553 207.73517904 380.55832918 206 379 C205.01386719 378.13375 204.02773438 377.2675 203.01171875 376.375 C158.04140365 336.43557788 133.95992917 275.71521745 110.13037109 221.79980469 C102.60391272 204.78217095 94.85565214 187.86800826 87 171 C86.7071814 170.37097778 86.41436279 169.74195557 86.1126709 169.09387207 C77.4584473 150.52597187 68.11246423 132.5521093 57.4375 115.0625 C56.94386963 114.2468457 56.45023926 113.43119141 55.94165039 112.59082031 C52.82137014 107.56159736 49.41290675 102.84601489 45.78540039 98.17749023 C45.32393867 97.58073235 44.86247696 96.98397446 44.38703156 96.369133 C43.25956568 94.9115592 42.12999877 93.45561101 41 92 C40.99826375 92.66191878 40.9965275 93.32383757 40.99473864 94.00581449 C40.89181825 133.19455488 40.78372917 172.38327794 40.66888306 211.57198527 C40.65511269 216.2723553 40.64138571 220.97272546 40.62768555 225.6730957 C40.62495724 226.60889582 40.62222894 227.54469593 40.61941796 228.50885362 C40.57528496 243.68187551 40.53467135 258.85490489 40.49534739 274.02793991 C40.45495064 289.58483697 40.41079735 305.14172006 40.36312145 320.69859654 C40.33379775 330.30604418 40.30744073 339.91349072 40.28482103 349.52095652 C40.26905166 356.09986414 40.24964941 362.67875464 40.22733159 369.25764327 C40.21454456 373.05919154 40.20341549 376.86072655 40.19658089 380.66229057 C40.18914725 384.77390819 40.17409239 388.88546139 40.15821838 392.99705505 C40.15724028 394.21200903 40.15626217 395.426963 40.15525442 396.67873377 C40.14977998 397.77102763 40.14430554 398.86332149 40.1386652 399.98871517 C40.13600716 400.93915516 40.13334911 401.88959514 40.13061053 402.86883634 C40 405 40 405 39 406 C37.66160527 406.09742068 36.31813175 406.12631559 34.97619629 406.12698364 C34.10960892 406.12980347 33.24302155 406.13262329 32.35017395 406.13552856 C31.3922142 406.13350433 30.43425446 406.1314801 29.44726562 406.12939453 C28.44410812 406.13114685 27.44095062 406.13289917 26.40739441 406.13470459 C23.07366228 406.13912516 19.73998271 406.13618439 16.40625 406.1328125 C14.10078928 406.13348548 11.79532864 406.13445545 9.48986816 406.13571167 C4.65095343 406.13718892 -0.18794287 406.13503321 -5.02685547 406.13037109 C-11.24494645 406.1246738 -17.46299428 406.12795266 -23.68108368 406.13394356 C-28.44383065 406.13754843 -33.2065673 406.13641092 -37.96931458 406.13381577 C-40.26276149 406.13314629 -42.55620932 406.13397562 -44.84965515 406.13629532 C-48.04888406 406.13882064 -51.24804203 406.13498295 -54.44726562 406.12939453 C-55.88420525 406.13243088 -55.88420525 406.13243088 -57.35017395 406.13552856 C-58.21676132 406.13270874 -59.08334869 406.12988892 -59.97619629 406.12698364 C-60.7335331 406.12660662 -61.4908699 406.12622959 -62.27115631 406.12584114 C-64 406 -64 406 -65 405 C-65.09838237 403.19827982 -65.12555626 401.39265439 -65.12584114 399.58825016 C-65.12844889 398.40662141 -65.13105664 397.22499266 -65.13374341 396.00755697 C-65.13151268 394.69280258 -65.12928196 393.37804819 -65.12698364 392.02345276 C-65.1281345 390.62570735 -65.12972179 389.22796224 -65.13171089 387.83021778 C-65.13590908 383.9711967 -65.13381132 380.11220015 -65.13072467 376.25317895 C-65.12847275 372.09838017 -65.13194915 367.94358577 -65.13470459 363.78878784 C-65.13916364 355.64209849 -65.13818519 347.49541832 -65.13529195 339.3487286 C-65.13303829 332.73025146 -65.13272523 326.1117769 -65.13381577 319.49329948 C-65.133969 318.55316496 -65.13412223 317.61303044 -65.13428011 316.64440699 C-65.13459982 314.73483698 -65.13492403 312.82526698 -65.1352527 310.91569697 C-65.13810793 292.98683749 -65.13481988 275.0579831 -65.12945233 257.12912446 C-65.12498498 241.73020476 -65.12575958 226.3312926 -65.13037109 210.93237305 C-65.13571736 193.07147359 -65.13783246 175.21057861 -65.13475883 157.34967846 C-65.13444026 155.4466244 -65.13412589 153.54357034 -65.13381577 151.64051628 C-65.13366149 150.70405931 -65.13350721 149.76760234 -65.13334826 148.80276789 C-65.13248321 142.18928174 -65.13394575 135.57579841 -65.13629532 128.9623127 C-65.13909413 120.90684829 -65.13835337 112.85139362 -65.13301457 104.79593033 C-65.13037855 100.68235388 -65.12937084 96.56879371 -65.13266373 92.45521736 C-65.13562874 88.69446503 -65.1340304 84.93374417 -65.12868617 81.17299473 C-65.12702795 79.15739194 -65.13031776 77.14178699 -65.13374341 75.12618643 C-65.13113566 73.94194993 -65.12852791 72.75771343 -65.12584114 71.53759098 C-65.12567879 70.50909096 -65.12551644 69.48059094 -65.12534916 68.42092425 C-65 66 -65 66 -64 64 C-43.54 64 -23.08 64 -2 64 C-2.07919645 43.68573816 -2.07919645 43.68573816 -2.18017578 23.37158203 C-2.18601444 20.83366055 -2.19111147 18.29573722 -2.1953125 15.7578125 C-2.20053925 15.0961911 -2.20576599 14.4345697 -2.21115112 13.75289917 C-2.22574825 11.80813268 -2.22667728 9.86327826 -2.22705078 7.91845703 C-2.231492 6.82147491 -2.23593323 5.7244928 -2.24050903 4.5942688 C-2 2 -2 2 0 0 Z " fill="#80D85A" transform="translate(146,0)"/>
<path d="M0 0 C29.63101302 1.27199106 53.58405331 14.08629661 74.96484375 34.01953125 C75.82980469 34.82519531 76.69476563 35.63085938 77.5859375 36.4609375 C98.20345162 56.43527094 113.18250985 82.17373876 126.52539062 107.31689453 C127.88025567 109.8607134 129.25554115 112.39227381 130.63671875 114.921875 C141.62721136 135.23818976 150.65906453 156.54487721 160.00805664 177.64892578 C160.34128937 178.40111389 160.67452209 179.153302 161.01785278 179.92828369 C161.69104094 181.44788705 162.36411623 182.96754041 163.03707886 184.48724365 C169.80608221 199.76378348 176.81595697 214.91745444 183.96484375 230.01953125 C184.48530273 231.12361328 185.00576172 232.22769531 185.54199219 233.36523438 C194.66266978 252.69389925 204.05978787 271.82132895 215.08984375 290.14453125 C215.62722168 291.04381348 216.16459961 291.9430957 216.71826172 292.86962891 C219.92966294 298.107764 223.42218796 303.01928596 227.19091797 307.86279297 C227.65155136 308.45805283 228.11218475 309.05331268 228.58677673 309.66661072 C229.7110438 311.1189447 230.83769678 312.5694312 231.96484375 314.01953125 C231.96620028 313.36260385 231.96755681 312.70567644 231.96895444 312.02884215 C232.04954395 273.12387754 232.14047355 234.21894945 232.24489536 195.31404118 C232.25741475 190.64629132 232.26984744 185.97854124 232.28222656 181.31079102 C232.28469256 180.38149675 232.28715855 179.45220249 232.28969927 178.4947478 C232.32946048 163.43301094 232.36219292 148.37126656 232.39234357 133.30950775 C232.42341961 117.86333106 232.46201241 102.41718644 232.50763381 86.97104579 C232.53556309 77.43423218 232.55757681 67.89744213 232.57210626 58.36059854 C232.5826203 51.82744921 232.60041272 45.2943454 232.62401079 38.76123031 C232.63742327 34.98777418 232.64754801 31.21438206 232.64905739 27.4409008 C232.65077478 23.35620253 232.66777825 19.27171373 232.68637085 15.1870575 C232.68443612 13.9857111 232.68250138 12.7843647 232.68050802 11.54661387 C232.68797351 10.4573047 232.695439 9.36799553 232.70313072 8.24567699 C232.70654821 6.83026946 232.70654821 6.83026946 232.71003473 5.38626784 C232.96484375 3.01953125 232.96484375 3.01953125 234.96484375 0.01953125 C236.80391121 -0.34961224 236.80391121 -0.34961224 239.07766724 -0.3412323 C239.93866028 -0.34535629 240.79965332 -0.34948029 241.68673706 -0.35372925 C242.63332184 -0.34294342 243.57990662 -0.33215759 244.55517578 -0.32104492 C245.55033203 -0.321483 246.54548828 -0.32192108 247.57080078 -0.32237244 C250.87161646 -0.32027658 254.17192893 -0.29690775 257.47265625 -0.2734375 C259.75666018 -0.26784439 262.0406677 -0.26357295 264.32467651 -0.26057434 C270.3450509 -0.24910319 276.36520921 -0.2196164 282.38549805 -0.1864624 C288.52519812 -0.15581044 294.66493301 -0.14207944 300.8046875 -0.12695312 C312.85816801 -0.09474895 324.91148794 -0.04352517 336.96484375 0.01953125 C338.28386753 2.65757881 338.09021968 4.61690769 338.09068489 7.5727396 C338.09459651 9.35431944 338.09459651 9.35431944 338.09858716 11.1718908 C338.09524107 13.14651272 338.09524107 13.14651272 338.09182739 15.161026 C338.0929786 16.56447196 338.09456612 17.96791761 338.09655464 19.37136263 C338.10074794 23.24145653 338.09865726 27.11152593 338.09556842 30.98161995 C338.09331457 35.15001542 338.09679384 39.31840654 338.09954834 43.48680115 C338.10400507 51.65774975 338.10303003 59.82868918 338.1001357 67.99963815 C338.09788144 74.63716938 338.09756924 81.27469803 338.09865952 87.91222954 C338.09881275 88.85529266 338.09896598 89.79835578 338.09912386 90.76999656 C338.09944357 92.68552777 338.09976778 94.60105897 338.10009645 96.51659017 C338.10295092 114.49645132 338.09966466 132.47630738 338.09429608 150.45616769 C338.08982735 165.90087541 338.09060461 181.34557562 338.09521484 196.7902832 C338.10055994 214.70538295 338.10267699 232.62047823 338.09960258 250.53557867 C338.09928401 252.44393535 338.09896964 254.35229204 338.09865952 256.26064873 C338.09850524 257.19971553 338.09835096 258.13878233 338.09819201 259.10630571 C338.09732672 265.74031087 338.09878999 272.37431322 338.10113907 279.00831795 C338.10393652 287.08647734 338.10319994 295.16462701 338.09785832 303.24278528 C338.09522068 307.36839637 338.09421732 311.49399122 338.09750748 315.6196022 C338.1004691 319.39013121 338.09887989 323.16062878 338.09352992 326.9311549 C338.09186894 328.95440832 338.09516447 330.9776639 338.09858716 333.00091511 C338.09597941 334.18602726 338.09337166 335.3711394 338.09068489 336.59216404 C338.09052254 337.62353947 338.09036019 338.6549149 338.09019291 339.71754414 C337.96484375 342.01953125 337.96484375 342.01953125 336.96484375 343.01953125 C324.09484375 343.01953125 311.22484375 343.01953125 297.96484375 343.01953125 C297.96484375 230.48953125 297.96484375 117.95953125 297.96484375 2.01953125 C277.17484375 2.01953125 256.38484375 2.01953125 234.96484375 2.01953125 C234.97008057 11.50719238 234.97531738 20.99485352 234.98071289 30.77001953 C234.99679421 61.19596986 235.00789963 91.6219202 235.01590908 122.04787368 C235.01715965 126.78126476 235.01845398 131.51465582 235.01977539 136.24804688 C235.02016886 137.66142795 235.02016886 137.66142795 235.02057027 139.10336219 C235.02491063 154.32040484 235.03278913 169.53744368 235.04199655 184.75448407 C235.05137863 200.39170167 235.05690897 216.02891728 235.05893224 231.66613758 C235.06029804 241.29963766 235.06459718 250.93312697 235.07276022 260.56662373 C235.07808397 267.19052525 235.07963537 273.81442127 235.07834513 280.43832476 C235.07771047 284.24855895 235.07861876 288.05877442 235.08404922 291.8690052 C235.1063261 308.27793212 234.91550648 324.63356252 233.96484375 341.01953125 C232.53757468 341.05063731 231.11010738 341.07272501 229.68261719 341.09106445 C228.88772888 341.1043428 228.09284058 341.11762115 227.27386475 341.13130188 C215.14255718 340.54407297 202.96796145 328.41762637 195.12890625 320.0546875 C158.74375981 279.55913936 137.75611345 222.04945332 116.21484375 172.73046875 C76.17887721 77.29965695 76.17887721 77.29965695 0.1328125 11.578125 C-3.03515625 10.01953125 -3.03515625 10.01953125 -5.03515625 8.01953125 C-4.3341351 0.02789019 -4.3341351 0.02789019 0 0 Z " fill="#FE69C5" transform="translate(188.03515625,-0.01953125)"/>
<path d="M0 0 C20.79 0 41.58 0 63 0 C63 112.2 63 224.4 63 340 C41.88 340 20.76 340 -1 340 C-1.02202547 296.83042481 -1.04049729 253.6608549 -1.05106533 210.4912757 C-1.05231611 205.40035241 -1.05361042 200.30942913 -1.05493164 195.21850586 C-1.05519395 194.20494976 -1.05545626 193.19139366 -1.05572652 192.14712375 C-1.06008361 175.71312048 -1.06797138 159.27912069 -1.0771528 142.84511948 C-1.08648825 125.99549997 -1.09205538 109.14588229 -1.09408849 92.2962603 C-1.09546395 81.89035658 -1.09981575 71.4844627 -1.10791647 61.07856201 C-1.11318259 53.95302096 -1.1148046 46.82748502 -1.11350138 39.70194215 C-1.11285779 35.58444472 -1.11387787 31.46696454 -1.11920547 27.34947014 C-1.1240394 23.58626523 -1.1243387 19.8230893 -1.12089889 16.05988311 C-1.12027024 14.0405094 -1.12461203 12.02113608 -1.12908131 10.00176722 C-1.12709026 8.81890507 -1.12509921 7.63604292 -1.12304783 6.41733646 C-1.12342755 5.38791465 -1.12380727 4.35849283 -1.1241985 3.29787642 C-1 1 -1 1 0 0 Z " fill="#7FD958" transform="translate(82,65)"/>
<path d="M0 0 C20.46 0 40.92 0 62 0 C62 111.87 62 223.74 62 339 C41.54 339 21.08 339 0 339 C0 227.13 0 115.26 0 0 Z " fill="#7DD956" transform="translate(423,2)"/>
<path d="M0 0 C15.8075378 0 26.84952732 8.90620554 37.75 19.4375 C41.49498924 23.20609211 42.12607864 26.01995254 42.11022377 31.27020454 C42.1089103 32.91891853 42.1089103 32.91891853 42.10757029 34.60093987 C42.10144862 35.81327699 42.09532695 37.02561411 42.08901978 38.27468872 C42.08649621 39.55878187 42.08397265 40.84287502 42.08137262 42.16588008 C42.07420116 45.73728914 42.06070102 49.30865087 42.04618168 52.88003659 C42.0316208 56.72870005 42.02285417 60.57737724 42.01335144 64.42605591 C41.99378021 71.96788914 41.96873414 79.50969478 41.9417484 87.05150475 C41.91992596 93.17794611 41.900071 99.30439089 41.88163376 105.43084335 C41.87770057 106.73699571 41.87770057 106.73699571 41.87368792 108.06953498 C41.8683705 109.83826263 41.86305772 111.6069903 41.85774951 113.37571798 C41.80770811 129.97260943 41.75148032 146.56947554 41.69314377 163.16633962 C41.64317853 177.42224126 41.59847429 191.67815148 41.55761719 205.93408203 C41.51021367 222.47325992 41.45959555 239.01242274 41.40379179 255.55157459 C41.39785634 257.31331244 41.39192499 259.0750503 41.38599777 260.83678818 C41.38307939 261.70369313 41.380161 262.57059807 41.37715418 263.46377287 C41.35676248 269.58732587 41.33868693 275.71088323 41.32149124 281.83444595 C41.30049032 289.29043113 41.27596366 296.74639459 41.24684478 304.20235266 C41.23206404 308.00999626 41.21891148 311.81762757 41.21003914 315.62528992 C41.20038996 319.7433187 41.18309005 323.86127847 41.16494751 327.97927856 C41.16245717 329.80447641 41.16245717 329.80447641 41.15991652 331.66654694 C41.15382538 332.7604741 41.14773423 333.85440127 41.14145851 334.98147774 C41.1382584 335.93332927 41.13505828 336.8851808 41.13176119 337.86587632 C41 340 41 340 40 341 C38.65927183 341.09527037 37.31357497 341.1218877 35.96946716 341.12025452 C35.10143463 341.12162918 34.2334021 341.12300385 33.33906555 341.12442017 C31.89976936 341.11902725 31.89976936 341.11902725 30.43139648 341.11352539 C29.42663269 341.11367142 28.4218689 341.11381744 27.38665771 341.1139679 C24.04811483 341.1132683 20.70962695 341.10547374 17.37109375 341.09765625 C15.06323782 341.09579224 12.75538149 341.09436826 10.44752502 341.09336853 C4.35982174 341.08954204 -1.72785786 341.07971065 -7.81555176 341.06866455 C-14.02221354 341.05845323 -20.22887913 341.05387151 -26.43554688 341.04882812 C-38.62370835 341.0380885 -50.81185221 341.02101052 -63 341 C-63 340.67 -63 340.34 -63 340 C-42.21 340 -21.42 340 0 340 C0 227.8 0 115.6 0 0 Z " fill="#FE66C3" transform="translate(145,65)"/>
<path d="M0 0 C20.79 0 41.58 0 63 0 C63 0.33 63 0.66 63 1 C55.74 1 48.48 1 41 1 C41.00523682 2.87292725 41.01047363 4.74585449 41.01586914 6.67553711 C41.03196688 12.85021346 41.04347233 19.02488486 41.05181217 25.19957638 C41.05704014 28.94483037 41.06413622 32.69006176 41.07543945 36.43530273 C41.08627141 40.04681687 41.09227749 43.65830921 41.09487724 47.26983833 C41.09673094 48.65060329 41.10035049 50.031367 41.10573006 51.41212273 C41.11294447 53.33975952 41.11340809 55.26741807 41.11352539 57.19506836 C41.115746 58.29427109 41.11796661 59.39347382 41.12025452 60.52598572 C41 63 41 63 40 64 C31.93148547 64.76071003 24.41866623 63.93954783 16.5625 62.1875 C15.81814697 62.0222583 15.07379395 61.8570166 14.30688477 61.68676758 C9.61374111 60.56885139 5.38297 59.01535775 1 57 C1 58.98 1 60.96 1 63 C0.67 63 0.34 63 0 63 C0 42.21 0 21.42 0 0 Z " fill="#FE6FC6" transform="translate(422,342)"/>
<path d="M0 0 C1.12550923 0.00414807 1.12550923 0.00414807 2.27375603 0.00837994 C3.56524559 0.00219395 3.56524559 0.00219395 4.88282585 -0.00411701 C5.82941063 0.00666882 6.77599541 0.01745464 7.75126457 0.02856731 C8.74642082 0.02812923 9.74157707 0.02769115 10.76688957 0.0272398 C14.06770525 0.02933566 17.36801772 0.05270449 20.66874504 0.07617474 C22.95274897 0.08176785 25.23675649 0.08603929 27.5207653 0.0890379 C33.5411397 0.10050904 39.561298 0.12999583 45.58158684 0.16314983 C51.72128692 0.1938018 57.8610218 0.2075328 64.00077629 0.22265911 C76.05425681 0.25486329 88.10757673 0.30608707 100.16093254 0.36914349 C100.16093254 1.02914349 100.16093254 1.68914349 100.16093254 2.36914349 C66.50093254 2.36914349 32.84093254 2.36914349 -1.83906746 2.36914349 C-1.83906746 106.97914349 -1.83906746 211.58914349 -1.83906746 319.36914349 C-3.81906746 317.88414349 -3.81906746 317.88414349 -5.83906746 316.36914349 C-5.50906746 315.70914349 -5.17906746 315.04914349 -4.83906746 314.36914349 C-4.74187735 312.67310732 -4.70882619 310.97324172 -4.70598888 309.27442551 C-4.70174784 308.18895748 -4.69750679 307.10348946 -4.69313723 305.98512846 C-4.69352336 304.78291558 -4.69390949 303.58070271 -4.69430733 302.34205914 C-4.69078048 301.0724822 -4.68725364 299.80290526 -4.68361992 298.4948563 C-4.67389843 294.95927581 -4.67036763 291.42371149 -4.66777694 287.88811958 C-4.66389009 284.07960125 -4.65425252 280.27109729 -4.6452198 276.46258831 C-4.63026599 269.85954422 -4.61872836 263.25650128 -4.609272 256.65344715 C-4.59541627 247.10318234 -4.57423136 237.55294414 -4.55084347 228.00269841 C-4.51290558 212.50498 -4.477944 197.00725677 -4.44624519 181.50952435 C-4.4443447 180.58136109 -4.44244421 179.65319783 -4.44048613 178.69690841 C-4.41364767 165.52155306 -4.38977623 152.34619399 -4.36710113 139.1708309 C-4.36550382 138.24297083 -4.36390652 137.31511076 -4.36226082 136.35913372 C-4.36066735 135.43239975 -4.35907389 134.50566578 -4.35743213 133.55084897 C-4.33068999 118.11365214 -4.29630168 102.67648367 -4.25560707 87.23931736 C-4.23079561 77.71004506 -4.21248934 68.18080331 -4.20245146 58.65150379 C-4.19507532 52.12491854 -4.18057172 45.59837428 -4.16038723 39.07181615 C-4.14896619 35.30239383 -4.14086359 31.53303772 -4.14139557 27.76359653 C-4.14189983 23.68339042 -4.12713927 19.60338486 -4.11081123 15.52321148 C-4.11342809 14.32322932 -4.11604494 13.12324717 -4.1187411 11.88690192 C-4.1118923 10.79882614 -4.10504351 9.71075037 -4.09798717 8.58970261 C-4.09625093 7.64718173 -4.09451468 6.70466086 -4.09272581 5.73357874 C-3.77467467 2.76891655 -3.16791938 0.63587488 0 0 Z " fill="#D2EBC2" transform="translate(424.83906745910645,-0.3691434860229492)"/>
<path d="M0 0 C3 3 3 3 3.36733413 5.39123404 C3.36369928 6.34644804 3.36006443 7.30166204 3.35631943 8.28582191 C3.3609791 9.93976099 3.3609791 9.93976099 3.36573291 11.62711298 C3.35378556 12.84334105 3.3418382 14.05956912 3.32952881 15.31265259 C3.3287141 16.60082929 3.32789938 17.88900599 3.32705998 19.21621835 C3.32437189 22.79914262 3.30284456 26.38174732 3.27831292 29.96457958 C3.2551345 33.82549399 3.24926998 37.68643876 3.24128723 41.54740906 C3.2229028 49.11336804 3.18849126 56.67917435 3.14880887 64.2450483 C3.10327392 73.04773933 3.07385558 81.85046161 3.04523364 90.65322118 C2.99366601 106.35351024 2.92791927 122.05370783 2.85400391 137.75390625 C2.78222045 153.00485618 2.71955599 168.2558057 2.66748047 183.50683594 C2.66427071 184.44638597 2.66106094 185.385936 2.65775391 186.35395725 C2.65129446 188.24656947 2.64483563 190.13918169 2.63837744 192.03179391 C2.63519027 192.96530165 2.63200309 193.89880939 2.62871933 194.86060524 C2.62554352 195.79168645 2.62236771 196.72276765 2.61909567 197.68206344 C2.56926568 212.19471859 2.51178928 226.7073447 2.45324342 241.21996696 C2.43205528 246.48848676 2.41186516 251.75700931 2.39235893 257.0255356 C2.36135414 265.37988833 2.32703319 273.73421307 2.28587118 282.08852245 C2.26710252 285.90831509 2.24990324 289.7280973 2.23695564 293.54791451 C2.22287507 297.67908675 2.20108477 301.81018073 2.17840576 305.9413147 C2.1753813 307.16200421 2.17235683 308.38269372 2.16924071 309.64037383 C2.16191617 310.73778438 2.15459163 311.83519494 2.14704514 312.96586037 C2.14061875 314.39819431 2.14061875 314.39819431 2.13406253 315.85946429 C2 318 2 318 1 319 C-0.34072817 319.09527037 -1.68642503 319.1218877 -3.03053284 319.12025452 C-3.89856537 319.12162918 -4.7665979 319.12300385 -5.66093445 319.12442017 C-7.10023064 319.11902725 -7.10023064 319.11902725 -8.56860352 319.11352539 C-9.57336731 319.11367142 -10.5781311 319.11381744 -11.61334229 319.1139679 C-14.95188517 319.1132683 -18.29037305 319.10547374 -21.62890625 319.09765625 C-23.93676218 319.09579224 -26.24461851 319.09436826 -28.55247498 319.09336853 C-34.64017826 319.08954204 -40.72785786 319.07971065 -46.81555176 319.06866455 C-53.02221354 319.05845323 -59.22887913 319.05387151 -65.43554688 319.04882812 C-77.62370835 319.0380885 -89.81185221 319.02101052 -102 319 C-102 318.67 -102 318.34 -102 318 C-68.34 318 -34.68 318 0 318 C0 213.06 0 108.12 0 0 Z " fill="#FBD0E9" transform="translate(184,87)"/>
<path d="M0 0 C2.15377564 2.62198774 3.40072174 4.64404172 4 8 C3.01 7.67 2.02 7.34 1 7 C-0.1875 3.9375 -0.1875 3.9375 -1 1 C-0.67 0.67 -0.34 0.34 0 0 Z " fill="#FF9FDA" transform="translate(313,106)"/>
</svg>
