<?xml version="1.0" encoding="UTF-8"?>
<svg version="1.1" xmlns="http://www.w3.org/2000/svg" width="612" height="408">
<path d="M0 0 C0.97444142 -0.00322445 1.94888284 -0.00644889 2.95285279 -0.00977105 C4.57798378 -0.00744815 4.57798378 -0.00744815 6.2359457 -0.00507832 C7.37707284 -0.00734387 8.51819998 -0.00960943 9.69390672 -0.01194364 C12.87601211 -0.01720217 16.05808224 -0.01792452 19.24019063 -0.01674926 C22.66723645 -0.01654597 26.0942737 -0.02205754 29.52131557 -0.02680683 C36.24493557 -0.03513325 42.9685468 -0.03786268 49.69217152 -0.03841921 C55.16302677 -0.03889399 60.63387913 -0.04094685 66.10473347 -0.04411983 C81.6229592 -0.05293639 97.141178 -0.05753833 112.65940625 -0.05678936 C113.91575191 -0.05672943 113.91575191 -0.05672943 115.19747829 -0.05666828 C116.03606919 -0.0566274 116.87466009 -0.05658652 117.73866283 -0.0565444 C131.29457471 -0.05613895 144.85045867 -0.06568022 158.40636248 -0.07980665 C172.33274621 -0.09420406 186.25911636 -0.1010748 200.18550771 -0.10021287 C208.00074403 -0.09988178 215.81595117 -0.10258955 223.63118076 -0.11339092 C230.29443974 -0.12254087 236.95765637 -0.12463503 243.62091894 -0.1178815 C247.01527765 -0.11463711 250.40948977 -0.11558994 253.80385113 -0.12323475 C289.0390077 -0.19740982 318.15244083 5.26004549 344.51754665 30.12863445 C345.13500759 30.68164227 345.75246853 31.23465008 346.3886404 31.8044157 C362.89680319 47.16882587 373.36832782 71.90065066 374.64003086 94.28454113 C374.85054284 100.36746289 374.84878322 106.45288824 374.85348415 112.5387907 C374.85992844 114.5163663 374.86665795 116.49394099 374.87365627 118.4715147 C374.8855771 122.60423265 374.88934264 126.73686735 374.88815212 130.86960125 C374.8879496 136.11166058 374.91520637 141.35317376 374.94969654 146.59510422 C374.97216535 150.67831553 374.97598356 154.76139974 374.97493267 158.84466648 C374.97726046 160.77436923 374.98592028 162.70407706 375.0015974 164.63371754 C375.22687995 195.2334325 366.25834881 222.96400917 344.51754665 245.12863445 C336.42373577 253.06271549 327.56770374 258.9620044 317.51754665 264.12863445 C316.14856228 264.85179852 316.14856228 264.85179852 314.75192165 265.58957195 C302.70319424 271.54178759 288.94202276 274.17434868 275.58819485 274.44160748 C274.70979513 274.46216847 273.83139542 274.48272947 272.92637753 274.50391352 C270.01724014 274.56970358 267.10802021 274.62798014 264.198699 274.68503094 C263.18492207 274.70604079 262.17114515 274.72705065 261.12664771 274.74869716 C238.37161555 275.21463752 215.6207363 275.26089291 192.86181974 275.23002839 C187.29535243 275.22361224 181.72888404 275.22317709 176.1624136 275.22200298 C165.70560517 275.21894184 155.24880768 275.21080185 144.79200399 275.20065349 C130.60229496 275.18719261 116.41258276 275.18195013 102.22286892 275.17615128 C79.98775337 275.16685595 57.75266085 275.14690322 35.51754665 275.12863445 C35.18754665 317.69863445 34.85754665 360.26863445 34.51754665 404.12863445 C-0.24477903 404.99769259 -33.72012766 404.99769259 -68.48245335 404.12863445 C-68.48245335 291.92863445 -68.48245335 179.72863445 -68.48245335 64.12863445 C-22.05388192 62.96792017 -22.05388192 62.96792017 -5.48245335 63.12863445 C-5.48467396 62.35411434 -5.48689457 61.57959423 -5.48918247 60.78160381 C-5.50918469 53.49742424 -5.52442712 46.2132579 -5.53426552 38.92905807 C-5.53949349 35.18380408 -5.54658956 31.4385727 -5.5578928 27.69333172 C-5.56872475 24.08181758 -5.57473083 20.47032524 -5.57733059 16.85879612 C-5.57918428 15.47803116 -5.58280384 14.09726745 -5.5881834 12.71651173 C-5.59539781 10.78887493 -5.59586143 8.86121639 -5.59597874 6.93356609 C-5.59819935 5.83436337 -5.60041996 4.73516064 -5.60270786 3.60264874 C-5.39804162 -0.60798062 -3.76670208 0.00313045 0 0 Z M34.51754665 64.12863445 C34.51754665 133.09863445 34.51754665 202.06863445 34.51754665 273.12863445 C34.84754665 273.12863445 35.17754665 273.12863445 35.51754665 273.12863445 C35.51754665 252.66863445 35.51754665 232.20863445 35.51754665 211.12863445 C41.54882839 211.1443449 47.58011013 211.16005535 53.79415798 211.17624187 C73.71910586 211.22594604 93.64405617 211.25923969 113.56904984 211.28407097 C125.64981469 211.29952725 137.73052073 211.32059315 149.81124783 211.35495281 C160.3431487 211.38489302 170.87500697 211.40421846 181.40694922 211.41089994 C186.98139833 211.41480434 192.55572556 211.42395456 198.13013554 211.44582462 C203.38235953 211.46626273 208.63441203 211.47245345 213.88667202 211.4679575 C215.80906705 211.46877942 217.73146811 211.47470122 219.65382862 211.48625088 C235.60129738 211.57732401 248.95864698 210.19729929 261.26754665 198.94113445 C272.17570081 187.25935234 272.82848255 173.79997221 272.78317165 158.66769695 C272.78452189 157.07023338 272.7864654 155.47277021 272.78896999 153.87530804 C272.79190609 150.53848615 272.7876738 147.20177188 272.77828884 143.86496258 C272.76691383 139.61649564 272.77345105 135.36828201 272.78543377 131.11982441 C272.79270939 127.823572 272.79033814 124.52737824 272.78517818 121.23112392 C272.78385643 119.66604233 272.78543688 118.10095518 272.79013729 116.53588009 C272.82633497 101.09522788 271.08570492 89.88704103 262.33004665 76.87863445 C249.41448787 64.25008808 235.65663136 63.68790008 218.65573025 63.78805828 C216.61200191 63.78897827 214.56827262 63.78857513 212.52454472 63.78696251 C207.07189912 63.78628769 201.61945268 63.80362318 196.1668539 63.82479382 C191.04261583 63.84193081 185.91842519 63.84268601 180.79415798 63.84482098 C165.82692803 63.8605372 150.85973479 63.90242089 135.89254665 63.94113445 C102.43879665 64.00300945 68.98504665 64.06488445 34.51754665 64.12863445 Z " fill="#7ED858" transform="translate(150.48245334625244,0.8713655471801758)"/>
<path d="M0 0 C20.79 0 41.58 0 63 0 C63 112.53 63 225.06 63 341 C41.99735466 341 20.99608508 340.52490213 0 340 C0 227.8 0 115.6 0 0 Z " fill="#7ED857" transform="translate(82,65)"/>
<path d="M0 0 C13.2 0 26.4 0 40 0 C40.20196557 32.29159228 40.3902363 64.58323556 40.5625 96.875 C40.56888284 98.06773372 40.57526568 99.26046743 40.58184195 100.4893446 C40.91557128 163.03740172 41.14778665 225.57798133 40.5625 288.125 C40.55610205 288.81249423 40.5497041 289.49998846 40.54311228 290.20831585 C40.38816613 306.80586711 40.20775663 323.40302488 40 340 C26.8 340 13.6 340 0 340 C0 227.8 0 115.6 0 0 Z " fill="#FE67C4" transform="translate(145,65)"/>
<path d="M0 0 C4.54913819 -0.0503566 9.09810566 -0.08615885 13.64746094 -0.10986328 C15.18720331 -0.1197703 16.72692767 -0.13329969 18.26660156 -0.15087891 C50.22470144 -0.5059689 77.45676406 7.79310801 101 30 C101.61746094 30.55300781 102.23492187 31.10601562 102.87109375 31.67578125 C119.37925653 47.04019142 129.85078117 71.7720162 131.12248421 94.15590668 C131.33299618 100.23882844 131.33123656 106.32425379 131.3359375 112.41015625 C131.34238179 114.38773185 131.34911129 116.36530653 131.35610962 118.34288025 C131.36803045 122.47559819 131.37179598 126.6082329 131.37060547 130.7409668 C131.37040295 135.98302613 131.39765972 141.22453931 131.43214989 146.46646976 C131.4546187 150.54968108 131.45843691 154.63276529 131.45738602 158.71603203 C131.45971381 160.64573478 131.46837363 162.57544261 131.48405075 164.50508308 C131.70933329 195.10479805 122.74080216 222.83537471 101 245 C92.90618912 252.93408103 84.05015709 258.83336995 74 264 C72.63101563 264.72316406 72.63101563 264.72316406 71.234375 265.4609375 C58.97389774 271.5177601 45.03374751 274.1786555 31.4453125 274.09765625 C30.54376434 274.0962413 29.64221619 274.09482635 28.71334839 274.09336853 C25.850531 274.0877974 22.98779352 274.07525026 20.125 274.0625 C18.17708447 274.05748127 16.2291677 274.05291901 14.28125 274.04882812 C9.52080282 274.03783742 4.76041493 274.02059277 0 274 C0 273.67 0 273.34 0 273 C0.82242187 272.89042969 1.64484375 272.78085937 2.4921875 272.66796875 C29.8878728 268.77689566 54.01503841 255.06623672 71 233 C87.04640405 209.90660102 91.14525263 186.38817025 91.203125 158.9921875 C91.20595238 158.08356083 91.20877975 157.17493416 91.21169281 156.23877335 C91.22661584 151.4287106 91.23588838 146.61867732 91.24023438 141.80859375 C91.24570462 136.88689124 91.26972211 131.96546735 91.29820633 127.04385185 C91.31699547 123.21726741 91.32204691 119.39074789 91.32357025 115.56412125 C91.32656142 113.75195928 91.33446722 111.93979745 91.34775543 110.12768173 C91.44817519 95.37965458 90.22214918 81.35202627 84.875 67.4375 C84.5749707 66.64649902 84.27494141 65.85549805 83.96582031 65.04052734 C73.76582653 39.19742383 54.23829895 20.27602218 29 9 C19.49551195 5.08050902 10.09033608 2.73825117 0 1 C0 0.67 0 0.34 0 0 Z " fill="#FE66C3" transform="translate(394,1)"/>
</svg>
