<?xml version="1.0" encoding="UTF-8"?>
<svg version="1.1" xmlns="http://www.w3.org/2000/svg" width="612" height="408">
<path d="M0 0 C1.46094851 -0.00874829 1.46094851 -0.00874829 2.95141113 -0.01767331 C4.56808014 -0.01200433 4.56808014 -0.01200433 6.21740913 -0.00622082 C7.35656843 -0.01004636 8.49572773 -0.01387191 9.66940701 -0.01781338 C12.84156738 -0.02637577 16.01358097 -0.02589852 19.18574548 -0.02163279 C22.60399692 -0.0191743 26.02222068 -0.02816958 29.44046211 -0.03567028 C36.14591147 -0.04845081 42.85132084 -0.05020624 49.55678032 -0.04787002 C55.01518543 -0.04608787 60.47357839 -0.04783432 65.93198204 -0.05209446 C66.70858847 -0.05268965 67.4851949 -0.05328484 68.28533486 -0.05389806 C69.86317117 -0.05510985 71.44100748 -0.05632399 73.01884378 -0.05754044 C87.83843899 -0.06843206 102.65801148 -0.06624777 117.47760798 -0.06015559 C130.99843831 -0.05500359 144.51919621 -0.06619339 158.04001223 -0.08525381 C171.93933147 -0.1046963 185.83861658 -0.11287584 199.73794949 -0.10913056 C207.53430757 -0.10722581 215.33060429 -0.10963328 223.12695122 -0.1238451 C229.77618396 -0.13584293 236.42531773 -0.13707202 243.07455204 -0.12505493 C246.45934429 -0.11921999 249.84381037 -0.11958301 253.2286129 -0.13005733 C289.64981424 -0.23454736 319.99192887 5.86179119 346.78067207 32.25447559 C368.35023525 54.21873062 375.71602526 81.90928443 375.74160957 111.87947559 C375.74805698 113.67529367 375.75478669 115.47111074 375.76178169 117.26692677 C375.77369516 121.0188232 375.77746892 124.77062801 375.77627754 128.522542 C375.77607527 133.27128548 375.80330962 138.0194244 375.83782196 142.7680254 C375.86034252 146.47640511 375.86410742 150.18464543 375.86305809 153.89308643 C375.86537908 155.64054402 375.87399805 157.38800763 375.88972282 159.135396 C376.12248743 187.68275623 368.02218972 216.0453536 349.50430489 238.23372364 C346.87962968 241.30079578 346.87962968 241.30079578 346.40567207 245.25447559 C347.65236348 247.03167399 348.9799481 248.75250999 350.34317207 250.44197559 C366.08160426 270.69504282 375.5968902 295.8273252 375.5350666 321.57039356 C375.53769508 322.9301405 375.53769508 322.9301405 375.54037666 324.31735706 C375.5447548 327.29381225 375.54187294 330.27020738 375.53848457 333.24666309 C375.53915842 335.31934591 375.54012912 337.39202865 375.54138374 339.46471119 C375.54285494 343.7969841 375.54072343 348.12923634 375.53604317 352.46150684 C375.53032481 358.02700333 375.53364181 363.59245182 375.53961563 369.15794659 C375.54321864 373.43171524 375.54208424 377.70547238 375.53948784 381.97924137 C375.53881895 384.03265482 375.53964566 386.0860693 375.54196739 388.13948154 C375.54449194 390.9979911 375.54065712 393.85642121 375.5350666 396.71492481 C375.53709084 397.5699509 375.53911507 398.424977 375.54120064 399.30591297 C375.51993904 405.14020862 375.51993904 405.14020862 374.40567207 406.25447559 C373.06727734 406.35189627 371.72380383 406.38079118 370.38186836 406.38145924 C369.51528099 406.38427906 368.64869362 406.38709888 367.75584602 406.39000416 C366.79788628 406.38797993 365.83992653 406.3859557 364.8529377 406.38387012 C363.8497802 406.38562244 362.8466227 406.38737476 361.81306648 406.38918018 C358.47933436 406.39360076 355.14565479 406.39065998 351.81192207 406.38728809 C349.50646136 406.38796107 347.20100071 406.38893105 344.89554024 406.39018726 C340.05662551 406.39166452 335.2177292 406.3895088 330.3788166 406.38484669 C324.16072562 406.37914939 317.94267779 406.38242825 311.72458839 406.38841915 C306.96184142 406.39202403 302.19910477 406.39088652 297.4363575 406.38829136 C295.14291059 406.38762189 292.84946276 406.38845122 290.55601692 406.39077091 C287.35678801 406.39329623 284.15763005 406.38945854 280.95840645 406.38387012 C279.52146683 406.38690647 279.52146683 406.38690647 278.05549812 406.39000416 C277.18891075 406.38718433 276.32232338 406.38436451 275.42947578 406.38145924 C274.29347057 406.3808937 274.29347057 406.3808937 273.13451576 406.38031673 C271.40567207 406.25447559 271.40567207 406.25447559 270.40567207 405.25447559 C270.30174063 402.55406981 270.26205934 399.87840844 270.26382637 397.17732716 C270.25861473 395.90632915 270.25861473 395.90632915 270.25329781 394.60965443 C270.24592365 392.76099529 270.24058716 390.91232719 270.23700714 389.06365681 C270.22984889 386.12790223 270.2141822 383.19231551 270.19566536 380.25661182 C270.14320112 371.90615264 270.09532355 363.55577921 270.07974434 355.20515919 C270.06959668 350.10096026 270.04008936 344.99717464 269.99842453 339.89313984 C269.98619262 337.95573795 269.98097884 336.01827741 269.98322296 334.0808382 C269.99858526 316.46988495 267.4722622 301.00841485 255.21817207 287.37947559 C247.3059399 280.04267849 237.82674881 277.10964872 227.33188057 277.09625721 C226.5117524 277.09131923 225.69162423 277.08638126 224.84664369 277.08129364 C222.095163 277.06592048 219.34370565 277.05755849 216.59219551 277.04915333 C214.62118512 277.03957466 212.65017678 277.02956459 210.67917061 277.01915455 C205.32421949 276.99209818 199.96925955 276.97109255 194.61427784 276.95115256 C189.01951868 276.92929756 183.42478673 276.90190649 177.83004951 276.87509632 C167.23374019 276.82516289 156.63741577 276.78022645 146.0410769 276.73707396 C133.9783178 276.68770716 121.915586 276.63278695 109.8528533 276.57739437 C85.03715169 276.46356432 60.2214239 276.35672749 35.40567207 276.25447559 C35.40659387 276.91838527 35.40751566 277.58229494 35.40846539 278.26632309 C35.43052037 294.39794568 35.44708351 310.52956352 35.45748425 326.66119766 C35.46264725 334.46223395 35.46969004 342.2632602 35.48111153 350.06429005 C35.49105822 356.86123872 35.49752547 363.65818013 35.49976057 370.45513588 C35.5010677 374.0562569 35.50415371 377.65735712 35.51140213 381.25847149 C35.51941572 385.27204161 35.51966322 389.28557524 35.51919746 393.29915333 C35.52279274 394.50180332 35.52638802 395.70445332 35.53009224 396.94354725 C35.52871758 398.03034779 35.52734291 399.11714832 35.52592659 400.23688221 C35.52684838 401.18725078 35.52777018 402.13761934 35.5287199 403.11678696 C35.40567207 405.25447559 35.40567207 405.25447559 34.40567207 406.25447559 C33.06727734 406.35189627 31.72380383 406.38079118 30.38186836 406.38145924 C29.51528099 406.38427906 28.64869362 406.38709888 27.75584602 406.39000416 C26.79788628 406.38797993 25.83992653 406.3859557 24.8529377 406.38387012 C23.8497802 406.38562244 22.8466227 406.38737476 21.81306648 406.38918018 C18.47933436 406.39360076 15.14565479 406.39065998 11.81192207 406.38728809 C9.50646136 406.38796107 7.20100071 406.38893105 4.89554024 406.39018726 C0.05662551 406.39166452 -4.7822708 406.3895088 -9.6211834 406.38484669 C-15.83927438 406.37914939 -22.05732221 406.38242825 -28.27541161 406.38841915 C-33.03815858 406.39202403 -37.80089523 406.39088652 -42.5636425 406.38829136 C-44.85708941 406.38762189 -47.15053724 406.38845122 -49.44398308 406.39077091 C-52.64321199 406.39329623 -55.84236995 406.38945854 -59.04159355 406.38387012 C-60.47853317 406.38690647 -60.47853317 406.38690647 -61.94450188 406.39000416 C-62.81108925 406.38718433 -63.67767662 406.38436451 -64.57052422 406.38145924 C-65.32786102 406.38108221 -66.08519783 406.38070518 -66.86548424 406.38031673 C-68.59432793 406.25447559 -68.59432793 406.25447559 -69.59432793 405.25447559 C-69.6927103 403.45275541 -69.71988419 401.64712998 -69.72016907 399.84272575 C-69.72277681 398.661097 -69.72538456 397.47946825 -69.72807133 396.26203257 C-69.72584061 394.94727818 -69.72360989 393.63252379 -69.72131157 392.27792835 C-69.72246243 390.88018294 -69.72404972 389.48243784 -69.72603881 388.08469337 C-69.73023701 384.22567229 -69.72813925 380.36667575 -69.7250526 376.50765455 C-69.72280067 372.35285577 -69.72627708 368.19806136 -69.72903252 364.04326344 C-69.73349157 355.89657408 -69.73251312 347.74989392 -69.72961988 339.6032042 C-69.72736621 332.98472705 -69.72705316 326.36625249 -69.72814369 319.74777508 C-69.72829693 318.80764055 -69.72845016 317.86750603 -69.72860803 316.89888258 C-69.72892774 314.98931257 -69.72925196 313.07974257 -69.72958063 311.17017256 C-69.73243585 293.24131308 -69.72914781 275.3124587 -69.72378026 257.38360005 C-69.71931291 241.98468035 -69.7200875 226.5857682 -69.72469902 211.18684864 C-69.73004528 193.32594918 -69.73216039 175.4650542 -69.72908676 157.60415405 C-69.72876819 155.70109999 -69.72845382 153.79804593 -69.72814369 151.89499187 C-69.72798942 150.95853491 -69.72783514 150.02207794 -69.72767619 149.05724349 C-69.72681114 142.44375733 -69.72827368 135.83027401 -69.73062325 129.21678829 C-69.73342205 121.16132388 -69.7326813 113.10586922 -69.7273425 105.05040593 C-69.72470647 100.93682947 -69.72369876 96.8232693 -69.72699165 92.70969296 C-69.72995667 88.94894062 -69.72835833 85.18821977 -69.7230141 81.42747032 C-69.72135588 79.41186753 -69.72464568 77.39626258 -69.72807133 75.38066202 C-69.72546358 74.19642553 -69.72285584 73.01218903 -69.72016907 71.79206657 C-69.72000672 70.76356655 -69.71984436 69.73506653 -69.71967709 68.67539984 C-69.59432793 66.25447559 -69.59432793 66.25447559 -68.59432793 64.25447559 C-48.13432793 64.25447559 -27.67432793 64.25447559 -6.59432793 64.25447559 C-6.67352438 43.94021375 -6.67352438 43.94021375 -6.77450371 23.62605762 C-6.78034236 21.08813615 -6.7854394 18.55021281 -6.78964043 16.01228809 C-6.79486717 15.35066669 -6.80009392 14.6890453 -6.80547905 14.00737476 C-6.82007618 12.06260828 -6.82100521 10.11775386 -6.82137871 8.17293262 C-6.82581993 7.07595051 -6.83026115 5.97896839 -6.83483696 4.84874439 C-6.40086002 0.16761949 -4.13570651 0.00424205 0 0 Z M35.40567207 66.25447559 C35.40567207 114.10447559 35.40567207 161.95447559 35.40567207 211.25447559 C71.06385751 211.37101902 71.06385751 211.37101902 106.72207832 211.44978809 C121.26396516 211.47352005 135.80575928 211.50141509 150.3475666 211.55623341 C160.93842185 211.59613873 171.52920184 211.62191736 182.12013018 211.63082957 C187.72644659 211.63603801 193.33254775 211.64825437 198.93879509 211.67739582 C204.21977783 211.70462314 209.50045742 211.71290574 214.78150368 211.70690632 C216.71561393 211.70800328 218.64973472 211.71591335 220.5837841 211.73129749 C234.80034702 211.83879781 244.47553544 210.86457558 255.15176582 200.60603809 C264.5804894 190.76879097 270.61424383 178.54909538 270.69619942 164.74959278 C270.70291664 164.03472202 270.70963387 163.31985126 270.71655464 162.58331776 C270.73542349 160.23925635 270.7394534 157.89548305 270.74160957 155.55135059 C270.74804611 153.9061875 270.7547751 152.26102552 270.76178169 150.61586475 C270.77372735 147.17294636 270.77746541 143.73012808 270.77627754 140.28719044 C270.77607471 135.90172306 270.80335137 131.5169063 270.83782196 127.13159275 C270.86019549 123.73410128 270.86411187 120.33676368 270.86305809 116.93920612 C270.86539933 115.32386253 270.87413841 113.70851371 270.88972282 112.0932436 C271.01599438 97.65199249 268.5300866 86.18047887 258.40567207 75.25447559 C250.22415815 68.78567795 240.91569846 65.77602449 230.57875252 65.89371204 C229.73801801 65.89114877 228.89728351 65.88858549 228.0310722 65.88594455 C225.23964096 65.88103911 222.44876169 65.89744554 219.65738106 65.91389942 C217.64622701 65.9147464 215.63507204 65.91426918 213.62391853 65.91257191 C208.18239436 65.91171328 202.7410697 65.92931769 197.29959178 65.95029378 C191.60612618 65.96908262 185.91265571 65.97081276 180.21916389 65.97437 C169.44588239 65.98368397 158.67269252 66.00828904 147.89945132 66.03841847 C133.33581679 66.07826196 118.7721571 66.09442259 104.20848179 66.11192513 C81.27414329 66.14011054 58.33999812 66.1998845 35.40567207 66.25447559 Z " fill="#7ED957" transform="translate(150.59432792663574,-0.25447559356689453)"/>
<path d="M0 0 C1.46094851 -0.00874829 1.46094851 -0.00874829 2.95141113 -0.01767331 C4.56808014 -0.01200433 4.56808014 -0.01200433 6.21740913 -0.00622082 C7.35656843 -0.01004636 8.49572773 -0.01387191 9.66940701 -0.01781338 C12.84156738 -0.02637577 16.01358097 -0.02589852 19.18574548 -0.02163279 C22.60399692 -0.0191743 26.02222068 -0.02816958 29.44046211 -0.03567028 C36.14591147 -0.04845081 42.85132084 -0.05020624 49.55678032 -0.04787002 C55.01518543 -0.04608787 60.47357839 -0.04783432 65.93198204 -0.05209446 C66.70858847 -0.05268965 67.4851949 -0.05328484 68.28533486 -0.05389806 C69.86317117 -0.05510985 71.44100748 -0.05632399 73.01884378 -0.05754044 C87.83843899 -0.06843206 102.65801148 -0.06624777 117.47760798 -0.06015559 C130.99843831 -0.05500359 144.51919621 -0.06619339 158.04001223 -0.08525381 C171.93933147 -0.1046963 185.83861658 -0.11287584 199.73794949 -0.10913056 C207.53430757 -0.10722581 215.33060429 -0.10963328 223.12695122 -0.1238451 C229.77618396 -0.13584293 236.42531773 -0.13707202 243.07455204 -0.12505493 C246.45934429 -0.11921999 249.84381037 -0.11958301 253.2286129 -0.13005733 C289.64981424 -0.23454736 319.99192887 5.86179119 346.78067207 32.25447559 C368.35023525 54.21873062 375.71602526 81.90928443 375.74160957 111.87947559 C375.74805698 113.67529367 375.75478669 115.47111074 375.76178169 117.26692677 C375.77369516 121.0188232 375.77746892 124.77062801 375.77627754 128.522542 C375.77607527 133.27128548 375.80330962 138.0194244 375.83782196 142.7680254 C375.86034252 146.47640511 375.86410742 150.18464543 375.86305809 153.89308643 C375.86537908 155.64054402 375.87399805 157.38800763 375.88972282 159.135396 C376.12248743 187.68275623 368.02218972 216.0453536 349.50430489 238.23372364 C346.87962968 241.30079578 346.87962968 241.30079578 346.40567207 245.25447559 C347.65236348 247.03167399 348.9799481 248.75250999 350.34317207 250.44197559 C366.08160426 270.69504282 375.5968902 295.8273252 375.5350666 321.57039356 C375.53769508 322.9301405 375.53769508 322.9301405 375.54037666 324.31735706 C375.5447548 327.29381225 375.54187294 330.27020738 375.53848457 333.24666309 C375.53915842 335.31934591 375.54012912 337.39202865 375.54138374 339.46471119 C375.54285494 343.7969841 375.54072343 348.12923634 375.53604317 352.46150684 C375.53032481 358.02700333 375.53364181 363.59245182 375.53961563 369.15794659 C375.54321864 373.43171524 375.54208424 377.70547238 375.53948784 381.97924137 C375.53881895 384.03265482 375.53964566 386.0860693 375.54196739 388.13948154 C375.54449194 390.9979911 375.54065712 393.85642121 375.5350666 396.71492481 C375.53709084 397.5699509 375.53911507 398.424977 375.54120064 399.30591297 C375.51993904 405.14020862 375.51993904 405.14020862 374.40567207 406.25447559 C373.06494391 406.34974596 371.71924704 406.37636329 370.37513924 406.37473011 C369.5071067 406.37610477 368.63907417 406.37747944 367.74473763 406.37889576 C366.30544144 406.37350285 366.30544144 406.37350285 364.83706856 406.36800098 C363.83230476 406.36814701 362.82754097 406.36829304 361.79232979 406.36844349 C358.4537869 406.36774389 355.11529903 406.35994933 351.77676582 406.35213184 C349.46890989 406.35026783 347.16105357 406.34884385 344.8531971 406.34784412 C338.76549381 406.34401764 332.67781421 406.33418624 326.59012032 406.32314014 C320.38345854 406.31292883 314.17679295 406.3083471 307.9701252 406.30330372 C295.78196372 406.29256409 283.59381986 406.27548611 271.40567207 406.25447559 C271.40567207 405.92447559 271.40567207 405.59447559 271.40567207 405.25447559 C292.52567207 405.25447559 313.64567207 405.25447559 335.40567207 405.25447559 C335.31447006 389.51996837 335.31447006 389.51996837 335.1966877 373.78572559 C335.14266892 367.35443349 335.09154976 360.92322286 335.05923653 354.49178028 C335.0329424 349.2979785 334.99236253 344.1044555 334.94248581 338.91082859 C334.92599149 336.94406994 334.91437008 334.97726328 334.90805817 333.01044559 C334.85357911 317.57363457 334.00924186 302.02428827 328.84317207 287.31697559 C328.59414131 286.59300587 328.34511055 285.86903614 328.0885334 285.12312794 C322.91845159 270.81611827 315.25183489 256.10063841 304.40567207 245.25447559 C304.70761843 241.58466598 306.61150205 239.58203652 308.96817207 236.87947559 C316.47262872 227.74770846 321.89172792 217.14008821 326.40567207 206.25447559 C326.75242989 205.45525684 327.0991877 204.65603809 327.45645332 203.83260059 C335.81198485 183.05668437 334.99934378 161.30809343 334.855196 139.35268116 C334.83919093 135.89420529 334.84928746 132.4359999 334.8589077 128.97751617 C335.42803832 98.15691829 335.42803832 98.15691829 328.28067207 68.44197559 C327.98064278 67.66902149 327.68061348 66.89606739 327.37149239 66.09969044 C317.01035597 40.43977105 297.64561543 21.47220137 272.34317207 10.50447559 C260.57879428 5.84282121 249.74716332 3.10908469 237.11725044 3.09625721 C235.56597783 3.08885024 235.56597783 3.08885024 233.98336637 3.08129364 C230.51948159 3.06594071 227.05561531 3.05756395 223.59170723 3.04915333 C221.10809352 3.03957308 218.62448143 3.02956291 216.14087105 3.01915455 C210.79455924 2.99771676 205.44824993 2.97926941 200.10191917 2.96354961 C192.37206782 2.94081638 184.64224354 2.91267838 176.91241519 2.88323034 C164.37062867 2.83559672 151.82883107 2.7923211 139.28701973 2.75179005 C127.10537033 2.71241358 114.92373078 2.67098221 102.74209785 2.62679005 C101.99095131 2.62406577 101.23980477 2.6213415 100.4658962 2.61853468 C96.69753393 2.60485484 92.92917181 2.59113464 89.16080976 2.57739437 C57.90911653 2.46349606 26.65740359 2.35747562 -4.59432793 2.25447559 C-4.59432793 22.71447559 -4.59432793 43.17447559 -4.59432793 64.25447559 C6.20285957 64.24662037 6.20285957 64.24662037 17.21817207 64.23860645 C40.25835067 64.22255115 63.29852944 64.21143084 86.33871204 64.20341026 C89.91848649 64.20215958 93.49826093 64.20086526 97.07803535 64.19954395 C98.14702303 64.19915049 98.14702303 64.19915049 99.23760641 64.19874907 C110.77172099 64.19439964 122.30583059 64.18651607 133.83994222 64.1773228 C145.67799044 64.16796607 157.51603606 64.1624157 169.35408783 64.1603871 C176.00206482 64.15913899 182.65003252 64.1560166 189.29800606 64.14874554 C195.55563013 64.14195688 201.81323823 64.13986445 208.07086563 64.14136791 C210.36701291 64.14109287 212.66316072 64.13910463 214.95930481 64.13527012 C218.09631335 64.13028846 221.23326172 64.13149384 224.37027168 64.13422108 C225.27690559 64.13130824 226.18353951 64.12839539 227.11764717 64.12539428 C232.30383076 64.1375645 237.27243404 64.5049359 242.40567207 65.25447559 C242.40567207 65.91447559 242.40567207 66.57447559 242.40567207 67.25447559 C174.09567207 66.92447559 105.78567207 66.59447559 35.40567207 66.25447559 C35.40567207 114.10447559 35.40567207 161.95447559 35.40567207 211.25447559 C71.11274485 211.1348161 71.11274485 211.1348161 106.81973457 210.99666309 C121.37929016 210.93622173 135.93883366 210.87782919 150.49844551 210.83260059 C161.10176932 210.79965265 171.70504096 210.75980584 182.30830717 210.71168554 C187.92228753 210.68644851 193.5362334 210.66465889 199.1502552 210.65113163 C204.43613774 210.63828601 209.72190184 210.61620445 215.00771904 210.5870924 C216.94586467 210.57803621 218.88402937 210.57233097 220.82219505 210.57026196 C223.47324204 210.56692559 226.12395604 210.55141103 228.77493477 210.53294849 C229.918938 210.5358506 229.918938 210.5358506 231.08605242 210.53881133 C236.14847696 210.48628931 240.53217674 209.63825398 245.40567207 208.25447559 C244.40567207 210.25447559 244.40567207 210.25447559 241.86993408 211.36444378 C237.85235887 212.3966318 234.09265027 212.52602312 229.97747993 212.49498463 C228.72634842 212.4975479 228.72634842 212.4975479 227.44994152 212.50016296 C224.66312418 212.50344965 221.87654916 212.4924677 219.0897541 212.48152637 C217.08889458 212.48096208 215.08803465 212.48127917 213.08717537 212.48241138 C207.65998149 212.4829852 202.23287602 212.47122618 196.80570269 212.45726347 C191.13223309 212.44476094 185.45876147 212.44358598 179.78528023 212.44121265 C169.04379762 212.43499649 158.30235572 212.4185838 147.56089103 212.39851367 C135.33124419 212.37615894 123.10159541 212.36516231 110.87193322 212.3551228 C85.71648507 212.33421771 60.56109272 212.29753973 35.40567207 212.25447559 C35.40567207 233.04447559 35.40567207 253.83447559 35.40567207 275.25447559 C44.5232917 275.23876514 44.5232917 275.23876514 53.82510567 275.22273731 C73.85789166 275.18966933 93.89067869 275.16743301 113.9234848 275.15085125 C126.07511343 275.14052625 138.22671625 275.1264426 150.37832832 275.10359669 C160.96617608 275.0837002 171.55400516 275.07076807 182.14187109 275.0662986 C187.75121473 275.06368486 193.36050491 275.05751618 198.96983147 275.04301548 C204.24416318 275.02949061 209.51841916 275.02524257 214.79276657 275.02826023 C216.73344966 275.02770778 218.67413516 275.02370012 220.61480331 275.01606464 C223.25477203 275.00618302 225.89445097 275.00848169 228.53442574 275.01396656 C229.69880812 275.00522804 229.69880812 275.00522804 230.88671339 274.99631298 C236.17742965 275.02623317 236.17742965 275.02623317 238.40567207 277.25447559 C171.41567207 276.92447559 104.42567207 276.59447559 35.40567207 276.25447559 C35.44529188 318.66353951 35.44529188 318.66353951 35.49575996 361.07259083 C35.50027657 369.25655079 35.50027657 369.25655079 35.5011158 373.08224964 C35.502656 375.76639079 35.50581329 378.45048569 35.51124763 381.13461781 C35.51934919 385.18947203 35.51957966 389.24429104 35.51919746 393.29915333 C35.52279557 394.50407397 35.52639368 395.70899462 35.53010082 396.95042801 C35.52872333 398.0349579 35.52734583 399.11948778 35.52592659 400.23688221 C35.52684838 401.18725078 35.52777018 402.13761934 35.5287199 403.11678696 C35.40567207 405.25447559 35.40567207 405.25447559 34.40567207 406.25447559 C33.06727734 406.35189627 31.72380383 406.38079118 30.38186836 406.38145924 C29.51528099 406.38427906 28.64869362 406.38709888 27.75584602 406.39000416 C26.79788628 406.38797993 25.83992653 406.3859557 24.8529377 406.38387012 C23.8497802 406.38562244 22.8466227 406.38737476 21.81306648 406.38918018 C18.47933436 406.39360076 15.14565479 406.39065998 11.81192207 406.38728809 C9.50646136 406.38796107 7.20100071 406.38893105 4.89554024 406.39018726 C0.05662551 406.39166452 -4.7822708 406.3895088 -9.6211834 406.38484669 C-15.83927438 406.37914939 -22.05732221 406.38242825 -28.27541161 406.38841915 C-33.03815858 406.39202403 -37.80089523 406.39088652 -42.5636425 406.38829136 C-44.85708941 406.38762189 -47.15053724 406.38845122 -49.44398308 406.39077091 C-52.64321199 406.39329623 -55.84236995 406.38945854 -59.04159355 406.38387012 C-60.47853317 406.38690647 -60.47853317 406.38690647 -61.94450188 406.39000416 C-62.81108925 406.38718433 -63.67767662 406.38436451 -64.57052422 406.38145924 C-65.32786102 406.38108221 -66.08519783 406.38070518 -66.86548424 406.38031673 C-68.59432793 406.25447559 -68.59432793 406.25447559 -69.59432793 405.25447559 C-69.6927103 403.45275541 -69.71988419 401.64712998 -69.72016907 399.84272575 C-69.72277681 398.661097 -69.72538456 397.47946825 -69.72807133 396.26203257 C-69.72584061 394.94727818 -69.72360989 393.63252379 -69.72131157 392.27792835 C-69.72246243 390.88018294 -69.72404972 389.48243784 -69.72603881 388.08469337 C-69.73023701 384.22567229 -69.72813925 380.36667575 -69.7250526 376.50765455 C-69.72280067 372.35285577 -69.72627708 368.19806136 -69.72903252 364.04326344 C-69.73349157 355.89657408 -69.73251312 347.74989392 -69.72961988 339.6032042 C-69.72736621 332.98472705 -69.72705316 326.36625249 -69.72814369 319.74777508 C-69.72829693 318.80764055 -69.72845016 317.86750603 -69.72860803 316.89888258 C-69.72892774 314.98931257 -69.72925196 313.07974257 -69.72958063 311.17017256 C-69.73243585 293.24131308 -69.72914781 275.3124587 -69.72378026 257.38360005 C-69.71931291 241.98468035 -69.7200875 226.5857682 -69.72469902 211.18684864 C-69.73004528 193.32594918 -69.73216039 175.4650542 -69.72908676 157.60415405 C-69.72876819 155.70109999 -69.72845382 153.79804593 -69.72814369 151.89499187 C-69.72798942 150.95853491 -69.72783514 150.02207794 -69.72767619 149.05724349 C-69.72681114 142.44375733 -69.72827368 135.83027401 -69.73062325 129.21678829 C-69.73342205 121.16132388 -69.7326813 113.10586922 -69.7273425 105.05040593 C-69.72470647 100.93682947 -69.72369876 96.8232693 -69.72699165 92.70969296 C-69.72995667 88.94894062 -69.72835833 85.18821977 -69.7230141 81.42747032 C-69.72135588 79.41186753 -69.72464568 77.39626258 -69.72807133 75.38066202 C-69.72546358 74.19642553 -69.72285584 73.01218903 -69.72016907 71.79206657 C-69.72000672 70.76356655 -69.71984436 69.73506653 -69.71967709 68.67539984 C-69.59432793 66.25447559 -69.59432793 66.25447559 -68.59432793 64.25447559 C-48.13432793 64.25447559 -27.67432793 64.25447559 -6.59432793 64.25447559 C-6.67352438 43.94021375 -6.67352438 43.94021375 -6.77450371 23.62605762 C-6.78034236 21.08813615 -6.7854394 18.55021281 -6.78964043 16.01228809 C-6.79486717 15.35066669 -6.80009392 14.6890453 -6.80547905 14.00737476 C-6.82007618 12.06260828 -6.82100521 10.11775386 -6.82137871 8.17293262 C-6.82581993 7.07595051 -6.83026115 5.97896839 -6.83483696 4.84874439 C-6.40086002 0.16761949 -4.13570651 0.00424205 0 0 Z " fill="#FA77C5" transform="translate(150.59432792663574,-0.25447559356689453)"/>
<path d="M0 0 C20.79 0 41.58 0 63 0 C63 112.2 63 224.4 63 340 C41.88 340 20.76 340 -1 340 C-1.02202547 296.83042481 -1.04049729 253.6608549 -1.05106533 210.4912757 C-1.05231611 205.40035241 -1.05361042 200.30942913 -1.05493164 195.21850586 C-1.05519395 194.20494976 -1.05545626 193.19139366 -1.05572652 192.14712375 C-1.06008361 175.71312048 -1.06797138 159.27912069 -1.0771528 142.84511948 C-1.08648825 125.99549997 -1.09205538 109.14588229 -1.09408849 92.2962603 C-1.09546395 81.89035658 -1.09981575 71.4844627 -1.10791647 61.07856201 C-1.11318259 53.95302096 -1.1148046 46.82748502 -1.11350138 39.70194215 C-1.11285779 35.58444472 -1.11387787 31.46696454 -1.11920547 27.34947014 C-1.1240394 23.58626523 -1.1243387 19.8230893 -1.12089889 16.05988311 C-1.12027024 14.0405094 -1.12461203 12.02113608 -1.12908131 10.00176722 C-1.12709026 8.81890507 -1.12509921 7.63604292 -1.12304783 6.41733646 C-1.12342755 5.38791465 -1.12380727 4.35849283 -1.1241985 3.29787642 C-1 1 -1 1 0 0 Z " fill="#7FD958" transform="translate(82,65)"/>
<path d="M0 0 C13.2 0 26.4 0 40 0 C40 112.53 40 225.06 40 341 C6.01 341 -27.98 341 -63 341 C-63 340.67 -63 340.34 -63 340 C-42.21 340 -21.42 340 0 340 C0 227.8 0 115.6 0 0 Z " fill="#FE68C4" transform="translate(145,65)"/>
<path d="M0 0 C0.74659882 -0.00233643 1.49319763 -0.00467285 2.26242065 -0.00708008 C14.30107044 -0.02135599 25.8656758 0.83679652 37.6875 3.25 C37.6875 3.58 37.6875 3.91 37.6875 4.25 C36.7274707 4.1406311 36.7274707 4.1406311 35.74804688 4.02905273 C29.2625659 3.3832905 22.85404865 3.17785395 16.34375 3.22265625 C15.52060303 3.22816498 14.69745605 3.23367371 13.84936523 3.23934937 C10.42127377 3.26702329 6.99335448 3.30222048 3.56542969 3.34594727 C1.03319607 3.3760929 -1.49889475 3.39388078 -4.03125 3.41015625 C-5.19062073 3.43034569 -5.19062073 3.43034569 -6.37341309 3.45094299 C-10.17806844 3.46875376 -13.08968703 3.40225735 -16.3125 1.25 C-13.48442245 -1.57807755 -4.13165588 0.00577303 0 0 Z " fill="#FDC8E8" transform="translate(410.3125,-0.25)"/>
<path d="M0 0 C0.98726527 2.66561622 1.0275526 3.90126985 0.25 6.6875 C-1 9 -1 9 -4 10 C-2.8905928 6.51329166 -1.73662334 3.22515763 0 0 Z " fill="#B6E9A0" transform="translate(417,182)"/>
</svg>
