<?xml version="1.0" encoding="UTF-8"?>
<svg version="1.1" xmlns="http://www.w3.org/2000/svg" width="612" height="408">
<path d="M0 0 C39.99259456 35.11451694 66.31653501 83.53890389 71 137 C71.15284189 139.92865641 71.20874456 142.85287949 71.23828125 145.78515625 C71.2480751 146.59550323 71.25786896 147.40585022 71.26795959 148.24075317 C71.43985782 166.15132896 71.31845543 183.50247452 67 201 C66.77505859 201.91217285 66.55011719 202.8243457 66.31835938 203.76416016 C64.75410982 209.91235038 62.96711061 215.96928604 61 222 C60.77086914 222.70527832 60.54173828 223.41055664 60.30566406 224.13720703 C52.29180372 248.23112823 38.91031664 271.07446428 22 290 C21.55479004 290.50402344 21.10958008 291.00804687 20.65087891 291.52734375 C5.65903933 308.44069405 -11.27535079 322.83580604 -31 334 C-32.00160156 334.57548584 -32.00160156 334.57548584 -33.0234375 335.16259766 C-63.37445661 352.44049053 -94.87116749 360.10773217 -129.5859375 359.78222656 C-133.26359347 359.74803853 -136.93864281 359.76838236 -140.61620998 359.80288982 C-189.16301297 360.18800072 -234.99044372 342.0589384 -270.73828125 309.07421875 C-272.78324667 307.19878414 -274.87619475 305.40967467 -277 303.625 C-312.95021293 272.15051639 -334.50998458 221.80720077 -338.8190918 174.90722656 C-341.92377636 125.01440099 -330.78703173 76.84022652 -301 36 C-300.58314941 35.42765625 -300.16629883 34.8553125 -299.73681641 34.265625 C-289.46078922 20.3394714 -277.75322302 7.53347623 -264 -3 C-263.24074219 -3.63679688 -262.48148437 -4.27359375 -261.69921875 -4.9296875 C-236.1059091 -26.35064247 -205.35045176 -39.03750968 -173 -46 C-172.20964355 -46.17934082 -171.41928711 -46.35868164 -170.60498047 -46.54345703 C-111.46797911 -59.56006039 -44.97507969 -39.32069829 0 0 Z M-243.828125 32.98046875 C-245.73204605 34.75084138 -247.67891151 36.41385768 -249.6875 38.0625 C-275.19667547 59.89360831 -291.27489513 95.50051291 -297 128 C-297.11714355 128.66032227 -297.23428711 129.32064453 -297.35498047 130.00097656 C-304.38522998 171.59749003 -293.7610851 215.6069592 -269.85546875 250.09375 C-243.05133675 286.79850734 -205.40371492 311.64639226 -160.37011719 319.48095703 C-119.00551809 325.85385346 -75.22026773 316.6514642 -40.65625 292.74609375 C-37.700284 290.57190297 -34.83870323 288.32503312 -32 286 C-31.46004395 285.56010742 -30.92008789 285.12021484 -30.36376953 284.66699219 C-18.72873461 275.14954029 -8.94032141 265.06801079 0 253 C0.43103027 252.41863281 0.86206055 251.83726562 1.30615234 251.23828125 C26.65625305 216.48804694 36.04678149 171.81230611 29.48266602 129.53564453 C23.50061758 95.41039986 8.00517241 66.50610075 -15 41 C-16.01320313 39.87658203 -16.01320313 39.87658203 -17.046875 38.73046875 C-23.05668308 32.42530686 -30.01769779 27.17268563 -37 22 C-37.58136719 21.56896973 -38.16273438 21.13793945 -38.76171875 20.69384766 C-60.2264954 5.03541368 -85.73431896 -4.51221804 -112 -8 C-112.67562988 -8.0928125 -113.35125977 -8.185625 -114.04736328 -8.28125 C-160.6050855 -14.154718 -209.46511974 0.91956025 -243.828125 32.98046875 Z " fill="#FAFAFA" transform="translate(440,49)"/>
<path d="M0 0 C4.97795218 2.83592427 8.55474989 7.03265701 10.6875 12.375 C10.94476891 15.31238937 10.94476891 15.31238937 10.95492554 18.80047607 C10.95945665 19.44345052 10.96398776 20.08642497 10.96865618 20.74888349 C10.98130668 22.90134715 10.97967942 25.05355799 10.97802734 27.20605469 C10.98401231 28.75029831 10.99081779 30.29453894 10.99838257 31.83877563 C11.01605583 36.03317302 11.02073858 40.2274888 11.02201414 44.42191982 C11.02343587 47.04387447 11.02770595 49.66580838 11.03300858 52.28775787 C11.05151522 61.43924781 11.05967864 70.59067947 11.05810547 79.7421875 C11.0569048 88.2650483 11.07799072 96.78765556 11.1095928 105.31045222 C11.13577384 112.63290239 11.14647196 119.95526987 11.14519465 127.27776647 C11.14468543 131.64875654 11.15034598 136.01952143 11.17155075 140.39046478 C11.19096331 144.50441233 11.19103721 148.61792066 11.17651749 152.731884 C11.17443181 154.23788726 11.17911591 155.74391821 11.1912384 157.24987411 C11.2509337 165.18254254 11.18687352 171.57575755 6.6875 178.375 C2.35543323 182.74019921 -2.89694076 185.27378324 -9.0546875 185.53125 C-15.49369023 185.08564427 -19.86368306 183.30406141 -24.25 178.5 C-28.33286912 173.57739184 -29.56161819 169.30583324 -29.57319641 162.93643188 C-29.58382362 160.98500526 -29.58382362 160.98500526 -29.59466553 158.99415588 C-29.59237187 157.55941738 -29.5898622 156.1246792 -29.5871582 154.68994141 C-29.59150716 153.17348479 -29.59669093 151.65703038 -29.60264587 150.14057922 C-29.6160282 146.02687533 -29.61661534 141.91326336 -29.61408257 137.79954195 C-29.61301222 134.3627344 -29.61789795 130.9259454 -29.622688 127.48914182 C-29.6337808 119.37914031 -29.63422204 111.26918511 -29.62817383 103.15917969 C-29.62213503 94.79934501 -29.63444314 86.43967868 -29.6557439 78.07987273 C-29.67337202 70.8966962 -29.6793593 63.7135732 -29.67610615 56.53037584 C-29.67429489 52.24275471 -29.6769137 47.95525363 -29.69082069 43.66765213 C-29.70341394 39.634183 -29.70144088 35.60097581 -29.68840981 31.5675106 C-29.68604763 30.09011814 -29.68876587 28.61270715 -29.69703293 27.13533592 C-29.74342596 18.19770798 -29.39771883 12.28849665 -24.625 4.6875 C-17.84960239 -2.08789761 -8.85482063 -3.96882733 0 0 Z " fill="#FBFBFB" transform="translate(315.3125,141.625)"/>
<path d="M0 0 C4.11723782 2.9396911 6.9714803 6.13738959 8.6875 10.9375 C9.69135765 17.53808614 9.32954862 23.51704012 5.87890625 29.32421875 C2.35106345 34.1012649 -2.58100939 36.72142721 -8.3125 37.9375 C-14.67647428 38.19323931 -19.38921802 37.1738124 -24.3125 32.9375 C-28.87191489 28.31458351 -31.3420322 24.13316756 -31.6875 17.625 C-31.52333577 11.81165488 -29.62068102 7.45805603 -25.69921875 3.17578125 C-18.17699623 -3.71263982 -9.06926365 -5.07467305 0 0 Z " fill="#F5F5F5" transform="translate(317.3125,86.0625)"/>
<path d="M0 0 C0.66 0.33 1.32 0.66 2 1 C-5.92 8.92 -13.84 16.84 -22 25 C-22.66 24.67 -23.32 24.34 -24 24 C-23.57589844 23.5875 -23.15179688 23.175 -22.71484375 22.75 C-19.5618287 19.64549287 -16.54089879 16.50831571 -13.6875 13.125 C-9.54083079 8.29668654 -4.79578898 4.16857312 0 0 Z " fill="#C2C2C2" transform="translate(173,48)"/>
</svg>
