<?xml version="1.0" encoding="UTF-8"?>
<svg version="1.1" xmlns="http://www.w3.org/2000/svg" width="612" height="408">
<path d="M0 0 C3.86403927 1.69805471 7.25168768 1.60629868 11.37890625 1.5625 C18.46906559 1.75160129 22.64752629 2.96294977 27.92578125 8.0078125 C28.6528125 8.78898437 29.37984375 9.57015625 30.12890625 10.375 C30.9178125 11.15617187 31.70671875 11.93734375 32.51953125 12.7421875 C37.41328798 17.81419365 45.12890625 25.87848545 45.12890625 33.375 C24.99890625 33.705 4.86890625 34.035 -15.87109375 34.375 C-13.89109375 38.83 -13.89109375 38.83 -11.87109375 43.375 C-4.94109375 43.705 1.98890625 44.035 9.12890625 44.375 C13.61681977 53.9600849 17.53927636 63.72942624 21.44140625 73.5625 C23.64828125 79.110625 25.85515625 84.65875 28.12890625 90.375 C40.33890625 90.705 52.54890625 91.035 65.12890625 91.375 C67.54203125 96.9128125 67.54203125 96.9128125 70.00390625 102.5625 C70.50776855 103.7177417 71.01163086 104.8729834 71.53076172 106.06323242 C71.93182129 106.98467041 72.33288086 107.9061084 72.74609375 108.85546875 C73.15456543 109.79285889 73.56303711 110.73024902 73.98388672 111.69604492 C74.36174316 112.5801001 74.73959961 113.46415527 75.12890625 114.375 C75.69762451 115.690448 75.69762451 115.690448 76.27783203 117.0324707 C77.12890625 119.375 77.12890625 119.375 77.12890625 122.375 C69.53890625 122.375 61.94890625 122.375 54.12890625 122.375 C60.66022272 139.1000534 67.28655286 155.77388031 74.12890625 172.375 C86.33890625 172.705 98.54890625 173.035 111.12890625 173.375 C114.12890625 180.375 114.12890625 180.375 114.12890625 183.375 C106.86890625 183.375 99.60890625 183.375 92.12890625 183.375 C92.77472656 184.9115625 93.42054688 186.448125 94.0859375 188.03125 C100.57333047 203.54995018 106.8701194 219.14132246 113.0743103 234.77539062 C113.94557844 236.97067083 114.8179989 239.16549404 115.69155884 241.35986328 C116.92955975 244.47153902 118.16280216 247.58505589 119.39453125 250.69921875 C119.77210068 251.64693649 120.1496701 252.59465424 120.53868103 253.5710907 C120.88073074 254.43925919 121.22278046 255.30742767 121.57519531 256.2019043 C121.87653381 256.96270798 122.17787231 257.72351166 122.48834229 258.50737 C123.12890625 260.375 123.12890625 260.375 123.12890625 262.375 C114.87890625 262.705 106.62890625 263.035 98.12890625 263.375 C102.08890625 273.275 106.04890625 283.175 110.12890625 293.375 C129.43390625 293.87 129.43390625 293.87 149.12890625 294.375 C153.63109576 303.37937903 153.63109576 303.37937903 155.49487305 307.96142578 C155.91177902 308.98253448 156.328685 310.00364319 156.75822449 311.05569458 C157.19379166 312.13301849 157.62935883 313.21034241 158.078125 314.3203125 C158.53621048 315.44895721 158.99429596 316.57760193 159.46626282 317.740448 C160.42852743 320.11484372 161.38904269 322.48994907 162.34790039 324.86572266 C163.81557326 328.4979385 165.29326445 332.12597218 166.77148438 335.75390625 C167.70764538 338.06745993 168.64321274 340.38125392 169.578125 342.6953125 C170.01976486 343.77668488 170.46140472 344.85805725 170.91642761 345.97219849 C171.52760185 347.49440506 171.52760185 347.49440506 172.15112305 349.04736328 C172.50990036 349.93368439 172.86867767 350.82000549 173.23832703 351.73318481 C174.12890625 354.375 174.12890625 354.375 175.12890625 360.375 C166.21890625 360.375 157.30890625 360.375 148.12890625 360.375 C152.08890625 370.275 156.04890625 380.175 160.12890625 390.375 C172.66890625 390.705 185.20890625 391.035 198.12890625 391.375 C200.12890625 395.375 200.12890625 395.375 200.12890625 400.375 C174.05890625 400.375 147.98890625 400.375 121.12890625 400.375 C120.13890625 397.735 119.14890625 395.095 118.12890625 392.375 C105.25890625 392.045 92.38890625 391.715 79.12890625 391.375 C77.33453125 387.0025 75.54015625 382.63 73.69140625 378.125 C72.84364624 376.06523926 72.84364624 376.06523926 71.97875977 373.96386719 C71.53459717 372.87750977 71.09043457 371.79115234 70.6328125 370.671875 C70.17720947 369.56166992 69.72160645 368.45146484 69.25219727 367.30761719 C68.12890625 364.375 68.12890625 364.375 67.12890625 360.375 C76.36890625 360.375 85.60890625 360.375 95.12890625 360.375 C91.00131351 349.1936807 86.65377801 338.12996157 82.11499023 327.10961914 C81.06087947 324.54907488 80.0116502 321.98656814 78.96289062 319.42382812 C78.27763136 317.7550902 77.59209422 316.08646635 76.90625 314.41796875 C76.60089828 313.67185837 76.29554657 312.92574799 75.98094177 312.1570282 C73.50289598 306.1526396 70.82224026 300.30033481 68.12890625 294.375 C55.25890625 294.045 42.38890625 293.715 29.12890625 293.375 C27.14890625 288.445625 25.16890625 283.51625 23.12890625 278.4375 C22.50242187 276.88039307 21.8759375 275.32328613 21.23046875 273.71899414 C20.74320312 272.50332764 20.2559375 271.28766113 19.75390625 270.03515625 C19.49480469 269.39251831 19.23570312 268.74988037 18.96875 268.08776855 C17.12890625 263.4890718 17.12890625 263.4890718 17.12890625 262.375 C25.70890625 262.375 34.28890625 262.375 43.12890625 262.375 C42.14792969 259.92835938 41.16695313 257.48171875 40.15625 254.9609375 C33.2818363 237.80674809 26.42277655 220.64651132 19.62698364 203.46099854 C18.96112157 201.77745979 18.29467779 200.094151 17.62765503 198.41107178 C16.69923608 196.06770483 15.77308206 193.72345655 14.84765625 191.37890625 C14.57031143 190.67976608 14.29296661 189.98062592 14.00721741 189.26029968 C12.12890625 184.4896694 12.12890625 184.4896694 12.12890625 183.375 C19.71890625 183.375 27.30890625 183.375 35.12890625 183.375 C33.14890625 178.92 33.14890625 178.92 31.12890625 174.375 C31.12890625 173.715 31.12890625 173.055 31.12890625 172.375 C18.91890625 172.375 6.70890625 172.375 -5.87109375 172.375 C-12.78846997 157.38735152 -12.78846997 157.38735152 -15.51953125 150.51953125 C-15.82178619 149.76580734 -16.12404114 149.01208344 -16.43545532 148.23551941 C-17.06038533 146.6745341 -17.68363398 145.1128746 -18.30517578 143.55053711 C-19.26074114 141.15071429 -20.22381672 138.75399478 -21.1875 136.35742188 C-21.79862047 134.82830213 -22.40931418 133.29901174 -23.01953125 131.76953125 C-23.30694183 131.05505325 -23.59435242 130.34057526 -23.89047241 129.60444641 C-25.87109375 124.60503831 -25.87109375 124.60503831 -25.87109375 122.375 C-14.48609375 121.88 -14.48609375 121.88 -2.87109375 121.375 C-4.0621875 118.37792969 -4.0621875 118.37792969 -5.27734375 115.3203125 C-6.0426481 113.38785504 -6.80678089 111.45493825 -7.57080078 109.52197266 C-8.10310435 108.17708609 -8.63662779 106.83268168 -9.17138672 105.48876953 C-9.93907456 103.55886783 -10.70238305 101.62728427 -11.46484375 99.6953125 C-11.92568359 98.53273926 -12.38652344 97.37016602 -12.86132812 96.17236328 C-13.87109375 93.375 -13.87109375 93.375 -13.87109375 91.375 C-15.19109375 91.375 -16.51109375 91.375 -17.87109375 91.375 C-18.12415283 92.27400024 -18.12415283 92.27400024 -18.38232422 93.19116211 C-20.23846419 99.59961865 -22.48442207 105.75952369 -24.99609375 111.9375 C-25.35574219 112.83791016 -25.71539062 113.73832031 -26.0859375 114.66601562 C-28.73489353 121.23879978 -28.73489353 121.23879978 -29.87109375 122.375 C-37.79109375 122.705 -45.71109375 123.035 -53.87109375 123.375 C-60.47109375 139.875 -67.07109375 156.375 -73.87109375 173.375 C-61.99109375 173.375 -50.11109375 173.375 -37.87109375 173.375 C-40.87109375 182.375 -40.87109375 182.375 -41.87109375 183.375 C-43.57881733 183.46213831 -45.29008024 183.48200007 -47 183.47265625 C-48.55170898 183.46782227 -48.55170898 183.46782227 -50.13476562 183.46289062 C-51.22337891 183.45451172 -52.31199219 183.44613281 -53.43359375 183.4375 C-55.07231445 183.43073242 -55.07231445 183.43073242 -56.74414062 183.42382812 C-59.4531787 183.41199826 -62.16210974 183.39551543 -64.87109375 183.375 C-65.0100708 183.90399902 -65.14904785 184.43299805 -65.29223633 184.97802734 C-67.70600026 193.58982346 -71.15453457 201.74520912 -74.55859375 210 C-77.68328125 217.610625 -77.68328125 217.610625 -80.87109375 225.375 C-65.03109375 225.375 -49.19109375 225.375 -32.87109375 225.375 C-32.87109375 227.025 -32.87109375 228.675 -32.87109375 230.375 C-49.37109375 230.705 -65.87109375 231.035 -82.87109375 231.375 C-85.84109375 238.635 -88.81109375 245.895 -91.87109375 253.375 C-89.90317871 253.35405273 -87.93526367 253.33310547 -85.90771484 253.31152344 C-79.39385289 253.24693148 -72.88006694 253.20101977 -66.36597252 253.16775131 C-62.41779002 253.14690753 -58.46995512 253.11864951 -54.52197266 253.07324219 C-50.70940374 253.02966848 -46.89716843 253.00583876 -43.08436966 252.99549103 C-41.63232804 252.98812019 -40.18030396 252.97372644 -38.728405 252.95207977 C-36.68882042 252.92289024 -34.65060086 252.91905014 -32.61083984 252.92089844 C-31.4516806 252.91201599 -30.29252136 252.90313354 -29.09823608 252.89398193 C-24.13279951 253.63409949 -20.04729339 256.49297821 -16.87109375 260.375 C-16.87109375 261.035 -16.87109375 261.695 -16.87109375 262.375 C-25.12109375 262.705 -33.37109375 263.035 -41.87109375 263.375 C-37.91109375 273.275 -33.95109375 283.175 -29.87109375 293.375 C-10.56609375 293.87 -10.56609375 293.87 9.12890625 294.375 C17.31640625 310.75 17.31640625 310.75 14.4453125 319.4453125 C12.15883558 323.82851723 9.45248537 326.13435617 5.12890625 328.375 C1.41285768 328.96055888 -2.26106438 328.93898916 -6.01708984 328.92089844 C-7.12987305 328.93123611 -8.24265625 328.94157379 -9.38916016 328.95222473 C-13.05776475 328.98166117 -16.72581782 328.98315215 -20.39453125 328.984375 C-22.94187472 328.99935598 -25.48920848 329.01608295 -28.03652954 329.03448486 C-34.04999211 329.07371631 -40.06326825 329.09537181 -46.07682383 329.10845876 C-52.92578082 329.12434854 -59.77455406 329.16277236 -66.62340426 329.20305204 C-80.70590549 329.2853716 -94.78840219 329.33951322 -108.87109375 329.375 C-109.19384277 330.17196289 -109.5165918 330.96892578 -109.84912109 331.79003906 C-111.05176981 334.75752397 -112.25586696 337.72441581 -113.4609375 340.69091797 C-113.98137251 341.97290994 -114.5012361 343.25513405 -115.02050781 344.53759766 C-115.76866384 346.38505575 -116.51907236 348.23160116 -117.26953125 350.078125 C-117.71989746 351.18833008 -118.17026367 352.29853516 -118.63427734 353.44238281 C-119.62533676 355.79228524 -120.7305465 358.0939055 -121.87109375 360.375 C-136.22609375 360.87 -136.22609375 360.87 -150.87109375 361.375 C-151.65355469 363.37304688 -152.43601562 365.37109375 -153.2421875 367.4296875 C-153.9998577 369.36255526 -154.75784778 371.29529728 -155.51586914 373.22802734 C-156.04289689 374.57229708 -156.56959149 375.91669748 -157.09594727 377.26123047 C-157.85215304 379.19272684 -158.60955189 381.12375162 -159.3671875 383.0546875 C-159.82279053 384.21726074 -160.27839355 385.37983398 -160.74780273 386.57763672 C-161.87109375 389.375 -161.87109375 389.375 -162.87109375 391.375 C-150.33109375 391.375 -137.79109375 391.375 -124.87109375 391.375 C-125.87109375 396.375 -125.87109375 396.375 -127.87109375 400.375 C-154.27109375 400.375 -180.67109375 400.375 -207.87109375 400.375 C-207.54109375 397.405 -207.21109375 394.435 -206.87109375 391.375 C-219.41109375 391.375 -231.95109375 391.375 -244.87109375 391.375 C-234.50745739 362.01136364 -234.50745739 362.01136364 -232.87109375 360.375 C-230.72550548 360.28724395 -228.57704954 360.26804781 -226.4296875 360.27734375 C-225.12451172 360.28056641 -223.81933594 360.28378906 -222.47460938 360.28710938 C-221.08593685 360.29546599 -219.69726498 360.30393095 -218.30859375 360.3125 C-216.91601719 360.31751334 -215.52343894 360.32207653 -214.13085938 360.32617188 C-210.71089505 360.33800566 -207.29101531 360.3544912 -203.87109375 360.375 C-203.47019531 359.12340088 -203.06929687 357.87180176 -202.65625 356.58227539 C-200.78399352 350.9715927 -198.56317046 345.52462699 -196.30859375 340.05859375 C-195.87603271 339.00269547 -195.44347168 337.94679718 -194.99780273 336.85890198 C-193.62499229 333.50896154 -192.24827939 330.16064385 -190.87109375 326.8125 C-189.49452041 323.4605391 -188.11880447 320.1082309 -186.74438477 316.75538635 C-185.89209652 314.67680271 -185.03848992 312.59875897 -184.18334961 310.52134705 C-183.59759155 309.09430199 -183.59759155 309.09430199 -183 307.63842773 C-182.6604126 306.81285873 -182.3208252 305.98728973 -181.97094727 305.13670349 C-180.5506526 301.57038063 -179.21896402 297.96932071 -177.87109375 294.375 C-190.41109375 294.045 -202.95109375 293.715 -215.87109375 293.375 C-212.49270439 282.11370214 -212.49270439 282.11370214 -210.86328125 278.05859375 C-210.51652344 277.19298828 -210.16976562 276.32738281 -209.8125 275.43554688 C-209.46058594 274.56994141 -209.10867187 273.70433594 -208.74609375 272.8125 C-208.38644531 271.91208984 -208.02679688 271.01167969 -207.65625 270.08398438 C-205.00729397 263.51120022 -205.00729397 263.51120022 -203.87109375 262.375 C-201.87144393 262.28741997 -199.86873265 262.26803424 -197.8671875 262.27734375 C-196.65224609 262.28056641 -195.43730469 262.28378906 -194.18554688 262.28710938 C-192.26645508 262.29967773 -192.26645508 262.29967773 -190.30859375 262.3125 C-189.02533203 262.31701172 -187.74207031 262.32152344 -186.41992188 262.32617188 C-183.23693353 262.33800455 -180.05403613 262.35448932 -176.87109375 262.375 C-176.75635208 261.68182678 -176.64161041 260.98865356 -176.52339172 260.2744751 C-175.78859628 257.00829743 -174.68036823 254.0914457 -173.43432617 250.98339844 C-173.06335564 250.05301506 -173.06335564 250.05301506 -172.68489075 249.10383606 C-171.86962111 247.06231772 -171.04820493 245.02333593 -170.2265625 242.984375 C-169.65432024 241.55589697 -169.08241087 240.12728555 -168.51081848 238.69854736 C-167.31217899 235.70502869 -166.11070266 232.7126706 -164.90698242 229.72119141 C-163.3731241 225.90908894 -161.84447317 222.09492702 -160.31774426 218.27996445 C-159.1360932 215.3280657 -157.95256449 212.37692283 -156.76839638 209.42603302 C-156.20475168 208.0213262 -155.64145945 206.61647789 -155.07854271 205.21147919 C-154.28611937 203.23500717 -153.49140403 201.25947185 -152.69604492 199.28417969 C-152.24605637 198.1645282 -151.79606781 197.04487671 -151.33244324 195.89129639 C-149.58552975 191.68787644 -147.71982454 187.53464427 -145.87109375 183.375 C-137.95109375 183.375 -130.03109375 183.375 -121.87109375 183.375 C-120.88109375 179.745 -119.89109375 176.115 -118.87109375 172.375 C-130.75109375 172.375 -142.63109375 172.375 -154.87109375 172.375 C-147.97546184 153.98664825 -147.97546184 153.98664825 -145.22265625 147.375 C-144.76927383 146.27696045 -144.76927383 146.27696045 -144.30673218 145.15673828 C-143.3722827 142.89514411 -142.43428889 140.63504247 -141.49609375 138.375 C-140.84871833 136.80999509 -140.20158187 135.24489131 -139.5546875 133.6796875 C-137.99665764 129.91013188 -136.43380429 126.14263088 -134.87109375 122.375 C-126.62109375 122.375 -118.37109375 122.375 -109.87109375 122.375 C-108.88109375 119.075 -107.89109375 115.775 -106.87109375 112.375 C-106.22148974 110.57947859 -105.54741918 108.79219367 -104.828125 107.0234375 C-104.51077393 106.23630371 -104.19342285 105.44916992 -103.86645508 104.63818359 C-103.47611084 103.68508301 -103.0857666 102.73198242 -102.68359375 101.75 C-100.79640625 97.109375 -100.79640625 97.109375 -98.87109375 92.375 C-110.75109375 92.045 -122.63109375 91.715 -134.87109375 91.375 C-132.67453125 85.8990625 -132.67453125 85.8990625 -130.43359375 80.3125 C-125.51230418 68.02603184 -120.67435744 55.70801764 -115.87109375 43.375 C-122.47109375 43.375 -129.07109375 43.375 -135.87109375 43.375 C-134.52079475 36.623505 -134.52079475 36.623505 -131.87109375 33.375 C-129.21040344 32.82997131 -129.21040344 32.82997131 -125.96606445 32.93774414 C-124.14320671 32.97606102 -124.14320671 32.97606102 -122.28352356 33.01515198 C-120.96792953 33.06300339 -119.65233551 33.1108548 -118.296875 33.16015625 C-116.93033473 33.18260388 -115.56371869 33.20080551 -114.19706726 33.21495056 C-108.39579936 33.27852171 -102.5973543 33.38408401 -96.79907227 33.58374023 C-81.69851687 34.87020972 -81.69851687 34.87020972 -67.8102417 31.04000854 C-64.41093773 27.33739738 -63.32276294 23.13337563 -61.87109375 18.375 C-57.13561123 11.8896039 -51.90026349 7.20909259 -44.87109375 3.375 C-50.31609375 2.88 -50.31609375 2.88 -55.87109375 2.375 C-52.73482026 -0.76127349 -51.11951727 -1.44407784 -46.99609375 -2.75 C-45.96742188 -3.08257812 -44.93875 -3.41515625 -43.87890625 -3.7578125 C-29.91495667 -7.78378238 -12.82134801 -7.25670853 0 0 Z " fill="#C1FF72" transform="translate(329.87109375,7.625)"/>
<path d="M0 0 C27.39 0 54.78 0 83 0 C83 1.65 83 3.3 83 5 C55.61 5 28.22 5 0 5 C0 3.35 0 1.7 0 0 Z " fill="#C3FF78" transform="translate(277,355)"/>
<path d="M0 0 C18.15 0 36.3 0 55 0 C55 1.98 55 3.96 55 6 C47.32788798 6.02526605 39.6557866 6.04283123 31.98364258 6.05493164 C29.37133381 6.05997377 26.75902789 6.06680725 24.14672852 6.07543945 C20.40119732 6.08751036 16.65570328 6.09322935 12.91015625 6.09765625 C11.73413345 6.10281754 10.55811066 6.10797882 9.34645081 6.11329651 C8.26540573 6.11337204 7.18436066 6.11344757 6.07055664 6.11352539 C5.11347305 6.115746 4.15638947 6.11796661 3.17030334 6.12025452 C1 6 1 6 0 5 C0 3.35 0 1.7 0 0 Z " fill="#C5FF7D" transform="translate(190,382)"/>
</svg>
