<?xml version="1.0" encoding="UTF-8"?>
<svg version="1.1" xmlns="http://www.w3.org/2000/svg" width="612" height="408">
<path d="M0 0 C1.17246385 -0.00311998 2.3449277 -0.00623996 3.55292076 -0.00945449 C6.78540192 -0.01602253 10.01773127 -0.01369783 13.2502085 -0.00748205 C16.74528448 -0.00293963 20.24034061 -0.00995041 23.7354126 -0.01544189 C30.57559239 -0.02432044 37.4157282 -0.02242018 44.25590969 -0.01661661 C49.82096959 -0.01209148 55.3860172 -0.01149091 60.95107841 -0.01366425 C61.74454348 -0.01397071 62.53800854 -0.01427718 63.35551799 -0.01459293 C64.96774849 -0.01523242 66.57997898 -0.01588085 68.19220947 -0.01653811 C83.30166763 -0.02223757 98.4111015 -0.01569089 113.52055567 -0.00493738 C126.45780268 0.00398568 139.39501377 0.00245562 152.33226013 -0.0067749 C167.37848197 -0.01750523 182.42468249 -0.02167558 197.47090763 -0.01555037 C199.07919657 -0.01491333 200.68748551 -0.01428459 202.29577446 -0.01366425 C203.48251067 -0.01320142 203.48251067 -0.01320142 204.69322135 -0.01272924 C210.24174024 -0.01100967 215.7902455 -0.01390168 221.33876228 -0.01862335 C228.11528476 -0.02426349 234.89176097 -0.02265095 241.66827822 -0.01206186 C245.11937788 -0.0068451 248.57040073 -0.00467904 252.02149963 -0.01136017 C286.27966218 -0.06165591 286.27966218 -0.06165591 300.34178162 4.50396729 C302.14389099 5.06857666 302.14389099 5.06857666 303.98240662 5.64459229 C306.40873231 6.49614959 308.48966058 7.47998224 310.7341156 8.75494385 C318.97799056 13.40924248 325.31519601 13.80712912 334.65428162 13.50396729 C350.29105869 13.55588091 350.29105869 13.55588091 355.84178162 18.44146729 C358.07225037 21.15631104 358.07225037 21.15631104 360.09178162 24.25396729 C360.93998062 25.44424105 361.79033118 26.63298382 362.64256287 27.82037354 C366.34074838 33.16102168 369.00698885 37.99958898 371.09178162 44.25396729 C352.77678162 44.74896729 352.77678162 44.74896729 334.09178162 45.25396729 C335.74178162 50.86396729 337.39178162 56.47396729 339.09178162 62.25396729 C339.8136064 65.57731756 340.45355949 68.7214832 340.90428162 72.06646729 C341.02263367 72.90395508 341.14098572 73.74144287 341.26292419 74.60430908 C342.77044894 86.74868355 342.33083279 99.04465004 342.09178162 111.25396729 C347.04178162 111.25396729 351.99178162 111.25396729 357.09178162 111.25396729 C357.11871276 115.67067453 357.13858758 120.08721811 357.15428162 124.50396729 C357.16266052 125.7582251 357.17103943 127.01248291 357.17967224 128.30474854 C357.18450623 130.11265869 357.18450623 130.11265869 357.18943787 131.95709229 C357.19729309 133.6223999 357.19729309 133.6223999 357.20530701 135.3213501 C357.09178162 138.25396729 357.09178162 138.25396729 356.09178162 142.25396729 C352.46178162 142.58396729 348.83178162 142.91396729 345.09178162 143.25396729 C344.93322693 144.30713135 344.77467224 145.36029541 344.61131287 146.44537354 C341.5149775 166.01055684 335.24984215 184.08107873 322.09178162 199.25396729 C322.61965271 199.94619385 322.61965271 199.94619385 323.15818787 200.65240479 C333.86101239 214.79242882 333.86101239 214.79242882 337.09178162 221.25396729 C349.30178162 221.58396729 361.51178162 221.91396729 374.09178162 222.25396729 C377.09178162 229.25396729 377.09178162 229.25396729 377.09178162 232.25396729 C360.59178162 232.25396729 344.09178162 232.25396729 327.09178162 232.25396729 C329.07178162 238.68896729 329.07178162 238.68896729 331.09178162 245.25396729 C333.38231986 257.55054102 333.65097147 269.76434637 334.09178162 282.25396729 C346.30178162 282.58396729 358.51178162 282.91396729 371.09178162 283.25396729 C370.76178162 293.15396729 370.43178162 303.05396729 370.09178162 313.25396729 C357.88178162 313.25396729 345.67178162 313.25396729 333.09178162 313.25396729 C333.09178162 317.21396729 333.09178162 321.17396729 333.09178162 325.25396729 C332.23099993 337.49745412 329.75004274 349.29179222 327.09178162 361.25396729 C338.31178162 361.25396729 349.53178162 361.25396729 361.09178162 361.25396729 C360.09178162 367.25396729 360.09178162 367.25396729 358.09178162 371.25396729 C341.92178162 371.58396729 325.75178162 371.91396729 309.09178162 372.25396729 C307.11178162 375.88396729 305.13178162 379.51396729 303.09178162 383.25396729 C300.41600037 386.74224854 300.41600037 386.74224854 297.77928162 389.56646729 C296.9168988 390.5113501 296.05451599 391.45623291 295.16600037 392.42974854 C287.50712936 399.7757468 281.47690742 402.14337936 270.85725403 402.02259827 C269.64985522 402.03266378 268.44245641 402.04272929 267.19846976 402.05309981 C263.86814209 402.07474142 260.53984545 402.0696971 257.20962238 402.05297434 C253.61034964 402.04141685 250.01126932 402.06446566 246.41204834 402.08293152 C239.3702524 402.11341211 232.32882738 402.11143422 225.28699325 402.09748069 C219.563549 402.08665105 213.84021127 402.08719748 208.11676407 402.0958004 C207.30127297 402.09700852 206.48578188 402.09821664 205.64557893 402.09946137 C203.98879782 402.10195208 202.33201675 402.10446307 200.6752357 402.10699411 C185.15251762 402.12925716 169.63000709 402.11401678 154.10730894 402.0864078 C140.79242312 402.06368003 127.47792152 402.07538396 114.16307068 402.1116333 C98.69168324 402.1537493 83.22053395 402.17287626 67.74908984 402.15660876 C66.09911581 402.15494914 64.44914174 402.15332579 62.79916763 402.15173912 C61.98739498 402.15095418 61.17562232 402.15016924 60.3392505 402.14936051 C54.62263057 402.14547117 48.90618609 402.15818225 43.1896019 402.17746925 C36.2230732 402.20060017 29.25707993 402.1989679 22.29058407 402.16555611 C18.73701706 402.14915801 15.18437852 402.14393441 11.63084221 402.16915512 C7.77751215 402.1961355 3.92565253 402.1688064 0.07234192 402.13612366 C-1.60960925 402.16056941 -1.60960925 402.16056941 -3.32553923 402.18550903 C-8.75636811 402.09305009 -12.05104966 401.7727561 -16.03664207 397.89023876 C-22.2219317 390.66908693 -26.90821838 380.84185011 -26.90821838 371.25396729 C-10.73821838 371.25396729 5.43178162 371.25396729 22.09178162 371.25396729 C22.09178162 367.95396729 22.09178162 364.65396729 22.09178162 361.25396729 C10.54178162 361.25396729 -1.00821838 361.25396729 -12.90821838 361.25396729 C-12.90821838 345.41396729 -12.90821838 329.57396729 -12.90821838 313.25396729 C8.54178162 313.25396729 29.99178162 313.25396729 52.09178162 313.25396729 C51.76178162 303.35396729 51.43178162 293.45396729 51.09178162 283.25396729 C19.41178162 282.75896729 19.41178162 282.75896729 -12.90821838 282.25396729 C-12.90821838 265.75396729 -12.90821838 249.25396729 -12.90821838 232.25396729 C3.59178162 231.92396729 20.09178162 231.59396729 37.09178162 231.25396729 C37.09178162 228.61396729 37.09178162 225.97396729 37.09178162 223.25396729 C19.27178162 222.75896729 19.27178162 222.75896729 1.09178162 222.25396729 C1.09178162 195.85396729 1.09178162 169.45396729 1.09178162 142.25396729 C5.05178162 142.25396729 9.01178162 142.25396729 13.09178162 142.25396729 C12.76178162 132.35396729 12.43178162 122.45396729 12.09178162 112.25396729 C-2.09821838 111.92396729 -16.28821838 111.59396729 -30.90821838 111.25396729 C-30.90821838 89.47396729 -30.90821838 67.69396729 -30.90821838 45.25396729 C-8.79821838 45.25396729 13.31178162 45.25396729 36.09178162 45.25396729 C36.09178162 40.96396729 36.09178162 36.67396729 36.09178162 32.25396729 C37.51756287 28.02740479 37.51756287 28.02740479 39.40428162 24.62896729 C40.01916443 23.48170166 40.63404724 22.33443604 41.26756287 21.15240479 C43.09178162 18.25396729 43.09178162 18.25396729 46.09178162 15.25396729 C17.71178162 14.92396729 -10.66821838 14.59396729 -39.90821838 14.25396729 C-39.90821838 13.59396729 -39.90821838 12.93396729 -39.90821838 12.25396729 C-27.63422131 2.89053202 -15.17637051 -0.06249266 0 0 Z M70.09178162 75.25396729 C70.00323001 77.92022759 69.97653488 80.56043843 69.99412537 83.22662354 C69.99624779 84.42308754 69.99624779 84.42308754 69.99841309 85.64372253 C70.00402845 88.20134164 70.0165835 90.75887446 70.02928162 93.31646729 C70.03429464 95.04628373 70.03885789 96.77610155 70.04295349 98.50592041 C70.05400287 102.75530281 70.07127775 107.0046204 70.09178162 111.25396729 C75.04178162 111.25396729 79.99178162 111.25396729 85.09178162 111.25396729 C85.09178162 121.48396729 85.09178162 131.71396729 85.09178162 142.25396729 C81.46178162 142.25396729 77.83178162 142.25396729 74.09178162 142.25396729 C74.09178162 168.65396729 74.09178162 195.05396729 74.09178162 222.25396729 C85.97178162 222.25396729 97.85178162 222.25396729 110.09178162 222.25396729 C110.09178162 225.55396729 110.09178162 228.85396729 110.09178162 232.25396729 C93.26178162 232.25396729 76.43178162 232.25396729 59.09178162 232.25396729 C59.07115662 240.48334229 59.05053162 248.71271729 59.02928162 257.19146729 C59.02017761 259.79271484 59.01107361 262.3939624 59.00169373 265.07403564 C58.99877474 267.12229358 58.99622614 269.1705521 58.99412537 271.21881104 C58.9890094 272.29328491 58.98389343 273.36775879 58.97862244 274.47479248 C58.97850159 275.48980835 58.97838074 276.50482422 58.97825623 277.55059814 C58.97603561 278.43662216 58.973815 279.32264618 58.9715271 280.23551941 C58.8675012 282.25095418 58.8675012 282.25095418 60.09178162 283.25396729 C62.08095231 283.34276102 64.07330766 283.36083714 66.06443787 283.35162354 C67.34246277 283.34832031 68.62048767 283.34501709 69.9372406 283.34161377 C70.96795181 283.33543533 70.96795181 283.33543533 72.01948547 283.32913208 C74.16216526 283.31642051 76.30478351 283.3098664 78.44749451 283.30499268 C82.99561773 283.29353692 87.54369052 283.27429368 92.09178162 283.25396729 C97.35991552 283.23042286 102.62802046 283.21001133 107.89619446 283.19802856 C110.01294284 283.19151754 112.12960354 283.17900914 114.24632263 283.1663208 C115.52434753 283.16301758 116.80237244 283.15971436 118.11912537 283.15631104 C119.25084167 283.15107422 120.38255798 283.1458374 121.54856873 283.14044189 C124.09178162 283.25396729 124.09178162 283.25396729 125.09178162 284.25396729 C127.54008588 284.34240522 129.9599876 284.3692548 132.40818787 284.35162354 C133.1392424 284.35020859 133.87029694 284.34879364 134.62350464 284.34733582 C136.96713794 284.34172137 139.31067701 284.3291665 141.65428162 284.31646729 C143.2395667 284.31145414 144.82485327 284.30689091 146.41014099 284.30279541 C150.30405772 284.29174725 154.19790367 284.274473 158.09178162 284.25396729 C158.09178162 285.90396729 158.09178162 287.55396729 158.09178162 289.25396729 C147.20178162 289.25396729 136.31178162 289.25396729 125.09178162 289.25396729 C125.09178162 297.17396729 125.09178162 305.09396729 125.09178162 313.25396729 C103.64178162 313.25396729 82.19178162 313.25396729 60.09178162 313.25396729 C60.09178162 321.17396729 60.09178162 329.09396729 60.09178162 337.25396729 C83.53579546 337.32345492 106.97978443 337.37697204 130.42388058 337.4094038 C141.30971727 337.4248636 152.19548874 337.44593621 163.08128357 337.48028564 C172.57086292 337.5102151 182.06039504 337.52954874 191.55002028 337.53623277 C196.57332271 337.540139 201.59649 337.54930081 206.61974907 337.57115746 C211.35159993 337.59157859 216.08326047 337.59778971 220.81515121 337.59329033 C222.5481056 337.59411301 224.28106661 337.60004505 226.01398277 337.61158371 C241.44647984 337.97943684 241.44647984 337.97943684 254.80662537 330.97271729 C258.70802502 325.75503994 260.09178162 319.63196726 260.09178162 313.25396729 C281.54178162 313.25396729 302.99178162 313.25396729 325.09178162 313.25396729 C325.09178162 303.02396729 325.09178162 292.79396729 325.09178162 282.25396729 C303.64178162 282.25396729 282.19178162 282.25396729 260.09178162 282.25396729 C260.09178162 276.31396729 260.09178162 270.37396729 260.09178162 264.25396729 C258.93291077 256.14187138 256.41037163 250.45944824 249.83167171 245.34352875 C243.14469651 241.15598237 235.86416448 240.82078207 228.19114685 240.86920166 C227.13954376 240.86382889 226.08794067 240.85845612 225.00447083 240.85292053 C222.7357917 240.84318487 220.46707552 240.84018555 218.19837761 240.84327698 C214.60375211 240.84777563 211.00961351 240.83369721 207.41503906 240.81488037 C198.49163717 240.77197401 189.56824706 240.76085544 180.64476013 240.74865723 C173.09246519 240.73711556 165.54039333 240.7135202 157.9881916 240.67396545 C154.45405747 240.66042299 150.92022766 240.66456046 147.38607788 240.66937256 C145.21172196 240.66002982 143.03736937 240.64986047 140.86302185 240.63873291 C139.88669296 240.64488113 138.91036407 240.65102936 137.90444946 240.65736389 C129.5564749 240.58253804 124.20831514 239.37050081 118.09178162 233.25396729 C134.26178162 232.92396729 150.43178162 232.59396729 167.09178162 232.25396729 C166.76178162 228.95396729 166.43178162 225.65396729 166.09178162 222.25396729 C153.88178162 222.25396729 141.67178162 222.25396729 129.09178162 222.25396729 C129.14297561 216.41785152 129.20611389 210.58433603 129.29930115 204.74908447 C129.32741709 202.76674906 129.348678 200.7843035 129.36277771 198.80181885 C129.38433754 195.94154853 129.43105376 193.08258959 129.48240662 190.22271729 C129.48363525 189.34530884 129.48486389 188.46790039 129.48612976 187.56390381 C129.62362331 181.7049092 130.47079685 176.9833495 134.09178162 172.25396729 C139.90845228 167.86505728 145.99908491 167.68671221 153.03074646 167.75567627 C154.09849808 167.75015747 155.16624969 167.74463867 156.26635742 167.73895264 C158.57379192 167.72966104 160.8812777 167.72950385 163.18871689 167.73754692 C166.84690065 167.75021402 170.50433398 167.73885148 174.16249084 167.72151184 C180.61290429 167.69483727 187.06313295 167.68921501 193.51359558 167.69061279 C203.82994135 167.6928427 214.14605803 167.67860788 224.46231461 167.63502693 C228.05510368 167.62522504 231.64752932 167.63388778 235.24031067 167.64372253 C237.45821873 167.63757473 239.67612484 167.6306618 241.89402771 167.62286377 C242.88343857 167.63058304 243.87284943 167.63830231 244.89224243 167.64625549 C253.49165591 167.5841819 262.13870705 166.30810854 268.61912537 160.19537354 C272.66427881 154.86263809 274.09178162 148.8243572 274.09178162 142.25396729 C277.72178162 142.25396729 281.35178162 142.25396729 285.09178162 142.25396729 C285.25905599 138.00003962 285.4196492 133.7459292 285.57395935 129.49151611 C285.62744398 128.04320427 285.68277821 126.59495954 285.73997498 125.14678955 C285.82170673 123.06938147 285.89685929 120.99182559 285.97068787 118.91412354 C286.01781921 117.66252441 286.06495056 116.41092529 286.11351013 115.12139893 C286.42793535 112.35621155 286.42793535 112.35621155 285.09178162 111.25396729 C282.73864607 111.18124987 280.38344493 111.17025861 278.02928162 111.19146729 C276.73893005 111.20049072 275.44857849 111.20951416 274.11912537 111.21881104 C272.62059021 111.23621338 272.62059021 111.23621338 271.09178162 111.25396729 C271.05310974 109.37064697 271.05310974 109.37064697 271.01365662 107.44927979 C270.90182644 93.17100144 270.90182644 93.17100144 264.77537537 80.65631104 C259.10111079 75.35311554 251.79517334 73.7972962 244.26501465 73.88647461 C243.14713543 73.88157135 243.14713543 73.88157135 242.0066728 73.87656903 C239.53230657 73.86933914 237.0585425 73.88339561 234.58421326 73.89752197 C232.80142619 73.89673042 231.01863929 73.89463108 229.2358551 73.8913269 C224.41195237 73.88620852 219.58826424 73.89969418 214.76439595 73.9168539 C209.71601344 73.93191695 204.6676334 73.93071641 199.61923218 73.93151855 C191.1500025 73.93520614 182.68085411 73.95015284 174.21165466 73.97271729 C163.32703418 74.00165729 152.44247891 74.01194731 141.55782413 74.01639938 C132.20750971 74.02037219 122.85720955 74.03286976 113.50690532 74.04674625 C110.49575441 74.05085071 107.48460402 74.05377339 104.47345161 74.05654144 C99.75468238 74.06142025 95.03595307 74.07159946 90.31720352 74.08597946 C88.58089623 74.0905161 86.84458355 74.09334433 85.10827065 74.09438705 C82.74869419 74.09612272 80.38921893 74.10397859 78.02966309 74.11352539 C76.98582532 74.11222567 76.98582532 74.11222567 75.92089993 74.11089969 C72.72851261 73.86416425 72.72851261 73.86416425 70.09178162 75.25396729 Z " fill="#C1FF72" transform="translate(131.90821838378906,6.74603271484375)"/>
<path d="M0 0 C30.36 0 60.72 0 92 0 C92 3.3 92 6.6 92 10 C61.64 10 31.28 10 0 10 C0 6.7 0 3.4 0 0 Z " fill="#C1FF72" transform="translate(262,124)"/>
<path d="M0 0 C27.39 0 54.78 0 83 0 C82.67 1.65 82.34 3.3 82 5 C54.94 5 27.88 5 0 5 C0 3.35 0 1.7 0 0 Z " fill="#C3FF77" transform="translate(278,330)"/>
<path d="M0 0 C16.5 0 33 0 50 0 C50 1.65 50 3.3 50 5 C33.5 5 17 5 0 5 C0 3.35 0 1.7 0 0 Z " fill="#C2FF74" transform="translate(216,97)"/>
<path d="M0 0 C4.95 0 9.9 0 15 0 C15 1.65 15 3.3 15 5 C10.05 5 5.1 5 0 5 C0 3.35 0 1.7 0 0 Z " fill="#FDFFFB" transform="translate(241,291)"/>
</svg>
