<?xml version="1.0" encoding="UTF-8"?>
<svg version="1.1" xmlns="http://www.w3.org/2000/svg" width="612" height="408">
<path d="M0 0 C4.89214349 0.01587197 9.78427958 0.02716336 14.67643929 0.03647232 C22.92144215 0.0527015 31.16558649 0.09297838 39.41021729 0.17419434 C41.88879708 0.19583729 44.36746127 0.20952705 46.84613037 0.21459961 C50.12150802 0.22357951 53.39494533 0.26301324 56.66992188 0.31256104 C57.58273926 0.30863846 58.49555664 0.30471588 59.43603516 0.30067444 C63.67902922 0.40090366 66.45164893 0.70860141 69.82128906 3.41461182 C74.10117438 7.90756502 74.55948459 11.75597076 74.92773438 17.83209229 C75.03988281 19.57426025 75.03988281 19.57426025 75.15429688 21.35162354 C75.20328125 22.23205322 75.25226563 23.11248291 75.30273438 24.01959229 C76.42808594 24.00218994 76.42808594 24.00218994 77.57617188 23.98443604 C84.22610854 23.92580939 90.70278311 24.20189921 97.30273438 25.01959229 C98.46989118 28.52106269 98.43630891 31.34629264 98.30273438 35.01959229 C97.97273438 35.67959229 97.64273437 36.33959229 97.30273438 37.01959229 C90.19572718 38.59892722 82.53575308 38.13144309 75.30273438 38.01959229 C75.31433594 38.72342041 75.3259375 39.42724854 75.33789062 40.15240479 C75.52255648 60.36012596 75.52255648 60.36012596 73.30273438 67.01959229 C87.16273438 68.00959229 87.16273438 68.00959229 101.30273438 69.01959229 C96.74789019 73.57443647 93.56883283 73.18466651 87.40405273 73.22491455 C86.47112711 73.23481132 85.53820148 73.24470808 84.57700539 73.25490475 C81.43222273 73.28685535 78.28742729 73.3115269 75.14257812 73.33599854 C72.89639504 73.35672625 70.65021485 73.37777041 68.40403748 73.39910889 C62.29128517 73.45546723 56.17849422 73.50467149 50.0656662 73.55202103 C46.25309427 73.5819912 42.44054261 73.6138571 38.62799072 73.64627075 C-17.81373986 74.12236697 -74.25378414 74.1274087 -130.69726562 74.01959229 C-130.69726562 75.00959229 -130.69726562 75.99959229 -130.69726562 77.01959229 C-141.05779655 77.85319822 -151.30668622 78.14247693 -161.69726562 78.01959229 C-161.69726562 81.97959229 -161.69726562 85.93959229 -161.69726562 90.01959229 C-160.73200958 90.01737167 -159.76675354 90.01515106 -158.77224731 90.01286316 C-146.12226365 89.98478655 -133.47227578 89.96755438 -120.82226562 89.95709229 C-119.79472294 89.95623627 -118.76718025 89.95538025 -117.70849991 89.95449829 C-84.43093939 89.93008004 -51.15991033 90.1201178 -17.88476562 90.51959229 C-16.88817177 90.5315501 -15.89157791 90.54350792 -14.86478424 90.55582809 C-2.80882217 90.70130147 9.24700999 90.8556038 21.30273438 91.01959229 C22.6722611 93.75864574 22.42894799 95.99046561 22.30273438 99.01959229 C21.97273438 99.67959229 21.64273437 100.33959229 21.30273438 101.01959229 C8.24036827 101.19727366 -4.82213169 101.36285784 -17.88476562 101.51959229 C-19.36877995 101.53740816 -19.36877995 101.53740816 -20.88277435 101.55558395 C-54.19650063 101.95195543 -87.50626128 102.10984695 -120.82226562 102.08209229 C-122.37481867 102.08080826 -122.37481867 102.08080826 -123.95873642 102.07949829 C-136.53826459 102.06830382 -149.11776607 102.04853195 -161.69726562 102.01959229 C-161.84143457 108.11673713 -161.43755101 113.6209008 -160.19726562 119.58209229 C-160.05417969 120.30461182 -159.91109375 121.02713135 -159.76367188 121.77154541 C-159.41581522 123.52242392 -159.05765982 125.2712514 -158.69726562 127.01959229 C-157.51696777 127.02257324 -156.33666992 127.0255542 -155.12060547 127.02862549 C-150.72422024 127.0541493 -146.33179322 127.15135524 -141.93701172 127.26983643 C-140.03824625 127.31109986 -138.13895868 127.33313805 -136.23974609 127.33526611 C-120.40463975 127.3725935 -120.40463975 127.3725935 -116.22558594 131.40386963 C-114.71342731 134.23833438 -113.66744568 136.96297388 -112.69726562 140.01959229 C-109.76184194 144.44611764 -106.82644079 146.36162893 -102.07226562 148.70709229 C-100.925 149.28845947 -99.77773438 149.86982666 -98.59570312 150.46881104 C-88.12003309 154.95088213 -76.82965777 154.35937626 -65.66162109 154.43023682 C-63.73897993 154.44942035 -61.81634697 154.46944199 -59.89372253 154.49023438 C-54.69825215 154.54406365 -49.50274593 154.58622723 -44.30715322 154.62623835 C-38.86853179 154.67012441 -33.43001911 154.72482 -27.9914856 154.77835083 C-17.70353978 154.8779806 -7.41553323 154.96794085 2.87253082 155.05439556 C14.58966108 155.15333248 26.30668216 155.26309714 38.02370667 155.37375474 C62.11661394 155.60105057 86.20962604 155.81480281 110.30273438 156.01959229 C110.30273438 156.34959229 110.30273438 156.67959229 110.30273438 157.01959229 C96.95598309 157.94233065 83.67914011 158.14201785 70.30273438 158.01959229 C70.94726562 159.13592041 71.59179688 160.25224854 72.25585938 161.40240479 C74.66783145 166.24549158 74.96544288 170.54985861 75.05273438 175.89459229 C75.09611938 177.25040405 75.09611938 177.25040405 75.14038086 178.63360596 C75.39295877 187.4262347 75.39938381 196.22449391 75.30273438 205.01959229 C76.59824219 205.00799072 77.89375 204.99638916 79.22851562 204.98443604 C91.29186145 204.91135945 103.26441348 205.24913975 115.30273438 206.01959229 C115.68336658 208.34567798 116.01543382 210.68014493 116.30273438 213.01959229 C114.29394825 215.02837841 110.37255554 214.4404152 107.61523438 214.58209229 C106.83100098 214.62455078 106.04676758 214.66700928 105.23876953 214.71075439 C95.2646196 215.19437903 85.2853174 215.10355794 75.30273438 215.01959229 C75.30273438 221.28959229 75.30273438 227.55959229 75.30273438 234.01959229 C43.56517282 234.17804552 11.82776293 234.30327166 -19.91010085 234.37704959 C-23.66239863 234.38580388 -27.4146956 234.3948642 -31.16699219 234.40411377 C-32.28745013 234.40686803 -32.28745013 234.40686803 -33.43054359 234.40967793 C-45.50391496 234.44008489 -57.57705152 234.49524773 -69.65028389 234.55966186 C-82.05109292 234.62526879 -94.45177951 234.66403451 -106.85275495 234.67821175 C-114.49658967 234.68778657 -122.13976053 234.71795635 -129.78339075 234.77500755 C-135.65798716 234.81660447 -141.53224829 234.82074195 -147.40699577 234.81134605 C-149.80709211 234.81326354 -152.20721482 234.82707691 -154.60716057 234.85403061 C-172.22877133 235.04214318 -182.9568926 232.77563796 -197.02539062 221.69537354 C-198.79364018 219.92299255 -199.71919533 218.31007323 -200.69726562 216.01959229 C-188.34664905 215.25281343 -176.07131761 214.88653796 -163.69726562 215.01959229 C-164.67545587 213.70636441 -165.65484673 212.39403076 -166.63476562 211.08209229 C-167.45267578 209.98574463 -167.45267578 209.98574463 -168.28710938 208.86724854 C-169.56634501 207.10614698 -169.56634501 207.10614698 -170.69726562 206.01959229 C-173.72661141 205.89893012 -176.74087797 205.83590955 -179.77148438 205.80084229 C-181.65500665 205.75638996 -183.5384712 205.70943437 -185.421875 205.66021729 C-188.40025714 205.58371648 -191.37590154 205.5196564 -194.35522461 205.49810791 C-210.84240562 205.35542115 -210.84240562 205.35542115 -215.22485352 202.19927979 C-216.82917387 199.8469839 -217.77400275 197.70603264 -218.69726562 195.01959229 C-219.40244534 193.67833379 -220.12191798 192.34446466 -220.85742188 191.01959229 C-221.50248875 189.69152308 -222.13645112 188.35800855 -222.75976562 187.01959229 C-223.09556641 186.30408203 -223.43136719 185.58857178 -223.77734375 184.85137939 C-231.69726562 167.40208895 -231.69726562 167.40208895 -231.69726562 159.01959229 C-210.41226563 158.02959229 -210.41226563 158.02959229 -188.69726562 157.01959229 C-190.00818989 149.39046923 -190.00818989 149.39046923 -191.33007812 141.76324463 C-191.4925 140.80369873 -191.65492188 139.84415283 -191.82226562 138.85552979 C-191.98984375 137.88148193 -192.15742188 136.90743408 -192.33007812 135.90386963 C-192.71102079 132.91154472 -192.75979524 130.03273811 -192.69726562 127.01959229 C-193.90898437 127.03119385 -195.12070313 127.04279541 -196.36914062 127.05474854 C-205.55339005 127.11481255 -214.70969 127.02310513 -223.88476562 126.58209229 C-224.75133789 126.54285645 -225.61791016 126.50362061 -226.51074219 126.4631958 C-232.5726792 126.14417871 -232.5726792 126.14417871 -233.69726562 125.01959229 C-233.9390424 123.40177733 -234.11437417 121.77389968 -234.25976562 120.14459229 C-234.34355469 119.26029541 -234.42734375 118.37599854 -234.51367188 117.46490479 C-234.77030747 112.64889213 -234.7311147 107.84120478 -234.69726562 103.01959229 C-218.68550048 102.25799536 -202.72682177 101.88387638 -186.69726562 102.01959229 C-186.69726562 98.05959229 -186.69726562 94.09959229 -186.69726562 90.01959229 C-188.06753906 90.03119385 -189.4378125 90.04279541 -190.84960938 90.05474854 C-205.49169977 90.13765518 -220.07216758 89.7061015 -234.69726562 89.01959229 C-234.69726562 85.71959229 -234.69726562 82.41959229 -234.69726562 79.01959229 C-224.67288877 78.2905467 -214.75336755 77.87817835 -204.69726562 78.01959229 C-204.69726562 74.71959229 -204.69726562 71.41959229 -204.69726562 68.01959229 C-205.52226562 68.03119385 -206.34726563 68.04279541 -207.19726562 68.05474854 C-216.41036998 68.12672591 -225.512292 67.68759037 -234.69726562 67.01959229 C-235.76922418 62.96997107 -235.4121193 60.11151334 -234.69726562 56.01959229 C-234.57365163 53.05984032 -234.60239302 50.10625633 -234.63476562 47.14459229 C-234.65539062 44.46334229 -234.67601562 41.78209229 -234.69726562 39.01959229 C-223.31226563 38.02959229 -223.31226563 38.02959229 -211.69726562 37.01959229 C-211.36726563 35.03959229 -211.03726563 33.05959229 -210.69726562 31.01959229 C-210.03726563 29.03959229 -209.37726563 27.05959229 -208.69726562 25.01959229 C-215.62726563 24.35959229 -222.55726563 23.69959229 -229.69726562 23.01959229 C-223.90849649 12.88924629 -216.3329634 6.07398038 -205.04443359 2.4956665 C-201.67721707 1.81269665 -198.30418167 1.66044995 -194.88085938 1.49224854 C-193.6420829 1.43026024 -193.6420829 1.43026024 -192.37828064 1.36701965 C-179.18100803 0.76064983 -165.96830536 0.63046873 -152.75976562 0.45709229 C-151.99771568 0.44675209 -151.23566574 0.4364119 -150.45052338 0.42575836 C-100.30390761 -0.25355067 -50.1498406 -0.1645636 0 0 Z " fill="#C1FF72" transform="translate(389.697265625,173.98040771484375)"/>
<path d="M0 0 C2.59518624 -0.00093362 5.19037247 -0.00187715 7.7855587 -0.00283051 C9.07431605 -0.00329927 10.36307339 -0.00376803 11.69088399 -0.004251 C20.96237577 -0.00868936 30.23381778 -0.02373297 39.50528526 -0.04384613 C51.18173433 -0.06909134 62.85813665 -0.08401885 74.53461403 -0.08553195 C80.66353038 -0.08657563 86.79234961 -0.09240017 92.92124176 -0.11035156 C98.63065967 -0.12677697 104.33990623 -0.12901499 110.04933929 -0.12021255 C112.13794476 -0.11944138 114.22655941 -0.12379548 116.31514168 -0.13367081 C119.164622 -0.14635924 122.01349056 -0.14053252 124.86296654 -0.13008881 C125.6860572 -0.13814521 126.50914786 -0.14620162 127.35718066 -0.15450215 C132.60961183 -0.10947356 136.28510879 0.7227818 140.92984581 3.23740387 C145.48531554 9.11156221 145.12682685 12.2072143 145.92984581 20.23740387 C164.07984581 20.23740387 182.22984581 20.23740387 200.92984581 20.23740387 C200.92984581 23.20740387 200.92984581 26.17740387 200.92984581 29.23740387 C182.77984581 29.23740387 164.62984581 29.23740387 145.92984581 29.23740387 C145.92984581 39.46740387 145.92984581 49.69740387 145.92984581 60.23740387 C155.82984581 60.23740387 165.72984581 60.23740387 175.92984581 60.23740387 C174.86748381 67.67393785 174.6484825 68.40367848 169.92984581 73.23740387 C166.75394488 74.82535433 163.3293612 74.37412364 159.84197044 74.36438751 C158.99479751 74.3659475 158.14762458 74.36750749 157.27477974 74.36911476 C154.41572517 74.37312446 151.5567231 74.36993434 148.69766808 74.3667984 C146.65160147 74.36815319 144.60553512 74.36993357 142.55946922 74.37210846 C136.96381518 74.37669445 131.36817946 74.374883 125.77252507 74.37172937 C119.84717655 74.36918701 113.92182953 74.3715508 107.99648094 74.37311554 C97.96588426 74.37494212 87.9352949 74.37252898 77.90469933 74.36777496 C67.76048865 74.3630207 57.61629274 74.36288369 47.47208214 74.36777496 C15.35656419 74.38264492 -16.75856824 74.35904673 -48.87392139 74.24831581 C-52.01075472 74.23760666 -55.14758981 74.22764754 -58.28442574 74.21773529 C-69.34757613 74.18104614 -80.41015056 74.12080195 -91.47291183 74.02032852 C-94.69103712 73.99156756 -97.90901998 73.97152303 -101.12725067 73.95957565 C-104.78773741 73.9454626 -108.44754827 73.91270036 -112.1077373 73.8642354 C-114.03156711 73.84319357 -115.95557597 73.8411408 -117.87952042 73.83984756 C-124.19922729 73.7324078 -128.32107902 73.59850518 -133.07015419 69.23740387 C-135.64717528 65.80137575 -136.07015419 64.63667519 -136.07015419 60.23740387 C-137.05113075 60.24900543 -138.03210732 60.26060699 -139.04281044 60.27256012 C-148.43694287 60.34756317 -157.70475647 59.99094162 -167.07015419 59.23740387 C-167.95510916 49.86636281 -168.18719509 40.63968981 -168.07015419 31.23740387 C-149.38252757 30.4304967 -130.77467111 30.09778586 -112.07015419 30.23740387 C-112.07015419 26.93740387 -112.07015419 23.63740387 -112.07015419 20.23740387 C-114.50648232 20.25480621 -114.50648232 20.25480621 -116.99202919 20.27256012 C-133.7145167 20.35269784 -150.36396731 19.95341051 -167.07015419 19.23740387 C-167.93365703 14.77801209 -168.26946355 12.53741663 -165.94515419 8.54990387 C-165.53007607 7.80353668 -165.11499794 7.05716949 -164.68734169 6.28818512 C-162.26476993 3.21608325 -159.92030196 1.49709186 -155.95240402 0.94015503 C-153.20343958 0.79354769 -150.46783213 0.74989029 -147.71492958 0.73447418 C-146.08004113 0.70848774 -146.08004113 0.70848774 -144.41212463 0.68197632 C-140.64321658 0.62749037 -136.87448422 0.59612485 -133.10531044 0.56552887 C-131.74159007 0.55032398 -130.37787696 0.53445566 -129.0141716 0.51795959 C-86.0132816 -0.0020746 -43.00336171 0.01543923 0 0 Z " fill="#C1FF72" transform="translate(290.0701541900635,5.762596130371094)"/>
<path d="M0 0 C0.38218767 1.65614657 0.71395102 3.32457024 1 5 C-0.98296693 6.98296693 -4.87435949 6.25352708 -7.59204102 6.31201172 C-8.38594931 6.33250202 -9.1798576 6.35299232 -9.99782372 6.37410355 C-12.64558099 6.44011271 -15.29343531 6.49793332 -17.94140625 6.5546875 C-18.85604708 6.57562344 -19.7706879 6.59655937 -20.71304512 6.61812973 C-40.56037272 7.06911765 -60.40369274 7.15851847 -80.25538635 7.12857056 C-82.98654282 7.12493471 -85.71769393 7.12336772 -88.44885254 7.12231445 C-114.6420299 7.10976236 -140.82112515 6.95269618 -167 6 C-167.33 4.02 -167.66 2.04 -168 0 C-112.12451221 -2.03340916 -55.87548779 -2.03340916 0 0 Z " fill="#C1FF73" transform="translate(420,103)"/>
<path d="M0 0 C2.6273412 -0.00158772 5.25467299 -0.00512582 7.88201141 -0.00918579 C33.14045288 -0.04378301 58.36682622 0.37309907 83.61400604 1.12338257 C83.94400604 2.44338257 84.27400604 3.76338257 84.61400604 5.12338257 C58.15703173 6.10968262 31.69987905 6.23630765 5.22801208 6.24676514 C2.60067089 6.24835286 -0.0266609 6.25189095 -2.65399933 6.25595093 C-27.9124408 6.29054814 -53.13881413 5.87366606 -78.38599396 5.12338257 C-78.71599396 3.80338257 -79.04599396 2.48338257 -79.38599396 1.12338257 C-52.92901965 0.13708251 -26.47186696 0.01045749 0 0 Z " fill="#C3FF77" transform="translate(261.38599395751953,142.87661743164063)"/>
<path d="M0 0 C1.72586838 -0.00374634 1.72586838 -0.00374634 3.48660278 -0.00756836 C20.49161154 -0.03777935 37.4490055 0.37820001 54.4375 1.125 C54.9325 2.61 54.9325 2.61 55.4375 4.125 C18.58288847 6.11800071 -18.70788847 6.11800071 -55.5625 4.125 C-55.5625 3.135 -55.5625 2.145 -55.5625 1.125 C-37.04723652 0.12374312 -18.53813346 0.01380995 0 0 Z " fill="#C1FF72" transform="translate(391.5625,302.875)"/>
</svg>
