<?xml version="1.0" encoding="UTF-8"?>
<svg version="1.1" xmlns="http://www.w3.org/2000/svg" width="612" height="408">
<path d="M0 0 C2.2074288 -0.00463714 4.41485682 -0.00966298 6.62228394 -0.01504517 C12.57834623 -0.02807309 18.53439731 -0.03459357 24.4904716 -0.03905582 C28.21501422 -0.0419983 31.93955383 -0.04610496 35.66409492 -0.05056 C47.99686532 -0.06498208 60.32962736 -0.07433579 72.66240542 -0.07842651 C73.32472472 -0.07864928 73.98704402 -0.07887204 74.66943359 -0.07910156 C75.66413629 -0.07943371 75.66413629 -0.07943371 76.67893399 -0.07977256 C87.44981241 -0.08372988 98.22062359 -0.1012236 108.99147599 -0.12446108 C120.07624519 -0.14818157 131.16098634 -0.16037897 142.24578196 -0.16180301 C148.45927843 -0.16285095 154.67267944 -0.1687584 160.88615227 -0.18662262 C166.72130588 -0.20307737 172.5562919 -0.20527141 178.39146042 -0.19648361 C180.53162522 -0.19571222 182.67179897 -0.20006933 184.81194115 -0.20994186 C187.7341569 -0.2226322 190.65577612 -0.21680059 193.57798767 -0.20635986 C194.42351147 -0.21441627 195.26903527 -0.22247267 196.14018101 -0.23077321 C201.45737553 -0.18636702 205.15214839 0.65077775 209.86743164 3.16113281 C215.07941898 8.64743528 214.10228409 11.7445098 214.86743164 20.16113281 C235.65743164 20.16113281 256.44743164 20.16113281 277.86743164 20.16113281 C277.86743164 30.06113281 277.86743164 39.96113281 277.86743164 50.16113281 C253.44743164 50.16113281 229.02743164 50.16113281 203.86743164 50.16113281 C203.86743164 53.79113281 203.86743164 57.42113281 203.86743164 61.16113281 C202.35394642 66.8167881 200.88101423 70.0276437 195.86743164 73.16113281 C191.91709866 74.47791047 188.1459262 74.30427692 184.027771 74.29916382 C182.65547706 74.30339574 182.65547706 74.30339574 181.25546002 74.30771315 C178.17656447 74.31607466 175.09770482 74.31739877 172.01879883 74.31884766 C169.81612039 74.323515 167.61344291 74.32865843 165.4107666 74.33424377 C160.65865926 74.34553644 155.90655824 74.35396524 151.15444183 74.36036301 C143.6309526 74.37104032 136.10750839 74.39128704 128.58404541 74.41348267 C118.02519188 74.44404045 107.46633698 74.47325937 96.9074707 74.49902344 C96.23722293 74.50066162 95.56697515 74.5022998 94.87641683 74.50398763 C84.04238337 74.53020844 73.20834651 74.54888626 62.37429485 74.56561534 C51.23555736 74.58309154 40.09688174 74.61218678 28.95819592 74.65050471 C22.71076675 74.67151941 16.46343165 74.68702404 10.21596527 74.68931198 C4.32918946 74.69147016 -1.55739089 74.70745833 -7.44410706 74.73370171 C-9.59539968 74.74085319 -11.74671609 74.74301602 -13.89801788 74.73959923 C-38.63244633 74.34575721 -38.63244633 74.34575721 -59.78100586 85.74316406 C-62.09490394 88.38475291 -63.55538812 91.00677233 -65.13256836 94.16113281 C-37.41256836 94.49113281 -9.69256836 94.82113281 18.86743164 95.16113281 C18.20743164 98.13113281 17.54743164 101.10113281 16.86743164 104.16113281 C15.54743164 111.42113281 14.22743164 118.68113281 12.86743164 126.16113281 C-9.24256836 126.16113281 -31.35256836 126.16113281 -54.13256836 126.16113281 C-54.13256836 152.23113281 -54.13256836 178.30113281 -54.13256836 205.16113281 C-34.99256836 205.16113281 -15.85256836 205.16113281 3.86743164 205.16113281 C3.86743164 208.79113281 3.86743164 212.42113281 3.86743164 216.16113281 C-2.73256836 216.16113281 -9.33256836 216.16113281 -16.13256836 216.16113281 C-16.13256836 232.66113281 -16.13256836 249.16113281 -16.13256836 266.16113281 C-31.97256836 266.16113281 -47.81256836 266.16113281 -64.13256836 266.16113281 C-63.14256836 282.00113281 -63.14256836 282.00113281 -62.13256836 298.16113281 C-40.68256836 298.16113281 -19.23256836 298.16113281 2.86743164 298.16113281 C4.86743164 304.16113281 4.86743164 304.16113281 5.69165039 306.98535156 C8.22945125 315.40258246 11.1990542 323.99602365 18.74243164 329.11035156 C31.52641186 335.71008135 43.61707153 336.31206138 57.70947266 336.32226562 C59.20666626 336.32690086 60.7038587 336.33192646 62.2010498 336.33731079 C66.24843724 336.35036197 70.29580816 336.3568645 74.34321332 336.36132145 C76.8747201 336.36426174 79.40622244 336.36836814 81.93772697 336.37282562 C89.86719698 336.38647639 97.79665676 336.39615696 105.7261377 336.40002751 C114.86446433 336.40451364 124.0026418 336.42209735 133.14092308 336.45102811 C140.21799606 336.47265295 147.29502706 336.48273209 154.37213272 336.48406863 C158.5937694 336.48511534 162.81526538 336.4909956 167.03686714 336.50888824 C171.00552085 336.52538467 174.97392825 336.52751692 178.94260406 336.51874924 C180.39581653 336.51797992 181.84904235 336.52230774 183.3022213 336.53220749 C193.53232595 336.74534273 193.53232595 336.74534273 202.86743164 333.16113281 C204.49570841 330.98795689 204.49570841 330.98795689 205.24243164 328.41113281 C205.53891602 327.59128906 205.83540039 326.77144531 206.14086914 325.92675781 C208.70098627 316.18179584 207.86743164 307.56146454 207.86743164 297.16113281 C186.41743164 297.16113281 164.96743164 297.16113281 142.86743164 297.16113281 C142.86743164 286.93113281 142.86743164 276.70113281 142.86743164 266.16113281 C158.70743164 266.16113281 174.54743164 266.16113281 190.86743164 266.16113281 C190.53743164 256.92113281 190.20743164 247.68113281 189.86743164 238.16113281 C186.11746826 238.14655029 182.36750488 238.13196777 178.50390625 238.11694336 C166.11458179 238.06660837 153.72538766 238.00016501 141.33618832 237.9254179 C133.82456301 237.88049172 126.31298478 237.84106979 118.80126953 237.81469727 C112.25248056 237.79169137 105.70384095 237.75826455 99.1551705 237.71243125 C95.68910208 237.68853376 92.22318127 237.66978233 88.75703239 237.66351891 C84.88342994 237.65632364 81.01019672 237.62585837 77.13671875 237.59350586 C75.99304337 237.59494095 74.84936798 237.59637604 73.67103577 237.59785461 C67.65161593 237.52674764 63.13297792 237.18817575 57.86743164 234.16113281 C52.95219506 228.08176125 52.74243592 223.66087578 52.86743164 216.16113281 C56.16743164 215.83113281 59.46743164 215.50113281 62.86743164 215.16113281 C62.86743164 212.19113281 62.86743164 209.22113281 62.86743164 206.16113281 C47.02743164 205.83113281 31.18743164 205.50113281 14.86743164 205.16113281 C14.80555664 200.72675781 14.74368164 196.29238281 14.67993164 191.72363281 C14.63896362 189.65384155 14.63896362 189.65384155 14.59716797 187.54223633 C14.55127654 180.71625678 14.62806561 174.32574989 17.86743164 168.16113281 C21.98357717 164.04498729 25.28911328 163.05328349 31.03789401 163.01340312 C31.74031513 163.01358748 32.44273626 163.01377184 33.16644287 163.01396179 C33.91544082 163.0102851 34.66443877 163.00660842 35.43613362 163.00282031 C37.95327892 162.99178145 40.47038294 162.9879393 42.98754883 162.98413086 C44.78941987 162.97786638 46.59128963 162.97121959 48.39315796 162.96421814 C53.29411597 162.94680753 58.19506422 162.93625626 63.09604549 162.92801261 C66.15769304 162.92286269 69.21933756 162.91678696 72.28098297 162.91050148 C81.85926208 162.89144942 91.43753348 162.87721818 101.01582789 162.86888951 C112.07405725 162.85911535 123.13208654 162.83279118 134.19024539 162.79238862 C142.73641847 162.76223492 151.28253418 162.74742135 159.82875943 162.7441085 C164.93358562 162.74175723 170.03819807 162.73278667 175.14296722 162.70764732 C179.94631323 162.6843746 184.74930465 162.68013018 189.55269241 162.69040871 C191.31390436 162.69090437 193.07513371 162.68457504 194.83629227 162.67085266 C197.24478078 162.65313919 199.65199593 162.66023633 202.06048584 162.67338562 C202.75398408 162.66241637 203.44748231 162.65144713 204.16199565 162.64014548 C209.52463878 162.71061104 212.52177605 164.25082038 216.86743164 167.16113281 C218.60961914 169.09082031 218.60961914 169.09082031 219.74243164 171.03613281 C220.13172852 171.67292969 220.52102539 172.30972656 220.92211914 172.96582031 C222.85543824 177.45559441 222.99105948 182.16635475 222.96508789 186.99707031 C222.96259033 187.95661621 222.96009277 188.91616211 222.95751953 189.90478516 C222.94386353 191.70230225 222.94386353 191.70230225 222.92993164 193.53613281 C222.91843413 195.60986138 222.90730901 197.68359203 222.89648438 199.75732422 C222.88680013 201.55859375 222.87711589 203.35986328 222.86743164 205.16113281 C223.74733009 205.1578019 223.74733009 205.1578019 224.64500427 205.15440369 C230.72768548 205.13235071 236.81035541 205.11722617 242.89306641 205.10620117 C245.16585755 205.10115956 247.43864544 205.09432644 249.71142578 205.08569336 C252.97046715 205.07362021 256.22946581 205.06790294 259.48852539 205.06347656 C260.51143173 205.05831528 261.53433807 205.05315399 262.58824158 205.0478363 C263.52914139 205.04776077 264.4700412 205.04768524 265.43945312 205.04760742 C266.27218246 205.04538681 267.1049118 205.0431662 267.96287537 205.0408783 C269.86743164 205.16113281 269.86743164 205.16113281 270.86743164 206.16113281 C270.96533734 207.65851406 270.99718028 209.16056173 270.99243164 210.66113281 C270.99500977 211.47582031 270.99758789 212.29050781 271.00024414 213.12988281 C270.86743164 215.16113281 270.86743164 215.16113281 269.86743164 216.16113281 C266.56743164 216.16113281 263.26743164 216.16113281 259.86743164 216.16113281 C259.86743164 232.66113281 259.86743164 249.16113281 259.86743164 266.16113281 C244.02743164 266.16113281 228.18743164 266.16113281 211.86743164 266.16113281 C212.19743164 276.39113281 212.52743164 286.62113281 212.86743164 297.16113281 C245.04243164 297.65613281 245.04243164 297.65613281 277.86743164 298.16113281 C277.86743164 332.1117501 277.86743164 332.1117501 276.86743164 344.16113281 C275.86743164 345.16113281 275.86743164 345.16113281 273.01377869 345.28138733 C271.73692703 345.27916672 270.46007538 345.27694611 269.14453125 345.2746582 C268.44212814 345.27480423 267.73972504 345.27495026 267.01603699 345.27510071 C264.68391886 345.27440154 262.35187965 345.26660898 260.01977539 345.25878906 C258.40694726 345.2569249 256.79411857 345.25550099 255.18128967 345.25450134 C250.92827807 345.25067604 246.6753004 345.24084566 242.42230225 345.22979736 C238.08565734 345.2195835 233.74900697 345.21500378 229.41235352 345.20996094 C220.89736395 345.1992234 212.38240201 345.18214684 203.86743164 345.16113281 C203.53743164 348.13113281 203.20743164 351.10113281 202.86743164 354.16113281 C233.06243164 354.65613281 233.06243164 354.65613281 263.86743164 355.16113281 C263.86743164 363.04904875 263.86743164 363.04904875 262.91430664 366.31738281 C262.70676758 367.03023438 262.49922852 367.74308594 262.28540039 368.47753906 C262.0649707 369.198125 261.84454102 369.91871094 261.61743164 370.66113281 C261.30999023 371.74201172 261.30999023 371.74201172 260.99633789 372.84472656 C260.35150553 375.00589198 259.71816681 377.07023504 258.86743164 379.16113281 C258.39039795 380.3912207 257.91336426 381.62130859 257.421875 382.88867188 C256.04264488 385.22226727 255.39864894 386.01723606 252.75302124 386.73388672 C249.98034993 386.88752905 247.2855072 386.81487807 244.51196289 386.67675781 C242.42408564 386.64841086 240.33619412 386.62110012 238.24829102 386.59472656 C234.9668857 386.51188879 231.68738192 386.41141182 228.40722656 386.28857422 C215.73957415 385.1326843 215.73957415 385.1326843 204.51342773 389.55371094 C202.28912043 392.32145437 200.61935553 395.08493991 198.86743164 398.16113281 C196.00102904 400.76252725 194.15755187 401.53688405 190.30697823 401.54982948 C189.39151478 401.56011952 188.47605133 401.57040956 187.53284657 401.58101141 C186.53072821 401.57704773 185.52860985 401.57308404 184.49612427 401.56900024 C183.42861022 401.57650248 182.36109617 401.58400471 181.26123321 401.59173429 C177.67170646 401.61312487 174.08250578 401.61295056 170.49291992 401.61279297 C167.92393992 401.62340305 165.3549647 401.63523251 162.78599548 401.64819336 C155.79584265 401.68032099 148.80576356 401.69012897 141.81554651 401.69583559 C137.44675244 401.69958808 133.07797803 401.70839753 128.70919418 401.7183342 C116.60328435 401.74528184 104.49739354 401.7677837 92.39145088 401.77021217 C91.22922177 401.77044553 91.22922177 401.77044553 90.04351329 401.77068361 C88.47285549 401.77097466 86.90219769 401.77126003 85.33153988 401.77153976 C84.55189979 401.77168262 83.77225969 401.77182547 82.96899414 401.77197266 C82.18839681 401.77211232 81.40779947 401.77225199 80.60354768 401.77239589 C67.97428142 401.77552657 55.34535924 401.81206458 42.71620645 401.86360891 C29.73666957 401.9161586 16.75730216 401.94232405 3.77765644 401.94176328 C-3.50442056 401.9420153 -10.78610285 401.95312327 -18.0680809 401.992939 C-24.92518775 402.0302411 -31.78148921 402.03103561 -38.63865471 402.00776672 C-41.14838288 402.00491368 -43.65815836 402.0139048 -46.16779137 402.03594589 C-64.51084749 402.18698372 -77.24927236 400.16294971 -91.13256836 387.16113281 C-91.13256836 386.83113281 -91.13256836 386.50113281 -91.13256836 386.16113281 C-74.63256836 385.83113281 -58.13256836 385.50113281 -41.13256836 385.16113281 C-46.08256836 380.21113281 -46.08256836 380.21113281 -51.13256836 375.16113281 C-55.47203326 368.86190957 -58.69048523 363.04529908 -62.13256836 356.16113281 C-80.28256836 355.83113281 -98.43256836 355.50113281 -117.13256836 355.16113281 C-121.13256836 347.16113281 -121.13256836 347.16113281 -121.13256836 345.16113281 C-101.33256836 345.16113281 -81.53256836 345.16113281 -61.13256836 345.16113281 C-63.11256836 338.23113281 -65.09256836 331.30113281 -67.13256836 324.16113281 C-68.45256836 315.58113281 -69.77256836 307.00113281 -71.13256836 298.16113281 C-92.58256836 297.83113281 -114.03256836 297.50113281 -136.13256836 297.16113281 C-137.23327596 293.85901002 -137.33883908 291.22030003 -137.44897461 287.74316406 C-137.48708252 286.61370361 -137.52519043 285.48424316 -137.56445312 284.32055664 C-137.60755615 282.88607178 -137.65065918 281.45158691 -137.69506836 279.97363281 C-137.83944336 275.41550781 -137.98381836 270.85738281 -138.13256836 266.16113281 C-122.29256836 266.16113281 -106.45256836 266.16113281 -90.13256836 266.16113281 C-90.13256836 249.66113281 -90.13256836 233.16113281 -90.13256836 216.16113281 C-94.1634668 216.17273438 -98.19436523 216.18433594 -102.34741211 216.19628906 C-105.55334695 216.20271609 -108.75927999 216.20814028 -111.96521759 216.212883 C-115.35394067 216.2181725 -118.74263892 216.22524562 -122.13134766 216.23657227 C-126.01586613 216.24947548 -129.90037433 216.25436205 -133.78491211 216.25878906 C-135.00468246 216.26395035 -136.22445282 216.26911163 -137.48118591 216.27442932 C-139.16281578 216.27454262 -139.16281578 216.27454262 -140.87841797 216.2746582 C-141.87103134 216.27687881 -142.86364471 216.27909943 -143.88633728 216.28138733 C-146.13256836 216.16113281 -146.13256836 216.16113281 -147.13256836 215.16113281 C-147.23047406 213.66375157 -147.262317 212.16170389 -147.25756836 210.66113281 C-147.26014648 209.84644531 -147.26272461 209.03175781 -147.26538086 208.19238281 C-147.13256836 206.16113281 -147.13256836 206.16113281 -146.13256836 205.16113281 C-144.78989423 205.07481407 -143.44282514 205.05406808 -142.09741211 205.06347656 C-141.28852539 205.06669922 -140.47963867 205.06992188 -139.64624023 205.07324219 C-138.79610352 205.08162109 -137.9459668 205.09 -137.07006836 205.09863281 C-136.21606445 205.10314453 -135.36206055 205.10765625 -134.48217773 205.11230469 C-132.36561172 205.12412908 -130.24908151 205.14206513 -128.13256836 205.16113281 C-128.13478897 204.45163986 -128.13700958 203.74214691 -128.13929749 203.01115417 C-128.15956795 196.23293494 -128.1746761 189.4547204 -128.18438053 182.67647839 C-128.18953779 179.19405482 -128.19650034 175.71165687 -128.20800781 172.22924805 C-128.25758453 156.83463255 -128.14213343 141.52719011 -127.13256836 126.16113281 C-116.57256836 126.16113281 -106.01256836 126.16113281 -95.13256836 126.16113281 C-94.80256836 121.21113281 -94.47256836 116.26113281 -94.13256836 111.16113281 C-93.47256836 106.21113281 -92.81256836 101.26113281 -92.13256836 96.16113281 C-116.88256836 95.66613281 -116.88256836 95.66613281 -142.13256836 95.16113281 C-141.48075921 88.64304129 -140.87463983 83.1508661 -139.00756836 77.03613281 C-138.79455078 76.32328125 -138.5815332 75.61042969 -138.36206055 74.87597656 C-132.28548722 55.31405167 -132.28548722 55.31405167 -128.13256836 51.16113281 C-125.30830357 51.09444492 -122.50835158 51.09188803 -119.68481445 51.13037109 C-117.8472019 51.14648153 -116.00958568 51.16217833 -114.17196655 51.17752075 C-112.70221437 51.19182821 -112.70221437 51.19182821 -111.20277023 51.20642471 C-104.94439056 51.2578197 -98.68574773 51.25220782 -92.42719078 51.25778389 C-86.92163734 51.26599732 -81.41749835 51.29373677 -75.91235352 51.36328125 C-70.59376375 51.42935992 -65.27743399 51.44176544 -59.95851517 51.41802597 C-57.93228842 51.41863622 -55.90596901 51.43872509 -53.8801384 51.4787941 C-42.86913699 52.14666107 -42.86913699 52.14666107 -33.37661743 47.73265076 C-31.58067188 44.92578678 -30.33413459 42.25899647 -29.13256836 39.16113281 C-26.79663086 36.18066406 -26.79663086 36.18066406 -24.75756836 33.97363281 C-24.08983398 33.23757812 -23.42209961 32.50152344 -22.73413086 31.74316406 C-19.01904334 28.05596759 -15.04468988 24.63857416 -11.13256836 21.16113281 C-36.54256836 20.83113281 -61.95256836 20.50113281 -88.13256836 20.16113281 C-66.70613436 -1.26530119 -28.10799724 0.01386086 0 0 Z " fill="#C1FF72" transform="translate(237.132568359375,6.8388671875)"/>
<path d="M0 0 C55.77 0 111.54 0 169 0 C169 2.64 169 5.28 169 8 C113.23 8 57.46 8 0 8 C0 5.36 0 2.72 0 0 Z " fill="#C2FF74" transform="translate(293,128)"/>
<path d="M0 0 C34.65 0 69.3 0 105 0 C105 2.64 105 5.28 105 8 C70.35 8 35.7 8 0 8 C0 5.36 0 2.72 0 0 Z " fill="#C2FF75" transform="translate(296,315)"/>
<path d="M0 0 C33.99 0 67.98 0 103 0 C103 1.98 103 3.96 103 6 C69.01 6 35.02 6 0 6 C0 4.02 0 2.04 0 0 Z " fill="#C5FF7D" transform="translate(236,268)"/>
<path d="M0 0 C0.66 0 1.32 0 2 0 C2.02689216 1.47906892 2.04634621 2.95827483 2.0625 4.4375 C2.07410156 5.26121094 2.08570313 6.08492187 2.09765625 6.93359375 C2 9 2 9 1 10 C-0.68608966 10.07205511 -2.37500659 10.08386068 -4.0625 10.0625 C-4.98160156 10.05347656 -5.90070313 10.04445312 -6.84765625 10.03515625 C-7.55792969 10.02355469 -8.26820313 10.01195312 -9 10 C-8.67 9.34 -8.34 8.68 -8 8 C-5.36 8 -2.72 8 0 8 C0 5.36 0 2.72 0 0 Z " fill="#C9FF85" transform="translate(506,213)"/>
</svg>
