<?xml version="1.0" encoding="UTF-8"?>
<svg version="1.1" xmlns="http://www.w3.org/2000/svg" width="612" height="408">
<path d="M0 0 C1.1583284 -0.00960754 2.3166568 -0.01921509 3.51008606 -0.02911377 C4.75803452 -0.03336365 6.00598297 -0.03761353 7.29174805 -0.04199219 C8.57905319 -0.04769226 9.86635834 -0.05339233 11.19267273 -0.05926514 C13.9170267 -0.06975504 16.64135135 -0.07561068 19.36572266 -0.07910156 C22.84244097 -0.08457895 26.31876622 -0.10859874 29.79536152 -0.13707352 C33.12748231 -0.16027255 36.45955074 -0.16215426 39.79174805 -0.16699219 C41.03362381 -0.17933899 42.27549957 -0.19168579 43.55500793 -0.20440674 C50.60692568 -0.18628396 56.37081721 -0.09291673 61.9831543 4.62597656 C68.1969752 12.70394374 66.2409668 17.738754 66.2409668 29.16113281 C54.0309668 29.16113281 41.8209668 29.16113281 29.2409668 29.16113281 C29.2409668 39.39113281 29.2409668 49.62113281 29.2409668 60.16113281 C36.4803418 60.13019531 36.4803418 60.13019531 43.8659668 60.09863281 C60.01027386 60.06529864 76.11067528 60.49720401 92.2409668 61.16113281 C92.621599 63.48721851 92.95366624 65.82168545 93.2409668 68.16113281 C91.69501748 69.70708213 90.18068282 69.37792269 88.02612305 69.47753906 C86.67272827 69.54050171 86.67272827 69.54050171 85.29199219 69.60473633 C84.30577881 69.64397217 83.31956543 69.68320801 82.3034668 69.72363281 C81.29469482 69.76609131 80.28592285 69.8085498 79.24658203 69.85229492 C67.24730485 70.30826562 55.24660363 70.25536858 43.2409668 70.16113281 C43.24620361 70.80324707 43.25144043 71.44536133 43.25683594 72.10693359 C43.36243062 87.16019126 43.07682518 102.13060796 42.2409668 117.16113281 C36.05643087 118.07736036 30.62429976 118.16113281 24.2409668 118.16113281 C24.2409668 128.39113281 24.2409668 138.62113281 24.2409668 149.16113281 C27.0459668 149.14050781 29.8509668 149.11988281 32.7409668 149.09863281 C41.61372724 149.06695818 50.39530079 149.47788137 59.2409668 150.16113281 C60.0248179 166.50526219 60.38471155 182.79855663 60.2409668 199.16113281 C61.24329346 199.15243164 61.24329346 199.15243164 62.26586914 199.14355469 C63.59545654 199.13678711 63.59545654 199.13678711 64.9519043 199.12988281 C65.82637207 199.12408203 66.70083984 199.11828125 67.60180664 199.11230469 C71.20996779 199.17906068 74.67316364 199.63256938 78.2409668 200.16113281 C79.3659668 206.91113281 79.3659668 206.91113281 78.2409668 209.16113281 C75.2204271 209.33569445 72.19976525 209.50063311 69.1784668 209.66113281 C67.96513672 209.73267578 67.96513672 209.73267578 66.72729492 209.80566406 C55.87634337 210.36622983 45.15424435 210.16113281 34.2409668 210.16113281 C34.2409668 236.23113281 34.2409668 262.30113281 34.2409668 289.16113281 C37.2109668 289.16113281 40.1809668 289.16113281 43.2409668 289.16113281 C45.58033768 289.44905538 47.91736402 289.76562596 50.2409668 290.16113281 C51.03406586 295.04561595 51.37622402 299.69663517 51.3659668 304.66113281 C51.36983398 306.53285156 51.36983398 306.53285156 51.3737793 308.44238281 C51.2426482 312.11405351 50.82875532 315.54110188 50.2409668 319.16113281 C44.69944039 320.10437135 40.01886908 320.16113281 34.2409668 320.16113281 C34.2409668 327.09113281 34.2409668 334.02113281 34.2409668 341.16113281 C36.9325293 341.13019531 36.9325293 341.13019531 39.6784668 341.09863281 C44.95472754 341.0923739 50.01453102 341.46427471 55.2409668 342.16113281 C56.03406586 347.04561595 56.37622402 351.69663517 56.3659668 356.66113281 C56.36983398 358.53285156 56.36983398 358.53285156 56.3737793 360.44238281 C56.2426482 364.11405351 55.82875532 367.54110188 55.2409668 371.16113281 C50.76492895 371.82424953 46.47976507 372.22241837 41.9519043 372.19238281 C41.0655127 372.18787109 40.17912109 372.18335938 39.26586914 372.17871094 C38.59765137 372.17291016 37.92943359 372.16710937 37.2409668 372.16113281 C37.24620361 372.96856934 37.25144043 373.77600586 37.25683594 374.60791016 C37.27756609 378.25064319 37.29061429 381.89336383 37.3034668 385.53613281 C37.31603516 387.44265625 37.31603516 387.44265625 37.32885742 389.38769531 C37.33208008 390.59941406 37.33530273 391.81113281 37.33862305 393.05957031 C37.34385986 394.18024902 37.34909668 395.30092773 37.35449219 396.45556641 C37.2409668 399.16113281 37.2409668 399.16113281 36.2409668 401.16113281 C12.4809668 401.16113281 -11.2790332 401.16113281 -35.7590332 401.16113281 C-37.14212102 398.39495718 -36.87113517 396.15095282 -36.85668945 393.05957031 C-36.8534668 391.84785156 -36.85024414 390.63613281 -36.84692383 389.38769531 C-36.83854492 388.11667969 -36.83016602 386.84566406 -36.8215332 385.53613281 C-36.81702148 384.25738281 -36.81250977 382.97863281 -36.80786133 381.66113281 C-36.79604533 378.49444636 -36.77810941 375.32778385 -36.7590332 372.16113281 C-30.4890332 372.16113281 -24.2190332 372.16113281 -17.7590332 372.16113281 C-17.7590332 361.93113281 -17.7590332 351.70113281 -17.7590332 341.16113281 C-21.0590332 341.16113281 -24.3590332 341.16113281 -27.7590332 341.16113281 C-29.80322179 341.0289451 -31.84626512 340.87013467 -33.8840332 340.66113281 C-34.81473633 340.56832031 -35.74543945 340.47550781 -36.7043457 340.37988281 C-37.38239258 340.30769531 -38.06043945 340.23550781 -38.7590332 340.16113281 C-39.72412364 333.76740864 -39.8398818 327.62902039 -39.7590332 321.16113281 C-33.8190332 320.83113281 -27.8790332 320.50113281 -21.7590332 320.16113281 C-21.7590332 309.93113281 -21.7590332 299.70113281 -21.7590332 289.16113281 C-27.3690332 288.83113281 -32.9790332 288.50113281 -38.7590332 288.16113281 C-39.58285058 262.1520414 -39.88242368 236.18281305 -39.7590332 210.16113281 C-44.7090332 209.83113281 -49.6590332 209.50113281 -54.7590332 209.16113281 C-55.0890332 206.19113281 -55.4190332 203.22113281 -55.7590332 200.16113281 C-52.50926943 199.98814158 -49.25936758 199.82277579 -46.0090332 199.66113281 C-44.68645508 199.58958984 -44.68645508 199.58958984 -43.3371582 199.51660156 C-33.44856146 199.03590589 -23.70515378 199.16113281 -13.7590332 199.16113281 C-13.7590332 182.66113281 -13.7590332 166.16113281 -13.7590332 149.16113281 C-19.3690332 149.16113281 -24.9790332 149.16113281 -30.7590332 149.16113281 C-34.12471374 149.02960587 -37.46444501 148.88473725 -40.8215332 148.66113281 C-41.60334961 148.6134375 -42.38516602 148.56574219 -43.19067383 148.51660156 C-45.04708152 148.40271152 -46.9031118 148.28269024 -48.7590332 148.16113281 C-49.68875878 138.46542328 -49.87140698 128.88770733 -49.7590332 119.16113281 C-48.28057597 118.98828604 -46.80120122 118.82328821 -45.3215332 118.66113281 C-44.49782227 118.56832031 -43.67411133 118.47550781 -42.82543945 118.37988281 C-40.21817517 118.19388689 -37.67866799 118.13917443 -35.06738281 118.14746094 C-34.25973984 118.14943481 -33.45209686 118.15140869 -32.61997986 118.15344238 C-32.00586746 118.15598022 -31.39175507 118.15851807 -30.7590332 118.16113281 C-30.76125381 117.58706192 -30.76347443 117.01299103 -30.76576233 116.42152405 C-30.78781577 110.46860372 -30.80294004 104.51569491 -30.81396484 98.56274414 C-30.81900637 96.3384555 -30.82583943 94.11417018 -30.83447266 91.88989258 C-30.84654619 88.70034973 -30.85226316 85.51085052 -30.85668945 82.32128906 C-30.86185074 81.3202565 -30.86701202 80.31922394 -30.87232971 79.28785706 C-30.87244301 77.90653847 -30.87244301 77.90653847 -30.87255859 76.49731445 C-30.87477921 75.68235001 -30.87699982 74.86738556 -30.87928772 74.02772522 C-30.7590332 72.16113281 -30.7590332 72.16113281 -29.7590332 71.16113281 C-22.44954306 70.18573133 -15.12095864 70.0528692 -7.7590332 70.16113281 C-7.7590332 66.86113281 -7.7590332 63.56113281 -7.7590332 60.16113281 C-9.39485352 60.17853516 -9.39485352 60.17853516 -11.0637207 60.19628906 C-22.0007315 60.27453282 -32.84678596 59.88345651 -43.7590332 59.16113281 C-44.73778578 49.11144119 -44.84108879 39.25396946 -44.7590332 29.16113281 C-36.1790332 29.16113281 -27.5990332 29.16113281 -18.7590332 29.16113281 C-18.87693797 23.83618871 -18.87693797 23.83618871 -19.02929688 18.51220703 C-19.09134135 12.92019866 -18.13865935 8.83265977 -14.29418945 4.51660156 C-9.37692651 0.61670336 -6.16242608 0.04132768 0 0 Z " fill="#C1FF72" transform="translate(294.759033203125,6.8388671875)"/>
<path d="M0 0 C0.95656494 -0.00451172 1.91312988 -0.00902344 2.89868164 -0.01367188 C9.46019096 -0.00020661 15.91408716 0.42728329 22.4375 1.125 C22.1075 2.115 21.7775 3.105 21.4375 4.125 C14.29163841 4.98187879 7.25655247 5.28363672 0.0625 5.25 C-0.94176025 5.24806641 -1.94602051 5.24613281 -2.98071289 5.24414062 C-9.88643466 5.20388381 -16.70052701 4.95138815 -23.5625 4.125 C-23.5625 3.135 -23.5625 2.145 -23.5625 1.125 C-15.70830434 0.17911837 -7.90255813 0.01528418 0 0 Z " fill="#C2FF74" transform="translate(371.5625,99.875)"/>
<path d="M0 0 C-0.33 0.99 -0.66 1.98 -1 3 C-7.85983809 4.05728087 -14.56783224 4.11639843 -21.5 4.0625 C-22.60859375 4.05798828 -23.7171875 4.05347656 -24.859375 4.04882812 C-27.57297399 4.03713158 -30.28645761 4.02074086 -33 4 C-33 2.68 -33 1.36 -33 0 C-22.19652645 -1.80057892 -10.81888399 -1.54555486 0 0 Z " fill="#C2FF75" transform="translate(257,366)"/>
</svg>
