<?xml version="1.0" encoding="UTF-8"?>
<svg version="1.1" xmlns="http://www.w3.org/2000/svg" width="612" height="408">
<path d="M0 0 C1.92661469 -0.00642769 1.92661469 -0.00642769 3.89215088 -0.01298523 C6.59839025 -0.02039781 9.30449908 -0.02019351 12.01074219 -0.01489258 C15.43731322 -0.00911746 18.86334026 -0.02600529 22.28982162 -0.04923725 C25.60990093 -0.06772975 28.92986988 -0.06378478 32.25 -0.0625 C33.45879822 -0.07170975 34.66759644 -0.08091949 35.9130249 -0.09040833 C47.89928183 -0.02648231 60.12656673 1.03056831 69.390625 9.30078125 C76.48751081 16.49455288 76.48751081 16.49455288 78.390625 20.30078125 C89.610625 20.63078125 100.830625 20.96078125 112.390625 21.30078125 C116.07507651 28.66968427 119.52336833 35.63319144 122.328125 43.30078125 C122.64330078 44.11933594 122.95847656 44.93789063 123.28320312 45.78125 C123.57517578 46.57144531 123.86714844 47.36164062 124.16796875 48.17578125 C124.42827881 48.87445313 124.68858887 49.573125 124.95678711 50.29296875 C125.390625 52.30078125 125.390625 52.30078125 124.390625 56.30078125 C112.510625 56.30078125 100.630625 56.30078125 88.390625 56.30078125 C90.69062603 62.13598864 90.69062603 62.13598864 92.99804688 67.96826172 C93.4244043 69.0571167 93.4244043 69.0571167 93.859375 70.16796875 C94.15263672 70.91159668 94.44589844 71.65522461 94.74804688 72.42138672 C95.390625 74.30078125 95.390625 74.30078125 95.390625 76.30078125 C96.52604736 76.2850708 97.66146973 76.26936035 98.83129883 76.25317383 C103.04118769 76.19890093 107.25104559 76.16444088 111.46118164 76.13598633 C113.28382567 76.12089365 115.10643336 76.1004173 116.92895508 76.07446289 C119.54778 76.03810022 122.16612507 76.02106001 124.78515625 76.0078125 C125.60087601 75.99232864 126.41659576 75.97684479 127.2570343 75.96089172 C132.96758716 75.95919039 132.96758716 75.95919039 135.0388031 77.63163757 C137.1092346 80.18807466 138.11537629 83.00832985 139.34375 86.05078125 C139.60822937 86.70530273 139.87270874 87.35982422 140.14520264 88.03417969 C140.70028637 89.4144635 141.25141545 90.79634346 141.79882812 92.1796875 C142.63964658 94.2983159 143.49862832 96.40893322 144.359375 98.51953125 C144.89694542 99.86283674 145.43344105 101.20657296 145.96875 102.55078125 C146.45762695 103.7728125 146.94650391 104.99484375 147.45019531 106.25390625 C148.390625 109.30078125 148.390625 109.30078125 147.390625 112.30078125 C138.810625 112.30078125 130.230625 112.30078125 121.390625 112.30078125 C122.36 114.71374512 123.329375 117.12670898 124.328125 119.61279297 C127.52438543 127.5703585 130.71686621 135.5294363 133.9074707 143.48927116 C135.84273863 148.31698755 137.77929089 153.14418051 139.71875 157.97021484 C141.58910548 162.62443085 143.45612415 167.27997225 145.32080078 171.93646622 C146.03410248 173.71601469 146.74862134 175.49507577 147.46435547 177.27364731 C148.46380339 179.75782652 149.45897571 182.24367699 150.453125 184.72998047 C150.75234863 185.470849 151.05157227 186.21171753 151.35986328 186.97503662 C153.390625 192.07267693 153.390625 192.07267693 153.390625 194.30078125 C154.42993164 194.26936035 155.46923828 194.23793945 156.54003906 194.20556641 C160.40121378 194.09685109 164.26225382 194.02804506 168.12451172 193.97119141 C169.79499061 193.94104304 171.4653115 193.90011573 173.13525391 193.84814453 C175.53848205 193.77523279 177.93961664 193.74130937 180.34375 193.71484375 C181.08868713 193.68387604 181.83362427 193.65290833 182.60113525 193.6210022 C184.72363281 193.61962891 184.72363281 193.61962891 188.390625 194.30078125 C191.55269484 197.98561777 193.06394208 201.65739105 194.390625 206.30078125 C192.410625 207.29078125 192.410625 207.29078125 190.390625 208.30078125 C191.03294067 209.83448364 191.03294067 209.83448364 191.68823242 211.39916992 C193.30225965 215.25450282 194.91380125 219.11087084 196.5246582 222.9675293 C197.21735778 224.62503176 197.9106987 226.28226636 198.60473633 227.93920898 C210.390625 256.08067746 210.390625 256.08067746 210.390625 259.30078125 C214.680625 258.97078125 218.970625 258.64078125 223.390625 258.30078125 C223.95048096 256.93872559 224.51033691 255.57666992 225.0871582 254.17333984 C227.17032631 249.10696952 229.25647162 244.04182958 231.34350586 238.97705078 C232.24535721 236.78727991 233.14640724 234.59717882 234.04663086 232.40673828 C235.34276788 229.25335357 236.641808 226.1011783 237.94140625 222.94921875 C238.3415242 221.97399261 238.74164215 220.99876648 239.15388489 219.99398804 C243.38616359 209.7463564 243.38616359 209.7463564 245.390625 206.30078125 C248.078125 205.42578125 248.078125 205.42578125 250.390625 205.30078125 C251.875625 200.84578125 251.875625 200.84578125 253.390625 196.30078125 C242.170625 196.30078125 230.950625 196.30078125 219.390625 196.30078125 C218.390625 194.30078125 218.390625 194.30078125 219.51644897 190.91600037 C220.09979343 189.43097977 220.69190465 187.9493869 221.29052734 186.47045898 C221.61064285 185.66222687 221.93075836 184.85399475 222.26057434 184.02127075 C223.32508895 181.33926076 224.4006688 178.66183838 225.4765625 175.984375 C226.21606491 174.12898786 226.95495923 172.27335824 227.69326782 170.41749573 C229.24393112 166.52423477 230.79965999 162.63305154 232.359375 158.7434082 C234.36291888 153.74670754 236.35745793 148.74647714 238.34868431 143.74485683 C239.87506808 139.91193866 241.40438991 136.08019894 242.93480301 132.24888802 C243.67132473 130.4050063 244.40734471 128.5609241 245.14286423 126.71664238 C246.16982898 124.14389651 247.20030445 121.57258743 248.23193359 119.00170898 C248.6917588 117.84764809 248.6917588 117.84764809 249.16087341 116.67027283 C251.27594237 111.41546388 251.27594237 111.41546388 252.390625 110.30078125 C254.46324576 110.21311013 256.53882794 110.19382252 258.61328125 110.203125 C260.50336914 110.20795898 260.50336914 110.20795898 262.43164062 110.21289062 C263.77213609 110.22124722 265.11263088 110.22971218 266.453125 110.23828125 C267.79752442 110.24329465 269.1419256 110.24785783 270.48632812 110.25195312 C273.78780441 110.26378637 277.08919303 110.28027154 280.390625 110.30078125 C280.98810547 108.43099609 280.98810547 108.43099609 281.59765625 106.5234375 C283.49878244 100.82005892 285.77486496 95.2888808 288.078125 89.73828125 C288.49384766 88.72958984 288.90957031 87.72089844 289.33789062 86.68164062 C290.35278479 84.22023065 291.37040753 81.75998842 292.390625 79.30078125 C291.31055176 79.3164917 290.23047852 79.33220215 289.11767578 79.34838867 C285.1184024 79.40260359 281.11916162 79.43710029 277.11962891 79.46557617 C275.38715151 79.48068215 273.65471246 79.50116819 271.92236328 79.52709961 C269.43512522 79.56340446 266.94839174 79.5804889 264.4609375 79.59375 C263.68380402 79.60923386 262.90667053 79.62471771 262.10598755 79.64067078 C259.92236328 79.64135742 259.92236328 79.64135742 256.390625 79.30078125 C255.730625 78.31078125 255.070625 77.32078125 254.390625 76.30078125 C254.97387695 73.95654297 254.97387695 73.95654297 256.12890625 71.23046875 C256.53689453 70.25207031 256.94488281 69.27367188 257.36523438 68.265625 C257.80673828 67.24597656 258.24824219 66.22632812 258.703125 65.17578125 C259.13302734 64.14839844 259.56292969 63.12101562 260.00585938 62.0625 C263.20228571 54.48912054 263.20228571 54.48912054 264.390625 53.30078125 C267.2749632 53.21212917 270.13524658 53.18556829 273.01953125 53.203125 C274.31587746 53.20524742 274.31587746 53.20524742 275.63841248 53.20741272 C278.41001792 53.21302886 281.1815438 53.22558406 283.953125 53.23828125 C285.8274728 53.24329417 287.70182185 53.24785744 289.57617188 53.25195312 C294.18102044 53.26300353 298.78580921 53.28027895 303.390625 53.30078125 C303.58205078 52.22509888 303.58205078 52.22509888 303.77734375 51.12768555 C304.38579704 48.32303562 305.21609533 45.76326172 306.203125 43.0703125 C306.55632812 42.10287109 306.90953125 41.13542969 307.2734375 40.13867188 C307.64210938 39.14029297 308.01078125 38.14191406 308.390625 37.11328125 C308.75929688 36.10330078 309.12796875 35.09332031 309.5078125 34.05273438 C312.23590226 26.61022674 312.23590226 26.61022674 313.390625 24.30078125 C303.490625 23.97078125 293.590625 23.64078125 283.390625 23.30078125 C282.390625 20.30078125 282.390625 20.30078125 283.5078125 18.03125 C289.96201578 8.69416926 297.94730598 2.87641673 309.19555664 0.77734375 C314.97246981 -0.02128318 320.80899998 0.13810788 326.62890625 0.1328125 C327.90485153 0.1294841 329.18079681 0.1261557 330.4954071 0.12272644 C333.18927511 0.11767425 335.88304214 0.11488369 338.5769043 0.11547852 C342.00270935 0.11557994 345.42830623 0.10193622 348.85406208 0.08470631 C352.15400197 0.07081093 355.45394112 0.07149493 358.75390625 0.0703125 C359.97088699 0.06312698 361.18786774 0.05594147 362.44172668 0.04853821 C376.94093101 0.08706454 388.29837375 2.66363707 398.796875 13.140625 C400.390625 15.30078125 400.390625 15.30078125 402.390625 21.30078125 C413.610625 21.30078125 424.830625 21.30078125 436.390625 21.30078125 C441.68396428 31.88745981 443.38348517 43.50101996 442.390625 55.30078125 C441.390625 56.30078125 441.390625 56.30078125 437.88061523 56.41430664 C436.32014078 56.41414751 434.75966107 56.40845267 433.19921875 56.3984375 C432.37938004 56.39702255 431.55954132 56.3956076 430.71485901 56.39414978 C428.08591118 56.38853414 425.45704727 56.37597904 422.828125 56.36328125 C421.05013143 56.35826826 419.27213654 56.35370501 417.49414062 56.34960938 C413.12624342 56.33940877 408.7585286 56.31983657 404.390625 56.30078125 C404.390625 62.90078125 404.390625 69.50078125 404.390625 76.30078125 C407.03835938 76.27757813 409.68609375 76.254375 412.4140625 76.23046875 C414.97232585 76.21488093 417.53058396 76.20273125 420.08886719 76.19091797 C421.86981567 76.18084694 423.65074757 76.1671894 425.43164062 76.14990234 C427.98832283 76.12570212 430.54478685 76.11430941 433.1015625 76.10546875 C433.90056976 76.09514618 434.69957703 76.08482361 435.52279663 76.07418823 C437.4801972 76.07378899 439.43705577 76.17837056 441.390625 76.30078125 C443.85969468 78.76985093 443.62709618 80.16351894 443.64286804 83.53309631 C443.63568253 84.24147141 443.62849701 84.9498465 443.62109375 85.6796875 C443.62040642 86.77058937 443.62040642 86.77058937 443.6197052 87.88352966 C443.61668336 89.42098624 443.60879905 90.95843977 443.59643555 92.49584961 C443.57817073 94.8573686 443.5759259 97.21849586 443.57617188 99.58007812 C443.57125703 101.07161799 443.56542886 102.56315519 443.55859375 104.0546875 C443.55748093 104.76508682 443.5563681 105.47548615 443.55522156 106.20741272 C443.50667865 111.1847276 443.50667865 111.1847276 442.390625 112.30078125 C433.480625 112.30078125 424.570625 112.30078125 415.390625 112.30078125 C415.390625 139.36078125 415.390625 166.42078125 415.390625 194.30078125 C434.10438442 194.26117006 434.10438442 194.26117006 452.81811523 194.21069336 C455.15348261 194.20777445 457.48885049 194.20522583 459.82421875 194.203125 C461.66264343 194.19545105 461.66264343 194.19545105 463.53820801 194.18762207 C464.69534302 194.18750122 465.85247803 194.18738037 467.04467773 194.18725586 C468.56024513 194.18392494 468.56024513 194.18392494 470.10643005 194.18052673 C472.390625 194.30078125 472.390625 194.30078125 473.390625 195.30078125 C473.48913671 197.13194008 473.52035129 198.96698058 473.515625 200.80078125 C473.51820313 201.80109375 473.52078125 202.80140625 473.5234375 203.83203125 C473.390625 206.30078125 473.390625 206.30078125 472.390625 207.30078125 C470.46394993 207.38826332 468.53410639 207.40775459 466.60546875 207.3984375 C464.85073242 207.39360352 464.85073242 207.39360352 463.06054688 207.38867188 C461.82884766 207.38029297 460.59714844 207.37191406 459.328125 207.36328125 C457.47477539 207.35651367 457.47477539 207.35651367 455.58398438 207.34960938 C452.51948383 207.33777733 449.45507779 207.32129298 446.390625 207.30078125 C446.39284561 207.96254868 446.39506622 208.6243161 446.39735413 209.30613708 C446.41940465 216.16738345 446.43453062 223.02861982 446.44555664 229.88989258 C446.4505987 232.45369882 446.45743214 235.01750216 446.46606445 237.58129883 C446.47813564 241.25733146 446.48385442 244.93332623 446.48828125 248.609375 C446.49344254 249.76352402 446.49860382 250.91767303 446.50392151 252.10679626 C446.50399704 253.16782059 446.50407257 254.22884491 446.50415039 255.32202148 C446.506371 256.26134018 446.50859161 257.20065887 446.51087952 258.16844177 C446.390625 260.30078125 446.390625 260.30078125 445.390625 261.30078125 C442.6919345 261.37403561 440.02559944 261.39300476 437.328125 261.36328125 C434.70875 261.34265625 432.089375 261.32203125 429.390625 261.30078125 C429.390625 271.53078125 429.390625 281.76078125 429.390625 292.30078125 C434.340625 292.30078125 439.290625 292.30078125 444.390625 292.30078125 C446.390625 294.30078125 446.390625 294.30078125 446.63786316 296.43275452 C446.63572563 297.75393532 446.63572563 297.75393532 446.63354492 299.10180664 C446.63662155 300.09946548 446.63969818 301.09712433 446.64286804 302.12501526 C446.63568253 303.2052446 446.62849701 304.28547394 446.62109375 305.3984375 C446.62040642 307.05533852 446.62040642 307.05533852 446.6197052 308.74571228 C446.61668047 311.08349683 446.60878764 313.42127933 446.59643555 315.7590332 C446.57818334 319.35179728 446.57592578 322.94430379 446.57617188 326.53710938 C446.57125674 328.80338766 446.56542844 331.06966419 446.55859375 333.3359375 C446.55748093 334.41819107 446.5563681 335.50044464 446.55522156 336.61549377 C446.54884171 337.61000046 446.54246185 338.60450714 446.53588867 339.62915039 C446.53207687 340.509142 446.52826508 341.38913361 446.52433777 342.29579163 C446.390625 344.30078125 446.390625 344.30078125 445.390625 345.30078125 C442.7243647 345.38933286 440.08415386 345.41602798 437.41796875 345.3984375 C436.22150475 345.39631508 436.22150475 345.39631508 435.00086975 345.39414978 C432.44325065 345.38853441 429.88571782 345.37597937 427.328125 345.36328125 C425.59830855 345.35826823 423.86849074 345.35370498 422.13867188 345.34960938 C417.88928947 345.33856 413.63997188 345.32128511 409.390625 345.30078125 C409.390625 348.27078125 409.390625 351.24078125 409.390625 354.30078125 C410.65507446 354.29292603 410.65507446 354.29292603 411.94506836 354.28491211 C415.06290436 354.26790299 418.18071677 354.25534719 421.29858398 354.24584961 C422.64982886 354.24081068 424.00106826 354.23397948 425.35229492 354.2253418 C427.29082934 354.21325706 429.229403 354.20808297 431.16796875 354.203125 C432.91968384 354.19526978 432.91968384 354.19526978 434.70678711 354.18725586 C437.390625 354.30078125 437.390625 354.30078125 438.390625 355.30078125 C438.49145264 357.73738571 438.53035103 360.14502826 438.5234375 362.58203125 C438.52439423 363.31071411 438.52535095 364.03939697 438.52633667 364.79016113 C438.52701835 366.33357835 438.52516488 367.87699842 438.52099609 369.42041016 C438.51564762 371.79075525 438.52094142 374.16091084 438.52734375 376.53125 C438.52668297 378.02734417 438.5254018 379.52343822 438.5234375 381.01953125 C438.52546173 381.73306763 438.52748596 382.446604 438.52957153 383.1817627 C438.50557691 388.18582934 438.50557691 388.18582934 437.390625 389.30078125 C434.52794933 389.37403293 431.689906 389.3931633 428.828125 389.36328125 C428.02181641 389.35876953 427.21550781 389.35425781 426.38476562 389.34960938 C424.38668744 389.33778643 422.38864717 389.31985039 420.390625 389.30078125 C420.40222656 390.07164062 420.41382813 390.8425 420.42578125 391.63671875 C420.43480469 392.63960938 420.44382812 393.6425 420.453125 394.67578125 C420.46472656 395.67351562 420.47632813 396.67125 420.48828125 397.69921875 C420.390625 400.30078125 420.390625 400.30078125 419.390625 402.30078125 C410.15064948 402.32390649 400.91068386 402.34169726 391.67068577 402.35259342 C387.38062585 402.35782186 383.09058567 402.36491878 378.80053711 402.3762207 C374.663831 402.387051 370.52714392 402.39305839 366.39042473 402.39565849 C364.80870196 402.39751249 363.22698029 402.40113261 361.64526558 402.40651131 C359.43739662 402.41372365 357.22960727 402.41477211 355.02172852 402.41430664 C353.76264175 402.41652725 352.50355499 402.41874786 351.20631409 402.42103577 C348.390625 402.30078125 348.390625 402.30078125 347.390625 401.30078125 C347.2916956 399.13597328 347.260914 396.9678434 347.265625 394.80078125 C347.26304687 393.61484375 347.26046875 392.42890625 347.2578125 391.20703125 C347.390625 388.30078125 347.390625 388.30078125 348.390625 387.30078125 C351.25531825 387.22747794 354.08956174 387.20860294 356.953125 387.23828125 C359.7375 387.25890625 362.521875 387.27953125 365.390625 387.30078125 C365.390625 377.07078125 365.390625 366.84078125 365.390625 356.30078125 C362.00941406 356.31238281 358.62820313 356.32398438 355.14453125 356.3359375 C351.8846852 356.343727 348.62484017 356.34980437 345.36499023 356.35571289 C343.09219909 356.3607545 340.8194112 356.36758762 338.54663086 356.3762207 C335.28758949 356.38829386 332.02859083 356.39401112 328.76953125 356.3984375 C327.74662491 356.40359879 326.72371857 356.40876007 325.66981506 356.41407776 C324.72891525 356.41415329 323.78801544 356.41422882 322.81860352 356.41430664 C321.98587418 356.41652725 321.15314484 356.41874786 320.29518127 356.42103577 C318.390625 356.30078125 318.390625 356.30078125 317.390625 355.30078125 C317.29211329 353.46962242 317.26089871 351.63458192 317.265625 349.80078125 C317.26304687 348.80046875 317.26046875 347.80015625 317.2578125 346.76953125 C317.390625 344.30078125 317.390625 344.30078125 318.390625 343.30078125 C320.10927909 343.20718935 321.83178244 343.18333514 323.55297852 343.18725586 C324.65404434 343.18733139 325.75511017 343.18740692 326.88954163 343.18748474 C328.0874382 343.19264603 329.28533478 343.19780731 330.51953125 343.203125 C331.73889877 343.20453995 332.9582663 343.2059549 334.21458435 343.20741272 C338.1274557 343.21303158 342.04027081 343.22558729 345.953125 343.23828125 C348.59830647 343.24329382 351.24348883 343.24785715 353.88867188 343.25195312 C360.38936226 343.26215829 366.88993033 343.28173004 373.390625 343.30078125 C373.390625 327.46078125 373.390625 311.62078125 373.390625 295.30078125 C363.23349408 295.34037947 363.23349408 295.34037947 353.07641602 295.39086914 C351.82014404 295.3933667 350.56387207 295.39586426 349.26953125 295.3984375 C347.9760376 295.40367432 346.68254395 295.40891113 345.34985352 295.41430664 C342.390625 295.30078125 342.390625 295.30078125 341.390625 294.30078125 C341.28975288 291.79153972 341.25090468 289.31041741 341.2578125 286.80078125 C341.25637741 285.67446289 341.25637741 285.67446289 341.25491333 284.52539062 C341.25423162 282.93489498 341.25608528 281.34439658 341.26025391 279.75390625 C341.26560233 277.3111347 341.26030866 274.86854704 341.25390625 272.42578125 C341.25456703 270.88411418 341.2558482 269.34244722 341.2578125 267.80078125 C341.25578827 267.06537109 341.25376404 266.32996094 341.25167847 265.57226562 C341.27567339 260.41573286 341.27567339 260.41573286 342.390625 259.30078125 C344.68213917 259.2128715 346.97635024 259.19384087 349.26953125 259.203125 C350.52580322 259.20562256 351.7820752 259.20812012 353.07641602 259.21069336 C354.68572998 259.21979736 356.29504395 259.22890137 357.953125 259.23828125 C363.0475 259.25890625 368.141875 259.27953125 373.390625 259.30078125 C373.390625 241.81078125 373.390625 224.32078125 373.390625 206.30078125 C374.710625 205.97078125 376.030625 205.64078125 377.390625 205.30078125 C377.390625 202.33078125 377.390625 199.36078125 377.390625 196.30078125 C376.36590088 196.30601807 375.34117676 196.31125488 374.28540039 196.31665039 C370.49667224 196.33470094 366.70794791 196.34621345 362.91918945 196.35571289 C361.27693036 196.36075299 359.63467577 196.36758503 357.99243164 196.3762207 C355.63687021 196.38830051 353.28136791 196.39401264 350.92578125 196.3984375 C350.18723404 196.40359879 349.44868683 196.40876007 348.6877594 196.41407776 C346.92164412 196.41427375 345.15565354 196.36272844 343.390625 196.30078125 C341.63623337 194.54638962 342.27079537 192.24580669 342.26620483 189.90907288 C342.26980011 189.13655685 342.27339539 188.36404083 342.27709961 187.56811523 C342.27695358 186.75842285 342.27680756 185.94873047 342.2766571 185.11450195 C342.27735646 182.42526617 342.2851499 179.73609876 342.29296875 177.046875 C342.29483285 175.18742409 342.29625679 173.32797269 342.29725647 171.46852112 C342.30108229 166.56449029 342.31091312 161.66048889 342.32196045 156.75646973 C342.33217319 151.75627033 342.33675379 146.75606619 342.34179688 141.75585938 C342.35253533 131.93748704 342.36961252 122.11913659 342.390625 112.30078125 C339.420625 112.30078125 336.450625 112.30078125 333.390625 112.30078125 C332.80667969 114.3890625 332.80667969 114.3890625 332.2109375 116.51953125 C330.32178166 122.80058954 327.82115002 128.76633142 325.265625 134.80078125 C324.20406084 137.33525723 323.14388484 139.87026644 322.0859375 142.40625 C321.80137695 143.08749435 321.51681641 143.76873871 321.22363281 144.47062683 C317.11895048 154.31998218 313.13716037 164.21969271 309.140625 174.11328125 C308.36963722 176.0208367 307.5986413 177.92838885 306.82763672 179.8359375 C305.01395825 184.32367904 303.20235175 188.81224968 301.390625 193.30078125 C317.725625 193.79578125 317.725625 193.79578125 334.390625 194.30078125 C335.45399751 198.5542713 335.45391407 198.92583961 333.515625 202.48828125 C333.14695312 203.18308594 332.77828125 203.87789062 332.3984375 204.59375 C331.390625 206.30078125 331.390625 206.30078125 330.390625 207.30078125 C328.72445385 207.34141957 327.05674405 207.34350225 325.390625 207.30078125 C325.2767041 207.98817383 325.1627832 208.67556641 325.04541016 209.38378906 C324.29304874 212.73547222 323.15966915 215.77068055 321.9140625 218.97265625 C321.66776596 219.60853668 321.42146942 220.24441711 321.16770935 220.89956665 C320.37131614 222.95167549 319.56878827 225.00131365 318.765625 227.05078125 C318.21821235 228.45518993 317.67093073 229.85964969 317.1237793 231.26416016 C314.20005319 238.75460637 311.25186472 246.2351858 308.203125 253.67578125 C307.92452637 254.35737305 307.64592773 255.03896484 307.35888672 255.74121094 C305.51840831 260.17299794 305.51840831 260.17299794 304.390625 261.30078125 C302.17374506 261.4595208 299.95207202 261.55211962 297.73046875 261.6171875 C296.51480225 261.65529541 295.29913574 261.69340332 294.04663086 261.73266602 C292.48952393 261.77576904 290.93241699 261.81887207 289.328125 261.86328125 C284.39875 262.00765625 279.469375 262.15203125 274.390625 262.30078125 C270.430625 272.20078125 266.470625 282.10078125 262.390625 292.30078125 C270.970625 292.30078125 279.550625 292.30078125 288.390625 292.30078125 C289.72345935 296.29928429 288.36355773 298.66518879 286.85546875 302.390625 C286.57973526 303.09038956 286.30400177 303.79015411 286.01991272 304.51112366 C285.43158668 305.9982149 284.83863211 307.48348195 284.24145508 308.96704102 C283.34574289 311.19446964 282.46560739 313.42753817 281.58789062 315.66210938 C277.40913676 326.21524352 272.96266766 336.64474345 266.828125 346.23828125 C266.29058594 347.09292969 265.75304687 347.94757813 265.19921875 348.828125 C263.06651338 351.74389713 261.20209932 353.99968892 258.390625 356.30078125 C255.43744636 356.73681472 253.06120238 356.88533535 250.125 356.796875 C248.49609361 356.79870614 246.86718735 356.80066327 245.23828125 356.80273438 C242.69298777 356.77556304 240.14810342 356.73840716 237.60302734 356.69555664 C223.93062164 356.47245451 223.93062164 356.47245451 212.390625 363.30078125 C209.5703125 364.5078125 209.5703125 364.5078125 207.265625 365.11328125 C206.49992187 365.32597656 205.73421875 365.53867187 204.9453125 365.7578125 C197.15829124 367.41285219 189.45299427 367.51988249 181.5324707 367.54101562 C179.35783562 367.55064963 177.18417691 367.5817001 175.00976562 367.61328125 C161.98169996 367.71335316 149.00799946 366.7244833 138.390625 358.30078125 C137.400625 356.81578125 137.400625 356.81578125 136.390625 355.30078125 C138.3137139 353.37769235 141.86132985 354.04756287 144.48828125 353.984375 C145.55156898 353.95320335 145.55156898 353.95320335 146.63633728 353.92140198 C148.90849805 353.85583527 151.18077764 353.79698895 153.453125 353.73828125 C154.99024683 353.69510276 156.5273565 353.6514887 158.06445312 353.60742188 C161.8397209 353.50014676 165.6151086 353.39889988 169.390625 353.30078125 C168.78734375 352.6557666 168.1840625 352.01075195 167.5625 351.34619141 C153.04904251 335.57743688 146.97720496 315.37218895 140.390625 295.30078125 C139.14188599 295.34005737 139.14188599 295.34005737 137.86791992 295.38012695 C134.7761881 295.4653908 131.6850555 295.52804877 128.5925293 295.57543945 C126.59708945 295.61292499 124.60219448 295.6764566 122.60742188 295.74023438 C121.35380859 295.75634766 120.10019531 295.77246094 118.80859375 295.7890625 C117.65125732 295.81524658 116.4939209 295.84143066 115.30151367 295.8684082 C112.390625 295.30078125 112.390625 295.30078125 110.66040039 293.16113281 C110.24137451 292.2172168 109.82234863 291.27330078 109.390625 290.30078125 C108.93977539 289.31650146 108.48892578 288.33222168 108.02441406 287.31811523 C106.81143173 284.41790998 105.60122964 281.51674913 104.40966797 278.60766602 C103.63953648 276.73563529 102.8532208 274.8709285 102.06640625 273.00585938 C101.58042969 271.82314453 101.09445313 270.64042969 100.59375 269.421875 C100.14676758 268.34349365 99.69978516 267.2651123 99.23925781 266.15405273 C98.390625 263.30078125 98.390625 263.30078125 99.390625 259.30078125 C108.630625 259.30078125 117.870625 259.30078125 127.390625 259.30078125 C126.37742188 256.87605469 125.36421875 254.45132813 124.3203125 251.953125 C123.31711593 249.5501601 122.31430261 247.14703559 121.31152344 244.74389648 C120.62539843 243.10017543 119.9388881 241.45661515 119.25195312 239.81323242 C117.27083256 235.07331459 115.29902097 230.32969813 113.33728027 225.58172607 C112.40802609 223.3427088 111.46676402 221.10901905 110.52441406 218.87548828 C109.96107939 217.51876598 109.39822699 216.1618433 108.8359375 214.8046875 C108.33852051 213.61818604 107.84110352 212.43168457 107.32861328 211.20922852 C106.390625 208.30078125 106.390625 208.30078125 107.390625 205.30078125 C108.380625 205.30078125 109.370625 205.30078125 110.390625 205.30078125 C109.400625 202.33078125 108.410625 199.36078125 107.390625 196.30078125 C95.510625 196.30078125 83.630625 196.30078125 71.390625 196.30078125 C68.00730224 189.53413572 64.88988219 182.91767303 62.09765625 175.921875 C61.7094873 174.95912659 61.32131836 173.99637817 60.92138672 173.00445557 C59.67787038 169.91735973 58.4402962 166.82792474 57.203125 163.73828125 C56.35081129 161.6174711 55.4981899 159.49678459 54.64526367 157.3762207 C52.97737918 153.22763445 51.31190765 149.07809251 49.6484375 144.92773438 C47.74851647 140.18906569 45.83806989 135.45476209 43.921875 130.72265625 C43.01548666 128.47792044 42.1092209 126.23313512 41.203125 123.98828125 C40.5985144 122.49929321 40.5985144 122.49929321 39.98168945 120.98022461 C39.6280835 120.09987549 39.27447754 119.21952637 38.91015625 118.3125 C38.61214111 117.57475342 38.31412598 116.83700684 38.00708008 116.0769043 C37.390625 114.30078125 37.390625 114.30078125 37.390625 112.30078125 C34.750625 112.30078125 32.110625 112.30078125 29.390625 112.30078125 C29.390625 139.36078125 29.390625 166.42078125 29.390625 194.30078125 C40.610625 194.30078125 51.830625 194.30078125 63.390625 194.30078125 C64.390625 195.30078125 64.390625 195.30078125 64.5234375 197.76953125 C64.52085937 198.76984375 64.51828125 199.77015625 64.515625 200.80078125 C64.51820313 201.80109375 64.52078125 202.80140625 64.5234375 203.83203125 C64.390625 206.30078125 64.390625 206.30078125 63.390625 207.30078125 C60.72003649 207.44193286 58.06630262 207.34325232 55.390625 207.30078125 C55.39284561 207.96254868 55.39506622 208.6243161 55.39735413 209.30613708 C55.41940465 216.16738345 55.43453062 223.02861982 55.44555664 229.88989258 C55.4505987 232.45369882 55.45743214 235.01750216 55.46606445 237.58129883 C55.47813564 241.25733146 55.48385442 244.93332623 55.48828125 248.609375 C55.49344254 249.76352402 55.49860382 250.91767303 55.50392151 252.10679626 C55.50399704 253.16782059 55.50407257 254.22884491 55.50415039 255.32202148 C55.506371 256.26134018 55.50859161 257.20065887 55.51087952 258.16844177 C55.390625 260.30078125 55.390625 260.30078125 54.390625 261.30078125 C51.94232074 261.38921918 49.52241901 261.41606877 47.07421875 261.3984375 C45.97763695 261.39631508 45.97763695 261.39631508 44.85890198 261.39414978 C42.51526868 261.38853533 40.17172961 261.37598047 37.828125 261.36328125 C36.24283992 261.35826811 34.65755334 261.35370488 33.07226562 261.34960938 C29.17831957 261.33941046 25.28457823 261.31983812 21.390625 261.30078125 C21.390625 271.53078125 21.390625 281.76078125 21.390625 292.30078125 C24.54367188 292.27757812 27.69671875 292.254375 30.9453125 292.23046875 C33.99006752 292.21488325 37.03481814 292.20273223 40.07958984 292.19091797 C42.2000527 292.18084374 44.32050161 292.16718392 46.44091797 292.14990234 C49.48408443 292.12571636 52.52706766 292.11431256 55.5703125 292.10546875 C56.52243622 292.09514618 57.47455994 292.08482361 58.45553589 292.07418823 C59.33629791 292.07403717 60.21705994 292.07388611 61.12451172 292.07373047 C61.90172577 292.06928925 62.67893982 292.06484802 63.47970581 292.06027222 C65.390625 292.30078125 65.390625 292.30078125 67.390625 294.30078125 C67.63113403 296.40151978 67.63113403 296.40151978 67.61767578 299.02587891 C67.61744919 300.49717758 67.61744919 300.49717758 67.61721802 301.99819946 C67.60689545 303.05969208 67.59657288 304.12118469 67.5859375 305.21484375 C67.5831076 306.29962006 67.58027771 307.38439636 67.57736206 308.50204468 C67.56614078 311.97673438 67.54103262 315.45116907 67.515625 318.92578125 C67.50559772 321.27734004 67.49647143 323.62890285 67.48828125 325.98046875 C67.46619511 331.75399369 67.43269845 337.52736926 67.390625 343.30078125 C68.65507446 343.29292603 68.65507446 343.29292603 69.94506836 343.28491211 C73.06290436 343.26790299 76.18071677 343.25534719 79.29858398 343.24584961 C80.64982886 343.24081068 82.00106826 343.23397948 83.35229492 343.2253418 C85.29082934 343.21325706 87.229403 343.20808297 89.16796875 343.203125 C90.91968384 343.19526978 90.91968384 343.19526978 92.70678711 343.18725586 C95.390625 343.30078125 95.390625 343.30078125 96.390625 344.30078125 C96.48913671 346.13194008 96.52035129 347.96698058 96.515625 349.80078125 C96.51820313 350.80109375 96.52078125 351.80140625 96.5234375 352.83203125 C96.390625 355.30078125 96.390625 355.30078125 95.390625 356.30078125 C93.97837454 356.39365385 92.56153566 356.41824897 91.14624023 356.41430664 C90.24538193 356.41423111 89.34452362 356.41415558 88.41636658 356.41407776 C87.43720779 356.40891647 86.45804901 356.40375519 85.44921875 356.3984375 C84.45181168 356.39702255 83.4544046 356.3956076 82.42677307 356.39414978 C79.22719376 356.38853239 76.02768331 356.37597696 72.828125 356.36328125 C70.66471455 356.35826849 68.50130301 356.3537052 66.33789062 356.34960938 C61.02208726 356.3394063 55.70643361 356.31983433 50.390625 356.30078125 C50.390625 366.53078125 50.390625 376.76078125 50.390625 387.30078125 C54.680625 387.30078125 58.970625 387.30078125 63.390625 387.30078125 C64.390625 388.30078125 64.390625 388.30078125 64.5234375 390.953125 C64.52085937 392.03722656 64.51828125 393.12132812 64.515625 394.23828125 C64.51820313 395.31980469 64.52078125 396.40132813 64.5234375 397.515625 C64.390625 400.30078125 64.390625 400.30078125 63.390625 402.30078125 C54.15064948 402.32390649 44.91068386 402.34169726 35.67068577 402.35259342 C31.38062585 402.35782186 27.09058567 402.36491878 22.80053711 402.3762207 C18.663831 402.387051 14.52714392 402.39305839 10.39042473 402.39565849 C8.80870196 402.39751249 7.22698029 402.40113261 5.64526558 402.40651131 C3.43739662 402.41372365 1.22960727 402.41477211 -0.97827148 402.41430664 C-2.23735825 402.41652725 -3.49644501 402.41874786 -4.79368591 402.42103577 C-7.609375 402.30078125 -7.609375 402.30078125 -8.609375 401.30078125 C-8.68181553 399.28113926 -8.69314688 397.25911001 -8.671875 395.23828125 C-8.66285156 394.13355469 -8.65382813 393.02882813 -8.64453125 391.890625 C-8.63292969 391.03597656 -8.62132813 390.18132812 -8.609375 389.30078125 C-9.66439209 389.30601807 -10.71940918 389.31125488 -11.80639648 389.31665039 C-15.7069413 389.33470026 -19.6074824 389.3462132 -23.50805664 389.35571289 C-25.19881816 389.36075315 -26.88957529 389.3675853 -28.58032227 389.3762207 C-31.00538207 389.38829982 -33.43038444 389.39401248 -35.85546875 389.3984375 C-36.99610023 389.40617943 -36.99610023 389.40617943 -38.15977478 389.41407776 C-39.9767007 389.41427363 -41.79350627 389.36275402 -43.609375 389.30078125 C-44.609375 388.30078125 -44.609375 388.30078125 -44.72290039 385.24975586 C-44.72274134 383.90086854 -44.71705112 382.55197511 -44.70703125 381.203125 C-44.7056163 380.49426651 -44.70420135 379.78540802 -44.70274353 379.05506897 C-44.69712943 376.78276413 -44.68457463 374.5105565 -44.671875 372.23828125 C-44.66686181 370.70117329 -44.66229859 369.1640638 -44.65820312 367.62695312 C-44.64715542 363.85152483 -44.62988141 360.07616954 -44.609375 356.30078125 C-46.259375 355.97078125 -47.909375 355.64078125 -49.609375 355.30078125 C-49.63624779 353.48836073 -49.65571215 351.67582892 -49.671875 349.86328125 C-49.68347656 348.85394531 -49.69507812 347.84460938 -49.70703125 346.8046875 C-49.609375 344.30078125 -49.609375 344.30078125 -48.609375 343.30078125 C-42.669375 343.30078125 -36.729375 343.30078125 -30.609375 343.30078125 C-30.609375 316.24078125 -30.609375 289.18078125 -30.609375 261.30078125 C-38.529375 261.30078125 -46.449375 261.30078125 -54.609375 261.30078125 C-56.27370959 259.63644666 -55.74529664 257.64107592 -55.75463867 255.35375977 C-55.76101852 254.29919083 -55.76739838 253.24462189 -55.77397156 252.15809631 C-55.77508438 251.01022141 -55.7761972 249.8623465 -55.77734375 248.6796875 C-55.78067215 247.50945541 -55.78400055 246.33922333 -55.78742981 245.13352966 C-55.79250409 242.65274449 -55.79483798 240.17195247 -55.79467773 237.69116211 C-55.79686357 233.88318706 -55.81501251 230.07550182 -55.83398438 226.26757812 C-55.83691824 223.86328225 -55.83890308 221.45898498 -55.83984375 219.0546875 C-55.84702927 217.90883682 -55.85421478 216.76298615 -55.86161804 215.58241272 C-55.85854141 214.52469162 -55.85546478 213.46697052 -55.85229492 212.37719727 C-55.85371994 211.44311539 -55.85514496 210.50903351 -55.85661316 209.54664612 C-55.609375 207.30078125 -55.609375 207.30078125 -53.609375 205.30078125 C-51.66049194 205.06027222 -51.66049194 205.06027222 -49.25146484 205.07373047 C-48.35068207 205.07388153 -47.44989929 205.07403259 -46.52182007 205.07418823 C-45.54782257 205.0845108 -44.57382507 205.09483337 -43.5703125 205.10546875 C-42.57432037 205.10829865 -41.57832825 205.11112854 -40.55215454 205.11404419 C-37.36277382 205.12526285 -34.17367122 205.15037044 -30.984375 205.17578125 C-28.82552488 205.18580887 -26.66667037 205.1949351 -24.5078125 205.203125 C-19.20822574 205.22520769 -13.90884756 205.259749 -8.609375 205.30078125 C-8.609375 202.33078125 -8.609375 199.36078125 -8.609375 196.30078125 C-9.66439209 196.30601807 -10.71940918 196.31125488 -11.80639648 196.31665039 C-15.7069413 196.33470026 -19.6074824 196.3462132 -23.50805664 196.35571289 C-25.19881816 196.36075315 -26.88957529 196.3675853 -28.58032227 196.3762207 C-31.00538207 196.38829982 -33.43038444 196.39401248 -35.85546875 196.3984375 C-36.99610023 196.40617943 -36.99610023 196.40617943 -38.15977478 196.41407776 C-39.9767007 196.41427363 -41.79350627 196.36275402 -43.609375 196.30078125 C-45.37265972 194.53749653 -44.73553144 192.20560981 -44.74490356 189.85671997 C-44.74287933 189.07642426 -44.7408551 188.29612854 -44.73876953 187.4921875 C-44.74052185 186.67434784 -44.74227417 185.85650818 -44.74407959 185.0138855 C-44.74849885 182.29699615 -44.74555986 179.58017132 -44.7421875 176.86328125 C-44.74286052 174.98380521 -44.74383053 173.10432926 -44.74508667 171.22485352 C-44.74656374 167.28042779 -44.74440879 163.33602467 -44.73974609 159.39160156 C-44.7340488 154.32365622 -44.73732776 149.25576383 -44.74331856 144.18782043 C-44.74692392 140.30521238 -44.7457857 136.42261697 -44.74319077 132.54000854 C-44.74252143 130.67080682 -44.74335016 128.80160397 -44.74567032 126.93240356 C-44.74819643 124.32469621 -44.74435684 121.71707584 -44.73876953 119.109375 C-44.74079376 118.32907928 -44.74281799 117.54878357 -44.74490356 116.74484253 C-44.72363753 111.41504378 -44.72363753 111.41504378 -43.609375 110.30078125 C-41.60972518 110.21320122 -39.6070139 110.19381549 -37.60546875 110.203125 C-36.51161865 110.20562256 -35.41776855 110.20812012 -34.29077148 110.21069336 C-32.89028564 110.21979736 -31.4897998 110.22890137 -30.046875 110.23828125 C-23.3953125 110.26921875 -23.3953125 110.26921875 -16.609375 110.30078125 C-16.609375 100.07078125 -16.609375 89.84078125 -16.609375 79.30078125 C-21.06179687 79.32398437 -25.51421875 79.3471875 -30.1015625 79.37109375 C-33.6460509 79.3839507 -37.19053272 79.39479806 -40.73503113 79.40428162 C-44.47981424 79.41485416 -48.22450721 79.42898834 -51.96923828 79.45166016 C-55.57428 79.47335029 -59.17923417 79.48534174 -62.78433609 79.49053574 C-64.16149398 79.49423841 -65.53864694 79.50146859 -66.91576767 79.51224136 C-68.84077045 79.5267046 -70.76586087 79.52759773 -72.69091797 79.52783203 C-73.78790009 79.53227325 -74.8848822 79.53671448 -76.0151062 79.54129028 C-78.609375 79.30078125 -78.609375 79.30078125 -80.609375 77.30078125 C-80.86816406 75.0859375 -80.86816406 75.0859375 -80.875 72.36328125 C-80.87757812 71.38617188 -80.88015625 70.4090625 -80.8828125 69.40234375 C-80.87507813 68.37882812 -80.86734375 67.3553125 -80.859375 66.30078125 C-80.86710937 65.27726562 -80.87484375 64.25375 -80.8828125 63.19921875 C-80.88023438 62.22210938 -80.87765625 61.245 -80.875 60.23828125 C-80.87274414 59.33980469 -80.87048828 58.44132812 -80.86816406 57.515625 C-80.609375 55.30078125 -80.609375 55.30078125 -78.609375 53.30078125 C-76.0151062 53.06027222 -76.0151062 53.06027222 -72.69091797 53.07373047 C-71.44978241 53.07388153 -70.20864685 53.07403259 -68.92990112 53.07418823 C-67.5704533 53.08440225 -66.2110071 53.09483425 -64.8515625 53.10546875 C-63.46436771 53.10919841 -62.07717029 53.1120456 -60.68997192 53.11404419 C-57.03697449 53.12168441 -53.38413583 53.14133609 -49.73120117 53.16345215 C-46.00441638 53.18390229 -42.27760596 53.19304412 -38.55078125 53.203125 C-31.23690675 53.22458174 -23.92316311 53.25872222 -16.609375 53.30078125 C-16.56449951 52.74729004 -16.51962402 52.19379883 -16.47338867 51.62353516 C-16.25889566 49.056564 -16.02795458 46.49131044 -15.796875 43.92578125 C-15.69149414 42.62060547 -15.69149414 42.62060547 -15.58398438 41.2890625 C-15.50341797 40.41894531 -15.42285156 39.54882812 -15.33984375 38.65234375 C-15.27176514 37.86682129 -15.20368652 37.08129883 -15.13354492 36.27197266 C-14.35513229 31.85963838 -12.89682886 27.5922941 -11.609375 23.30078125 C-22.169375 23.30078125 -32.729375 23.30078125 -43.609375 23.30078125 C-44.104375 22.31078125 -44.104375 22.31078125 -44.609375 21.30078125 C-41.36859655 13.95839257 -35.53442562 7.44749856 -28.296875 3.98828125 C-18.98876827 0.43315349 -9.88752401 -0.00740537 0 0 Z " fill="#C2FF75" transform="translate(113.609375,5.69921875)"/>
<path d="M0 0 C0.33 0 0.66 0 1 0 C1.02685095 2.47923801 1.04676547 4.9581884 1.0625 7.4375 C1.07087891 8.14455078 1.07925781 8.85160156 1.08789062 9.58007812 C1.09653588 11.38693559 1.05220011 13.19387603 1 15 C0 16 0 16 -2.51197815 16.12025452 C-3.62894577 16.11803391 -4.74591339 16.11581329 -5.89672852 16.11352539 C-7.15796036 16.11344986 -8.4191922 16.11337433 -9.71864319 16.11329651 C-11.10539794 16.1081891 -12.49215229 16.10297309 -13.87890625 16.09765625 C-15.28995209 16.09579201 -16.70099857 16.09436814 -18.11204529 16.09336853 C-21.83240535 16.08954379 -25.5527266 16.0797139 -29.27307129 16.06866455 C-33.06680781 16.05844948 -36.86055058 16.05387071 -40.65429688 16.04882812 C-48.10288436 16.03809158 -55.5514318 16.02049515 -63 16 C-63 23.26 -63 30.52 -63 38 C-42.21 38 -21.42 38 0 38 C0 49.22 0 60.44 0 72 C-8.91 72 -17.82 72 -27 72 C-27 99.72 -27 127.44 -27 156 C-15.45 156 -3.9 156 8 156 C8 159.96 8 163.92 8 168 C-7.18 168 -22.36 168 -38 168 C-38 185.49 -38 202.98 -38 221 C-30.08 221 -22.16 221 -14 221 C-14 248.72 -14 276.44 -14 305 C-19.94 305 -25.88 305 -32 305 C-32 308.63 -32 312.26 -32 316 C-30.68 316 -29.36 316 -28 316 C-28 326.89 -28 337.78 -28 349 C-28.33 349 -28.66 349 -29 349 C-29 338.44 -29 327.88 -29 317 C-30.65 316.67 -32.3 316.34 -34 316 C-34.02687279 314.18757948 -34.04633715 312.37504767 -34.0625 310.5625 C-34.07410156 309.55316406 -34.08570312 308.54382813 -34.09765625 307.50390625 C-34 305 -34 305 -33 304 C-27.06 304 -21.12 304 -15 304 C-15 276.94 -15 249.88 -15 222 C-22.92 222 -30.84 222 -39 222 C-40.66433459 220.33566541 -40.13592164 218.34029467 -40.14526367 216.05297852 C-40.15164352 214.99840958 -40.15802338 213.94384064 -40.16459656 212.85731506 C-40.16570938 211.70944016 -40.1668222 210.56156525 -40.16796875 209.37890625 C-40.17129715 208.20867416 -40.17462555 207.03844208 -40.17805481 205.83274841 C-40.18312909 203.35196324 -40.18546298 200.87117122 -40.18530273 198.39038086 C-40.18748857 194.58240581 -40.20563751 190.77472057 -40.22460938 186.96679688 C-40.22754324 184.562501 -40.22952808 182.15820373 -40.23046875 179.75390625 C-40.23765427 178.60805557 -40.24483978 177.4622049 -40.25224304 176.28163147 C-40.24916641 175.22391037 -40.24608978 174.16618927 -40.24291992 173.07641602 C-40.24434494 172.14233414 -40.24576996 171.20825226 -40.24723816 170.24586487 C-40 168 -40 168 -38 166 C-36.05111694 165.75949097 -36.05111694 165.75949097 -33.64208984 165.77294922 C-32.74130707 165.77310028 -31.84052429 165.77325134 -30.91244507 165.77340698 C-29.93844757 165.78372955 -28.96445007 165.79405212 -27.9609375 165.8046875 C-26.96494537 165.8075174 -25.96895325 165.81034729 -24.94277954 165.81326294 C-21.75339882 165.8244816 -18.56429622 165.84958919 -15.375 165.875 C-13.21614988 165.88502762 -11.05729537 165.89415385 -8.8984375 165.90234375 C-3.59885074 165.92442644 1.70052744 165.95896775 7 166 C7 163.03 7 160.06 7 157 C5.94498291 157.00523682 4.88996582 157.01047363 3.80297852 157.01586914 C-0.0975663 157.03391901 -3.9981074 157.04543195 -7.89868164 157.05493164 C-9.58944316 157.0599719 -11.28020029 157.06680405 -12.97094727 157.07543945 C-15.39600707 157.08751857 -17.82100944 157.09323123 -20.24609375 157.09765625 C-21.38672523 157.10539818 -21.38672523 157.10539818 -22.55039978 157.11329651 C-24.3673257 157.11349238 -26.18413127 157.06197277 -28 157 C-29.76328472 155.23671528 -29.12615644 152.90482856 -29.13552856 150.55593872 C-29.13350433 149.77564301 -29.1314801 148.99534729 -29.12939453 148.19140625 C-29.13114685 147.37356659 -29.13289917 146.55572693 -29.13470459 145.71310425 C-29.13912385 142.9962149 -29.13618486 140.27939007 -29.1328125 137.5625 C-29.13348552 135.68302396 -29.13445553 133.80354801 -29.13571167 131.92407227 C-29.13718874 127.97964654 -29.13503379 124.03524342 -29.13037109 120.09082031 C-29.1246738 115.02287497 -29.12795276 109.95498258 -29.13394356 104.88703918 C-29.13754892 101.00443113 -29.1364107 97.12183572 -29.13381577 93.23922729 C-29.13314643 91.37002557 -29.13397516 89.50082272 -29.13629532 87.63162231 C-29.13882143 85.02391496 -29.13498184 82.41629459 -29.12939453 79.80859375 C-29.13141876 79.02829803 -29.13344299 78.24800232 -29.13552856 77.44406128 C-29.11426253 72.11426253 -29.11426253 72.11426253 -28 71 C-26.00035018 70.91241997 -23.9976389 70.89303424 -21.99609375 70.90234375 C-20.90224365 70.90484131 -19.80839355 70.90733887 -18.68139648 70.90991211 C-17.28091064 70.91901611 -15.8804248 70.92812012 -14.4375 70.9375 C-7.7859375 70.9684375 -7.7859375 70.9684375 -1 71 C-1 60.77 -1 50.54 -1 40 C-5.45242187 40.02320313 -9.90484375 40.04640625 -14.4921875 40.0703125 C-18.0366759 40.08316945 -21.58115772 40.09401681 -25.12565613 40.10350037 C-28.87043924 40.11407291 -32.61513221 40.12820709 -36.35986328 40.15087891 C-39.964905 40.17256904 -43.56985917 40.18456049 -47.17496109 40.18975449 C-48.55211898 40.19345716 -49.92927194 40.20068734 -51.30639267 40.21146011 C-53.23139545 40.22592335 -55.15648587 40.22681648 -57.08154297 40.22705078 C-58.17852509 40.231492 -59.2755072 40.23593323 -60.4057312 40.24050903 C-63 40 -63 40 -65 38 C-65.25878906 35.78515625 -65.25878906 35.78515625 -65.265625 33.0625 C-65.26820312 32.08539063 -65.27078125 31.10828125 -65.2734375 30.1015625 C-65.26570313 29.07804687 -65.25796875 28.05453125 -65.25 27 C-65.25773437 25.97648437 -65.26546875 24.95296875 -65.2734375 23.8984375 C-65.27085938 22.92132813 -65.26828125 21.94421875 -65.265625 20.9375 C-65.26336914 20.03902344 -65.26111328 19.14054687 -65.25878906 18.21484375 C-65 16 -65 16 -63 14 C-60.4057312 13.75949097 -60.4057312 13.75949097 -57.08154297 13.77294922 C-55.84040741 13.77310028 -54.59927185 13.77325134 -53.32052612 13.77340698 C-51.9610783 13.783621 -50.6016321 13.794053 -49.2421875 13.8046875 C-47.85499271 13.80841716 -46.46779529 13.81126435 -45.08059692 13.81326294 C-41.42759949 13.82090316 -37.77476083 13.84055484 -34.12182617 13.8626709 C-30.39504138 13.88312104 -26.66823096 13.89226287 -22.94140625 13.90234375 C-15.62752337 13.92380052 -8.31380415 13.95898566 -1 14 C-0.67 9.38 -0.34 4.76 0 0 Z " fill="#EDFFD7" transform="translate(98,45)"/>
<path d="M0 0 C0.71055038 -0.00175232 1.42110077 -0.00350464 2.15318298 -0.00531006 C4.51295378 -0.00972824 6.87265025 -0.00679072 9.23242188 -0.00341797 C10.86527521 -0.00409102 12.49812845 -0.00506105 14.13098145 -0.00631714 C17.55754549 -0.00779407 20.98408351 -0.00563973 24.41064453 -0.00097656 C28.81271689 0.00472073 33.21472828 0.00144169 37.6167984 -0.00454903 C40.98985253 -0.00815478 44.3628921 -0.00701599 47.73594666 -0.00442123 C49.35953275 -0.003752 50.98312014 -0.00458025 52.60670471 -0.00690079 C54.87195358 -0.00942755 57.13710238 -0.00558641 59.40234375 0 C61.33974426 0.00119339 61.33974426 0.00119339 63.31628418 0.00241089 C66.20117188 0.12939453 66.20117188 0.12939453 67.20117188 1.12939453 C67.32617188 4.62939453 67.32617188 4.62939453 67.20117188 8.12939453 C65.29946483 10.03110157 61.92269474 9.25723659 59.40234375 9.25878906 C58.69179337 9.26054138 57.98124298 9.2622937 57.24916077 9.26409912 C54.88938997 9.2685173 52.5296935 9.26557978 50.16992188 9.26220703 C48.53706854 9.26288008 46.9042153 9.26385011 45.2713623 9.2651062 C41.84479826 9.26658313 38.41826024 9.26442879 34.99169922 9.25976562 C30.58962686 9.25406833 26.18761547 9.25734737 21.78554535 9.26333809 C18.41249122 9.26694384 15.03945165 9.26580505 11.66639709 9.2632103 C10.042811 9.26254107 8.41922361 9.26336931 6.79563904 9.26568985 C4.53039017 9.26821662 2.26524137 9.26437547 0 9.25878906 C-1.93740051 9.25759567 -1.93740051 9.25759567 -3.91394043 9.25637817 C-6.79882812 9.12939453 -6.79882812 9.12939453 -7.79882812 8.12939453 C-7.92382812 4.62939453 -7.92382812 4.62939453 -7.79882812 1.12939453 C-5.89712108 -0.77231251 -2.52035099 0.00155247 0 0 Z " fill="#D2FF9A" transform="translate(186.798828125,381.87060546875)"/>
<path d="M0 0 C0.72030396 -0.00175232 1.44060791 -0.00350464 2.18273926 -0.00531006 C4.57497534 -0.00972835 6.9671381 -0.00679068 9.359375 -0.00341797 C11.01464858 -0.00409101 12.66992207 -0.00506105 14.32519531 -0.00631714 C17.79883767 -0.00779408 21.27245437 -0.00563968 24.74609375 -0.00097656 C29.20869998 0.00472073 33.67124608 0.0014417 38.1338501 -0.00454903 C41.5532273 -0.00815474 44.97259015 -0.00701601 48.39196777 -0.00442123 C50.03788256 -0.00375199 51.68379863 -0.00458029 53.32971191 -0.00690079 C55.62609331 -0.00942749 57.92237599 -0.0055865 60.21875 0 C61.52811523 0.00079559 62.83748047 0.00159119 64.18652344 0.00241089 C67.109375 0.12939453 67.109375 0.12939453 68.109375 1.12939453 C68.234375 4.12939453 68.234375 4.12939453 68.109375 7.12939453 C66.19731198 9.04145756 62.74811116 8.25725218 60.21875 8.25878906 C59.49844604 8.26054138 58.77814209 8.2622937 58.03601074 8.26409912 C55.64377466 8.26851742 53.2516119 8.26557974 50.859375 8.26220703 C49.20410142 8.26288008 47.54882793 8.26385011 45.89355469 8.2651062 C42.41991233 8.26658314 38.94629563 8.26442874 35.47265625 8.25976562 C31.01005002 8.25406833 26.54750392 8.25734736 22.0848999 8.26333809 C18.6655227 8.2669438 15.24615985 8.26580507 11.82678223 8.2632103 C10.18086744 8.26254106 8.53495137 8.26336935 6.88903809 8.26568985 C4.59265669 8.26821655 2.29637401 8.26437557 0 8.25878906 C-1.96404785 8.25759567 -1.96404785 8.25759567 -3.96777344 8.25637817 C-6.890625 8.12939453 -6.890625 8.12939453 -7.890625 7.12939453 C-8.015625 4.12939453 -8.015625 4.12939453 -7.890625 1.12939453 C-5.97856198 -0.78266849 -2.52936116 0.00153688 0 0 Z " fill="#D1FF97" transform="translate(300.890625,53.87060546875)"/>
<path d="M0 0 C1.00730415 -0.00262848 1.00730415 -0.00262848 2.03495789 -0.00531006 C4.26486765 -0.00972777 6.49469874 -0.00679089 8.72460938 -0.00341797 C10.26778173 -0.00409103 11.81095398 -0.00506108 13.35412598 -0.00631714 C16.59237678 -0.007794 19.83060005 -0.00563993 23.06884766 -0.00097656 C27.2287846 0.00472073 31.38865704 0.00144166 35.54859161 -0.00454903 C38.73635345 -0.00815496 41.92409989 -0.00701591 45.11186218 -0.00442123 C46.6461335 -0.00375205 48.1804062 -0.00458008 49.7146759 -0.00690079 C51.85539478 -0.00942784 53.9960078 -0.00558601 56.13671875 0 C57.96752991 0.00119339 57.96752991 0.00119339 59.83532715 0.00241089 C62.56835938 0.12939453 62.56835938 0.12939453 63.56835938 1.12939453 C63.69335938 3.62939453 63.69335938 3.62939453 63.56835938 6.12939453 C61.70937875 7.98837516 58.6187574 7.25717118 56.13671875 7.25878906 C55.1294146 7.26141754 55.1294146 7.26141754 54.10176086 7.26409912 C51.8718511 7.26851683 49.64202001 7.26557995 47.41210938 7.26220703 C45.86893702 7.26288009 44.32576477 7.26385014 42.78259277 7.2651062 C39.54434197 7.26658306 36.3061187 7.264429 33.06787109 7.25976562 C28.90793415 7.25406834 24.74806171 7.2573474 20.58812714 7.26333809 C17.4003653 7.26694402 14.21261886 7.26580497 11.02485657 7.2632103 C9.49058525 7.26254112 7.95631255 7.26336914 6.42204285 7.26568985 C4.28132397 7.26821691 2.14071095 7.26437508 0 7.25878906 C-1.83081116 7.25759567 -1.83081116 7.25759567 -3.6986084 7.25637817 C-6.43164062 7.12939453 -6.43164062 7.12939453 -7.43164062 6.12939453 C-7.55664062 3.62939453 -7.55664062 3.62939453 -7.43164062 1.12939453 C-5.57266 -0.72958609 -2.48203865 0.00161788 0 0 Z " fill="#CEFF8F" transform="translate(374.431640625,368.87060546875)"/>
<path d="M0 0 C1.00730415 -0.00262848 1.00730415 -0.00262848 2.03495789 -0.00531006 C4.26486765 -0.00972777 6.49469874 -0.00679089 8.72460938 -0.00341797 C10.26778173 -0.00409103 11.81095398 -0.00506108 13.35412598 -0.00631714 C16.59237678 -0.007794 19.83060005 -0.00563993 23.06884766 -0.00097656 C27.2287846 0.00472073 31.38865704 0.00144166 35.54859161 -0.00454903 C38.73635345 -0.00815496 41.92409989 -0.00701591 45.11186218 -0.00442123 C46.6461335 -0.00375205 48.1804062 -0.00458008 49.7146759 -0.00690079 C51.85539478 -0.00942784 53.9960078 -0.00558601 56.13671875 0 C57.96752991 0.00119339 57.96752991 0.00119339 59.83532715 0.00241089 C62.56835938 0.12939453 62.56835938 0.12939453 63.56835938 1.12939453 C63.69335938 3.62939453 63.69335938 3.62939453 63.56835938 6.12939453 C61.70937875 7.98837516 58.6187574 7.25717118 56.13671875 7.25878906 C55.1294146 7.26141754 55.1294146 7.26141754 54.10176086 7.26409912 C51.8718511 7.26851683 49.64202001 7.26557995 47.41210938 7.26220703 C45.86893702 7.26288009 44.32576477 7.26385014 42.78259277 7.2651062 C39.54434197 7.26658306 36.3061187 7.264429 33.06787109 7.25976562 C28.90793415 7.25406834 24.74806171 7.2573474 20.58812714 7.26333809 C17.4003653 7.26694402 14.21261886 7.26580497 11.02485657 7.2632103 C9.49058525 7.26254112 7.95631255 7.26336914 6.42204285 7.26568985 C4.28132397 7.26821691 2.14071095 7.26437508 0 7.25878906 C-1.83081116 7.25759567 -1.83081116 7.25759567 -3.6986084 7.25637817 C-6.43164062 7.12939453 -6.43164062 7.12939453 -7.43164062 6.12939453 C-7.55664062 3.62939453 -7.55664062 3.62939453 -7.43164062 1.12939453 C-5.57266 -0.72958609 -2.48203865 0.00161788 0 0 Z " fill="#D3FF9C" transform="translate(274.431640625,139.87060546875)"/>
<path d="M0 0 C4.5890023 8.34889914 4.61095845 18.70774823 4 28 C3 29 3 29 -0.51000977 29.11352539 C-2.07048422 29.11336626 -3.63096393 29.10767142 -5.19140625 29.09765625 C-6.01124496 29.0962413 -6.83108368 29.09482635 -7.67576599 29.09336853 C-10.30471382 29.08775289 -12.93357773 29.07519779 -15.5625 29.0625 C-17.34049357 29.05748701 -19.11848846 29.05292376 -20.89648438 29.04882812 C-25.26438158 29.03862752 -29.6320964 29.01905532 -34 29 C-34 35.6 -34 42.2 -34 49 C-31.35226562 48.97679687 -28.70453125 48.95359375 -25.9765625 48.9296875 C-23.41829915 48.91409968 -20.86004104 48.90195 -18.30175781 48.89013672 C-16.52080933 48.88006569 -14.73987743 48.86640815 -12.95898438 48.84912109 C-10.40230217 48.82492087 -7.84583815 48.81352816 -5.2890625 48.8046875 C-4.09055161 48.78920364 -4.09055161 48.78920364 -2.86782837 48.77340698 C-0.9104278 48.77300774 1.04643077 48.87758931 3 49 C5.46906968 51.46906968 5.23647118 52.86273769 5.25224304 56.23231506 C5.24505753 56.94069016 5.23787201 57.64906525 5.23046875 58.37890625 C5.23001053 59.10617416 5.22955231 59.83344208 5.2290802 60.58274841 C5.22605836 62.12020499 5.21817405 63.65765852 5.20581055 65.19506836 C5.18754573 67.55658735 5.1853009 69.91771461 5.18554688 72.27929688 C5.18063203 73.77083674 5.17480386 75.26237394 5.16796875 76.75390625 C5.16685593 77.46430557 5.1657431 78.1747049 5.16459656 78.90663147 C5.11605365 83.88394635 5.11605365 83.88394635 4 85 C-4.91 85 -13.82 85 -23 85 C-23 112.06 -23 139.12 -23 167 C-4.19 167 14.62 167 34 167 C34 167.33 34 167.66 34 168 C14.86 168 -4.28 168 -24 168 C-24 139.95 -24 111.9 -24 83 C-15.09 83 -6.18 83 3 83 C3 72.44 3 61.88 3 51 C-9.54 51 -22.08 51 -35 51 C-35 43.08 -35 35.16 -35 27 C-22.46 27 -9.92 27 3 27 C2.01857875 20.73234498 2.01857875 20.73234498 1.02539062 14.46655273 C0.27630859 9.58017963 -0.16272166 4.94267049 0 0 Z " fill="#F1FFDF" transform="translate(552,33)"/>
<path d="M0 0 C5.61 0 11.22 0 17 0 C17 0.33 17 0.66 17 1 C11.72 1 6.44 1 1 1 C1 11.23 1 21.46 1 32 C5.95 32 10.9 32 16 32 C18 34 18 34 18.24723816 36.13197327 C18.24581314 37.01276047 18.24438812 37.89354767 18.24291992 38.80102539 C18.24753487 40.29751366 18.24753487 40.29751366 18.25224304 41.82423401 C18.24505753 42.90446335 18.23787201 43.98469269 18.23046875 45.09765625 C18.23001053 46.20225693 18.22955231 47.3068576 18.2290802 48.44493103 C18.22605547 50.78271558 18.21816264 53.12049808 18.20581055 55.45825195 C18.18755834 59.05101603 18.18530078 62.64352254 18.18554688 66.23632812 C18.18063174 68.50260641 18.17480344 70.76888294 18.16796875 73.03515625 C18.16685593 74.11740982 18.1657431 75.19966339 18.16459656 76.31471252 C18.15821671 77.30921921 18.15183685 78.30372589 18.14526367 79.32836914 C18.13954597 80.64835655 18.13954597 80.64835655 18.13371277 81.99501038 C18 84 18 84 17 85 C14.3337397 85.08855161 11.69352886 85.11524673 9.02734375 85.09765625 C8.22970108 85.0962413 7.43205841 85.09482635 6.61024475 85.09336853 C4.05262565 85.08775316 1.49509282 85.07519812 -1.0625 85.0625 C-2.79231645 85.05748698 -4.52213426 85.05292373 -6.25195312 85.04882812 C-10.50133553 85.03777875 -14.75065312 85.02050386 -19 85 C-19 87.97 -19 90.94 -19 94 C-9.76 94 -0.52 94 9 94 C9 94.33 9 94.66 9 95 C-0.57 95 -10.14 95 -20 95 C-20 91.04 -20 87.08 -20 83 C-8.12 83 3.76 83 16 83 C16 66.83 16 50.66 16 34 C10.72 34 5.44 34 0 34 C0 22.78 0 11.56 0 0 Z " fill="#EDFFD6" transform="translate(542,266)"/>
<path d="M0 0 C0 0.66 0 1.32 0 2 C-9.9 2 -19.8 2 -30 2 C-29.34 3.65 -28.68 5.3 -28 7 C-31.91402949 5.73058503 -33.79072873 4.48832306 -36 1 C-34.05676346 -0.94323654 -30.41203769 -0.2772906 -27.75390625 -0.3515625 C-27.02759506 -0.37471527 -26.30128387 -0.39786804 -25.55296326 -0.42172241 C-24.01381567 -0.46942342 -22.47458974 -0.5146499 -20.93530273 -0.55761719 C-18.57571086 -0.62462484 -16.21664436 -0.70240392 -13.85742188 -0.78125 C-12.36460281 -0.82617287 -10.8717646 -0.87046468 -9.37890625 -0.9140625 C-8.31634361 -0.94990952 -8.31634361 -0.94990952 -7.23231506 -0.98648071 C-2.22972651 -1.11486325 -2.22972651 -1.11486325 0 0 Z " fill="#E5FFC4" transform="translate(286,360)"/>
<path d="M0 0 C0.66 0.66 1.32 1.32 2 2 C1.67 3.32 1.34 4.64 1 6 C-10.88 6 -22.76 6 -35 6 C-35.33 6.66 -35.66 7.32 -36 8 C-36.33 6.68 -36.66 5.36 -37 4 C-24.79 3.67 -12.58 3.34 0 3 C0 2.01 0 1.02 0 0 Z " fill="#F0FFDD" transform="translate(237,56)"/>
<path d="M0 0 C0.33 0.99 0.66 1.98 1 3 C13.54 3 26.08 3 39 3 C38.34 4.32 37.68 5.64 37 7 C37 6.34 37 5.68 37 5 C35.37989014 5.02356567 35.37989014 5.02356567 33.72705078 5.04760742 C29.7277774 5.10182234 25.72853662 5.13631904 21.72900391 5.16479492 C19.99652651 5.1799009 18.26408746 5.20038694 16.53173828 5.22631836 C14.04450022 5.26262321 11.55776674 5.27970765 9.0703125 5.29296875 C8.29317902 5.30845261 7.51604553 5.32393646 6.71536255 5.33988953 C4.53173828 5.34057617 4.53173828 5.34057617 1 5 C0.34 4.01 -0.32 3.02 -1 2 C-0.67 1.34 -0.34 0.68 0 0 Z " fill="#EFFFDC" transform="translate(369,80)"/>
<path d="M0 0 C0.33 0.66 0.66 1.32 1 2 C0.67 2.66 0.34 3.32 0 4 C10.56 4 21.12 4 32 4 C31.67 4.99 31.34 5.98 31 7 C20.44 6.67 9.88 6.34 -1 6 C-1.33 5.01 -1.66 4.02 -2 3 C-1.34 2.01 -0.68 1.02 0 0 Z " fill="#EBFFD3" transform="translate(398,23)"/>
<path d="M0 0 C0.33 0.99 0.66 1.98 1 3 C9.58 3 18.16 3 27 3 C27.33 3.99 27.66 4.98 28 6 C27.34 6.66 26.68 7.32 26 8 C26 7.01 26 6.02 26 5 C17.09 5 8.18 5 -1 5 C-0.67 3.35 -0.34 1.7 0 0 Z " fill="#EFFFDC" transform="translate(375,295)"/>
<path d="M0 0 C0.66 1.32 1.32 2.64 2 4 C-7.9 4 -17.8 4 -28 4 C-28.33 4.66 -28.66 5.32 -29 6 C-28.67 4.68 -28.34 3.36 -28 2 C-18.76 2 -9.52 2 0 2 C0 1.34 0 0.68 0 0 Z " fill="#E4FFC3" transform="translate(241,263)"/>
<path d="M0 0 C0.5625 1.9375 0.5625 1.9375 1 4 C0 5 0 5 -2.68383789 5.11352539 C-3.85164795 5.10828857 -5.01945801 5.10305176 -6.22265625 5.09765625 C-7.48271484 5.09443359 -8.74277344 5.09121094 -10.04101562 5.08789062 C-11.38151109 5.07953403 -12.72200588 5.07106907 -14.0625 5.0625 C-15.40689942 5.0574866 -16.7513006 5.05292342 -18.09570312 5.04882812 C-21.39717941 5.03699488 -24.69856803 5.02050971 -28 5 C-28.13277344 5.78761719 -28.26554687 6.57523437 -28.40234375 7.38671875 C-29.05367452 10.23469449 -29.79035569 11.17464166 -32 13 C-31.41321669 9.47930015 -30.64350079 7.28700157 -29 4 C-19.76 4 -10.52 4 -1 4 C-0.67 2.68 -0.34 1.36 0 0 Z " fill="#E9FFCD" transform="translate(395,112)"/>
<path d="M0 0 C2.36556709 2.36556709 2.58244041 3.74303521 3 7 C2 8 2 8 -0.50024414 8.11352539 C-1.58426514 8.10828857 -2.66828613 8.10305176 -3.78515625 8.09765625 C-4.95498047 8.09443359 -6.12480469 8.09121094 -7.33007812 8.08789062 C-8.56177734 8.07951172 -9.79347656 8.07113281 -11.0625 8.0625 C-12.91584961 8.05573242 -12.91584961 8.05573242 -14.80664062 8.04882812 C-17.87114117 8.03699608 -20.93554721 8.02051173 -24 8 C-24.33 8.99 -24.66 9.98 -25 11 C-25.33 9.68 -25.66 8.36 -26 7 C-17.42 6.67 -8.84 6.34 0 6 C0 4.02 0 2.04 0 0 Z " fill="#F8FFF0" transform="translate(259,110)"/>
</svg>
