<?xml version="1.0" encoding="UTF-8"?>
<svg version="1.1" xmlns="http://www.w3.org/2000/svg" width="612" height="408">
<path d="M0 0 C2.21920644 0.00307717 4.43841484 0.00493834 6.65762329 0.00567627 C11.28126598 0.01023459 15.90473019 0.02446447 20.52832031 0.046875 C26.3161463 0.07485739 32.10383302 0.08596721 37.89171982 0.09070587 C59.17027171 0.10959836 80.44914167 0.22136358 101.72359085 0.66361237 C103.45832184 0.69947578 105.19310237 0.73304197 106.92792892 0.7639389 C121.66314962 1.0365648 136.79197121 1.56493635 151.0390625 5.640625 C151.82949951 5.86008789 152.61993652 6.07955078 153.43432617 6.30566406 C168.32833304 10.55979045 181.87369522 17.57539425 193.1640625 28.328125 C193.1640625 28.658125 193.1640625 28.988125 193.1640625 29.328125 C184.81143074 30.28271149 176.56622215 30.43851834 168.1640625 30.328125 C168.81632812 31.13894531 169.46859375 31.94976562 170.140625 32.78515625 C175.57863378 39.64145932 180.2764677 46.44231277 184.1640625 54.328125 C176.80612517 55.23972786 169.57423273 55.44271526 162.1640625 55.328125 C162.72673828 56.62169922 162.72673828 56.62169922 163.30078125 57.94140625 C173.1640625 81.24607964 173.1640625 81.24607964 173.1640625 91.328125 C174.33839844 91.31652344 175.51273437 91.30492188 176.72265625 91.29296875 C187.57973854 91.22036889 198.33516283 91.551661 209.1640625 92.328125 C211.17619915 99.3836691 211.98337174 106.41525037 212.7265625 113.703125 C212.85587158 114.95319336 212.98518066 116.20326172 213.1184082 117.49121094 C214.50975018 131.28178667 215.23490596 144.90579877 215.2890625 158.765625 C215.29619263 160.24047363 215.29619263 160.24047363 215.3034668 161.74511719 C215.28847494 168.32154393 214.86490232 174.78988016 214.1640625 181.328125 C205.45513372 182.29567095 196.91644709 182.43442927 188.1640625 182.328125 C188.1640625 186.288125 188.1640625 190.248125 188.1640625 194.328125 C190.3915625 194.2971875 190.3915625 194.2971875 192.6640625 194.265625 C197.25439517 194.20187038 201.62303181 194.71198088 206.1640625 195.328125 C206.93304098 214.67529627 207.31080001 233.96328811 207.1640625 253.328125 C209.4740625 253.658125 211.7840625 253.988125 214.1640625 254.328125 C216.64548338 265.54414738 214.55043115 277.07625798 213.1640625 288.328125 C208.5440625 288.988125 203.9240625 289.648125 199.1640625 290.328125 C198.70966797 293.57076172 198.70966797 293.57076172 198.24609375 296.87890625 C192.19434747 339.29784003 192.19434747 339.29784003 188.1640625 343.328125 C181.46828444 344.30009278 174.92194675 344.44180903 168.1640625 344.328125 C168.0609375 345.00875 167.9578125 345.689375 167.8515625 346.390625 C167.01681231 349.95728489 165.66933496 352.99034694 164.1640625 356.328125 C165.21722656 356.31652344 166.27039063 356.30492187 167.35546875 356.29296875 C177.0113157 356.22091859 186.53835718 356.54349691 196.1640625 357.328125 C191.38890975 366.35797788 186.4190741 374.02091908 179.1640625 381.328125 C178.50921875 382.00875 177.854375 382.689375 177.1796875 383.390625 C175.53608804 385.07636804 173.89901374 386.73669771 172.1640625 388.328125 C171.60493164 388.8442334 171.04580078 389.3603418 170.46972656 389.89208984 C167.41988075 391.79162321 165.24751857 391.72407441 161.66796875 391.77734375 C160.38599609 391.82181641 159.10402344 391.86628906 157.78320312 391.91210938 C155.11298189 391.98779409 152.44704261 392.03017219 149.77539062 392.06054688 C148.48181641 392.11146484 147.18824219 392.16238281 145.85546875 392.21484375 C144.69217041 392.23764404 143.52887207 392.26044434 142.33032227 392.28393555 C138.30215397 392.8468502 136.07914751 394.89816861 132.89581299 397.33662415 C123.38085514 403.68393884 112.27695066 402.38125247 101.28979492 402.23632812 C98.88396785 402.23406863 96.47813528 402.23534387 94.0723114 402.23986816 C88.24561987 402.24191778 82.41999162 402.20742551 76.59354242 402.15636688 C69.80726176 402.09890261 63.02112656 402.08718189 56.2346367 402.07806152 C44.13463547 402.06060212 32.03506851 402.00749889 19.93530273 401.93164062 C8.18955643 401.85807895 -3.55607144 401.8015154 -15.30200195 401.76757812 C-16.02741347 401.76547634 -16.75282498 401.76337455 -17.50021867 401.76120907 C-21.13981307 401.7507679 -24.7794083 401.74065844 -28.41900408 401.73071384 C-58.558286 401.6479349 -88.69706069 401.50656704 -118.8359375 401.328125 C-118.8359375 400.668125 -118.8359375 400.008125 -118.8359375 399.328125 C-119.7228125 399.06 -120.6096875 398.791875 -121.5234375 398.515625 C-124.61389965 397.40772347 -127.12384202 396.16277782 -129.8359375 394.328125 C-129.8359375 393.998125 -129.8359375 393.668125 -129.8359375 393.328125 C-122.47552833 392.53086598 -115.23833395 392.19926317 -107.8359375 392.328125 C-110.16116047 389.9253946 -112.47436914 387.63017856 -115.04296875 385.484375 C-123.84066315 378.05828965 -131.08811486 368.87714572 -135.8359375 358.328125 C-135.8359375 357.668125 -135.8359375 357.008125 -135.8359375 356.328125 C-136.69251953 356.33598022 -136.69251953 356.33598022 -137.56640625 356.34399414 C-152.68655651 356.46268371 -167.73445059 356.07190976 -182.8359375 355.328125 C-184.8159375 350.378125 -184.8159375 350.378125 -186.8359375 345.328125 C-176.1479607 344.59553418 -165.55054056 344.18775902 -154.8359375 344.328125 C-155.15046875 343.42835938 -155.465 342.52859375 -155.7890625 341.6015625 C-161.39296448 324.9856741 -163.94263113 307.71664932 -165.8359375 290.328125 C-166.83496094 290.19535156 -167.83398438 290.06257813 -168.86328125 289.92578125 C-170.15363281 289.74917969 -171.44398438 289.57257813 -172.7734375 289.390625 C-174.70509766 289.12958984 -174.70509766 289.12958984 -176.67578125 288.86328125 C-179.8359375 288.328125 -179.8359375 288.328125 -180.8359375 287.328125 C-181.07924544 284.96868325 -181.26351782 282.63174764 -181.40625 280.265625 C-181.47427322 279.20589478 -181.47427322 279.20589478 -181.54367065 278.12475586 C-181.63837031 276.62856319 -181.73067871 275.13221756 -181.82080078 273.63574219 C-181.96037678 271.33735834 -182.11054482 269.03983424 -182.26171875 266.7421875 C-182.35220361 265.29170652 -182.44206833 263.84118669 -182.53125 262.390625 C-182.59990768 261.3531311 -182.59990768 261.3531311 -182.66995239 260.29467773 C-182.76566421 258.64100336 -182.8063629 256.98430284 -182.8359375 255.328125 C-178.56718801 251.05937551 -170.86244345 253.68262535 -164.8359375 253.328125 C-164.8359375 233.858125 -164.8359375 214.388125 -164.8359375 194.328125 C-168.4659375 194.328125 -172.0959375 194.328125 -175.8359375 194.328125 C-177.90108568 194.19832893 -179.96529285 194.04195821 -182.0234375 193.828125 C-182.94511719 193.7353125 -183.86679688 193.6425 -184.81640625 193.546875 C-185.48285156 193.4746875 -186.14929688 193.4025 -186.8359375 193.328125 C-187.1659375 190.358125 -187.4959375 187.388125 -187.8359375 184.328125 C-185.2112526 184.15438699 -182.5864082 183.98922353 -179.9609375 183.828125 C-178.89939453 183.75658203 -178.89939453 183.75658203 -177.81640625 183.68359375 C-169.16341595 183.16589348 -160.50042961 183.28559989 -151.8359375 183.328125 C-151.83815811 182.72614792 -151.84037872 182.12417084 -151.84266663 181.50395203 C-151.86492939 175.19266356 -151.87993098 168.88138639 -151.89086914 162.57006836 C-151.89587279 160.22012885 -151.90267777 157.87019241 -151.91137695 155.52026367 C-151.92361739 152.12678261 -151.92920565 148.733343 -151.93359375 145.33984375 C-151.93875504 144.30292892 -151.94391632 143.2660141 -151.94923401 142.19767761 C-151.94973856 135.51627292 -151.51756687 128.97154254 -150.8359375 122.328125 C-150.68689318 120.51588622 -150.54069071 118.7034095 -150.3984375 116.890625 C-149.60348952 108.19588146 -148.00419701 99.77435765 -145.8359375 91.328125 C-146.85429687 91.33972656 -147.87265625 91.35132812 -148.921875 91.36328125 C-159.5969331 91.44476052 -170.18482739 91.02574157 -180.8359375 90.328125 C-181.85978906 87.1747153 -181.79946003 85.31263599 -180.796875 82.16796875 C-180.54824707 81.3788208 -180.29961914 80.58967285 -180.04345703 79.77661133 C-179.76872559 78.94798584 -179.49399414 78.11936035 -179.2109375 77.265625 C-178.93749512 76.41959717 -178.66405273 75.57356934 -178.38232422 74.7019043 C-176.28858918 68.36190003 -173.8054996 62.31026483 -170.8359375 56.328125 C-170.14032715 56.32514404 -169.4447168 56.32216309 -168.72802734 56.3190918 C-155.66985648 56.77523819 -155.66985648 56.77523819 -144.1875 52.09765625 C-142.7694309 49.34766201 -142.7694309 49.34766201 -141.8515625 46.36328125 C-140.66612895 42.82065867 -138.96745415 40.62594307 -136.5859375 37.765625 C-135.92078125 36.95996094 -135.255625 36.15429688 -134.5703125 35.32421875 C-131.1240255 31.35788393 -131.1240255 31.35788393 -128.08959961 31.04443359 C-126.94241455 31.02203613 -125.79522949 30.99963867 -124.61328125 30.9765625 C-122.72125977 30.90501953 -122.72125977 30.90501953 -120.79101562 30.83203125 C-118.13858427 30.73950834 -115.49243652 30.68405303 -112.83789062 30.64453125 C-103.33325403 30.22981854 -99.28542687 28.10314836 -92.8359375 21.328125 C-90.51939859 19.58192669 -88.09311327 18.0962388 -85.5859375 16.640625 C-84.94317871 16.26397705 -84.30041992 15.8873291 -83.63818359 15.49926758 C-58.6345293 1.21718517 -28.11349507 -0.17594933 0 0 Z M-59.64471436 73.59259033 C-61.11195796 73.62386239 -62.57929227 73.65120623 -64.04669189 73.67401123 C-76.76753119 73.88805198 -91.06389783 74.86245204 -100.71875 84.13671875 C-103.81667728 87.28751433 -103.81667728 87.28751433 -104.8359375 91.328125 C-93.6159375 91.988125 -82.3959375 92.648125 -70.8359375 93.328125 C-72.4859375 98.278125 -74.1359375 103.228125 -75.8359375 108.328125 C-78.92065343 123.75170463 -78.91881461 139.46288685 -78.9609375 155.140625 C-78.96561035 156.33171875 -78.9702832 157.5228125 -78.97509766 158.75 C-78.96030367 166.9891146 -78.52232988 175.11877836 -77.8359375 183.328125 C-45.16377134 184.11159021 -12.51732227 184.47167751 20.1640625 184.328125 C20.1640625 187.298125 20.1640625 190.268125 20.1640625 193.328125 C18.82674072 193.32288818 17.48941895 193.31765137 16.11157227 193.31225586 C-19.55355443 193.1858284 -55.17914574 193.57632335 -90.8359375 194.328125 C-91.6049564 213.67631328 -91.97021473 232.96236455 -91.8359375 252.328125 C-97.4459375 252.658125 -103.0559375 252.988125 -108.8359375 253.328125 C-110.60349185 265.70100545 -109.54548239 277.04077112 -107.8359375 289.328125 C-102.8859375 289.658125 -97.9359375 289.988125 -92.8359375 290.328125 C-92.67738281 291.47667969 -92.51882812 292.62523437 -92.35546875 293.80859375 C-89.46887541 313.63115897 -89.46887541 313.63115897 -77.8359375 329.328125 C-66.56195989 336.90376075 -52.96403012 337.81164869 -39.7734375 338.015625 C-38.22574453 338.04846939 -36.67805591 338.08151932 -35.13037109 338.11474609 C-6.70747919 338.65994488 21.73781669 338.49846204 50.1640625 338.328125 C51.86604797 338.31875916 51.86604797 338.31875916 53.60241699 338.3092041 C59.24623075 338.2752924 64.88877475 338.2201247 70.53179932 338.11859131 C72.08065915 338.0922816 73.62962977 338.0716642 75.1786499 338.05767822 C87.03741102 337.93718475 102.23266315 337.30415079 111.56640625 328.99609375 C112.09363281 328.44566406 112.62085938 327.89523437 113.1640625 327.328125 C113.70160156 326.78800781 114.23914063 326.24789062 114.79296875 325.69140625 C121.79925555 317.59642326 124.47985968 305.76221804 125.1640625 295.328125 C125.4940625 294.008125 125.8240625 292.688125 126.1640625 291.328125 C133.0940625 290.338125 133.0940625 290.338125 140.1640625 289.328125 C140.4940625 287.018125 140.8240625 284.708125 141.1640625 282.328125 C141.3496875 281.1525 141.5353125 279.976875 141.7265625 278.765625 C142.75622755 270.39755346 142.74347068 261.62001795 141.1640625 253.328125 C139.26886072 253.15442402 137.37283648 252.98970101 135.4765625 252.828125 C134.42082031 252.7353125 133.36507812 252.6425 132.27734375 252.546875 C126.58362918 252.15620469 120.867544 252.28936609 115.1640625 252.328125 C115.16929932 251.63702637 115.17453613 250.94592773 115.17993164 250.23388672 C115.30089374 231.56897592 114.90525165 212.97612855 114.1640625 194.328125 C110.5340625 193.998125 106.9040625 193.668125 103.1640625 193.328125 C102.8340625 190.358125 102.5040625 187.388125 102.1640625 184.328125 C103.99904297 184.34552734 103.99904297 184.34552734 105.87109375 184.36328125 C117.6731211 184.43878402 129.38626374 184.0742299 141.1640625 183.328125 C143.95652412 156.79973964 147.57952162 116.82623146 133.52038574 92.82839966 C132.06407345 90.92879348 132.06407345 90.92879348 128.42456055 90.47680664 C126.92523523 90.4482115 125.42498976 90.45410607 123.92578125 90.48828125 C122.28450458 90.4564125 120.64322856 90.42451041 119.00195312 90.39257812 C116.42800439 90.38497812 113.85445045 90.39061266 111.28051758 90.40161133 C96.7550695 90.39464201 96.7550695 90.39464201 92.52832031 87.5612793 C90.79564241 85.56254069 89.4925253 83.60581765 88.1640625 81.328125 C79.00685289 73.26105939 64.79434284 73.80907736 53.2265625 73.640625 C51.59065286 73.6078176 49.9547481 73.57476635 48.31884766 73.54150391 C12.36583765 72.88727007 -23.69341215 72.81885759 -59.64471436 73.59259033 Z " fill="#C1FF72" transform="translate(277.8359375,6.671875)"/>
<path d="M0 0 C0.98340363 -0.00249756 1.96680725 -0.00499512 2.98001099 -0.00756836 C17.49096018 -0.03773195 31.94596917 0.37673344 46.4375 1.125 C47.5625 5.875 47.5625 5.875 46.4375 8.125 C31.91411744 8.87533907 17.4280688 9.28669779 2.88525391 9.25537109 C-0.06222673 9.2500005 -3.00955508 9.25536959 -5.95703125 9.26171875 C-19.51434033 9.26592596 -33.02386772 8.82446273 -46.5625 8.125 C-46.8925 5.815 -47.2225 3.505 -47.5625 1.125 C-31.71017822 0.16112376 -15.87638032 0.01383933 0 0 Z " fill="#C1FF72" transform="translate(316.5625,119.875)"/>
<path d="M0 0 C0.495 1.98 0.495 1.98 1 4 C-11.37128681 4.93620549 -23.72456244 5.11089767 -36.125 5.125 C-36.87978638 5.12749756 -37.63457275 5.12999512 -38.41223145 5.13256836 C-49.31075205 5.16209564 -60.12779468 4.75413148 -71 4 C-71.33 2.68 -71.66 1.36 -72 0 C-48.23984836 -1.94527557 -23.76015164 -1.94527557 0 0 Z " fill="#C1FF72" transform="translate(363,287)"/>
<path d="M0 0 C0 0.99 0 1.98 0 3 C-22.76867398 4.81630448 -46.23693156 4.97326909 -69 3 C-69 2.01 -69 1.02 -69 0 C-46.23693156 -1.97326909 -22.76867398 -1.81630448 0 0 Z " fill="#C2FF75" transform="translate(278,247)"/>
<path d="M0 0 C0 0.33 0 0.66 0 1 C-7.66559435 1.82713431 -15.22958464 2.1596312 -22.9375 2.125 C-23.98421875 2.12306641 -25.0309375 2.12113281 -26.109375 2.11914062 C-33.11765482 2.07986633 -40.03741286 1.85505456 -47 1 C-47 0.67 -47 0.34 -47 0 C-31.58078271 -1.856938 -15.41921729 -1.856938 0 0 Z " fill="#C0FF71" transform="translate(268,314)"/>
</svg>
