<?xml version="1.0" encoding="UTF-8"?>
<svg version="1.1" xmlns="http://www.w3.org/2000/svg" width="343" height="411">
<path d="M0 0 C113.19 0 226.38 0 343 0 C343 135.63 343 271.26 343 411 C229.81 411 116.62 411 0 411 C0 275.37 0 139.74 0 0 Z " fill="#010101" transform="translate(0,0)"/>
<path d="M0 0 C1.67542976 0.28604898 3.34385343 0.61781233 5 1 C5.38218767 2.65614657 5.71395102 4.32457024 6 6 C5.67 6.33 5.34 6.66 5 7 C-1.64326816 52.80673296 -11.00369169 126.94876281 18.05530548 166.0439415 C34.07884223 186.29850782 55.92138004 202.54814888 81.89430237 206.11376953 C100.39815343 208.21096582 119.81565307 207.07481059 138 203 C138.33 202.67 138.66 202.34 139 202 C141.5 201.875 141.5 201.875 144 202 C145 203 145 203 145.0625 205.5625 C145.041875 206.366875 145.02125 207.17125 145 208 C143.125 209.0625 143.125 209.0625 141 210 C140.34 209.67 139.68 209.34 139 209 C139 208.34 139 207.68 139 207 C137.68266373 207.07328018 137.68266373 207.07328018 136.3387146 207.14804077 C127.95907269 207.59350101 119.58352873 207.92598469 111.19466209 208.13986778 C106.88316902 208.25356787 102.58163252 208.40683902 98.27587891 208.65966797 C67.70814525 210.4082883 67.70814525 210.4082883 57.86816406 202.14550781 C52.99466546 197.74645259 48.84522884 192.74830692 44.97817993 187.45181274 C43.04189643 184.87168817 43.04189643 184.87168817 40.25302124 182.80282593 C39.50952423 182.20789337 38.76602722 181.61296082 38 181 C38 180.34 38 179.68 38 179 C37.44957031 178.77570313 36.89914063 178.55140625 36.33203125 178.3203125 C33.27416852 176.58906024 31.15178174 174.37762275 28.6875 171.875 C28.19677002 171.37782471 27.70604004 170.88064941 27.20043945 170.3684082 C24.02491588 167.12591034 21.03432906 163.77258875 18.09765625 160.31640625 C14.46349297 156.30326132 10.57451695 152.53674429 6.7097168 148.74682617 C6.11715088 148.16263916 5.52458496 147.57845215 4.9140625 146.9765625 C4.3773291 146.45143066 3.8405957 145.92629883 3.28759766 145.38525391 C0.69253116 142.5933678 0.86768898 140.33402758 0.84851074 136.64109802 C0.84016708 135.50388306 0.83182343 134.36666809 0.82322693 133.19499207 C0.81904251 131.94140396 0.81485809 130.68781586 0.81054688 129.39624023 C0.79781704 127.37713466 0.78508692 125.35802908 0.7723465 123.33892357 C0.75958838 121.16517278 0.74927331 118.99142234 0.73963928 116.81765556 C0.71944991 112.29311807 0.69179435 107.76864543 0.66296387 103.24415588 C0.59771539 92.82426889 0.54229533 82.40433386 0.48697662 71.98439026 C0.4361782 62.43363182 0.38333444 52.88289694 0.32245111 43.33219677 C0.29403623 38.8299065 0.27046431 34.32762409 0.25052643 29.82528865 C0.24038464 27.70190033 0.22799964 25.57853965 0.21458435 23.45516968 C0.19820053 20.85996069 0.18542191 18.26472567 0.17677307 15.66947937 C0.16842941 14.53508423 0.16008575 13.40068909 0.15148926 12.23191833 C0.14633553 11.23990134 0.14118179 10.24788435 0.13587189 9.22580624 C0.24844061 7.02753774 0.24844061 7.02753774 -1 6 C-1.125 3.5 -1.125 3.5 -1 1 C-0.67 0.67 -0.34 0.34 0 0 Z " fill="#878787" transform="translate(198,123)"/>
<path d="M0 0 C1.65 0.33 3.3 0.66 5 1 C5.33 1.99 5.66 2.98 6 4 C8.74229778 5.87799468 8.74229778 5.87799468 12 7.625 C17.95187166 10.95187166 17.95187166 10.95187166 19 12 C19.08250652 13.86951323 19.09349815 15.74220005 19.07746887 17.61346436 C19.06991577 18.83293259 19.06236267 20.05240082 19.05458069 21.30882263 C19.04814608 21.9719943 19.04171146 22.63516598 19.03508186 23.31843376 C19.01451766 25.44004753 18.99970602 27.56163228 18.98648071 29.68330383 C18.972186 31.96888423 18.95751631 34.25445597 18.94112074 36.54002237 C18.90079262 42.22219006 18.88002841 47.90418668 18.8712616 53.58648682 C18.86997798 54.4109127 18.86869437 55.23533859 18.86737186 56.08474708 C18.86248896 59.48904707 18.85831281 62.89334746 18.85458529 66.29764891 C18.8433058 75.95523849 18.81278717 85.61183997 18.72241211 95.26904297 C18.6507854 102.93620059 18.62200682 110.60219243 18.64257544 118.26967549 C18.65187679 122.32488643 18.64021838 126.37749716 18.57660866 130.43227386 C17.40438705 149.02801754 17.40438705 149.02801754 24.00304699 165.51653862 C26.49949078 167.98254287 29.1374234 169.96426463 32 172 C33.3816689 173.36356467 34.7375557 174.75432548 36.05273438 176.18212891 C37.23047523 177.36619626 38.41078529 178.54771412 39.59375 179.7265625 C40.23316528 180.36693451 40.87258057 181.00730652 41.53137207 181.66708374 C42.85400045 182.99038076 44.17784407 184.31246433 45.50292969 185.63330078 C47.52919168 187.65411317 49.54993515 189.68033718 51.5703125 191.70703125 C52.86947047 193.00552977 54.16893788 194.30371879 55.46875 195.6015625 C56.06667358 196.20151031 56.66459717 196.80145813 57.28063965 197.41958618 C57.84222778 197.97802216 58.40381592 198.53645813 58.98242188 199.11181641 C59.71422668 199.84242783 59.71422668 199.84242783 60.46081543 200.58779907 C64.10146606 203.92809386 66.1878481 205.37819219 71.25291443 205.31797791 C72.31663773 205.31317413 73.38036102 205.30837036 74.47631836 205.30342102 C75.6384082 205.28313339 76.80049805 205.26284576 77.99780273 205.24194336 C79.22596207 205.2328595 80.4541214 205.22377563 81.71949768 205.2144165 C84.39012343 205.19405094 87.0601985 205.16853087 89.73064995 205.13560295 C93.96456193 205.08571414 98.19821726 205.06835633 102.43238831 205.05799866 C103.8847991 205.05404801 105.3372098 205.05006038 106.7896204 205.04603672 C107.51704539 205.04403141 108.24447039 205.0420261 108.99393857 205.03996003 C118.84695248 205.01000947 128.69917375 204.95263971 138.55151367 204.83227539 C145.20235349 204.75128486 151.85197006 204.71367965 158.50331265 204.72391611 C162.01773009 204.72751395 165.52893988 204.70950189 169.04269218 204.63773918 C193.23135211 204.16309612 193.23135211 204.16309612 200.40973759 210.17913914 C202.86652996 212.63393357 204.91460018 215.21902655 207 218 C208.40964149 219.41621849 209.83892774 220.81382041 211.3046875 222.171875 C212.49801841 223.3613549 213.68822559 224.55397843 214.875 225.75 C215.51010498 226.38703857 216.14520996 227.02407715 216.79956055 227.68041992 C220.45647509 231.37131276 223.96977838 235.13170801 227.32421875 239.1015625 C231.0022165 243.26824527 235.04332005 247.10057105 239 251 C240.66788188 252.66545057 242.33473566 254.33193219 244 256 C246.58292973 258.58292973 248.32181115 258.24011663 251.84135437 258.25994873 C252.65852432 258.25432922 253.47569427 258.24870972 254.31762695 258.24291992 C255.17795532 258.24481827 256.03828369 258.24671661 256.92468262 258.24867249 C259.77930713 258.25238818 262.63367919 258.24166224 265.48828125 258.23046875 C267.46884633 258.22927695 269.44941199 258.22882379 271.42997742 258.2290802 C275.58706181 258.2275138 279.74406028 258.21921419 283.90112305 258.20581055 C289.22760246 258.1888537 294.55398706 258.18499522 299.8804903 258.18575573 C303.97343347 258.18548358 308.06635594 258.17999453 312.15929222 258.17275429 C314.12287426 258.16957323 316.08645863 258.16760153 318.05004311 258.16686058 C320.79813233 258.16468918 323.54612173 258.15592662 326.29418945 258.14526367 C327.51083534 258.14594345 327.51083534 258.14594345 328.75205994 258.14663696 C332.62338542 258.12470523 336.23693625 257.94451635 340 257 C340 258.65 340 260.3 340 262 C339.03113358 261.75197884 339.03113358 261.75197884 338.04269409 261.49894714 C334.11723108 260.85524176 330.27865516 260.93735761 326.31689453 261.0168457 C324.52589759 261.04293421 322.73489154 261.0684026 320.94387817 261.09333801 C319.99780827 261.1077424 319.05173836 261.1221468 318.07699966 261.13698769 C311.97559396 261.21738178 305.87359034 261.22929731 299.77174568 261.25208759 C294.42545907 261.27589594 289.08170337 261.32464129 283.73632812 261.4284668 C278.54898984 261.52785743 273.36524618 261.55740686 268.17702866 261.54152489 C266.21310001 261.54762166 264.24907219 261.57812426 262.28595352 261.63485146 C252.51407198 261.90359674 245.02488153 261.78110465 237.41921806 255.09673595 C234.97340194 252.70382302 232.66300685 250.23259804 230.42898178 247.64136314 C228.57149122 245.50780442 226.55399302 243.56786048 224.5 241.625 C221.44964617 238.53520194 218.61024441 235.29192076 215.78125 232 C213.29864782 229.21251685 210.63552175 226.62570674 207.9765625 224.0078125 C205.46884489 221.46044718 203.14314537 218.78351712 200.8359375 216.0546875 C199.92714844 215.03761719 199.92714844 215.03761719 199 214 C198.2259079 212.98127304 197.4518158 211.96254608 196.65426636 210.91294861 C192.8943337 207.20706979 189.31644885 207.2988523 184.21929932 207.26777649 C183.0565448 207.29099472 181.89379028 207.31421295 180.69580078 207.33813477 C179.45931793 207.33874908 178.22283508 207.3393634 176.94888306 207.33999634 C174.26660149 207.3449733 171.58689424 207.36065823 168.90506363 207.39438057 C164.65961231 207.44671264 160.41488516 207.45204811 156.16915894 207.45018005 C145.62434453 207.45294431 135.08004627 207.52061204 124.53552246 207.59448242 C116.33853268 207.65098336 108.14211518 207.69085433 99.94490421 207.68363041 C95.72976725 207.68178139 91.51659715 207.7129628 87.30186105 207.76974308 C84.05559904 207.80469656 80.80940332 207.79423917 77.56298828 207.79125977 C76.40428223 207.81650223 75.24557617 207.84174469 74.05175781 207.86775208 C68.41675868 207.81885495 64.84927639 207.476822 60.49433899 203.72198486 C59.30537061 202.50448451 58.13741132 201.26579951 57 200 C56.19615372 199.23805832 55.39230743 198.47611664 54.56410217 197.69108582 C53.89205246 197.0198317 53.22000275 196.34857758 52.52758789 195.65698242 C51.7506105 194.8831572 50.97363312 194.10933197 50.17311096 193.3120575 C49.36446091 192.50138321 48.55581085 191.69070892 47.72265625 190.85546875 C46.4447245 189.57897209 46.4447245 189.57897209 45.14097595 188.27668762 C43.355695 186.49208294 41.57165928 184.70623176 39.78881836 182.91918945 C37.04980339 180.17477838 34.30544048 177.43579568 31.56054688 174.69726562 C29.82259558 172.95865423 28.08495414 171.21973305 26.34765625 169.48046875 C25.11342674 168.24927559 25.11342674 168.24927559 23.85426331 166.99320984 C22.72189491 165.8561132 22.72189491 165.8561132 21.56665039 164.69604492 C20.90016983 164.02876877 20.23368927 163.36149261 19.54701233 162.67399597 C16.67823341 159.56973865 16.87622814 157.30816419 16.87974548 153.17880249 C16.87837082 151.93917252 16.87699615 150.69954254 16.87557983 149.42234802 C16.87911921 148.04116797 16.88275402 146.65998817 16.88647461 145.27880859 C16.88675656 143.83025616 16.8865986 142.38170359 16.8860321 140.93315125 C16.88574443 136.99330024 16.89163629 133.05347949 16.89860606 129.11363554 C16.90484462 124.99898652 16.9054438 120.88433686 16.90663147 116.76968384 C16.9097433 108.97468933 16.9179547 101.17970879 16.92798096 93.38472044 C16.93914669 84.51180974 16.94465371 75.63889837 16.94967639 66.76598239 C16.96013743 48.51064699 16.97773402 30.25532462 17 12 C16.24589844 11.71125 15.49179687 11.4225 14.71484375 11.125 C11.91027321 9.96281825 9.39451936 8.48899383 6.78125 6.953125 C4.2905712 5.62039336 1.70407068 4.79143532 -1 4 C-0.67 2.68 -0.34 1.36 0 0 Z " fill="#656565" transform="translate(2,108)"/>
<path d="M0 0 C4.4269139 1.3051198 7.95668453 3.0359123 11.8125 5.5625 C12.76769531 6.18253906 13.72289062 6.80257812 14.70703125 7.44140625 C17 9 17 9 18 10 C18.04968815 11.9023926 18.02670907 13.80669616 17.97653198 15.70907593 C17.94730148 16.95038269 17.91807098 18.19168945 17.88795471 19.47061157 C17.86085513 20.48352201 17.86085513 20.48352201 17.83320808 21.51689529 C17.73511257 25.20951648 17.65491446 28.90253619 17.57321167 32.59555054 C17.55538911 33.38559502 17.53756654 34.17563951 17.5192039 34.98962474 C17.27684005 46.03779452 17.1790322 57.08803774 17.07435417 68.13821983 C16.98508293 77.12066273 16.84651453 86.09729345 16.59082031 95.07666016 C16.36765287 102.92084588 16.24392301 110.75983042 16.23124802 118.60727179 C16.22116066 122.75242763 16.16614855 126.88434935 15.99065781 131.02607346 C15.35454869 146.7286242 15.59183124 159.76665257 26.37205827 172.06425011 C28.12245975 173.94292079 29.91406957 175.76294296 31.74316406 177.56494141 C32.60863125 178.42597351 32.60863125 178.42597351 33.49158263 179.30440021 C43.02070027 188.50347244 51.49128803 191.89901218 64.86737442 191.77640724 C68.54777629 191.61008565 72.20365699 191.30419699 75.875 191 C78.45531899 190.90707993 81.03610451 190.82630219 83.6171875 190.7578125 C95.74257612 191.18197374 95.74257612 191.18197374 106.12548828 186.41015625 C106.74407715 185.61480469 107.36266602 184.81945312 108 184 C108.66 184 109.32 184 110 184 C110.226875 183.443125 110.45375 182.88625 110.6875 182.3125 C112 180 112 180 114.54081726 177.98188782 C118.04818955 173.72901529 117.70833248 170.33643263 117.65942383 164.97729492 C117.66990753 163.97194702 117.68039124 162.96659912 117.69119263 161.93078613 C117.71995271 158.6137001 117.71364966 155.29765718 117.70703125 151.98046875 C117.72014563 149.67831615 117.73544904 147.37617507 117.75285339 145.0740509 C117.79274619 139.01923569 117.80289667 132.96472118 117.80688477 126.90979004 C117.81620803 120.72948052 117.85361659 114.54934828 117.88867188 108.36914062 C117.95329153 96.24610206 117.9864958 84.12319571 118 72 C117.34 72 116.68 72 116 72 C116.33 70.35 116.66 68.7 117 67 C118.98 67.495 118.98 67.495 121 68 C121.03297469 81.81309577 121.02539397 95.62566423 120.97153378 109.43870544 C120.94769911 115.85301805 120.93672612 122.26681127 120.95532227 128.68115234 C120.97279905 134.87361927 120.95626115 141.06515386 120.91632271 147.25750732 C120.90704187 149.61772047 120.90993465 151.97801447 120.92530632 154.3381958 C120.94477641 157.64967787 120.92062641 160.95822707 120.88647461 164.26953125 C120.9022908 165.24129807 120.91810699 166.21306488 120.93440247 167.21427917 C120.7876037 174.63130546 118.23444437 177.95617229 113 183 C112.35498535 183.82339371 111.7099707 184.64678741 111.04541016 185.49513245 C108.32052063 188.73667338 106.21185114 190.70054581 102.03808594 191.73190308 C98.45832021 192.04110705 94.96765816 192.08307978 91.375 192.02734375 C89.42279541 192.03526695 89.42279541 192.03526695 87.43115234 192.04335022 C84.68701888 192.05059765 81.94498657 192.0297088 79.20117188 191.98803711 C75.70328865 191.93684907 72.20957636 191.95273516 68.7116394 191.98941708 C65.34905272 192.01611349 61.98761599 191.98827476 58.625 191.96484375 C57.37895996 191.97587631 56.13291992 191.98690887 54.84912109 191.99827576 C47.65252206 191.84333938 43.56495372 190.97423764 38.47966003 185.72125244 C37.74722832 184.86923248 37.74722832 184.86923248 37 184 C36.29488281 183.24332031 35.58976562 182.48664063 34.86328125 181.70703125 C34.35152344 181.08183594 33.83976562 180.45664062 33.3125 179.8125 C31.43438903 177.59522678 29.78077069 175.82461655 27.5 174 C24.45320538 171.5625643 22.07374407 168.76958837 19.55078125 165.8046875 C17.97318991 163.92288746 17.97318991 163.92288746 16 162 C15.75390434 159.38006401 15.75390434 159.38006401 15.75949097 155.98898315 C15.75674164 154.70728241 15.75399231 153.42558167 15.75115967 152.1050415 C15.75823845 150.67663482 15.76550807 149.24822906 15.77294922 147.81982422 C15.77351311 146.32201139 15.77319721 144.82419801 15.77206421 143.3263855 C15.77148882 139.25220559 15.78327318 135.17814271 15.79721212 131.10399008 C15.80968851 126.84920941 15.81088754 122.59442626 15.81326294 118.33963013 C15.81948682 110.27899661 15.83590989 102.21841715 15.85596192 94.15780747 C15.87829271 84.98261072 15.88930724 75.80741143 15.89935279 66.63219428 C15.92027536 47.75476551 15.95546893 28.87738709 16 10 C15.23469971 9.70488525 14.46939941 9.40977051 13.6809082 9.10571289 C10.61067712 7.8394278 7.98191301 6.2293659 5.1875 4.4375 C4.21167969 3.81746094 3.23585937 3.19742188 2.23046875 2.55859375 C1.49441406 2.04425781 0.75835937 1.52992187 0 1 C0 0.67 0 0.34 0 0 Z " fill="#606060" transform="translate(42,82)"/>
<path d="M0 0 C1.32 0 2.64 0 4 0 C3.96128469 0.87349531 3.92256939 1.74699062 3.88268089 2.64695549 C2.94642768 24.11298045 2.25610733 45.57540269 1.82388878 67.05769157 C1.60916327 77.44904165 1.3167158 87.82646824 0.83154297 98.20898438 C-3.49773407 151.45893038 -3.49773407 151.45893038 17.54942322 198.11494446 C29.81243715 210.54863873 45.16647709 222.29245479 63.26953125 223.13671875 C68.5305672 223.04471992 73.6068377 222.41082903 78.8125 221.6875 C81.5150341 221.4585369 84.2203622 221.29873107 86.92773438 221.13867188 C95.35949364 220.56710417 103.721219 219.73257465 112 218 C112 219.65 112 221.3 112 223 C111.30016495 222.83563446 110.6003299 222.67126892 109.87928772 222.50192261 C106.81805924 221.96828376 104.03738564 221.91727966 100.93139648 221.96923828 C99.72921982 221.98479767 98.52704315 222.00035706 97.28843689 222.01638794 C95.99571365 222.03418304 94.70299042 222.05197815 93.37109375 222.0703125 C89.90065662 222.08918917 86.43018145 222.09196326 82.95970058 222.09665108 C79.34549487 222.10484263 75.73345247 222.13240245 72.11987305 222.20214844 C44.97173292 222.6974361 44.97173292 222.6974361 37.90625 216.29296875 C36.66437657 214.77275922 35.42251885 213.24955356 34.27389526 211.65771484 C31.87807546 208.54004406 28.93229883 205.94289394 26.09765625 203.23046875 C24.92561641 202.06658497 23.75699321 200.89925059 22.59179688 199.72851562 C20.2158469 197.34398702 17.83560997 194.96393168 15.45117188 192.58789062 C14.29134541 191.42740431 13.13182868 190.26660835 11.97265625 189.10546875 C11.44551529 188.58035202 10.91837433 188.05523529 10.3752594 187.51420593 C9.87380905 187.00960342 9.3723587 186.50500092 8.85571289 185.98510742 C8.42335831 185.55195724 7.99100372 185.11880707 7.54554749 184.67253113 C7.03551682 184.12059586 6.52548615 183.56866058 6 183 C5.15616855 182.12450721 4.31233709 181.24901442 3.44293499 180.34699154 C0.60707598 176.91112017 0.37272051 174.25877355 0.36749268 169.77560425 C0.35984257 169.07092896 0.35219245 168.36625366 0.34431052 167.64022458 C0.32478274 165.2907033 0.34064224 162.94279061 0.35644531 160.59326172 C0.34962685 158.90429701 0.3406034 157.21533997 0.32954407 155.52639771 C0.30566954 150.94796498 0.31225295 146.37001945 0.32403278 141.79155874 C0.33088511 136.99941538 0.30877095 132.20741049 0.28948975 127.41531372 C0.25719149 118.33958873 0.24937429 109.26402272 0.25106406 100.18824685 C0.25252469 86.86189425 0.2190124 73.53561977 0.18333054 60.20932198 C0.17810549 58.24396897 0.17288315 56.27861596 0.16766357 54.31326294 C0.16375614 52.87416791 0.16375614 52.87416791 0.15976977 51.40600026 C0.14512318 45.69858862 0.13818673 39.99123185 0.13801527 34.28380179 C0.13736891 30.73710283 0.1330224 27.19041395 0.12804222 23.64371872 C0.12667959 21.99736074 0.12705721 20.35100028 0.12928963 18.70464325 C0.13219269 16.45987543 0.1290848 14.21519178 0.12457275 11.97042847 C0.1246143 10.7135214 0.12465584 9.45661434 0.12469864 8.16161919 C0.02180608 5.55287311 -0.34135238 3.49356361 -1 1 C-0.67 0.67 -0.34 0.34 0 0 Z " fill="#595959" transform="translate(230,67)"/>
<path d="M0 0 C16.46426187 -0.2811815 32.92773703 -0.49234463 49.39382458 -0.62174606 C57.04063186 -0.6834459 64.68594162 -0.76745068 72.33178711 -0.90527344 C79.00141264 -1.02544099 85.66995323 -1.10242736 92.34063131 -1.12906194 C95.86859903 -1.14461728 99.3934651 -1.18076154 102.92043114 -1.26876068 C127.225539 -1.85200647 127.225539 -1.85200647 134.41938496 4.17161179 C136.87587769 6.62806026 138.91872741 9.21468293 141 12 C142.40934298 13.41651556 143.83857244 14.81420399 145.3046875 16.171875 C146.49801841 17.3613549 147.68822559 18.55397843 148.875 19.75 C149.51010498 20.38703857 150.14520996 21.02407715 150.79956055 21.68041992 C154.45647509 25.37131276 157.96977838 29.13170801 161.32421875 33.1015625 C165.0022165 37.26824527 169.04332005 41.10057105 173 45 C174.66788188 46.66545057 176.33473566 48.33193219 178 50 C180.58292973 52.58292973 182.32181115 52.24011663 185.84135437 52.25994873 C186.65852432 52.25432922 187.47569427 52.24870972 188.31762695 52.24291992 C189.17795532 52.24481827 190.03828369 52.24671661 190.92468262 52.24867249 C193.77930713 52.25238818 196.63367919 52.24166224 199.48828125 52.23046875 C201.46884633 52.22927695 203.44941199 52.22882379 205.42997742 52.2290802 C209.58706181 52.2275138 213.74406028 52.21921419 217.90112305 52.20581055 C223.22760246 52.1888537 228.55398706 52.18499522 233.8804903 52.18575573 C237.97343347 52.18548358 242.06635594 52.17999453 246.15929222 52.17275429 C248.12287426 52.16957323 250.08645863 52.16760153 252.05004311 52.16686058 C254.79813233 52.16468918 257.54612173 52.15592662 260.29418945 52.14526367 C261.51083534 52.14594345 261.51083534 52.14594345 262.75205994 52.14663696 C266.62338542 52.12470523 270.23693625 51.94451635 274 51 C274 52.65 274 54.3 274 56 C273.35408905 55.83465256 272.7081781 55.66930511 272.04269409 55.49894714 C268.11723108 54.85524176 264.27865516 54.93735761 260.31689453 55.0168457 C258.52589759 55.04293421 256.73489154 55.0684026 254.94387817 55.09333801 C253.99780827 55.1077424 253.05173836 55.1221468 252.07699966 55.13698769 C245.97559396 55.21738178 239.87359034 55.22929731 233.77174568 55.25208759 C228.42545907 55.27589594 223.08170337 55.32464129 217.73632812 55.4284668 C212.54898984 55.52785743 207.36524618 55.55740686 202.17702866 55.54152489 C200.21310001 55.54762166 198.24907219 55.57812426 196.28595352 55.63485146 C186.51407198 55.90359674 179.02488153 55.78110465 171.41921806 49.09673595 C168.97340194 46.70382302 166.66300685 44.23259804 164.42898178 41.64136314 C162.57149122 39.50780442 160.55399302 37.56786048 158.5 35.625 C155.44964617 32.53520194 152.61024441 29.29192076 149.78125 26 C147.29864782 23.21251685 144.63552175 20.62570674 141.9765625 18.0078125 C139.46884489 15.46044718 137.14314537 12.78351712 134.8359375 10.0546875 C133.92714844 9.03761719 133.92714844 9.03761719 133 8 C132.226633 6.98356415 131.45326599 5.9671283 130.65646362 4.91989136 C126.89700465 1.21419418 123.29389652 1.26893056 118.19389343 1.1900177 C117.0279213 1.20223862 115.86194916 1.21445953 114.66064453 1.22705078 C112.8012751 1.21110619 112.8012751 1.21110619 110.90434265 1.19483948 C107.51775689 1.17160235 104.13314271 1.17473001 100.74664164 1.18970728 C97.20313343 1.19910357 93.65986067 1.17462183 90.11642456 1.15377808 C83.41229144 1.11946667 76.70849956 1.11549599 70.00429618 1.12250316 C62.36937425 1.12900006 54.73469137 1.10155565 47.0998404 1.07130075 C31.39985478 1.00984412 15.70011287 0.99087919 0 1 C0 0.67 0 0.34 0 0 Z " fill="#838383" transform="translate(68,314)"/>
<path d="M0 0 C5.73333567 1.54679654 10.33074932 4.44241397 15.3125 7.5625 C16.54709961 8.32336914 16.54709961 8.32336914 17.80664062 9.09960938 C23.82692438 12.82692438 23.82692438 12.82692438 25 14 C25.0291282 16.14572129 24.98765564 18.29241384 24.91967773 20.43725586 C24.88023068 21.8345236 24.84173853 23.23181853 24.80406189 24.62913513 C24.78316938 25.37510893 24.76227688 26.12108273 24.74075127 26.88966179 C24.62259233 31.69639675 24.58623788 36.50453538 24.54066372 41.31241512 C24.49625635 45.52271757 24.42019561 49.72735384 24.26977539 53.93530273 C22.84151782 75.80397438 22.84151782 75.80397438 32.15846252 94.62538147 C35.19386254 97.42972993 38.3153416 99.9609707 41.69041443 102.34443665 C47.73105398 106.67450417 53.08712283 111.92103205 58.3125 117.1875 C58.82361328 117.69474609 59.33472656 118.20199219 59.86132812 118.72460938 C66.82034026 125.70172038 66.82034026 125.70172038 67.36076355 129.60699463 C67.35410172 130.59294617 67.34743988 131.57889771 67.34057617 132.59472656 C67.34034958 133.71558655 67.34012299 134.83644653 67.33988953 135.99127197 C67.32440567 137.19555847 67.30892181 138.39984497 67.29296875 139.640625 C67.28872391 140.87794373 67.28447906 142.11526245 67.28010559 143.39007568 C67.26616254 146.67162541 67.23923086 149.95273056 67.20599365 153.23413086 C67.17524594 156.58573307 67.16184603 159.93735439 67.14648438 163.2890625 C67.11339996 169.85954877 67.06318845 176.42973802 67 183 C67.66 183 68.32 183 69 183 C68.67 184.65 68.34 186.3 68 188 C66.68 187.67 65.36 187.34 64 187 C64 185.68 64 184.36 64 183 C64.66 183 65.32 183 66 183 C66.05996766 175.31306821 66.05745315 167.62794526 66.01220703 159.94091797 C66.00411339 157.32796745 66.01014146 154.71493247 66.03076172 152.10205078 C66.05798732 148.33775291 66.03385058 144.57668453 66 140.8125 C66.0194165 139.65073242 66.03883301 138.48896484 66.05883789 137.29199219 C65.95283268 131.28356396 65.48702463 127.77240927 61.17041016 123.40136719 C59.80618757 122.23652623 58.41645497 121.10073296 57 120 C55.75385514 118.92645154 54.51105586 117.84899201 53.2734375 116.765625 C52.6144043 116.19779297 51.95537109 115.62996094 51.27636719 115.04492188 C46.77063774 110.99730391 42.52572976 106.67294012 38.25244141 102.3828125 C36.61084038 100.73579365 34.96388532 99.09426198 33.31640625 97.453125 C32.26530375 96.40136262 31.21451099 95.34929058 30.1640625 94.296875 C29.6745108 93.80934753 29.18495911 93.32182007 28.68057251 92.81951904 C23.09272561 87.1929201 23.09272561 87.1929201 22.75949097 82.90583801 C22.7661528 80.99722237 22.7661528 80.99722237 22.77294922 79.05004883 C22.77265717 78.34735367 22.77236511 77.64465851 22.77206421 76.92066956 C22.77345692 74.59933093 22.78901513 72.27831377 22.8046875 69.95703125 C22.80841784 68.34706294 22.81126472 66.73709236 22.81326294 65.12712097 C22.82089773 60.89053068 22.84054487 56.6540776 22.8626709 52.4175415 C22.88313265 48.09413509 22.89226536 43.7707065 22.90234375 39.44726562 C22.92379094 30.96478079 22.95792499 22.48240747 23 14 C22.21856628 13.69296143 21.43713257 13.38592285 20.63201904 13.06958008 C16.60998346 11.43513555 12.98244605 9.20296141 9.25 7 C8.47011719 6.54882812 7.69023438 6.09765625 6.88671875 5.6328125 C6.14550781 5.19710937 5.40429688 4.76140625 4.640625 4.3125 C3.96547852 3.91675781 3.29033203 3.52101563 2.59472656 3.11328125 C1 2 1 2 0 0 Z " fill="#7F7F7F" transform="translate(75,66)"/>
<path d="M0 0 C1.32 0.33 2.64 0.66 4 1 C4.03297469 14.81309577 4.02539397 28.62566423 3.97153378 42.43870544 C3.94769911 48.85301805 3.93672612 55.26681127 3.95532227 61.68115234 C3.97279905 67.87361927 3.95626115 74.06515386 3.91632271 80.25750732 C3.90704187 82.61772047 3.90993465 84.97801447 3.92530632 87.3381958 C3.94477641 90.64967787 3.92062641 93.95822707 3.88647461 97.26953125 C3.9022908 98.24129807 3.91810699 99.21306488 3.93440247 100.21427917 C3.78757712 107.63264818 1.23275042 110.95377494 -4 116 C-4.96643433 117.23937317 -4.96643433 117.23937317 -5.95239258 118.50378418 C-8.68255609 121.76627845 -10.76461336 123.71632087 -14.97802734 124.68383789 C-18.57618574 124.92509775 -22.08329293 124.90037525 -25.6875 124.78125 C-26.98574707 124.76993042 -28.28399414 124.75861084 -29.62158203 124.74694824 C-33.04883398 124.71661479 -36.47330941 124.6382323 -39.8994751 124.54931641 C-43.40525761 124.46700717 -46.91149548 124.43084198 -50.41796875 124.390625 C-57.27977595 124.30520586 -64.13975418 124.16893949 -71 124 C-71 123.67 -71 123.34 -71 123 C-69.94550407 122.99786247 -69.94550407 122.99786247 -68.8697052 122.99568176 C-62.23396673 122.977828 -55.59885154 122.93614524 -48.96342945 122.86790943 C-45.55227232 122.83366532 -42.14156175 122.80853369 -38.73022461 122.80444336 C-34.8054215 122.79933358 -30.88156327 122.75420084 -26.95703125 122.70703125 C-25.73603226 122.7109639 -24.51503326 122.71489655 -23.2570343 122.71894836 C-16.39751168 122.85577355 -16.39751168 122.85577355 -10.81518555 119.45581055 C-10.21617432 118.64539307 -9.61716309 117.83497559 -9 117 C-8.34 117 -7.68 117 -7 117 C-6.773125 116.443125 -6.54625 115.88625 -6.3125 115.3125 C-5 113 -5 113 -2.45918274 110.98188782 C1.04818955 106.72901529 0.70833248 103.33643263 0.65942383 97.97729492 C0.66990753 96.97194702 0.68039124 95.96659912 0.69119263 94.93078613 C0.71995271 91.6137001 0.71364966 88.29765718 0.70703125 84.98046875 C0.72014563 82.67831615 0.73544904 80.37617507 0.75285339 78.0740509 C0.79274619 72.01923569 0.80289667 65.96472118 0.80688477 59.90979004 C0.81620803 53.72948052 0.85361659 47.54934828 0.88867188 41.36914062 C0.95329153 29.24610206 0.9864958 17.12319571 1 5 C0.34 5 -0.32 5 -1 5 C-0.67 3.35 -0.34 1.7 0 0 Z " fill="#737373" transform="translate(159,149)"/>
<path d="M0 0 C1.67542976 0.28604898 3.34385343 0.61781233 5 1 C5.33 2.65 5.66 4.3 6 6 C5.01 6.33 4.02 6.66 3 7 C3 50.89 3 94.78 3 140 C2.34 140.33 1.68 140.66 1 141 C0.99576806 140.31032166 0.99153612 139.62064333 0.98717594 138.91006565 C0.88400972 122.15251051 0.77539333 105.39500056 0.66066074 88.63752079 C0.60531 80.53383408 0.55182503 72.43014297 0.50268555 64.32641602 C0.45986632 57.26575115 0.41359414 50.20511895 0.36312145 43.14450449 C0.33650221 39.40367461 0.31164878 35.66285129 0.29092598 31.92198372 C0.26776545 27.7527089 0.23689814 23.58352621 0.20532227 19.41430664 C0.1995668 18.16490295 0.19381134 16.91549927 0.18788147 15.62823486 C0.17809265 14.49936356 0.16830383 13.37049225 0.15821838 12.20741272 C0.15176583 11.22017243 0.14531328 10.23293215 0.1386652 9.21577549 C0.24692083 7.02640043 0.24692083 7.02640043 -1 6 C-1.125 3.5 -1.125 3.5 -1 1 C-0.67 0.67 -0.34 0.34 0 0 Z " fill="#989898" transform="translate(198,123)"/>
<path d="M0 0 C1.98 0.495 1.98 0.495 4 1 C4.33 2.65 4.66 4.3 5 6 C5.99 6.33 6.98 6.66 8 7 C9.20017423 8.38967542 10.39983005 9.78209326 11.5234375 11.234375 C13.0577365 13.13953345 13.0577365 13.13953345 15.29161072 15.16136169 C17.76890327 17.75778961 19.57112829 20.24655186 21.50809669 23.23020363 C29.07410034 34.57684399 38.95296691 46.15532044 52.49422455 49.98934174 C71.84754448 53.70021218 92.21974218 52.40544076 111.80479777 51.67821181 C119.80156948 51.38765304 127.79796068 51.28133835 135.79906833 51.18678939 C152.20684922 50.98895464 168.60087015 50.5712921 185 50 C185 49.34 185 48.68 185 48 C186.65 48.33 188.3 48.66 190 49 C189.67 50.32 189.34 51.64 189 53 C188.4553884 52.8365978 187.91077681 52.67319559 187.34966183 52.5048418 C184.63178693 51.92088676 182.18638968 51.8968677 179.40541077 51.92253113 C178.26596008 51.93008423 177.1265094 51.93763733 175.95252991 51.94541931 C174.08316017 51.96506493 174.08316017 51.96506493 172.17602539 51.98510742 C170.15585904 51.99950085 168.13569242 52.01387277 166.11552036 52.02744067 C164.68262001 52.03729264 163.24972395 52.04778734 161.81683266 52.05887926 C156.54237949 52.09932154 151.26811173 52.11999261 145.99351501 52.1287384 C145.22667784 52.13002202 144.45984067 52.13130563 143.66976601 52.13262814 C140.50621012 52.13750775 137.34265379 52.14168327 134.17909634 52.14541471 C125.21680437 52.15669632 116.25557731 52.18730365 107.29370117 52.27758789 C100.1681608 52.34924535 93.04387473 52.37798685 85.91798395 52.35742456 C82.1522564 52.34813241 78.38932972 52.35969614 74.62407112 52.42339134 C48.69017999 52.84037243 48.69017999 52.84037243 41.4694128 46.82633686 C39.03136178 44.37550812 37.04085342 41.7944471 35 39 C33.51122518 37.51038405 31.99982441 36.04232898 30.44921875 34.6171875 C29.19283683 33.37228521 27.93881999 32.12499021 26.6875 30.875 C26.03072266 30.23046875 25.37394531 29.5859375 24.69726562 28.921875 C24.07916016 28.30570312 23.46105469 27.68953125 22.82421875 27.0546875 C22.27854248 26.51312012 21.73286621 25.97155273 21.1706543 25.41357422 C20 24 20 24 20 22 C19.34 22 18.68 22 18 22 C16.51953125 20.49609375 16.51953125 20.49609375 14.8125 18.4375 C8.14216566 10.0256022 8.14216566 10.0256022 -1 5 C-0.67 3.35 -0.34 1.7 0 0 Z " fill="#828282" transform="translate(2,294)"/>
<path d="M0 0 C2.5 0.125 2.5 0.125 3.5 1.125 C3.54063832 2.79117115 3.542721 4.45888095 3.5 6.125 C1.625 7.1875 1.625 7.1875 -0.5 8.125 C-1.49 7.63 -1.49 7.63 -2.5 7.125 C-2.5 6.465 -2.5 5.805 -2.5 5.125 C-26.26 5.125 -50.02 5.125 -74.5 5.125 C-74.83 4.135 -75.16 3.145 -75.5 2.125 C-74.15029869 2.1095388 -74.15029869 2.1095388 -72.77333069 2.09376526 C-64.31179214 1.99596659 -55.8503264 1.8934778 -47.38890934 1.78566074 C-43.03835194 1.73039215 -38.68778788 1.67696601 -34.3371582 1.62768555 C-30.1420379 1.58009986 -25.94700188 1.52775942 -21.75198174 1.47205925 C-20.14795455 1.45160934 -18.54390423 1.43290071 -16.9398365 1.41592598 C-14.70077231 1.39194003 -12.46186884 1.36187806 -10.22290039 1.33032227 C-8.94604874 1.31477798 -7.66919708 1.2992337 -6.35365295 1.28321838 C-3.20544328 1.10866855 -3.03204574 0.15160229 0 0 Z " fill="#989898" transform="translate(339.5,324.875)"/>
<path d="M0 0 C1.6975594 0.58353604 3.35544725 1.28050817 5 2 C5.66298599 2.20124985 6.32597198 2.40249969 7.00904846 2.60984802 C9.72249631 3.74235552 11.13021794 4.70172417 13 7 C14.23474904 12.78008087 14.04682171 18.52312605 13.96484375 24.41015625 C13.96982612 26.14222097 13.97847042 27.87427868 13.99061584 29.60630798 C14.01337824 34.16072957 13.98931969 38.71370537 13.95458984 43.26800537 C13.92075061 48.80132442 13.94059711 54.33465565 13.95362949 59.86802578 C13.96290873 64.17312421 13.96383715 68.47767846 13.93943787 72.7827301 C13.9365123 73.57457703 13.93358673 74.36642395 13.93057251 75.18226624 C13.92479415 76.65749235 13.91519852 78.13271067 13.90098572 79.60787964 C13.89209885 82.88983353 13.98394353 85.86202105 15 89 C12.525 89.495 12.525 89.495 10 90 C9.4375 88.0625 9.4375 88.0625 9 86 C9.495 85.505 9.495 85.505 10 85 C10.12492389 82.56700213 10.18601507 80.16095077 10.20532227 77.72631836 C10.21522186 76.96539383 10.22512146 76.2044693 10.23532104 75.42048645 C10.26702624 72.8936377 10.2917289 70.36677012 10.31640625 67.83984375 C10.33696801 66.09248859 10.35796426 64.34513849 10.37937927 62.59779358 C10.43468041 57.98973682 10.48405408 53.38163459 10.53222656 48.77349854 C10.58238303 44.07486911 10.63809958 39.37630606 10.69335938 34.67773438 C10.80103924 25.45187956 10.90246223 16.22596722 11 7 C10.24332031 6.71253906 9.48664063 6.42507812 8.70703125 6.12890625 C5.49066208 4.78759212 2.82193153 3.03441575 0 1 C0 0.67 0 0.34 0 0 Z " fill="#616161" transform="translate(168,100)"/>
<path d="M0 0 C5.73333567 1.54679654 10.33074932 4.44241397 15.3125 7.5625 C16.54709961 8.32336914 16.54709961 8.32336914 17.80664062 9.09960938 C23.82692438 12.82692438 23.82692438 12.82692438 25 14 C25.10302169 16.21262584 25.13573757 18.42854018 25.1418457 20.64355469 C25.14705734 21.68511215 25.14705734 21.68511215 25.15237427 22.74771118 C25.15974407 24.26080265 25.1650829 25.77390502 25.16866493 27.28701019 C25.17581416 29.68290533 25.19147 32.0785937 25.21000671 34.47442627 C25.26254108 41.28826005 25.31043763 48.10198381 25.32592773 54.91601562 C25.33601587 59.0800658 25.36536513 63.24360113 25.40724754 67.40744781 C25.41955522 68.99419508 25.42467921 70.5810151 25.42244911 72.16780853 C25.42009305 74.39205189 25.44228392 76.61482299 25.4699707 78.83886719 C25.47877007 80.73629669 25.47877007 80.73629669 25.48774719 82.67205811 C26.08236877 86.53512346 27.3283071 88.21209247 30 91 C27 91 27 91 24.84088135 88.94856262 C22.55698515 85.29041759 22.51581948 83.11676949 22.54589844 78.82299805 C22.54531433 78.12001083 22.54473022 77.41702362 22.54412842 76.69273376 C22.54690293 74.38188339 22.5779621 72.0723422 22.609375 69.76171875 C22.61683971 68.1546143 22.62253156 66.54750073 22.62652588 64.94038391 C22.64176427 60.72006901 22.68103004 56.50030884 22.7253418 52.2802124 C22.76633359 47.97008772 22.7845452 43.659873 22.8046875 39.34960938 C22.84752654 30.89948563 22.91575547 22.44981191 23 14 C22.21856628 13.69296143 21.43713257 13.38592285 20.63201904 13.06958008 C16.60998346 11.43513555 12.98244605 9.20296141 9.25 7 C8.47011719 6.54882812 7.69023438 6.09765625 6.88671875 5.6328125 C6.14550781 5.19710937 5.40429688 4.76140625 4.640625 4.3125 C3.96547852 3.91675781 3.29033203 3.52101563 2.59472656 3.11328125 C1 2 1 2 0 0 Z " fill="#5D5D5D" transform="translate(75,66)"/>
<path d="M0 0 C1.32 0 2.64 0 4 0 C4 1.65 4 3.3 4 5 C3.34 5 2.68 5 2 5 C2 61.43 2 117.86 2 176 C1.67 176 1.34 176 1 176 C0.99576806 175.12239895 0.99153612 174.2447979 0.98717594 173.34060287 C0.88393451 152.00048958 0.77530651 130.66040965 0.66066074 109.32035446 C0.60534956 99.0005278 0.55187099 88.68069767 0.50268555 78.36083984 C0.45981795 69.36753492 0.41353342 60.37425523 0.36312145 51.38098931 C0.3365413 46.61780864 0.3116887 41.85463291 0.29092598 37.09142303 C0.27133738 32.60994427 0.24718688 28.12851345 0.21950912 23.64707756 C0.21015048 22.00073302 0.20247094 20.35437796 0.19658089 18.70801735 C0.18829954 16.46290539 0.17401719 14.21790916 0.15821838 11.97283936 C0.15176583 10.71551373 0.14531328 9.4581881 0.1386652 8.16276169 C0.02457771 5.56058372 -0.34562534 3.48933909 -1 1 C-0.67 0.67 -0.34 0.34 0 0 Z " fill="#8C8C8C" transform="translate(230,67)"/>
<path d="M0 0 C4.88506033 3.96911152 9.03403219 8.14807462 13.10546875 12.94921875 C16.35120134 16.46264063 17.86660195 17.89113998 22.82615662 18.36749268 C24.39895761 18.37921639 25.97193482 18.37433772 27.54467773 18.35644531 C28.83560837 18.35951187 28.83560837 18.35951187 30.15261841 18.36264038 C32.99649327 18.36564751 35.83978781 18.34717104 38.68359375 18.328125 C40.6612992 18.32506671 42.6390068 18.32319112 44.61671448 18.32244873 C48.76189416 18.31784583 52.90687955 18.30342184 57.05200195 18.28125 C62.36273454 18.25298628 67.673314 18.24204008 72.98411465 18.2375679 C77.06848174 18.23340813 81.15281795 18.22358567 85.23716927 18.21169281 C87.19516822 18.20599921 89.15317011 18.20123751 91.11117363 18.19742584 C93.84947775 18.1905412 96.5876621 18.17689772 99.32592773 18.16113281 C100.53786049 18.15945602 100.53786049 18.15945602 101.77427673 18.15774536 C105.63666755 18.12833708 109.24521944 17.93958035 113 17 C113 18.65 113 20.3 113 22 C112.35408905 21.83465256 111.7081781 21.66930511 111.04269409 21.49894714 C107.11723108 20.85524176 103.27865516 20.93735761 99.31689453 21.0168457 C97.52589759 21.04293421 95.73489154 21.0684026 93.94387817 21.09333801 C92.99780827 21.1077424 92.05173836 21.1221468 91.07699966 21.13698769 C84.97559396 21.21738178 78.87359034 21.22929731 72.77174568 21.25208759 C67.42545907 21.27589594 62.08170337 21.32464129 56.73632812 21.4284668 C51.54898984 21.52785743 46.36524618 21.55740686 41.17702866 21.54152489 C39.21310001 21.54762166 37.24907219 21.57812426 35.28595352 21.63485146 C25.4815733 21.90449051 17.99687054 21.75577227 10.34597588 15.07842541 C6.17412026 11.02822964 2.36885358 6.74596959 -1 2 C-0.67 1.34 -0.34 0.68 0 0 Z " fill="#7A7A7A" transform="translate(229,348)"/>
<path d="M0 0 C1.98 0.495 1.98 0.495 4 1 C4.33 2.65 4.66 4.3 5 6 C5.99 6.33 6.98 6.66 8 7 C9.20017423 8.38967542 10.39983005 9.78209326 11.5234375 11.234375 C13.53710587 13.64225358 15.77298804 15.78731962 18 18 C19.01576586 19.01499571 20.03112986 20.03039371 21.04614258 21.04614258 C21.58632523 21.58632523 22.12650787 22.12650787 22.68305969 22.68305969 C30.12203979 30.12203979 37.5610199 37.5610199 45 45 C44.34 45.66 43.68 46.32 43 47 C39.71809541 43.76743024 36.44273543 40.52842394 33.17333984 37.28320312 C32.05956877 36.17950702 30.94401168 35.07761027 29.82666016 33.97753906 C28.22348763 32.39854926 26.62679089 30.81325886 25.03125 29.2265625 C24.52815308 28.73378815 24.02505615 28.24101379 23.50671387 27.73330688 C22.29925487 26.526244 21.14417071 25.26721404 20 24 C20 23.34 20 22.68 20 22 C19.34 22 18.68 22 18 22 C16.51953125 20.49609375 16.51953125 20.49609375 14.8125 18.4375 C8.14216566 10.0256022 8.14216566 10.0256022 -1 5 C-0.67 3.35 -0.34 1.7 0 0 Z " fill="#7F7F7F" transform="translate(2,294)"/>
<path d="M0 0 C2.5 0.125 2.5 0.125 3.5 1.125 C3.54063832 2.79117115 3.542721 4.45888095 3.5 6.125 C1.625 7.1875 1.625 7.1875 -0.5 8.125 C-1.16 7.795 -1.82 7.465 -2.5 7.125 C-2.5 6.465 -2.5 5.805 -2.5 5.125 C-9.76 5.125 -17.02 5.125 -24.5 5.125 C-24.5 4.795 -24.5 4.465 -24.5 4.125 C-36.38 3.795 -48.26 3.465 -60.5 3.125 C-60.5 2.795 -60.5 2.465 -60.5 2.125 C-59.78812027 2.11469254 -59.07624054 2.10438507 -58.3427887 2.09376526 C-51.64717174 1.99595102 -44.95164482 1.89345996 -38.25618076 1.78566074 C-34.8136426 1.7304012 -31.371096 1.67697653 -27.9284668 1.62768555 C-23.97435474 1.57099199 -20.02039056 1.50642505 -16.06640625 1.44140625 C-14.82476212 1.42469376 -13.58311798 1.40798126 -12.30384827 1.39076233 C-10.59218727 1.3608445 -10.59218727 1.3608445 -8.84594727 1.33032227 C-7.835569 1.31477798 -6.82519073 1.2992337 -5.78419495 1.28321838 C-3.01763493 1.09158822 -2.84131827 0.14206591 0 0 Z " fill="#878787" transform="translate(339.5,324.875)"/>
<path d="M0 0 C0.99 0.33 1.98 0.66 3 1 C2.83923477 1.62396164 2.67846954 2.24792328 2.51283264 2.89079285 C1.8048239 7.18331572 1.82193977 11.40327693 1.79467773 15.74731445 C1.78477814 16.72340164 1.77487854 17.69948883 1.76467896 18.70515442 C1.73314613 21.92450554 1.70833899 25.1438714 1.68359375 28.36328125 C1.66301713 30.59816364 1.64202047 32.83304221 1.62062073 35.06791687 C1.5654732 40.94508763 1.51603164 46.82229309 1.46777344 52.69952393 C1.41750497 58.69880251 1.36184681 64.69803081 1.30664062 70.69726562 C1.19914857 82.46480078 1.09768373 94.23237962 1 106 C0.67 106 0.34 106 0 106 C-0.0154612 104.13744316 -0.0154612 104.13744316 -0.03123474 102.23725891 C-0.12896083 90.53943188 -0.23169426 78.84165813 -0.33933926 67.14391804 C-0.3945203 61.12989942 -0.44793266 55.1158759 -0.49731445 49.10180664 C-0.54502898 43.2986905 -0.59737446 37.49563298 -0.65294075 31.6925869 C-0.67333216 29.47782029 -0.69205052 27.26303763 -0.70907402 25.04824257 C-0.7331891 21.94787416 -0.76323409 18.84761599 -0.79467773 15.74731445 C-0.8004332 14.83021698 -0.80618866 13.91311951 -0.81211853 12.9682312 C-0.85957161 8.85599714 -0.96679216 5.01008394 -2 1 C-1.34 0.67 -0.68 0.34 0 0 Z " fill="#8B8B8B" transform="translate(266,111)"/>
<path d="M0 0 C0.66 0 1.32 0 2 0 C3.33984375 1.36328125 3.33984375 1.36328125 4.9375 3.3125 C8.08326912 7.0157472 11.38075917 10.50238092 14.8125 13.9375 C15.29259521 14.4219458 15.77269043 14.9063916 16.26733398 15.40551758 C19.84381746 18.96805271 21.54700514 20.12461353 26.55395508 20.12939453 C27.49866165 20.13254669 28.44336823 20.13569885 29.41670227 20.13894653 C30.95260262 20.13591019 30.95260262 20.13591019 32.51953125 20.1328125 C33.57025314 20.13376923 34.62097504 20.13472595 35.70353699 20.13571167 C37.93036967 20.13639319 40.15720432 20.13454088 42.3840332 20.13037109 C45.78796889 20.12503843 49.19177165 20.1303088 52.59570312 20.13671875 C54.75781279 20.13605765 56.91992237 20.13477583 59.08203125 20.1328125 C60.60882256 20.13584885 60.60882256 20.13584885 62.16645813 20.13894653 C63.12062119 20.13579437 64.07478424 20.13264221 65.05786133 20.12939453 C66.31123039 20.12820114 66.31123039 20.12820114 67.58992004 20.12698364 C70.14042625 19.99260114 72.51080043 19.55883351 75 19 C75 20.65 75 22.3 75 24 C74.27482681 23.83268875 73.54965363 23.6653775 72.80250549 23.49299622 C70.11638161 23.020473 67.87349647 22.9632956 65.15991211 23.11206055 C21.92551627 25.13368663 21.92551627 25.13368663 12.24609375 17.5546875 C7.3540703 13.04267495 3.03334002 7.9565705 0 2 C0 1.34 0 0.68 0 0 Z " fill="#858585" transform="translate(267,217)"/>
<path d="M0 0 C0.33 0 0.66 0 1 0 C0.95257156 0.5664473 0.90514313 1.13289459 0.85627747 1.71650696 C-2.59018904 32.15925417 -2.59018904 32.15925417 8.078125 59.33203125 C14.2439107 66.10866003 21.45495743 71.83732687 29 77 C28.67 77.66 28.34 78.32 28 79 C23.07293078 74.90477364 18.72193399 70.65704622 14.58203125 65.76953125 C12.95327059 63.84933743 12.95327059 63.84933743 10.5 62 C6.85707479 59.08565983 4.01548796 55.54238774 1 52 C0.67 51.67 0.34 51.34 0 51 C-0.09333705 49.40389018 -0.11745372 47.80366572 -0.11352539 46.20483398 C-0.11344986 45.18385117 -0.11337433 44.16286835 -0.11329651 43.11094666 C-0.10813522 42.0005452 -0.10297394 40.89014374 -0.09765625 39.74609375 C-0.0962413 38.61551041 -0.09482635 37.48492706 -0.09336853 36.32008362 C-0.08775019 32.69252935 -0.07519458 29.06503576 -0.0625 25.4375 C-0.05748736 22.98502693 -0.05292405 20.5325529 -0.04882812 18.08007812 C-0.0377748 12.05336455 -0.02101884 6.02668661 0 0 Z " fill="#7F7F7F" transform="translate(59,194)"/>
<path d="M0 0 C4.41717399 1.60624509 7.77256518 3.58432296 12 6 C12 27.78 12 49.56 12 72 C12.66 72 13.32 72 14 72 C13.67 73.65 13.34 75.3 13 77 C11.68 76.67 10.36 76.34 9 76 C9 74.68 9 73.36 9 72 C9.66 72 10.32 72 11 72 C11 50.55 11 29.1 11 7 C8.525 6.01 8.525 6.01 6 5 C3.95950578 3.7295036 1.94982535 2.40568804 0 1 C0 0.67 0 0.34 0 0 Z " fill="#7D7D7D" transform="translate(208,76)"/>
<path d="M0 0 C5.10640238 4.26994856 9.8677276 8.74565796 14.54296875 13.48046875 C15.57929192 14.52247185 15.57929192 14.52247185 16.6365509 15.58552551 C18.82266311 17.78375437 21.00548135 19.9852082 23.1875 22.1875 C26.07392696 25.10055042 28.96366881 28.01025317 31.85546875 30.91796875 C32.51282516 31.5836235 33.17018158 32.24927826 33.84745789 32.93510437 C34.46522598 33.55617569 35.08299408 34.17724701 35.71948242 34.81713867 C36.2579631 35.36085617 36.79644379 35.90457367 37.35124207 36.46476746 C39.13857309 38.12903163 41.02383605 39.56758982 43 41 C42.505 41.99 42.505 41.99 42 43 C36.37190062 38.19179324 31.01873064 33.17840178 25.78125 27.94921875 C25.03790405 27.2092012 24.29455811 26.46918365 23.52868652 25.70674133 C21.97452774 24.15760633 20.4216852 22.60714976 18.87011719 21.05541992 C16.48391693 18.67143184 14.08979741 16.29558529 11.6953125 13.91992188 C10.18180379 12.40934283 8.66876554 10.89829223 7.15625 9.38671875 C6.43763794 8.67529221 5.71902588 7.96386566 4.9786377 7.23088074 C4.32375366 6.57292007 3.66886963 5.91495941 2.99414062 5.23706055 C2.41426392 4.65860886 1.83438721 4.08015717 1.23693848 3.48417664 C0 2 0 2 0 0 Z " fill="#7E7E7E" transform="translate(25,272)"/>
<path d="M0 0 C1.32 0 2.64 0 4 0 C4 1.65 4 3.3 4 5 C3.30219925 4.83923477 2.6043985 4.67846954 1.88545227 4.51283264 C-1.18142282 3.96775565 -4.05305426 3.83981081 -7.16723633 3.79467773 C-8.38812454 3.77473251 -9.60901276 3.75478729 -10.86689758 3.73423767 C-12.17539169 3.71752518 -13.4838858 3.70081268 -14.83203125 3.68359375 C-16.19252628 3.6630042 -17.55301519 3.64200722 -18.91349792 3.62062073 C-22.48248323 3.56560653 -26.05152427 3.51610683 -29.62060547 3.46777344 C-33.26730266 3.41740694 -36.91391959 3.3618002 -40.56054688 3.30664062 C-47.70696151 3.19931196 -54.85344825 3.09781157 -62 3 C-62 2.67 -62 2.34 -62 2 C-60.85701195 1.9845388 -60.85701195 1.9845388 -59.69093323 1.96876526 C-52.5244026 1.8709559 -45.35796173 1.7684656 -38.19157505 1.66066074 C-34.5068981 1.60539835 -30.82221327 1.55197321 -27.13745117 1.50268555 C-23.58422159 1.45509068 -20.03109125 1.40274993 -16.47797966 1.34705925 C-15.11957189 1.3266135 -13.76113688 1.30790415 -12.40268135 1.29092598 C-10.50610295 1.26693123 -8.60961201 1.23629668 -6.71313477 1.20532227 C-5.09097801 1.18200584 -5.09097801 1.18200584 -3.43605042 1.15821838 C-1.05248949 1.27241981 -1.05248949 1.27241981 0 0 Z " fill="#949494" transform="translate(338,285)"/>
<path d="M0 0 C0.33 0 0.66 0 1 0 C1 18.15 1 36.3 1 55 C1.66 55 2.32 55 3 55 C2.505 57.475 2.505 57.475 2 60 C0.68 59.67 -0.64 59.34 -2 59 C-2 57.68 -2 56.36 -2 55 C-1.34 55 -0.68 55 0 55 C0 36.85 0 18.7 0 0 Z " fill="#979797" transform="translate(141,194)"/>
<path d="M0 0 C5.29012124 4.40843437 10.18808428 9.07559794 15 14 C13.02 14.99 13.02 14.99 11 16 C8.95880212 14.38405168 6.95927063 12.7143618 5 11 C5 10.34 5 9.68 5 9 C4.401875 8.7525 3.80375 8.505 3.1875 8.25 C0.71352479 6.83629988 -0.43370255 5.34944617 -2 3 C-1.34 2.67 -0.68 2.34 0 2 C0 1.34 0 0.68 0 0 Z " fill="#838383" transform="translate(231,293)"/>
<path d="M0 0 C2.95229622 0.32803291 3.93329409 0.92694115 5.96875 3.15625 C9.88726316 7.19642462 14.93131463 9.61457148 19.8125 12.3125 C20.79154297 12.86228516 21.77058594 13.41207031 22.77929688 13.97851562 C25.18216116 15.32646388 27.58901447 16.66664953 30 18 C29.34 18.33 28.68 18.66 28 19 C25.86450195 18.04370117 25.86450195 18.04370117 23.23828125 16.54296875 C22.28373047 16.00736328 21.32917969 15.47175781 20.34570312 14.91992188 C18.84426758 14.06237305 18.84426758 14.06237305 17.3125 13.1875 C8.55031438 8.12800891 8.55031438 8.12800891 -1 5 C-0.67 3.35 -0.34 1.7 0 0 Z " fill="#686868" transform="translate(36,42)"/>
<path d="M0 0 C4.25691604 0.50606694 6.25790926 1.71222849 9.25 4.75 C10.27867187 5.76320313 10.27867187 5.76320313 11.328125 6.796875 C13.18411848 9.24262341 13.64116407 10.9815566 14 14 C9.52989 12.60259439 7.25194207 10.49641151 4.1875 7 C3.39730469 6.113125 2.60710937 5.22625 1.79296875 4.3125 C0 2 0 2 0 0 Z " fill="#878787" transform="translate(218,283)"/>
<path d="M0 0 C4.95 0 9.9 0 15 0 C15 0.66 15 1.32 15 2 C21.6 2 28.2 2 35 2 C35 2.33 35 2.66 35 3 C23.78 3 12.56 3 1 3 C0.67 2.01 0.34 1.02 0 0 Z " fill="#929292" transform="translate(264,327)"/>
<path d="M0 0 C2.60754771 0.37250682 3.76995776 0.74643723 5.56640625 2.7265625 C9.0301989 5.9624009 13.01730421 7.91705659 17.1875 10.125 C18.8295306 10.99752749 20.46900195 11.87489398 22.10546875 12.7578125 C22.82887451 13.1408252 23.55228027 13.52383789 24.29760742 13.91845703 C26 15 26 15 27 17 C23.94471902 16.36608698 21.58069257 15.34176987 18.8828125 13.78515625 C18.11066406 13.34623047 17.33851562 12.90730469 16.54296875 12.45507812 C14.93854548 11.53104437 13.33437626 10.60656934 11.73046875 9.68164062 C7.56157202 7.31279165 3.64959324 5.3081653 -1 4 C-0.67 2.68 -0.34 1.36 0 0 Z " fill="#686868" transform="translate(1,57)"/>
<path d="M0 0 C2.475 0.495 2.475 0.495 5 1 C5 1.99 5 2.98 5 4 C6.01126953 4.36738281 6.01126953 4.36738281 7.04296875 4.7421875 C10.64090714 6.27261836 13.93876063 8.15843308 17.3125 10.125 C17.95767578 10.49753906 18.60285156 10.87007812 19.26757812 11.25390625 C20.84675945 12.16632213 22.42361864 13.08275509 24 14 C21 15 21 15 19.27001953 14.30322266 C18.64724121 13.9272998 18.02446289 13.55137695 17.3828125 13.1640625 C16.69316406 12.75929688 16.00351563 12.35453125 15.29296875 11.9375 C14.57753906 11.504375 13.86210937 11.07125 13.125 10.625 C6.96147386 6.791841 6.96147386 6.791841 0 5 C0 3.35 0 1.7 0 0 Z " fill="#6C6C6C" transform="translate(158,46)"/>
<path d="M0 0 C2.375 0.3125 2.375 0.3125 3.375 1.3125 C3.41563832 2.97867115 3.417721 4.64638095 3.375 6.3125 C1.5 7.375 1.5 7.375 -0.625 8.3125 C-1.285 7.9825 -1.945 7.6525 -2.625 7.3125 C-2.625 6.6525 -2.625 5.9925 -2.625 5.3125 C-3.615 4.9825 -4.605 4.6525 -5.625 4.3125 C-3.29753803 0.39256405 -3.29753803 0.39256405 0 0 Z " fill="#8D8D8D" transform="translate(339.625,324.6875)"/>
<path d="M0 0 C1.32 0 2.64 0 4 0 C4.20367187 0.58265625 4.40734375 1.1653125 4.6171875 1.765625 C6.54850215 4.88628031 8.93576672 5.98574329 12.125 7.75 C13.22070312 8.36359375 14.31640625 8.9771875 15.4453125 9.609375 C16.28835937 10.06828125 17.13140625 10.5271875 18 11 C17.01 11.495 17.01 11.495 16 12 C13.21398111 10.62519983 10.59245425 9.03143001 7.921875 7.4453125 C4.88896726 5.94507739 2.34437491 5.38588941 -1 5 C-0.67 3.35 -0.34 1.7 0 0 Z " fill="#737373" transform="translate(101,60)"/>
<path d="M0 0 C-1.66463038 4.28642324 -4.79075837 7.08617217 -8 10.25 C-8.5465625 10.80429687 -9.093125 11.35859375 -9.65625 11.9296875 C-13.7466133 16 -13.7466133 16 -16 16 C-14.71480435 13.13302508 -13.42870746 11.02392288 -11 9 C-10.34 9 -9.68 9 -9 9 C-8.773125 8.443125 -8.54625 7.88625 -8.3125 7.3125 C-6.49644015 4.11277551 -3.9498923 0 0 0 Z " fill="#656565" transform="translate(161,257)"/>
<path d="M0 0 C4.32504836 1.65863505 7.09418825 4.871041 10.25 8.125 C11.08144531 8.96998047 11.08144531 8.96998047 11.9296875 9.83203125 C13.29104485 11.21686028 14.64614859 12.60783204 16 14 C15.01 14.33 14.02 14.66 13 15 C10.82722286 12.88094537 8.66173092 10.75527122 6.5 8.625 C5.87996094 8.02171875 5.25992188 7.4184375 4.62109375 6.796875 C4.03457031 6.21679688 3.44804688 5.63671875 2.84375 5.0390625 C2.29912109 4.50490723 1.75449219 3.97075195 1.19335938 3.42041016 C0 2 0 2 0 0 Z " fill="#909090" transform="translate(104,157)"/>
<path d="M0 0 C4.04161955 1.34484714 6.38678154 3.0505162 9.3125 6.125 C10.00988281 6.84945313 10.70726562 7.57390625 11.42578125 8.3203125 C11.94527344 8.87460937 12.46476563 9.42890625 13 10 C12.67 10.99 12.34 11.98 12 13 C9.99698146 11.0238076 7.99750133 9.04425526 6 7.0625 C5.42765625 6.49853516 4.8553125 5.93457031 4.265625 5.35351562 C2.82474495 3.92121224 1.41012857 2.46258871 0 1 C0 0.67 0 0.34 0 0 Z " fill="#8A8A8A" transform="translate(196,316)"/>
<path d="M0 0 C1.98 1.65 3.96 3.3 6 5 C5.01 5.495 5.01 5.495 4 6 C3.67 6.99 3.34 7.98 3 9 C1.35 7.02 -0.3 5.04 -2 3 C-1.34 2.67 -0.68 2.34 0 2 C0 1.34 0 0.68 0 0 Z " fill="#797979" transform="translate(231,293)"/>
<path d="M0 0 C3.78520613 0.54074373 5.59177555 2.07572746 8 5 C8 5.99 8 6.98 8 8 C3.79373966 6.49776416 2.26099979 3.71449966 0 0 Z " fill="#8A8A8A" transform="translate(221,342)"/>
<path d="M0 0 C1.65 0.33 3.3 0.66 5 1 C4.67 2.32 4.34 3.64 4 5 C2.35 4.67 0.7 4.34 -1 4 C-0.67 2.68 -0.34 1.36 0 0 Z " fill="#828282" transform="translate(178,185)"/>
<path d="M0 0 C0.33 0.66 0.66 1.32 1 2 C1.66 2 2.32 2 3 2 C2.67 3.65 2.34 5.3 2 7 C0.68 6.67 -0.64 6.34 -2 6 C-2 4.68 -2 3.36 -2 2 C-1.34 2 -0.68 2 0 2 C0 1.34 0 0.68 0 0 Z " fill="#8D8D8D" transform="translate(141,247)"/>
<path d="M0 0 C1.32 0 2.64 0 4 0 C4 1.65 4 3.3 4 5 C2.35 4.67 0.7 4.34 -1 4 C-0.67 2.68 -0.34 1.36 0 0 Z " fill="#878787" transform="translate(338,365)"/>
<path d="M0 0 C1.98 0.495 1.98 0.495 4 1 C4 2.32 4 3.64 4 5 C2.35 5 0.7 5 -1 5 C-0.67 3.35 -0.34 1.7 0 0 Z " fill="#848484" transform="translate(2,294)"/>
<path d="M0 0 C1.65 0 3.3 0 5 0 C4.67 1.65 4.34 3.3 4 5 C2.68 4.67 1.36 4.34 0 4 C0 2.68 0 1.36 0 0 Z " fill="#8A8A8A" transform="translate(217,148)"/>
<path d="M0 0 C1.32 0 2.64 0 4 0 C3.67 1.65 3.34 3.3 3 5 C1.68 5 0.36 5 -1 5 C-0.67 3.35 -0.34 1.7 0 0 Z " fill="#838383" transform="translate(101,60)"/>
<path d="M0 0 C2.475 0.495 2.475 0.495 5 1 C4.67 2.32 4.34 3.64 4 5 C2.68 4.67 1.36 4.34 0 4 C0 2.68 0 1.36 0 0 Z " fill="#8C8C8C" transform="translate(187,342)"/>
<path d="M0 0 C1.32 0 2.64 0 4 0 C3.67 1.65 3.34 3.3 3 5 C1.68 4.67 0.36 4.34 -1 4 C-0.67 2.68 -0.34 1.36 0 0 Z " fill="#888888" transform="translate(2,108)"/>
<path d="M0 0 C1.98 0.495 1.98 0.495 4 1 C3.67 2.32 3.34 3.64 3 5 C1.68 5 0.36 5 -1 5 C-0.67 3.35 -0.34 1.7 0 0 Z " fill="#888888" transform="translate(36,42)"/>
<path d="M0 0 C0 3 0 3 -2.375 5.6875 C-5 8 -5 8 -7 8 C-5.50902342 4.2047869 -3.24299151 2.38957269 0 0 Z " fill="#6B6B6B" transform="translate(152,265)"/>
<path d="M0 0 C3.7952131 1.49097658 5.61042731 3.75700849 8 7 C5 7 5 7 2.3125 4.625 C0 2 0 2 0 0 Z " fill="#878787" transform="translate(104,157)"/>
<path d="M0 0 C1.98 0.495 1.98 0.495 4 1 C3.67 2.32 3.34 3.64 3 5 C1.68 4.67 0.36 4.34 -1 4 C-0.67 2.68 -0.34 1.36 0 0 Z " fill="#8E8E8E" transform="translate(1,57)"/>
<path d="M0 0 C1.32 0 2.64 0 4 0 C4 1.65 4 3.3 4 5 C2.68 5 1.36 5 0 5 C0 3.35 0 1.7 0 0 Z " fill="#909090" transform="translate(158,46)"/>
<path d="M0 0 C1.32 0 2.64 0 4 0 C4 1.65 4 3.3 4 5 C2.68 4.67 1.36 4.34 0 4 C0.33 3.34 0.66 2.68 1 2 C0.34 1.67 -0.32 1.34 -1 1 C-0.67 0.67 -0.34 0.34 0 0 Z " fill="#8E8E8E" transform="translate(338,285)"/>
<path d="M0 0 C1.32 0 2.64 0 4 0 C4 1.65 4 3.3 4 5 C1 5 1 5 -1 4 C-0.67 2.68 -0.34 1.36 0 0 Z " fill="#878787" transform="translate(230,67)"/>
<path d="M0 0 C5.57142857 5.14285714 5.57142857 5.14285714 6 9 C1.2 5.67692308 1.2 5.67692308 0.1875 2.25 C0.125625 1.5075 0.06375 0.765 0 0 Z " fill="#6B6B6B" transform="translate(19,264)"/>
<path d="M0 0 C0.103125 0.639375 0.20625 1.27875 0.3125 1.9375 C0.539375 2.618125 0.76625 3.29875 1 4 C1.99 4.33 2.98 4.66 4 5 C3.67 5.99 3.34 6.98 3 8 C2.5875 7.54625 2.175 7.0925 1.75 6.625 C-0.06408095 4.94049626 -1.75285627 4.00734029 -4 3 C-2.68 3 -1.36 3 0 3 C0 2.01 0 1.02 0 0 Z " fill="#676767" transform="translate(6,296)"/>
<path d="M0 0 C2.12038635 2.61514317 4.13091744 5.19637616 6 8 C5.01 8 4.02 8 3 8 C0.19744677 5.0936485 0 4.21174952 0 0 Z " fill="#757575" transform="translate(99,149)"/>
</svg>
