<?xml version="1.0" encoding="UTF-8"?>
<svg version="1.1" xmlns="http://www.w3.org/2000/svg" width="275" height="408">
<path d="M0 0 C1.22984619 -0.0014502 2.45969238 -0.00290039 3.72680664 -0.00439453 C9.70616387 0.06927651 14.71760434 0.52733611 20.4375 2.375 C22.31804112 2.66364524 24.20122851 2.93526824 26.0859375 3.1953125 C32.83953212 4.27428915 38.78604324 6.59873809 45.0625 9.25 C46.11695313 9.68441406 47.17140625 10.11882812 48.2578125 10.56640625 C50.33525916 11.42258167 52.41005946 12.28521137 54.48193359 13.15478516 C57.26789343 14.3049774 60.07386811 15.38124328 62.890625 16.453125 C66.60888476 17.93520768 69.51438373 19.60546707 72.5625 22.25 C73.79419922 23.29027344 73.79419922 23.29027344 75.05078125 24.3515625 C75.83839844 25.01929687 76.62601563 25.68703125 77.4375 26.375 C78.86571342 27.47054725 80.30253551 28.55501687 81.75 29.625 C84.69794005 31.81353156 87.58746638 34.05934769 90.4375 36.375 C90.994375 35.694375 91.55125 35.01375 92.125 34.3125 C93.2696875 33.3534375 93.2696875 33.3534375 94.4375 32.375 C97.1875 32.625 97.1875 32.625 99.4375 33.375 C99.76292619 36.9966786 99.78648462 38.84421874 97.7578125 41.9296875 C97.03335938 42.69539063 96.30890625 43.46109375 95.5625 44.25 C94.84320313 45.03117187 94.12390625 45.81234375 93.3828125 46.6171875 C91.4375 48.375 91.4375 48.375 89.4375 48.375 C89.4375 49.035 89.4375 49.695 89.4375 50.375 C88.7775 50.375 88.1175 50.375 87.4375 50.375 C88.00017578 51.11943359 88.00017578 51.11943359 88.57421875 51.87890625 C93.11668751 57.9088333 97.57388719 63.88413048 101.4375 70.375 C102.41378174 71.81446086 103.39328375 73.25173999 104.375 74.6875 C109.9515828 83.09358047 112.9168333 91.65785961 115.75450134 101.28546143 C116.48053177 103.63603732 116.48053177 103.63603732 117.98828125 106.79370117 C120.17155321 112.60630454 119.88591899 118.54115863 119.87109375 124.67578125 C119.8763356 125.94793991 119.88157745 127.22009857 119.88697815 128.5308075 C119.89338422 131.21478519 119.89353246 133.89790726 119.88354492 136.58178711 C119.87208365 139.99095629 119.89224078 143.39908518 119.92146206 146.80811787 C119.94441889 150.09734221 119.93734792 153.38649574 119.93359375 156.67578125 C119.94482773 157.88446365 119.95606171 159.09314606 119.96763611 160.3384552 C119.91186929 167.20202391 119.04381223 172.70826882 116.39271545 179.05973816 C115.52386926 181.16565722 114.95075342 183.16201051 114.4375 185.375 C112.42633348 190.86494103 110.15650078 196.19595089 107.4375 201.375 C107.1075 202.035 106.7775 202.695 106.4375 203.375 C105.7775 203.705 105.1175 204.035 104.4375 204.375 C104.06625 205.344375 103.695 206.31375 103.3125 207.3125 C101.4801871 211.89802918 98.4144976 215.37837718 95.27734375 219.140625 C93.32310177 221.43751696 93.32310177 221.43751696 91.4375 224.375 C90.7775 224.375 90.1175 224.375 89.4375 224.375 C87.86476432 227.2174854 87.86476432 227.2174854 87.4375 230.375 C89.86866243 232.1858283 92.40664196 233.78808538 94.95703125 235.42578125 C97.64139312 237.53522467 98.98400984 239.30106473 100.4375 242.375 C100.125 245.1875 100.125 245.1875 99.4375 247.375 C94.72328464 248.90018732 92.71789297 247.51519649 88.4375 245.375 C83.95513175 245.48432605 81.78980459 247.58141284 78.4375 250.375 C76.74124556 251.35210509 75.02705558 252.26708856 73.28125 253.15234375 C71.25487992 254.39104341 71.25487992 254.39104341 69.32421875 256.6640625 C51.63016025 273.28067495 18.28351986 281.375 -5.5625 281.375 C-5.376875 282.48875 -5.19125 283.6025 -5 284.75 C-4.5625 288.375 -4.5625 288.375 -5.5625 290.375 C-7.5425 290.375 -9.5225 290.375 -11.5625 290.375 C-11.5625 289.715 -11.5625 289.055 -11.5625 288.375 C-12.2225 288.375 -12.8825 288.375 -13.5625 288.375 C-13.8925 286.725 -14.2225 285.075 -14.5625 283.375 C-15.47386719 283.28863281 -16.38523438 283.20226562 -17.32421875 283.11328125 C-25.53375816 282.22289339 -33.51719553 280.87317334 -41.5625 279 C-42.43350342 278.80317627 -43.30450684 278.60635254 -44.2019043 278.40356445 C-49.76950743 277.0608743 -54.57533409 275.1801995 -59.5625 272.375 C-60.16336426 272.03791016 -60.76422852 271.70082031 -61.38330078 271.35351562 C-63.72200114 270.01931888 -66.0429414 268.6562354 -68.36132812 267.28710938 C-71.25530756 265.60410896 -74.08558394 264.15888226 -77.18359375 262.87890625 C-80.52749037 261.39058232 -82.77102392 259.70574702 -85.5625 257.375 C-87.41796162 256.25853312 -89.29430287 255.17620919 -91.1875 254.125 C-97.30674107 250.61643391 -102.96690014 246.66230795 -108.5625 242.375 C-109.43390625 241.72015625 -110.3053125 241.0653125 -111.203125 240.390625 C-113.45113504 238.4701396 -114.85135155 236.82289221 -116.375 234.3125 C-117.00341797 233.30509766 -117.00341797 233.30509766 -117.64453125 232.27734375 C-118.5625 230.375 -118.5625 230.375 -118.5625 227.375 C-119.5525 227.045 -120.5425 226.715 -121.5625 226.375 C-122.73828125 224.44140625 -122.73828125 224.44140625 -123.875 221.9375 C-125.61308251 218.27343417 -127.45103359 214.77552203 -129.5625 211.3125 C-130.31660156 210.07113281 -130.31660156 210.07113281 -131.0859375 208.8046875 C-131.57320312 208.00289062 -132.06046875 207.20109375 -132.5625 206.375 C-138.34685579 196.7789878 -141.59869386 186.88131436 -144.16821289 176.03295898 C-144.85983166 173.11711171 -145.57747728 170.33676574 -146.671875 167.54296875 C-147.94552821 163.01256193 -147.77427495 158.67917243 -147.6875 154 C-147.67847656 153.07316406 -147.66945312 152.14632812 -147.66015625 151.19140625 C-147.63672937 148.91899923 -147.60392748 146.6471382 -147.5625 144.375 C-150.2025 144.375 -152.8425 144.375 -155.5625 144.375 C-155.5625 142.065 -155.5625 139.755 -155.5625 137.375 C-151.6025 136.385 -151.6025 136.385 -147.5625 135.375 C-147.52511719 134.32183594 -147.48773438 133.26867187 -147.44921875 132.18359375 C-146.34972988 106.13393096 -139.44484457 75.36530881 -120.2890625 56.3671875 C-118.40245626 54.38040767 -118.40245626 54.38040767 -117.265625 51.5234375 C-115.06069368 47.44734887 -112.22191493 45.04952628 -108.6875 42.125 C-108.07519531 41.59648438 -107.46289062 41.06796875 -106.83203125 40.5234375 C-104.16861571 38.27635886 -102.00791523 36.55020488 -98.7421875 35.265625 C-95.9543729 34.12651796 -95.75626915 33.06222929 -94.5625 30.375 C-83.29123961 18.61591741 -63.89596947 9.4835235 -47.984375 6.8671875 C-45.4951044 6.4182278 -45.4951044 6.4182278 -42.92578125 5.453125 C-29.11923984 1.02733472 -14.40403086 0.00182318 0 0 Z " fill="#020302" transform="translate(155.5625,59.625)"/>
<path d="M0 0 C1.22984619 -0.0014502 2.45969238 -0.00290039 3.72680664 -0.00439453 C9.70616387 0.06927651 14.71760434 0.52733611 20.4375 2.375 C22.31804112 2.66364524 24.20122851 2.93526824 26.0859375 3.1953125 C32.83953212 4.27428915 38.78604324 6.59873809 45.0625 9.25 C46.11695313 9.68441406 47.17140625 10.11882812 48.2578125 10.56640625 C50.33525916 11.42258167 52.41005946 12.28521137 54.48193359 13.15478516 C57.26789343 14.3049774 60.07386811 15.38124328 62.890625 16.453125 C66.60888476 17.93520768 69.51438373 19.60546707 72.5625 22.25 C73.79419922 23.29027344 73.79419922 23.29027344 75.05078125 24.3515625 C75.83839844 25.01929687 76.62601563 25.68703125 77.4375 26.375 C78.86571342 27.47054725 80.30253551 28.55501687 81.75 29.625 C84.69794005 31.81353156 87.58746638 34.05934769 90.4375 36.375 C90.994375 35.694375 91.55125 35.01375 92.125 34.3125 C93.2696875 33.3534375 93.2696875 33.3534375 94.4375 32.375 C97.1875 32.625 97.1875 32.625 99.4375 33.375 C99.76292619 36.9966786 99.78648462 38.84421874 97.7578125 41.9296875 C97.03335938 42.69539063 96.30890625 43.46109375 95.5625 44.25 C94.84320313 45.03117187 94.12390625 45.81234375 93.3828125 46.6171875 C91.4375 48.375 91.4375 48.375 89.4375 48.375 C89.4375 49.035 89.4375 49.695 89.4375 50.375 C88.7775 50.375 88.1175 50.375 87.4375 50.375 C88.00017578 51.11943359 88.00017578 51.11943359 88.57421875 51.87890625 C93.11668751 57.9088333 97.57388719 63.88413048 101.4375 70.375 C102.41378174 71.81446086 103.39328375 73.25173999 104.375 74.6875 C109.9515828 83.09358047 112.9168333 91.65785961 115.75450134 101.28546143 C116.48053177 103.63603732 116.48053177 103.63603732 117.98828125 106.79370117 C120.17155321 112.60630454 119.88591899 118.54115863 119.87109375 124.67578125 C119.8763356 125.94793991 119.88157745 127.22009857 119.88697815 128.5308075 C119.89338422 131.21478519 119.89353246 133.89790726 119.88354492 136.58178711 C119.87208365 139.99095629 119.89224078 143.39908518 119.92146206 146.80811787 C119.94441889 150.09734221 119.93734792 153.38649574 119.93359375 156.67578125 C119.94482773 157.88446365 119.95606171 159.09314606 119.96763611 160.3384552 C119.91186929 167.20202391 119.04381223 172.70826882 116.39271545 179.05973816 C115.52386926 181.16565722 114.95075342 183.16201051 114.4375 185.375 C112.42633348 190.86494103 110.15650078 196.19595089 107.4375 201.375 C107.1075 202.035 106.7775 202.695 106.4375 203.375 C105.7775 203.705 105.1175 204.035 104.4375 204.375 C104.06625 205.344375 103.695 206.31375 103.3125 207.3125 C101.4801871 211.89802918 98.4144976 215.37837718 95.27734375 219.140625 C93.32310177 221.43751696 93.32310177 221.43751696 91.4375 224.375 C90.7775 224.375 90.1175 224.375 89.4375 224.375 C87.86476432 227.2174854 87.86476432 227.2174854 87.4375 230.375 C89.86866243 232.1858283 92.40664196 233.78808538 94.95703125 235.42578125 C97.64139312 237.53522467 98.98400984 239.30106473 100.4375 242.375 C100.125 245.1875 100.125 245.1875 99.4375 247.375 C94.72328464 248.90018732 92.71789297 247.51519649 88.4375 245.375 C83.95513175 245.48432605 81.78980459 247.58141284 78.4375 250.375 C76.74124556 251.35210509 75.02705558 252.26708856 73.28125 253.15234375 C71.25487992 254.39104341 71.25487992 254.39104341 69.32421875 256.6640625 C51.63016025 273.28067495 18.28351986 281.375 -5.5625 281.375 C-5.376875 282.48875 -5.19125 283.6025 -5 284.75 C-4.5625 288.375 -4.5625 288.375 -5.5625 290.375 C-7.5425 290.375 -9.5225 290.375 -11.5625 290.375 C-11.5625 289.715 -11.5625 289.055 -11.5625 288.375 C-12.2225 288.375 -12.8825 288.375 -13.5625 288.375 C-13.8925 286.725 -14.2225 285.075 -14.5625 283.375 C-15.47386719 283.28863281 -16.38523438 283.20226562 -17.32421875 283.11328125 C-25.53375816 282.22289339 -33.51719553 280.87317334 -41.5625 279 C-42.43350342 278.80317627 -43.30450684 278.60635254 -44.2019043 278.40356445 C-49.76950743 277.0608743 -54.57533409 275.1801995 -59.5625 272.375 C-60.16336426 272.03791016 -60.76422852 271.70082031 -61.38330078 271.35351562 C-63.72200114 270.01931888 -66.0429414 268.6562354 -68.36132812 267.28710938 C-71.25530756 265.60410896 -74.08558394 264.15888226 -77.18359375 262.87890625 C-80.52749037 261.39058232 -82.77102392 259.70574702 -85.5625 257.375 C-87.41796162 256.25853312 -89.29430287 255.17620919 -91.1875 254.125 C-97.30674107 250.61643391 -102.96690014 246.66230795 -108.5625 242.375 C-109.43390625 241.72015625 -110.3053125 241.0653125 -111.203125 240.390625 C-113.45113504 238.4701396 -114.85135155 236.82289221 -116.375 234.3125 C-117.00341797 233.30509766 -117.00341797 233.30509766 -117.64453125 232.27734375 C-118.5625 230.375 -118.5625 230.375 -118.5625 227.375 C-119.5525 227.045 -120.5425 226.715 -121.5625 226.375 C-122.73828125 224.44140625 -122.73828125 224.44140625 -123.875 221.9375 C-125.61308251 218.27343417 -127.45103359 214.77552203 -129.5625 211.3125 C-130.31660156 210.07113281 -130.31660156 210.07113281 -131.0859375 208.8046875 C-131.57320312 208.00289062 -132.06046875 207.20109375 -132.5625 206.375 C-138.34685579 196.7789878 -141.59869386 186.88131436 -144.16821289 176.03295898 C-144.85983166 173.11711171 -145.57747728 170.33676574 -146.671875 167.54296875 C-147.94552821 163.01256193 -147.77427495 158.67917243 -147.6875 154 C-147.67847656 153.07316406 -147.66945312 152.14632812 -147.66015625 151.19140625 C-147.63672937 148.91899923 -147.60392748 146.6471382 -147.5625 144.375 C-150.2025 144.375 -152.8425 144.375 -155.5625 144.375 C-155.5625 142.065 -155.5625 139.755 -155.5625 137.375 C-151.6025 136.385 -151.6025 136.385 -147.5625 135.375 C-147.52511719 134.32183594 -147.48773438 133.26867187 -147.44921875 132.18359375 C-146.34972988 106.13393096 -139.44484457 75.36530881 -120.2890625 56.3671875 C-118.40245626 54.38040767 -118.40245626 54.38040767 -117.265625 51.5234375 C-115.06069368 47.44734887 -112.22191493 45.04952628 -108.6875 42.125 C-108.07519531 41.59648438 -107.46289062 41.06796875 -106.83203125 40.5234375 C-104.16861571 38.27635886 -102.00791523 36.55020488 -98.7421875 35.265625 C-95.9543729 34.12651796 -95.75626915 33.06222929 -94.5625 30.375 C-83.29123961 18.61591741 -63.89596947 9.4835235 -47.984375 6.8671875 C-45.4951044 6.4182278 -45.4951044 6.4182278 -42.92578125 5.453125 C-29.11923984 1.02733472 -14.40403086 0.00182318 0 0 Z M76.39926147 57.13534546 C75.86273956 57.67591583 75.32621765 58.21648621 74.7734375 58.7734375 C74.22136627 59.32359528 73.66929504 59.87375305 73.10049438 60.44058228 C71.9330231 61.60669078 70.76808087 62.7753359 69.60546875 63.94628906 C67.81987866 65.74257713 66.02389519 67.52797023 64.2265625 69.3125 C63.09571232 70.44467176 61.96548268 71.57746376 60.8359375 72.7109375 C60.02508194 73.51572037 60.02508194 73.51572037 59.19784546 74.33676147 C56.32969078 76.88101026 56.32969078 76.88101026 55.4375 80.375 C54.74785156 79.79492188 54.05820313 79.21484375 53.34765625 78.6171875 C29.99574856 59.20531362 7.33415655 52.20341297 -22.94921875 54.6484375 C-44.304989 58.03216193 -64.44597919 70.40677858 -77.5625 87.5 C-78.92162206 89.44052427 -80.25706173 91.39796228 -81.5625 93.375 C-82.12453125 94.20644531 -82.6865625 95.03789062 -83.265625 95.89453125 C-95.1396295 114.4551595 -98.19837272 136.71471309 -94.3125 158.16796875 C-90.68814899 173.6658447 -84.23114128 187.44091769 -73.5625 199.375 C-72.83546875 200.19613281 -72.1084375 201.01726562 -71.359375 201.86328125 C-56.36964535 217.82089079 -36.15221958 227.49323471 -14.21484375 228.65625 C9.13038811 229.38325538 32.41578673 222.92465197 49.875 206.875 C54.35602523 202.63928905 58.54540131 198.15789592 62.4375 193.375 C60.05570737 197.11781699 57.69274265 200.35227468 54.4375 203.375 C55.0975 204.695 55.7575 206.015 56.4375 207.375 C57.0975 207.375 57.7575 207.375 58.4375 207.375 C58.7675 208.365 59.0975 209.355 59.4375 210.375 C60.92134823 212.0716813 60.92134823 212.0716813 62.75 213.625 C63.34425781 214.16640625 63.93851563 214.7078125 64.55078125 215.265625 C66.35922263 216.58883551 66.35922263 216.58883551 68.39379883 216.11987305 C71.85353449 214.85889425 73.66293183 211.78900582 75.8125 208.9375 C76.53723511 207.99656494 76.53723511 207.99656494 77.27661133 207.03662109 C81.06439205 202.04603712 84.43284765 196.87719038 87.4375 191.375 C84.02932031 201.09462355 76.42711098 209.93589635 69.4375 217.375 C70.90375856 220.72320898 72.77408447 223.06766359 75.3125 225.6875 C75.99054688 226.40550781 76.66859375 227.12351562 77.3671875 227.86328125 C79.27897844 229.56618363 79.27897844 229.56618363 81.43359375 229.3984375 C96.11256046 221.90157731 107.51510694 193.17683364 112.375 178.96484375 C122.42631117 145.0047152 118.13060633 109.3674842 101.4375 78.375 C97.42465412 71.46764234 92.66232795 65.25112976 87.5625 59.125 C86.84743286 58.26406738 86.84743286 58.26406738 86.11791992 57.38574219 C84.93795176 56.00731232 83.69277553 54.68522025 82.4375 53.375 C79.48658155 53.375 78.40043896 55.15938156 76.39926147 57.13534546 Z " fill="#080B07" transform="translate(155.5625,59.625)"/>
<path d="M0 0 C5.23520615 4.46532289 7.94545118 9.90573027 11 16 C11.59296875 17.16273438 12.1859375 18.32546875 12.796875 19.5234375 C22.32208108 38.68561207 25.55197947 59.54517858 25.44604492 80.76806641 C25.43743664 83.39432902 25.46660441 86.01847602 25.49804688 88.64453125 C25.53540616 97.94315748 24.90195177 105.41192456 21 114 C20.64371333 115.32738416 20.30669571 116.6602886 20 118 C17.98883348 123.48994103 15.71900078 128.82095089 13 134 C12.67 134.66 12.34 135.32 12 136 C11.34 136.33 10.68 136.66 10 137 C9.62875 137.969375 9.2575 138.93875 8.875 139.9375 C7.0426871 144.52302918 3.9769976 148.00337718 0.83984375 151.765625 C-1.11439823 154.06251696 -1.11439823 154.06251696 -3 157 C-3.66 157 -4.32 157 -5 157 C-6.57273568 159.8424854 -6.57273568 159.8424854 -7 163 C-4.56883757 164.8108283 -2.03085804 166.41308538 0.51953125 168.05078125 C3.20389312 170.16022467 4.54650984 171.92606473 6 175 C5.6875 177.8125 5.6875 177.8125 5 180 C0.28578464 181.52518732 -1.71960703 180.14019649 -6 178 C-10.48236825 178.10932605 -12.64769541 180.20641284 -16 183 C-17.15549808 183.66560949 -18.32296293 184.31076597 -19.5 184.9375 C-21.95588998 186.28326487 -23.2357838 187.25599384 -25.1875 189.375 C-30.98768639 194.7885073 -38.31784725 197.69532197 -45.95776367 199.47485352 C-48.63098901 200.16225432 -51.15641757 201.12246118 -53.73217773 202.10668945 C-60.85976966 204.82060739 -67.95483699 206.83258302 -75.4375 208.3125 C-76.2409082 208.47153809 -77.04431641 208.63057617 -77.87207031 208.79443359 C-113.09290991 215.37932524 -149.32047337 208.12490082 -179 188 C-191.65770387 179.19957336 -202.69401427 169.33584154 -212 157 C-212.90492188 155.80117188 -212.90492188 155.80117188 -213.828125 154.578125 C-220.16037573 145.84988751 -226.32142161 136.16386432 -230 126 C-229.57519531 123.79223633 -229.57519531 123.79223633 -229 122 C-228.76925781 122.51272461 -228.53851563 123.02544922 -228.30078125 123.55371094 C-223.58527222 133.95858412 -218.83316902 143.79726431 -212 153 C-211.4225 153.79921875 -210.845 154.5984375 -210.25 155.421875 C-200.49927128 168.28274995 -188.61932939 179.37660916 -175 188 C-174.43458496 188.36174316 -173.86916992 188.72348633 -173.28662109 189.09619141 C-152.43227982 202.24388133 -128.35341934 207.41173352 -104 209 C-104.33 203.39 -104.66 197.78 -105 192 C-105.99 191.67 -106.98 191.34 -108 191 C-108 190.34 -108 189.68 -108 189 C-106.68 189 -105.36 189 -104 189 C-104 187.02 -104 185.04 -104 183 C-104.6700708 183.02392822 -105.3401416 183.04785645 -106.03051758 183.07250977 C-112.86779014 183.21014898 -119.0421345 182.50903914 -125.6875 180.9375 C-127.1120752 180.60576782 -127.1120752 180.60576782 -128.56542969 180.26733398 C-149.34763443 175.15927945 -170.15531775 163.5367038 -184 147 C-184 146.34 -184 145.68 -184 145 C-183.34 145 -182.68 145 -182 145 C-181.01567727 146.08426935 -180.08861979 147.22065414 -179.1875 148.375 C-159.86576453 170.97025264 -131.37715015 178.55770429 -103 181 C-103 175.06 -103 169.12 -103 163 C-104.42054688 162.87882813 -105.84109375 162.75765625 -107.3046875 162.6328125 C-109.16150108 162.46401127 -111.01826969 162.29471478 -112.875 162.125 C-113.81214844 162.04636719 -114.74929687 161.96773437 -115.71484375 161.88671875 C-116.61074219 161.80292969 -117.50664062 161.71914063 -118.4296875 161.6328125 C-119.25710449 161.55949707 -120.08452148 161.48618164 -120.93701172 161.41064453 C-123 161 -123 161 -125 159 C-124.34257813 159.0721875 -123.68515625 159.144375 -123.0078125 159.21875 C-96.98784403 161.75728351 -70.69894722 159.41606682 -49.32910156 142.69238281 C-42.98424417 137.3639162 -37.22936778 131.42623012 -32 125 C-32 129.41165252 -34.59823937 131.00754461 -37.56640625 134.0625 C-38.27603516 135.0215625 -38.27603516 135.0215625 -39 136 C-37.85996765 139.42009706 -36.77829802 140.28869442 -34.0625 142.5625 C-31.96656037 144.33130568 -29.94005112 146.05994888 -28 148 C-27.01 148 -26.02 148 -25 148 C-23.10493407 145.96008827 -21.42873666 143.95791301 -19.75 141.75 C-19.26490967 141.12335449 -18.77981934 140.49670898 -18.2800293 139.85107422 C-13.97850754 134.18851016 -10.36398409 128.2687212 -7 122 C-6.34 122.33 -5.68 122.66 -5 123 C-10.27605579 133.0834648 -16.37275091 141.55955156 -24 150 C-22.61369489 153.10202926 -20.99905084 155.32411399 -18.625 157.75 C-17.74714844 158.67039062 -17.74714844 158.67039062 -16.8515625 159.609375 C-14.85287428 161.40035978 -14.85287428 161.40035978 -11 161 C-10.62875 160.15501953 -10.62875 160.15501953 -10.25 159.29296875 C-8.79134545 156.61724932 -7.01269058 154.60193553 -5 152.3125 C16.39865862 126.40704993 24.55006255 93.53799736 21.78173828 60.38623047 C19.54351888 40.37599829 13.06116949 19.91557875 1.03125 3.56640625 C0 2 0 2 0 0 Z " fill="#050904" transform="translate(250,127)"/>
<path d="M0 0 C8.91 0 17.82 0 27 0 C27.268125 3.2175 27.53625 6.435 27.8125 9.75 C28.54649633 17.72854013 29.50521949 25.35152818 32 33 C32.31453125 33.99386719 32.6290625 34.98773438 32.953125 36.01171875 C42.82417159 64.26932747 64.27121115 86.21235696 90.99267578 99.10400391 C104.34150637 105.06243352 119.49155715 108.14133706 134 109 C134 110.98 134 112.96 134 115 C132.68 115 131.36 115 130 115 C130 115.66 130 116.32 130 117 C131.32 117.33 132.64 117.66 134 118 C134 123.61 134 129.22 134 135 C101.90026094 136.11975834 70.83770415 123.72591624 46.875 102.625 C45.24112576 101.09274151 43.61652824 99.5505475 42 98 C41.04480469 97.11957031 40.08960938 96.23914063 39.10546875 95.33203125 C17.93005031 75.428574 5.65537657 48.3839004 1 20 C0.80277344 18.86884766 0.80277344 18.86884766 0.6015625 17.71484375 C-0.30424045 11.75368108 0 6.14956662 0 0 Z " fill="#030503" transform="translate(12,201)"/>
<path d="M0 0 C6.27 0 12.54 0 19 0 C19.2475 2.660625 19.495 5.32125 19.75 8.0625 C21.72087255 26.37865279 27.25500323 42.0331544 39.43359375 56.046875 C41 58 41 58 42 61 C42.99 61.33 43.98 61.66 45 62 C45 62.66 45 63.32 45 64 C45.57234375 64.25523437 46.1446875 64.51046875 46.734375 64.7734375 C49.24304003 66.13157685 51.10666849 67.7439643 53.25 69.625 C66.82831855 80.63986018 83.23119401 85.97771581 100.41015625 87.60546875 C104 88 104 88 107 89 C107 94.94 107 100.88 107 107 C78.41547833 107.87952374 53.09014065 96.57794412 32.26171875 77.39941406 C30.79286762 75.98130194 29.39040552 74.49510473 28 73 C28 72.34 28 71.68 28 71 C27.34 71 26.68 71 26 71 C24.34957949 69.03667448 22.85346501 67.08868248 21.375 65 C20.9313208 64.37351562 20.4876416 63.74703125 20.03051758 63.1015625 C7.03257398 44.24627647 0 22.89966778 0 0 Z " fill="#060905" transform="translate(40,201)"/>
<path d="M0 0 C1.22984619 -0.0014502 2.45969238 -0.00290039 3.72680664 -0.00439453 C9.70616387 0.06927651 14.71760434 0.52733611 20.4375 2.375 C22.31804112 2.66364524 24.20122851 2.93526824 26.0859375 3.1953125 C32.83953212 4.27428915 38.78604324 6.59873809 45.0625 9.25 C46.11695313 9.68441406 47.17140625 10.11882812 48.2578125 10.56640625 C50.33525916 11.42258167 52.41005946 12.28521137 54.48193359 13.15478516 C57.26789343 14.3049774 60.07386811 15.38124328 62.890625 16.453125 C66.60888476 17.93520768 69.51438373 19.60546707 72.5625 22.25 C73.79419922 23.29027344 73.79419922 23.29027344 75.05078125 24.3515625 C75.83839844 25.01929687 76.62601563 25.68703125 77.4375 26.375 C78.86571342 27.47054725 80.30253551 28.55501687 81.75 29.625 C84.69794005 31.81353156 87.58746638 34.05934769 90.4375 36.375 C90.994375 35.694375 91.55125 35.01375 92.125 34.3125 C93.2696875 33.3534375 93.2696875 33.3534375 94.4375 32.375 C97.1875 32.625 97.1875 32.625 99.4375 33.375 C99.76292619 36.9966786 99.78648462 38.84421874 97.7578125 41.9296875 C97.03335938 42.69539063 96.30890625 43.46109375 95.5625 44.25 C94.84320313 45.03117187 94.12390625 45.81234375 93.3828125 46.6171875 C91.4375 48.375 91.4375 48.375 89.4375 48.375 C89.4375 49.035 89.4375 49.695 89.4375 50.375 C88.7775 50.375 88.1175 50.375 87.4375 50.375 C88.00017578 51.11943359 88.00017578 51.11943359 88.57421875 51.87890625 C93.11668751 57.9088333 97.57388719 63.88413048 101.4375 70.375 C102.41378174 71.81446086 103.39328375 73.25173999 104.375 74.6875 C109.97241887 83.12498855 112.92483683 91.72614201 115.78637695 101.3828125 C116.44460734 103.39674574 117.24919708 105.3010777 118.078125 107.25 C119.8750845 111.94541094 119.77385169 116.40564345 119.625 121.375 C119.61146484 122.24511719 119.59792969 123.11523438 119.58398438 124.01171875 C119.54901678 126.13308627 119.4952253 128.25412974 119.4375 130.375 C119.1075 130.375 118.7775 130.375 118.4375 130.375 C118.34251221 129.78710693 118.24752441 129.19921387 118.1496582 128.59350586 C113.36025819 99.44496157 103.29349153 73.8883437 82.4375 52.375 C86.55369836 47.45564098 90.84160362 42.84852044 95.4375 38.375 C93.4575 40.025 91.4775 41.675 89.4375 43.375 C85.11768817 41.97106116 82.65447834 39.91793904 79.4375 36.75 C52.77700552 11.97602916 16.09861259 4.2349509 -19.12841797 5.20458984 C-54.30140778 6.94998632 -86.94399302 24.81006604 -110.48046875 50.5078125 C-133.32585319 76.25475602 -142.26948937 106.90251547 -145.5625 140.375 C-148.8625 140.375 -152.1625 140.375 -155.5625 140.375 C-155.5625 139.385 -155.5625 138.395 -155.5625 137.375 C-151.6025 136.385 -151.6025 136.385 -147.5625 135.375 C-147.52511719 134.32183594 -147.48773438 133.26867187 -147.44921875 132.18359375 C-146.34972988 106.13393096 -139.44484457 75.36530881 -120.2890625 56.3671875 C-118.40245626 54.38040767 -118.40245626 54.38040767 -117.265625 51.5234375 C-115.06069368 47.44734887 -112.22191493 45.04952628 -108.6875 42.125 C-108.07519531 41.59648438 -107.46289062 41.06796875 -106.83203125 40.5234375 C-104.16861571 38.27635886 -102.00791523 36.55020488 -98.7421875 35.265625 C-95.9543729 34.12651796 -95.75626915 33.06222929 -94.5625 30.375 C-83.29123961 18.61591741 -63.89596947 9.4835235 -47.984375 6.8671875 C-45.4951044 6.4182278 -45.4951044 6.4182278 -42.92578125 5.453125 C-29.11923984 1.02733472 -14.40403086 0.00182318 0 0 Z " fill="#040803" transform="translate(155.5625,59.625)"/>
<path d="M0 0 C0.7425 0.763125 1.485 1.52625 2.25 2.3125 C4.43646052 4.44926823 6.55001447 6.20334394 9 8 C10.00970805 8.99019678 11.0112349 9.98888993 12 11 C3.6154242 21.94652952 -8.18739829 28.70938748 -20.19433594 35.046875 C-21.71352409 35.84878286 -23.2214511 36.6719731 -24.7265625 37.5 C-39.98646534 45.25106176 -58.16932241 47.17531956 -75 47 C-75 41.72 -75 36.44 -75 31 C-73.19015625 30.75765625 -71.3803125 30.5153125 -69.515625 30.265625 C-67.09366704 29.92767738 -64.67179659 29.58910213 -62.25 29.25 C-61.06277344 29.09273438 -59.87554687 28.93546875 -58.65234375 28.7734375 C-47.80078535 27.23168603 -37.82656889 24.3109418 -28.0625 19.3125 C-27.39355713 18.9736377 -26.72461426 18.63477539 -26.03540039 18.28564453 C-16.55197543 13.35331892 -7.91797689 7.1814209 0 0 Z " fill="#060905" transform="translate(223,279)"/>
<path d="M0 0 C4.66666667 4 9.33333333 8 14 12 C12.5833975 16.24980749 9.47482695 18.04316577 6 20.625 C5.28739014 21.15480469 4.57478027 21.68460937 3.84057617 22.23046875 C-14.82084792 35.76535198 -36.73935906 43.96919337 -60 43 C-60 37.06 -60 31.12 -60 25 C-58.040625 24.71125 -56.08125 24.4225 -54.0625 24.125 C-34.06434889 21.01513633 -14.64294038 14.64294038 0 0 Z " fill="#060905" transform="translate(208,265)"/>
<path d="M0 0 C3.63 0 7.26 0 11 0 C11.09796875 1.60746094 11.1959375 3.21492187 11.296875 4.87109375 C12.45663146 22.28091056 14.42787922 38.09049091 22 54 C22.28359375 54.61198242 22.5671875 55.22396484 22.859375 55.85449219 C38.93202116 90.40046577 66.34167792 115.29165168 101.875 128.75 C113.8436971 132.79421728 126.35084092 135.60676189 139 136 C140.16015625 136.0515625 141.3203125 136.103125 142.515625 136.15625 C162.52530729 136.64231516 183.20585727 133.41968541 201.4140625 124.953125 C204.1307237 123.95181785 206.13035722 123.81352502 209 124 C193.81769164 136.60206383 168.65575897 137.71991006 150 140 C150.185625 141.11375 150.37125 142.2275 150.5625 143.375 C151 147 151 147 150 149 C148.02 149 146.04 149 144 149 C144 148.34 144 147.68 144 147 C143.34 147 142.68 147 142 147 C141.67 145.35 141.34 143.7 141 142 C140.08863281 141.91363281 139.17726562 141.82726562 138.23828125 141.73828125 C130.02874184 140.84789339 122.04530447 139.49817334 114 137.625 C113.12899658 137.42817627 112.25799316 137.23135254 111.3605957 137.02856445 C105.79299257 135.6858743 100.98716591 133.8051995 96 131 C95.39913574 130.66291016 94.79827148 130.32582031 94.17919922 129.97851562 C91.84049886 128.64431888 89.5195586 127.2812354 87.20117188 125.91210938 C84.30719244 124.22910896 81.47691606 122.78388226 78.37890625 121.50390625 C75.03500963 120.01558232 72.79147608 118.33074702 70 116 C68.14453838 114.88353312 66.26819713 113.80120919 64.375 112.75 C58.25575893 109.24143391 52.59559986 105.28730795 47 101 C46.12859375 100.34515625 45.2571875 99.6903125 44.359375 99.015625 C42.11136496 97.0951396 40.71114845 95.44789221 39.1875 92.9375 C38.55908203 91.93009766 38.55908203 91.93009766 37.91796875 90.90234375 C37 89 37 89 37 86 C36.01 85.67 35.02 85.34 34 85 C32.82421875 83.06640625 32.82421875 83.06640625 31.6875 80.5625 C29.94941749 76.89843417 28.11146641 73.40052203 26 69.9375 C25.24589844 68.69613281 25.24589844 68.69613281 24.4765625 67.4296875 C23.98929688 66.62789063 23.50203125 65.82609375 23 65 C17.21564421 55.4039878 13.96380614 45.50631436 11.39428711 34.65795898 C10.70266834 31.74211171 9.98502272 28.96176574 8.890625 26.16796875 C7.61697179 21.63756193 7.78822505 17.30417243 7.875 12.625 C7.88402344 11.69816406 7.89304687 10.77132812 7.90234375 9.81640625 C7.92577063 7.54399923 7.95857252 5.2721382 8 3 C5.36 3 2.72 3 0 3 C0 2.01 0 1.02 0 0 Z " fill="#040904" transform="translate(0,201)"/>
<path d="M0 0 C1.1866626 0.00604248 2.3733252 0.01208496 3.59594727 0.01831055 C11.77831199 0.11099196 19.60362465 0.53113385 27.625 2.25 C28.58148438 2.44464844 29.53796875 2.63929687 30.5234375 2.83984375 C56.26591988 8.67158574 76.73181798 21.30781357 96.625 38.25 C99.4855891 36.89062915 101.48427699 35.60479531 103.625 33.25 C104.285 33.58 104.945 33.91 105.625 34.25 C101.335 38.54 97.045 42.83 92.625 47.25 C96.17244855 52.0349306 99.76755974 56.71183499 103.625 61.25 C103.295 61.91 102.965 62.57 102.625 63.25 C101.16427468 61.64801112 99.70650284 60.04332884 98.25 58.4375 C97.03183594 57.09751953 97.03183594 57.09751953 95.7890625 55.73046875 C93.625 53.25 93.625 53.25 91.625 50.25 C87.79081763 51.83078388 85.36310694 54.26807328 82.45703125 57.1875 C81.97674973 57.66823975 81.4964682 58.14897949 81.00163269 58.64428711 C79.9916293 59.65730151 78.98404727 60.6727352 77.97875977 61.69042969 C76.43753955 63.24995998 74.88841288 64.8012857 73.33789062 66.3515625 C68.42339392 70.88369233 68.42339392 70.88369233 64.625 76.25 C61.39371949 74.82823657 59.26590235 73.08216533 56.75 70.625 C48.11974079 62.81802209 37.69168105 57.6676515 26.625 54.25 C25.408125 53.858125 24.19125 53.46625 22.9375 53.0625 C14.06982494 50.88740989 5.19181502 51.13107196 -3.875 51.1875 C-5.28385258 51.19252467 -6.69270689 51.19708587 -8.1015625 51.20117188 C-11.52608638 51.2128997 -14.95052047 51.22931309 -18.375 51.25 C-9.10696017 45.07130678 7.35864345 47.53951459 17.8125 49.5625 C20.09047734 50.09533161 22.36278093 50.65379941 24.625 51.25 C25.79289062 51.54003906 25.79289062 51.54003906 26.984375 51.8359375 C38.47348401 55.16173221 52.33501351 61.76508204 60.10546875 71.01171875 C61.52612416 72.45415849 61.52612416 72.45415849 63.38110352 72.14794922 C66.60452399 70.85801989 68.67413976 68.56997979 71.046875 66.12109375 C71.55172424 65.61199966 72.05657349 65.10290558 72.57672119 64.5783844 C74.18333979 62.9550088 75.77919822 61.321503 77.375 59.6875 C78.46414984 58.5832995 79.55398605 57.47977555 80.64453125 56.37695312 C83.3127076 53.6757471 85.97128291 50.96540937 88.625 48.25 C76.57578493 36.1282445 62.61504387 26.45866826 46.625 20.25 C45.57570312 19.83105469 44.52640625 19.41210938 43.4453125 18.98046875 C29.69493154 14.08651596 15.04839275 12.91066211 0.625 11.25 C0.625 10.92 0.625 10.59 0.625 10.25 C22.45001602 9.31612451 42.69738161 14.9312431 61.80566406 25.26660156 C63.46230668 26.16206003 65.13283702 27.0317042 66.8046875 27.8984375 C75.37917122 32.56095517 82.41259608 38.75243493 89.625 45.25 C91.605 44.26 91.605 44.26 93.625 43.25 C94.05566756 39.2650677 94.05566756 39.2650677 91.7109375 36.98828125 C66.07289717 14.04703767 35.04542591 3.04644136 0.875 2.9375 C-0.41559326 2.93186035 -1.70618652 2.9262207 -3.03588867 2.92041016 C-34.73679796 3.1592651 -63.39253247 14.76166681 -87.375 35.25 C-88.19484375 35.93578125 -89.0146875 36.6215625 -89.859375 37.328125 C-98.61909012 44.89086041 -105.86140338 53.69672496 -112.375 63.25 C-112.705 62.59 -113.035 61.93 -113.375 61.25 C-91.38877312 29.24712534 -60.47784442 9.36380183 -22.69091797 1.70605469 C-15.08525944 0.29541863 -7.72491625 -0.06323335 0 0 Z " fill="#65775C" transform="translate(146.375,63.75)"/>
<path d="M0 0 C0.495 0.99 0.495 0.99 1 2 C0.29077148 3.68554687 0.29077148 3.68554687 -0.87890625 5.71875 C-1.30284668 6.47663818 -1.72678711 7.23452637 -2.16357422 8.01538086 C-2.62521973 8.83530518 -3.08686523 9.65522949 -3.5625 10.5 C-14.08338849 29.90580636 -19.04338963 50.99796148 -20 73 C-11.09 73 -2.18 73 7 73 C6.9175 70.69 6.835 68.38 6.75 66 C6.52582799 44.42399853 16.75149477 21.65526372 30 5 C30.66 5 31.32 5 32 5 C30.47577031 8.22866387 28.64771187 11.1433917 26.6875 14.125 C14.92567664 32.53481047 10.11605988 51.51385348 8 73 C14.27 73 20.54 73 27 73 C27 69.7 27 66.4 27 63 C27.33 63 27.66 63 28 63 C28.02916504 63.75394043 28.05833008 64.50788086 28.08837891 65.28466797 C29.19299173 90.92495655 33.42298021 112.27136762 51 132 C51.98033203 133.12148438 51.98033203 133.12148438 52.98046875 134.265625 C62.45629042 144.43479947 73.99436495 151.14141513 86.953125 155.84375 C90 157 90 157 93 159 C86.96972061 158.52374879 82.52616111 157.23434949 77.1875 154.4375 C76.4968042 154.08397461 75.8061084 153.73044922 75.09448242 153.36621094 C68.9637983 150.14530571 63.41412537 146.31679008 58 142 C57.14535156 141.33742188 56.29070312 140.67484375 55.41015625 139.9921875 C40.89647986 127.99546958 31.96058486 110.05686001 28 92 C27.80277344 91.17113281 27.60554688 90.34226562 27.40234375 89.48828125 C26.57672994 84.38230068 26.94793069 79.15486183 27 74 C20.73 74 14.46 74 8 74 C10.52196657 97.4563395 15.65177632 125.97417082 34 143 C33.67 143.66 33.34 144.32 33 145 C17.08896303 129.4577619 7.14711698 105.06271435 6.87036133 83.01171875 C6.87652281 80.00750801 6.94437589 77.00370206 7 74 C-1.91 74 -10.82 74 -20 74 C-18.04481805 93.89462995 -18.04481805 93.89462995 -13.53833008 113.2980957 C-11.91241103 118.7372331 -11.91241103 118.7372331 -13 122 C-15.58651858 117.30731629 -16.97286332 112.86579094 -18.125 107.6875 C-18.29676758 106.92767822 -18.46853516 106.16785645 -18.64550781 105.38500977 C-20.97612305 94.83954151 -21.1188347 84.76114258 -21 74 C-24.63 74 -28.26 74 -32 74 C-32 73.67 -32 73.34 -32 73 C-28.7 73 -25.4 73 -22 73 C-21.97421875 71.92105469 -21.9484375 70.84210938 -21.921875 69.73046875 C-21.13150282 46.29421527 -15.24504158 18.69051537 0 0 Z " fill="#6A7B61" transform="translate(32,127)"/>
<path d="M0 0 C0.99 0.495 0.99 0.495 2 1 C-3.27605579 11.0834648 -9.37275091 19.55955156 -17 28 C-15.63629701 30.99220268 -14.05091917 33.29026529 -11.875 35.75 C-11.33617187 36.36359375 -10.79734375 36.9771875 -10.2421875 37.609375 C-9.83226562 38.06828125 -9.42234375 38.5271875 -9 39 C-14.69453376 37.51446945 -14.69453376 37.51446945 -16.1875 35 C-16.5896875 34.01 -16.5896875 34.01 -17 33 C-17.99 32.34 -18.98 31.68 -20 31 C-20.69222656 31.61746094 -21.38445312 32.23492187 -22.09765625 32.87109375 C-42.67885407 50.6864389 -67.52331693 61 -95 61 C-95 66.28 -95 71.56 -95 77 C-83.43482671 76.14830119 -72.42188273 74.99332903 -61.25 71.8046875 C-58.33122801 71.08201078 -55.98390269 70.83046007 -53 71 C-61.35309405 79.35309405 -80.97394795 79.09336581 -92.125 79.125 C-93.40375 79.08375 -94.6825 79.0425 -96 79 C-96.495 74.545 -96.495 74.545 -97 70 C-98.98 69.505 -98.98 69.505 -101 69 C-101 68.34 -101 67.68 -101 67 C-99.68 67 -98.36 67 -97 67 C-97 65.02 -97 63.04 -97 61 C-97.6700708 61.02392822 -98.3401416 61.04785645 -99.03051758 61.07250977 C-105.86779014 61.21014898 -112.0421345 60.50903914 -118.6875 58.9375 C-120.1120752 58.60576782 -120.1120752 58.60576782 -121.56542969 58.26733398 C-142.34763443 53.15927945 -163.15531775 41.5367038 -177 25 C-177 24.34 -177 23.68 -177 23 C-176.34 23 -175.68 23 -175 23 C-174.01567727 24.08426935 -173.08861979 25.22065414 -172.1875 26.375 C-152.86576453 48.97025264 -124.37715015 56.55770429 -96 59 C-96 53.06 -96 47.12 -96 41 C-98.13082031 40.81824219 -98.13082031 40.81824219 -100.3046875 40.6328125 C-102.16150108 40.46401127 -104.01826969 40.29471478 -105.875 40.125 C-106.81214844 40.04636719 -107.74929687 39.96773438 -108.71484375 39.88671875 C-109.61074219 39.80292969 -110.50664062 39.71914063 -111.4296875 39.6328125 C-112.25710449 39.55949707 -113.08452148 39.48618164 -113.93701172 39.41064453 C-116 39 -116 39 -118 37 C-117.01386719 37.10828125 -117.01386719 37.10828125 -116.0078125 37.21875 C-89.98784403 39.75728351 -63.69894722 37.41606682 -42.32910156 20.69238281 C-35.98424417 15.3639162 -30.22936778 9.42623012 -25 3 C-25 7.41165252 -27.59823937 9.00754461 -30.56640625 12.0625 C-31.03949219 12.701875 -31.51257813 13.34125 -32 14 C-30.85996765 17.42009706 -29.77829802 18.28869442 -27.0625 20.5625 C-24.96656037 22.33130568 -22.94005112 24.05994888 -21 26 C-20.01 26 -19.02 26 -18 26 C-16.10493407 23.96008827 -14.42873666 21.95791301 -12.75 19.75 C-12.26490967 19.12335449 -11.77981934 18.49670898 -11.2800293 17.85107422 C-6.97850754 12.18851016 -3.36398409 6.2687212 0 0 Z M-38.25 19 C-47.33362469 26.99877112 -57.60491532 32.13675184 -69 36 C-69.93585938 36.35191406 -70.87171875 36.70382812 -71.8359375 37.06640625 C-75.77211888 38.22782273 -79.61425529 38.65833853 -83.6875 39.0625 C-89.42303281 39.61013973 -89.42303281 39.61013973 -95 41 C-95 46.94 -95 52.88 -95 59 C-69.20608714 60.07474637 -44.15662972 49.94494067 -25 33 C-23.67728646 31.98599473 -22.34762672 30.98065285 -21 30 C-22.56643448 25.98542541 -25.40387332 23.5325034 -28.5625 20.75 C-29.32336914 20.06164062 -29.32336914 20.06164062 -30.09960938 19.359375 C-34.26347603 15.47777202 -34.26347603 15.47777202 -38.25 19 Z " fill="#62755B" transform="translate(243,249)"/>
<path d="M0 0 C5.23520615 4.46532289 7.94545118 9.90573027 11 16 C11.88945312 17.74410156 11.88945312 17.74410156 12.796875 19.5234375 C22.32208108 38.68561207 25.55197947 59.54517858 25.44604492 80.76806641 C25.43743664 83.39432902 25.46660441 86.01847602 25.49804688 88.64453125 C25.53540616 97.94315748 24.90195177 105.41192456 21 114 C20.64371333 115.32738416 20.30669571 116.6602886 20 118 C17.98883348 123.48994103 15.71900078 128.82095089 13 134 C12.67 134.66 12.34 135.32 12 136 C11.34 136.33 10.68 136.66 10 137 C9.62875 137.969375 9.2575 138.93875 8.875 139.9375 C7.0426871 144.52302918 3.9769976 148.00337718 0.83984375 151.765625 C-1.11439823 154.06251696 -1.11439823 154.06251696 -3 157 C-3.66 157 -4.32 157 -5 157 C-5.268125 157.5775 -5.53625 158.155 -5.8125 158.75 C-7 161 -7 161 -8.625 163.0625 C-10.2893735 165.0117832 -10.2893735 165.0117832 -10 168 C-11.32 167.34 -12.64 166.68 -14 166 C-14.78761719 166.70125 -15.57523438 167.4025 -16.38671875 168.125 C-28.16336864 178.44943388 -43.96117541 191.08888817 -60 193 C-56.45721358 190.06584612 -52.48966648 188.1732947 -48.375 186.1875 C-28.85510972 176.88278456 -28.85510972 176.88278456 -15 161 C-13.68 161 -12.36 161 -11 161 C-10.7525 160.43667969 -10.505 159.87335938 -10.25 159.29296875 C-8.79134545 156.61724932 -7.01269058 154.60193553 -5 152.3125 C16.39865862 126.40704993 24.55006255 93.53799736 21.78173828 60.38623047 C19.54351888 40.37599829 13.06116949 19.91557875 1.03125 3.56640625 C0 2 0 2 0 0 Z " fill="#576751" transform="translate(250,127)"/>
<path d="M0 0 C46.53 0 93.06 0 141 0 C141 0.99 141 1.98 141 3 C122.91119457 3.02333596 104.82239304 3.04098261 86.73357582 3.05181217 C78.33507408 3.05697364 69.93658168 3.06401352 61.53808594 3.07543945 C54.21997648 3.08539083 46.90187379 3.09185451 39.58375776 3.09408849 C35.70706112 3.09539483 31.83038384 3.09847582 27.95369339 3.10573006 C24.30779369 3.11249741 20.66192139 3.11461549 17.01601601 3.11310768 C15.03399431 3.11351568 13.05197562 3.11890717 11.06996155 3.12442017 C9.89764481 3.1230455 8.72532806 3.12167084 7.51748657 3.12025452 C6.49429636 3.12117631 5.47110615 3.1220981 4.41691017 3.12304783 C2 3 2 3 0 2 C0 1.34 0 0.68 0 0 Z " fill="#415932" transform="translate(134,405)"/>
<path d="M0 0 C0.99 0.495 0.99 0.495 2 1 C-3.27605579 11.0834648 -9.37275091 19.55955156 -17 28 C-15.63629701 30.99220268 -14.05091917 33.29026529 -11.875 35.75 C-11.33617187 36.36359375 -10.79734375 36.9771875 -10.2421875 37.609375 C-9.83226562 38.06828125 -9.42234375 38.5271875 -9 39 C-14.69453376 37.51446945 -14.69453376 37.51446945 -16.1875 35 C-16.5896875 34.01 -16.5896875 34.01 -17 33 C-18.485 32.01 -18.485 32.01 -20 31 C-20.69222656 31.61746094 -21.38445312 32.23492187 -22.09765625 32.87109375 C-27.77469817 37.78521304 -33.48008248 42.15239879 -39.9375 46 C-40.87638062 46.55965454 -40.87638062 46.55965454 -41.83422852 47.13061523 C-45.12279909 49.04228732 -48.35401035 50.88401012 -52 52 C-53.485 51.505 -53.485 51.505 -55 51 C-54.22305786 50.61630249 -54.22305786 50.61630249 -53.43041992 50.22485352 C-42.95836571 45.00800174 -33.75953199 39.81619777 -25 32 C-24.01 31.34 -23.02 30.68 -22 30 C-23.55002747 26.11602311 -26.00476621 23.97020381 -29.125 21.25 C-30.03507812 20.45078125 -30.94515625 19.6515625 -31.8828125 18.828125 C-32.58148438 18.22484375 -33.28015625 17.6215625 -34 17 C-34.44988281 17.35191406 -34.89976562 17.70382812 -35.36328125 18.06640625 C-57.50773745 35.06305299 -80.04757547 42.92396646 -107.92626953 40.29101562 C-111.36684814 39.80818425 -114.65160079 38.91902071 -118 38 C-118 37.67 -118 37.34 -118 37 C-117.34257813 37.0721875 -116.68515625 37.144375 -116.0078125 37.21875 C-89.98784403 39.75728351 -63.69894722 37.41606682 -42.32910156 20.69238281 C-35.98424417 15.3639162 -30.22936778 9.42623012 -25 3 C-25 7.41165252 -27.59823937 9.00754461 -30.56640625 12.0625 C-31.03949219 12.701875 -31.51257813 13.34125 -32 14 C-30.85996765 17.42009706 -29.77829802 18.28869442 -27.0625 20.5625 C-24.96656037 22.33130568 -22.94005112 24.05994888 -21 26 C-20.01 26 -19.02 26 -18 26 C-16.10493407 23.96008827 -14.42873666 21.95791301 -12.75 19.75 C-12.26490967 19.12335449 -11.77981934 18.49670898 -11.2800293 17.85107422 C-6.97850754 12.18851016 -3.36398409 6.2687212 0 0 Z " fill="#66775E" transform="translate(243,249)"/>
<path d="M0 0 C2.81607078 2.81607078 4.02170716 6.28732277 5.625 9.875 C9.09866911 17.43388848 13.05660719 24.2848169 18 31 C18.86818359 32.20269531 18.86818359 32.20269531 19.75390625 33.4296875 C29.51099707 46.28460197 41.38087119 57.37673616 55 66 C55.84812256 66.54261475 55.84812256 66.54261475 56.71337891 67.09619141 C70.33870362 75.68632341 85.2580144 80.80285077 101 84 C101.87269531 84.17805176 102.74539062 84.35610352 103.64453125 84.53955078 C111.61592147 86.02423548 119.40168296 86.38438693 127.5 86.375 C129.46271851 86.3747583 129.46271851 86.3747583 131.46508789 86.37451172 C143.69085214 86.23188906 155.13881263 84.48248022 166.78515625 80.8046875 C169.81100673 80.04730573 171.16074634 79.86429854 174 81 C138.21424919 93.0715632 99.87438361 91.80713522 65.79492188 74.9296875 C47.21764478 65.30750698 30.59536451 51.69618086 18 35 C17.39671875 34.20078125 16.7934375 33.4015625 16.171875 32.578125 C-0 10.28716216 -0 10.28716216 0 0 Z " fill="#687B61" transform="translate(20,249)"/>
<path d="M0 0 C0.495 0.99 0.495 0.99 1 2 C0.29077148 3.68554687 0.29077148 3.68554687 -0.87890625 5.71875 C-1.30284668 6.47663818 -1.72678711 7.23452637 -2.16357422 8.01538086 C-2.62521973 8.83530518 -3.08686523 9.65522949 -3.5625 10.5 C-14.08338849 29.90580636 -19.04338963 50.99796148 -20 73 C-11.42 73 -2.84 73 6 73 C6 73.33 6 73.66 6 74 C-2.58 74 -11.16 74 -20 74 C-18.04481805 93.89462995 -18.04481805 93.89462995 -13.53833008 113.2980957 C-11.91241103 118.7372331 -11.91241103 118.7372331 -13 122 C-15.58651858 117.30731629 -16.97286332 112.86579094 -18.125 107.6875 C-18.29676758 106.92767822 -18.46853516 106.16785645 -18.64550781 105.38500977 C-20.97612305 94.83954151 -21.1188347 84.76114258 -21 74 C-24.63 74 -28.26 74 -32 74 C-32 73.67 -32 73.34 -32 73 C-28.7 73 -25.4 73 -22 73 C-21.97421875 71.92105469 -21.9484375 70.84210938 -21.921875 69.73046875 C-21.13150282 46.29421527 -15.24504158 18.69051537 0 0 Z " fill="#62735C" transform="translate(32,127)"/>
<path d="M0 0 C0 0.33 0 0.66 0 1 C-1.13953125 1.03738281 -2.2790625 1.07476562 -3.453125 1.11328125 C-38.9562276 2.49366251 -70.61851137 11.60786733 -98 35 C-98.81984375 35.68578125 -99.6396875 36.3715625 -100.484375 37.078125 C-109.24409012 44.64086041 -116.48640338 53.44672496 -123 63 C-123.33 62.34 -123.66 61.68 -124 61 C-102.60490398 29.85756798 -72.67417048 10.04665344 -36 2 C-35.06671875 1.773125 -34.1334375 1.54625 -33.171875 1.3125 C-22.3475151 -0.96631261 -11.00183015 -0.17348835 0 0 Z " fill="#6E8063" transform="translate(157,64)"/>
<path d="M0 0 C5.4122892 0.33826808 9.09766928 3.51908728 13 7 C15.0625 9.5625 15.0625 9.5625 16 12 C15.6875 14.8125 15.6875 14.8125 15 17 C10.28578464 18.52518732 8.28039297 17.14019649 4 15 C0.43574275 15.0869331 -0.82957895 15.8620401 -3.625 18.125 C-4.40875 18.74375 -5.1925 19.3625 -6 20 C-6.99 19.67 -7.98 19.34 -9 19 C-7.26346561 17.29639988 -5.51314607 15.61316173 -3.75 13.9375 C-3.01330078 13.20950195 -3.01330078 13.20950195 -2.26171875 12.46679688 C-0.796875 11.08984375 -0.796875 11.08984375 2 9 C5.4134336 9.14422959 7.40346822 10.86713461 10 13 C9.54109375 12.54109375 9.0821875 12.0821875 8.609375 11.609375 C5.40625 8.40625 2.203125 5.203125 -1 2 C-0.67 1.34 -0.34 0.68 0 0 Z " fill="#010301" transform="translate(240,290)"/>
<path d="M0 0 C3.21524305 1.40844718 5.32183868 3.10344786 7.75 5.625 C8.67039062 6.57246094 8.67039062 6.57246094 9.609375 7.5390625 C10.29773438 8.26222656 10.29773438 8.26222656 11 9 C10.01 9 9.02 9 8 9 C7.360625 8.319375 6.72125 7.63875 6.0625 6.9375 C5.0415625 5.9784375 5.0415625 5.9784375 4 5 C-2.05722432 5.50901045 -7.07207968 11.73953447 -10.7890625 16.09765625 C-11.33304688 16.76667969 -11.87703125 17.43570312 -12.4375 18.125 C-18.12468972 24.85948107 -26.46382679 29.07247702 -35 31 C-37.44076421 31.57456785 -39.48361016 32.20419096 -41.8125 33.1875 C-44 34 -44 34 -47 33 C-46.07960937 32.5875 -45.15921875 32.175 -44.2109375 31.75 C-31.11499698 25.80808106 -18.96141832 19.44949855 -8 10 C-7.21109375 9.35546875 -6.4221875 8.7109375 -5.609375 8.046875 C-4.87203125 7.43328125 -4.1346875 6.8196875 -3.375 6.1875 C-2.72273438 5.64480469 -2.07046875 5.10210937 -1.3984375 4.54296875 C0.33577581 2.97658739 0.33577581 2.97658739 0 0 Z " fill="#394435" transform="translate(241,295)"/>
<path d="M0 0 C22.70602438 -0.97157315 43.20057845 5.2541601 63 16 C64.0725 16.5671875 65.145 17.134375 66.25 17.71875 C73.94576623 21.96745427 80.43503816 27.21491837 87 33 C86.01 33.99 86.01 33.99 85 35 C84.42894531 34.443125 83.85789062 33.88625 83.26953125 33.3125 C76.72492078 27.15286662 69.85202695 22.34403658 62 18 C61.37818848 17.65549805 60.75637695 17.31099609 60.11572266 16.95605469 C40.76832295 6.40824 21.58709956 3.48546781 0 1 C0 0.67 0 0.34 0 0 Z " fill="#6B7F63" transform="translate(147,74)"/>
<path d="M0 0 C0.66 0 1.32 0 2 0 C2.98432273 1.08426935 3.91138021 2.22065414 4.8125 3.375 C19.90951637 21.02977534 42.75021449 30.40275244 65 35 C65 35.33 65 35.66 65 36 C40.49769481 35.35210251 18.23470771 20.62555892 1.51171875 3.8125 C0 2 0 2 0 0 Z " fill="#6E7E65" transform="translate(66,272)"/>
<path d="M0 0 C1.65 0 3.3 0 5 0 C4.32146598 5.05007289 0.90080614 6.7944912 -2.94140625 9.7265625 C-3.95074219 10.47679687 -4.96007812 11.22703125 -6 12 C-6.52319824 12.40057617 -7.04639648 12.80115234 -7.58544922 13.21386719 C-16.51448937 20.04778044 -25.77306399 25.33788839 -36 30 C-37.37478516 30.63421875 -37.37478516 30.63421875 -38.77734375 31.28125 C-41 32 -41 32 -44 31 C-43.48203857 30.764021 -42.96407715 30.52804199 -42.43041992 30.28491211 C-18.65598174 19.65119781 -18.65598174 19.65119781 0 2 C0 1.34 0 0.68 0 0 Z " fill="#718266" transform="translate(234,288)"/>
<path d="M0 0 C0.66 0 1.32 0 2 0 C0.47577031 3.22866387 -1.35228813 6.1433917 -3.3125 9.125 C-12.76036858 23.91296821 -19.31253711 40.45038596 -21 58 C-21.66 57.34 -22.32 56.68 -23 56 C-22.68910181 38.27880316 -13.70404651 20.39955288 -4 6 C-3.63003906 5.40445313 -3.26007812 4.80890625 -2.87890625 4.1953125 C-1.97585164 2.75968722 -0.99551631 1.37312594 0 0 Z " fill="#66795E" transform="translate(62,132)"/>
<path d="M0 0 C0.33 0 0.66 0 1 0 C1.07453648 5.55010083 1.12878399 11.09990586 1.16479492 16.65039062 C1.17981793 18.53585897 1.20024231 20.42129275 1.22631836 22.30664062 C1.26298863 25.0274309 1.27979146 27.74775641 1.29296875 30.46875 C1.30845261 31.30241089 1.32393646 32.13607178 1.33988953 32.99499512 C1.34149232 38.65535787 0.26141166 42.80423066 -2 48 C-2.66 48 -3.32 48 -4 48 C-3.85904936 46.3745692 -3.71207913 44.74965949 -3.5625 43.125 C-3.48128906 42.22007812 -3.40007812 41.31515625 -3.31640625 40.3828125 C-3 38 -3 38 -2 36 C-0.92119593 28.33649555 -0.68812825 20.66588902 -0.4375 12.9375 C-0.39431641 11.69033203 -0.35113281 10.44316406 -0.30664062 9.15820312 C-0.20137704 6.10555909 -0.09924059 3.05284477 0 0 Z " fill="#101A0D" transform="translate(274,190)"/>
<path d="M0 0 C3.21524305 1.40844718 5.32183868 3.10344786 7.75 5.625 C8.67039063 6.57246094 8.67039063 6.57246094 9.609375 7.5390625 C10.06828125 8.02117187 10.5271875 8.50328125 11 9 C10.01 9 9.02 9 8 9 C7.360625 8.319375 6.72125 7.63875 6.0625 6.9375 C5.0415625 5.9784375 5.0415625 5.9784375 4 5 C0.23148904 5.28682113 -1.80256354 7.32291395 -4.5 9.8125 C-5.2528125 10.49957031 -6.005625 11.18664062 -6.78125 11.89453125 C-8.24457416 13.28314344 -9.68068789 14.70108303 -11.0859375 16.1484375 C-13.49481285 18.47865569 -15.914135 19.72540359 -19 21 C-19.66 20.67 -20.32 20.34 -21 20 C-20.23816406 19.443125 -19.47632813 18.88625 -18.69140625 18.3125 C-8.80865337 11.26274649 -8.80865337 11.26274649 0 3 C0 2.01 0 1.02 0 0 Z " fill="#6E7E66" transform="translate(241,295)"/>
<path d="M0 0 C1.485 0.495 1.485 0.495 3 1 C-17.21453798 17.53644897 -17.21453798 17.53644897 -28 21 C-28.99 20.67 -29.98 20.34 -31 20 C-30.48203857 19.74420166 -29.96407715 19.48840332 -29.43041992 19.22485352 C-18.64742183 13.85309917 -8.60821095 8.60821095 0 0 Z " fill="#6B8163" transform="translate(219,280)"/>
<path d="M0 0 C5.34228867 0.53008756 9.12328367 2.37106855 13.6875 5 C14.38359375 5.39501709 15.0796875 5.79003418 15.796875 6.19702148 C22.0785006 9.85913402 27.58075123 14.14334274 33 19 C32.34 19.66 31.68 20.32 31 21 C30.44054687 20.443125 29.88109375 19.88625 29.3046875 19.3125 C20.64416498 11.06968757 11.04302499 5.57436613 0 1 C0 0.67 0 0.34 0 0 Z " fill="#6A7E62" transform="translate(177,118)"/>
<path d="M0 0 C0.66 0.33 1.32 0.66 2 1 C2.45402536 6.26993722 0.95207309 9.84008491 -1.5 14.375 C-1.83386719 15.01566406 -2.16773438 15.65632812 -2.51171875 16.31640625 C-3.33026451 17.88333671 -4.16364513 19.44250241 -5 21 C-5.66 21 -6.32 21 -7 21 C-6.26951699 16.31196344 -4.63363115 12.09114445 -2.9375 7.6875 C-2.51500977 6.57665039 -2.51500977 6.57665039 -2.08398438 5.44335938 C-1.39281425 3.62757345 -0.69688311 1.81360101 0 0 Z " fill="#050A04" transform="translate(269,237)"/>
<path d="M0 0 C3.25283201 1.41147116 5.22954548 3.09327373 7.625 5.6875 C11.42198583 9.62060419 15.51475773 12.58937624 20.09375 15.5546875 C20.7228125 16.03164063 21.351875 16.50859375 22 17 C22 17.66 22 18.32 22 19 C17.80403053 17.60633871 15.20701426 15.64159779 12 12.625 C9.45125685 10.24351812 6.95357888 7.96428152 4.1875 5.8359375 C3.465625 5.23007812 2.74375 4.62421875 2 4 C2 3.34 2 2.68 2 2 C1.34 2 0.68 2 0 2 C0 1.34 0 0.68 0 0 Z " fill="#707E62" transform="translate(73,265)"/>
<path d="M0 0 C0.66 0 1.32 0 2 0 C2 5.28 2 10.56 2 16 C4.31 16 6.62 16 9 16 C9 16.33 9 16.66 9 17 C6.36 17 3.72 17 1 17 C0.67 14.36 0.34 11.72 0 9 C-1.32 8.67 -2.64 8.34 -4 8 C-4 7.34 -4 6.68 -4 6 C-2.68 6 -1.36 6 0 6 C0 4.02 0 2.04 0 0 Z " fill="#394334" transform="translate(146,310)"/>
<path d="M0 0 C-0.556875 0.24234375 -1.11375 0.4846875 -1.6875 0.734375 C-5.6589603 2.47859743 -9.57866096 4.26747719 -13.4375 6.25 C-17 8 -17 8 -19 8 C-19 7.34 -19 6.68 -19 6 C-16.58967749 4.79783666 -14.17316521 3.61325022 -11.75 2.4375 C-11.06808594 2.09525391 -10.38617188 1.75300781 -9.68359375 1.40039062 C-5.97831091 -0.38030356 -3.92128522 -1.3058334 0 0 Z " fill="#617159" transform="translate(126,126)"/>
<path d="M0 0 C3.90285767 1.58667578 6.33520982 4.13350481 9.25 7.125 C10.14203125 8.03507812 11.0340625 8.94515625 11.953125 9.8828125 C12.62859375 10.58148438 13.3040625 11.28015625 14 12 C13.01 12.495 13.01 12.495 12 13 C7.17514834 9.04174791 3.16589254 5.40839975 0 0 Z " fill="#61715A" transform="translate(44,290)"/>
<path d="M0 0 C0 3.947539 -1.37212615 5.00723981 -3.875 8 C-6.05573971 10.62626718 -8.10486603 13.15729904 -10 16 C-10.66 16 -11.32 16 -12 16 C-10.45333439 12.53611348 -8.38609908 9.81376173 -6 6.875 C-5.29875 6.00617188 -4.5975 5.13734375 -3.875 4.2421875 C-2 2 -2 2 0 0 Z " fill="#6D7F61" transform="translate(92,144)"/>
<path d="M0 0 C4.95258714 3.77339973 8.43679155 7.90789714 12 13 C11.67 13.66 11.34 14.32 11 15 C9.53308542 13.44555348 8.07679359 11.88107825 6.625 10.3125 C5.81289062 9.44238281 5.00078125 8.57226562 4.1640625 7.67578125 C2.11022491 5.13628893 1.0099332 3.07974134 0 0 Z " fill="#66755E" transform="translate(238,112)"/>
<path d="M0 0 C0 4.09494154 -1.69697409 5.50742326 -4.33203125 8.48046875 C-6.448839 10.40889548 -8.15301606 10.91626518 -11 11 C-7.33333333 7.33333333 -3.66666667 3.66666667 0 0 Z " fill="#0B0F07" transform="translate(242,299)"/>
<path d="M0 0 C0.33 0.99 0.66 1.98 1 3 C-0.64169528 5.02054804 -2.30911778 7.02043058 -4 9 C-4 9.99 -4 10.98 -4 12 C-4.66 11.34 -5.32 10.68 -6 10 C-5.89834392 6.23872509 -5.00920966 5.01010816 -2.4375 2.1875 C-1.2309375 1.1046875 -1.2309375 1.1046875 0 0 Z " fill="#1C2817" transform="translate(244,283)"/>
<path d="M0 0 C1.65 0 3.3 0 5 0 C4.875 1.75 4.875 1.75 4 4 C0.9375 6.25 0.9375 6.25 -2 8 C-2 5 -2 5 0 2 C0 1.34 0 0.68 0 0 Z " fill="#5E7654" transform="translate(234,288)"/>
<path d="M0 0 C0.639375 0.268125 1.27875 0.53625 1.9375 0.8125 C5.91202261 2.35364142 9.94884495 3.67609312 14 5 C10.21180727 6.43410153 7.93478721 5.51009497 4.25 4.0625 C2.77273437 3.49208984 2.77273437 3.49208984 1.265625 2.91015625 C0.51796875 2.60980469 -0.2296875 2.30945313 -1 2 C-0.67 1.34 -0.34 0.68 0 0 Z " fill="#5F715B" transform="translate(111,280)"/>
<path d="M0 0 C-1 3 -1 3 -2.77734375 4.203125 C-3.49019531 4.54859375 -4.20304688 4.8940625 -4.9375 5.25 C-6.00291016 5.78367187 -6.00291016 5.78367187 -7.08984375 6.328125 C-8.03537109 6.66070312 -8.03537109 6.66070312 -9 7 C-9.66 6.67 -10.32 6.34 -11 6 C-9.73608512 4.99126984 -8.46359117 3.99328178 -7.1875 3 C-6.47980469 2.443125 -5.77210938 1.88625 -5.04296875 1.3125 C-3 0 -3 0 0 0 Z " fill="#586C53" transform="translate(231,309)"/>
<path d="M0 0 C3.21524305 1.40844718 5.32183868 3.10344786 7.75 5.625 C8.67039063 6.57246094 8.67039063 6.57246094 9.609375 7.5390625 C10.29773438 8.26222656 10.29773438 8.26222656 11 9 C7.47767483 9 6.94248672 8.43268519 4.375 6.1875 C3.76398438 5.66542969 3.15296875 5.14335937 2.5234375 4.60546875 C1 3 1 3 0 0 Z " fill="#505E4A" transform="translate(241,295)"/>
<path d="M0 0 C0.66 0.33 1.32 0.66 2 1 C2.3125 3.8125 2.3125 3.8125 2 7 C-0.5 8.875 -0.5 8.875 -3 10 C-2.01 6.7 -1.02 3.4 0 0 Z " fill="#0B1009" transform="translate(269,237)"/>
<path d="M0 0 C0.99 0.33 1.98 0.66 3 1 C1.90716423 2.03295436 0.80029421 3.05107835 -0.3125 4.0625 C-0.92738281 4.63097656 -1.54226562 5.19945312 -2.17578125 5.78515625 C-2.77777344 6.18605469 -3.37976563 6.58695312 -4 7 C-4.99 6.67 -5.98 6.34 -7 6 C-5.90716423 4.96704564 -4.80029421 3.94892165 -3.6875 2.9375 C-3.07261719 2.36902344 -2.45773438 1.80054688 -1.82421875 1.21484375 C-0.92123047 0.61349609 -0.92123047 0.61349609 0 0 Z " fill="#617760" transform="translate(219,280)"/>
<path d="M0 0 C3.7952131 1.49097658 5.61042731 3.75700849 8 7 C6.125 6.75 6.125 6.75 4 6 C2.75 3.9375 2.75 3.9375 2 2 C1.34 2 0.68 2 0 2 C0 1.34 0 0.68 0 0 Z " fill="#5E684D" transform="translate(73,265)"/>
<path d="M0 0 C0.33 0 0.66 0 1 0 C1 2.64 1 5.28 1 8 C0.01 8.495 0.01 8.495 -1 9 C-1.99 8.67 -2.98 8.34 -4 8 C-4 7.34 -4 6.68 -4 6 C-2.68 6 -1.36 6 0 6 C0 4.02 0 2.04 0 0 Z " fill="#2C2C25" transform="translate(146,310)"/>
<path d="" fill="#050505" transform="translate(0,0)"/>
<path d="M0 0 C2 1 2 1 2 1 Z " fill="#03000A" transform="translate(104,66)"/>
</svg>
