<?xml version="1.0" encoding="UTF-8"?>
<svg version="1.1" xmlns="http://www.w3.org/2000/svg" width="343" height="411">
<path d="M0 0 C0.71322418 -0.0025882 1.42644836 -0.00517639 2.1612854 -0.00784302 C4.17131731 -0.01364587 6.1813684 -0.01093698 8.19140625 -0.0078125 C9.89792358 -0.00612061 9.89792358 -0.00612061 11.63891602 -0.00439453 C14.4375 0.125 14.4375 0.125 17.4375 1.125 C30.8025 1.62 30.8025 1.62 44.4375 2.125 C44.4375 125.545 44.4375 248.965 44.4375 376.125 C-68.7525 376.125 -181.9425 376.125 -298.5625 376.125 C-298.5625 315.405 -298.5625 254.685 -298.5625 192.125 C-293.6125 192.455 -288.6625 192.785 -283.5625 193.125 C-280.49122904 192.99857965 -277.64321632 192.8352832 -274.625 192.4375 C-273.88411133 192.34791016 -273.14322266 192.25832031 -272.37988281 192.16601562 C-262.64519509 190.88350258 -252.73221235 188.64233742 -243.5625 185.125 C-242.42899466 183.10830173 -242.42899466 183.10830173 -241.5625 181.125 C-239.5078125 180.50390625 -239.5078125 180.50390625 -237.5625 180.125 C-235.93113273 169.42341096 -235.12437398 158.87981261 -234.74609375 148.0703125 C-234.68475356 146.47335276 -234.62273181 144.87641908 -234.56007385 143.2795105 C-234.39819879 139.11400308 -234.24440665 134.94823993 -234.09277344 130.78234863 C-233.84892878 124.12635213 -233.59158245 117.4708595 -233.33604622 110.8153038 C-233.24917634 108.52653 -233.16520742 106.23766666 -233.08189392 103.94876099 C-232.92434824 99.6734598 -232.74834185 95.39915781 -232.5625 91.125 C-232.53115589 90.37495445 -232.49981178 89.62490891 -232.46751785 88.8521347 C-232.36915466 86.58170988 -232.25864991 84.31217511 -232.14477539 82.04248047 C-232.10236426 81.02692927 -232.10236426 81.02692927 -232.05909634 79.99086189 C-231.63967994 72.21866994 -229.79078542 65.91820382 -225.8125 59.1875 C-225.45687988 58.58341309 -225.10125977 57.97932617 -224.73486328 57.35693359 C-220.55774174 50.32247318 -216.06553224 43.61102598 -211.03125 37.1640625 C-209.50671727 35.14398708 -209.50671727 35.14398708 -208.34375 32.8359375 C-204.54399277 25.90833133 -199.59293855 23.19842519 -192.14306641 20.84863281 C-177.86377232 16.84448639 -163.23042496 13.85285192 -148.39453125 13.38671875 C-137.70415332 12.656591 -126.27315429 10.52569949 -116.53515625 5.95703125 C-112.68320448 4.33234664 -108.73555187 3.99295042 -104.59204102 3.84375 C-103.63076797 3.80701172 -102.66949493 3.77027344 -101.67909241 3.73242188 C-100.13831276 3.67924805 -100.13831276 3.67924805 -98.56640625 3.625 C-96.96695412 3.5640918 -96.96695412 3.5640918 -95.33518982 3.50195312 C-91.93192332 3.3724845 -88.52850091 3.24814271 -85.125 3.125 C-80.6469578 2.96272683 -76.16914714 2.7953625 -71.69140625 2.625 C-70.66624405 2.58955078 -69.64108185 2.55410156 -68.58485413 2.51757812 C-63.81256324 2.33578511 -59.2709944 1.95818865 -54.5625 1.125 C-52.13089417 0.98079434 -49.69657756 0.87905491 -47.26171875 0.80859375 C-46.20896759 0.77728615 -46.20896759 0.77728615 -45.13494873 0.74534607 C-42.84007471 0.67925352 -40.54509815 0.62025291 -38.25 0.5625 C-37.46480988 0.54165344 -36.67961975 0.52080688 -35.87063599 0.49932861 C-23.91425944 0.18550342 -11.96039994 0.020304 0 0 Z " fill="#010101" transform="translate(298.5625,34.875)"/>
<path d="M0 0 C1.66611905 -0.042721 3.33382885 -0.04063832 5 0 C6.72321507 1.72321507 6.13502069 4.01705502 6.14285278 6.36790466 C6.14881973 7.5328093 6.15478668 8.69771393 6.16093445 9.8979187 C6.16212784 11.18771637 6.16332123 12.47751404 6.16455078 13.80639648 C6.16913709 15.1696127 6.17404265 16.53282787 6.179245 17.89604187 C6.21968358 30.372289 6.19541428 42.84898223 6.15728951 55.32520962 C6.12979664 64.54467957 6.13146975 73.76314702 6.17214787 82.98257393 C6.19821927 89.46697722 6.18982747 95.950805 6.15649974 102.43517166 C6.13758039 106.30587697 6.13375419 110.17519978 6.1673317 114.04583549 C6.19832402 117.69513153 6.18635663 121.34187261 6.14266396 124.99101448 C6.12987786 126.95481835 6.1612503 128.91875771 6.1943512 130.88232422 C6.04137962 139.0725578 4.23453923 143.17271185 -1.66736031 148.89396763 C-2.4371314 149.58895831 -3.2069025 150.28394899 -4 151 C-5.38370325 152.39240296 -6.76234959 153.78987587 -8.1328125 155.1953125 C-9.4609099 156.5078766 -10.79161328 157.81780948 -12.125 159.125 C-16.77190225 163.68167114 -21.23183735 168.29623981 -25.44042969 173.2644043 C-27.7398332 175.8233366 -30.32000339 177.84435056 -33 180 C-34.67987198 181.65335589 -36.34511091 183.3216384 -38 185 C-38.81299561 185.81823242 -39.62599121 186.63646484 -40.46362305 187.47949219 C-41.72493042 188.75034668 -41.72493042 188.75034668 -43.01171875 190.046875 C-44.4208289 191.46287807 -45.82994645 192.87887385 -47.23950195 194.29443359 C-48.21108661 195.2710965 -49.18177923 196.24864755 -50.15161133 197.22705078 C-51.56096541 198.64849113 -52.97378963 200.06648823 -54.38671875 201.484375 C-55.22420654 202.32709961 -56.06169434 203.16982422 -56.92456055 204.03808594 C-60.49351622 207.4118217 -62.90440132 207.14122846 -67.74121094 207.18945312 C-68.43412231 207.19774643 -69.12703369 207.20603973 -69.84094238 207.21458435 C-71.34799656 207.2319981 -72.85507801 207.24716129 -74.36217499 207.26036072 C-76.75000553 207.28138764 -79.13770087 207.30841409 -81.52545166 207.33703613 C-86.60024891 207.39677162 -91.67510992 207.44885343 -96.75 207.5 C-102.61723096 207.55931126 -108.48439643 207.62177041 -114.35150909 207.69187927 C-116.69897865 207.71835085 -119.04645505 207.73923289 -121.39398193 207.7598877 C-122.84306139 207.77650394 -124.29213793 207.79337692 -125.74121094 207.81054688 C-127.00092712 207.82307495 -128.26064331 207.83560303 -129.55853271 207.84851074 C-133.00661775 207.92933722 -133.00661775 207.92933722 -136.39117432 208.57434082 C-137.68254303 208.78504211 -137.68254303 208.78504211 -139 209 C-140 208 -140 208 -140.0625 205.4375 C-140.0315625 204.2309375 -140.0315625 204.2309375 -140 203 C-138.34385343 202.61781233 -136.67542976 202.28604898 -135 202 C-134.67 202.33 -134.34 202.66 -134 203 C-104.22112168 209.56897718 -69.98729241 210.57349564 -43.41796875 193.90234375 C-23.40230483 180.53675908 -4.62803375 161.36632815 0.84609222 137.27664948 C8.39048335 97.24200349 8.18284552 44.12537062 -0.59609127 4.29554844 C-1 2 -1 2 0 0 Z " fill="#727272" transform="translate(140,123)"/>
<path d="M0 0 C1.65 0.33 3.3 0.66 5 1 C4.76171875 2.90625 4.76171875 2.90625 4 5 C2.14453125 5.90625 2.14453125 5.90625 -0.1875 6.5 C-4.47576463 7.73594888 -7.3786223 9.43853773 -11 12 C-11.66 12 -12.32 12 -13 12 C-12.99354745 12.7502243 -12.9870949 13.50044861 -12.98044682 14.27340698 C-12.82573093 32.54373062 -12.70995948 50.8139232 -12.6373148 69.08476257 C-12.60124875 77.92051751 -12.55209458 86.75583468 -12.47192383 95.59130859 C-12.40206485 103.29402464 -12.35697159 110.99642359 -12.34138054 118.69944763 C-12.33226919 122.77681746 -12.31091906 126.85328031 -12.2598896 130.93035889 C-12.21219934 134.77195078 -12.1977537 138.61226655 -12.20824623 142.45412636 C-12.20632821 143.8602118 -12.19250609 145.26634208 -12.16556168 146.67217064 C-11.94840055 158.5922377 -11.94840055 158.5922377 -16.27822876 163.62062073 C-17.49284622 164.77503858 -18.73121079 165.90539957 -20 167 C-20.76194168 167.80384628 -21.52388336 168.60769257 -22.30891418 169.43589783 C-22.9801683 170.10794754 -23.65142242 170.77999725 -24.34301758 171.47241211 C-25.1168428 172.2493895 -25.89066803 173.02636688 -26.6879425 173.82688904 C-27.49861679 174.63553909 -28.30929108 175.44418915 -29.14453125 176.27734375 C-29.99552902 177.12929825 -30.84652679 177.98125275 -31.72331238 178.85902405 C-33.50791706 180.644305 -35.29376824 182.42834072 -37.08081055 184.21118164 C-39.82522162 186.95019661 -42.56420432 189.69455952 -45.30273438 192.43945312 C-47.04134577 194.17740442 -48.78026695 195.91504586 -50.51953125 197.65234375 C-51.34032669 198.47516342 -52.16112213 199.29798309 -53.00679016 200.14573669 C-53.76485458 200.90064896 -54.52291901 201.65556122 -55.30395508 202.43334961 C-55.97123123 203.09983017 -56.63850739 203.76631073 -57.32600403 204.45298767 C-60.2223244 207.12960302 -62.16402353 207.12209047 -66.00808716 207.1111145 C-67.59776558 207.11062355 -67.59776558 207.11062355 -69.21955872 207.11012268 C-70.97123604 207.1022599 -70.97123604 207.1022599 -72.75830078 207.09423828 C-75.3003844 207.09145092 -77.84246815 207.08878113 -80.384552 207.08621216 C-81.75197493 207.08321666 -83.11939767 207.08013412 -84.48682022 207.07696915 C-88.71503091 207.06856905 -92.94315067 207.07399668 -97.1713562 207.08297729 C-98.24184965 207.0851838 -98.24184965 207.0851838 -99.33396924 207.08743489 C-100.79360845 207.09050581 -102.25324756 207.09362584 -103.71288657 207.09679389 C-113.55739129 207.11797062 -123.40160088 207.13173463 -133.24609375 207.09960938 C-139.88473003 207.07804608 -146.5228451 207.08127854 -153.16144741 207.11301792 C-156.673115 207.12883948 -160.18378642 207.13217408 -163.69540787 207.10525894 C-167.61915808 207.07545112 -171.5415553 207.10030088 -175.46533203 207.12939453 C-176.62097153 207.11200729 -177.77661102 207.09462006 -178.9672699 207.07670593 C-185.79741521 207.18195611 -189.50772815 208.21395701 -194.34544182 213.14573479 C-194.89144602 213.75764231 -195.43745022 214.36954983 -196 215 C-197.1771678 216.20821877 -198.35539613 217.41540611 -199.53515625 218.62109375 C-200.7148139 219.88963539 -201.89047842 221.16189995 -203.0625 222.4375 C-204.36712487 223.84250607 -205.67181432 225.24745218 -206.9765625 226.65234375 C-207.63817383 227.3676123 -208.29978516 228.08288086 -208.98144531 228.81982422 C-237.92078849 260.07627494 -237.92078849 260.07627494 -245.22488403 260.63250732 C-246.80868099 260.66136643 -248.39311687 260.66352994 -249.97705078 260.64355469 C-251.28326889 260.6568708 -251.28326889 260.6568708 -252.61587524 260.67045593 C-255.47608181 260.69403478 -258.33504865 260.68297011 -261.1953125 260.671875 C-263.19116542 260.68246039 -265.18700722 260.69537419 -267.18283081 260.71051025 C-272.4252426 260.7446722 -277.66728211 260.75009411 -282.90979004 260.74859619 C-290.30279597 260.75182409 -297.69569819 260.79455809 -305.08859253 260.83233643 C-309.0228258 260.85230905 -312.95686199 260.86168345 -316.8911438 260.86248779 C-318.68800868 260.86630909 -320.48487351 260.87015309 -322.28173828 260.87402344 C-323.09433105 260.87192368 -323.90692383 260.86982391 -324.74414062 260.86766052 C-328.62023067 260.8808357 -332.23263399 261.05170461 -336 262 C-336 260.35 -336 258.7 -336 257 C-335.35357544 257.16102203 -334.70715088 257.32204407 -334.0411377 257.48794556 C-330.13727819 258.1452616 -326.28863651 258.17202081 -322.34179688 258.19287109 C-321.48103043 258.20104858 -320.62026398 258.20922607 -319.7334137 258.21765137 C-316.89519941 258.24239318 -314.05703456 258.2589876 -311.21875 258.2734375 C-310.24767807 258.27876118 -309.27660614 258.28408485 -308.27610779 258.28956985 C-303.14159943 258.31624554 -298.00711499 258.33564302 -292.87255859 258.35009766 C-288.62396856 258.36346492 -284.37585563 258.39137673 -280.12744141 258.43212891 C-274.99285559 258.48137525 -269.85870412 258.50620774 -264.72389221 258.51332474 C-262.76863355 258.52004423 -260.81338486 258.53528439 -258.85826111 258.55921555 C-256.12439126 258.59078496 -253.39220688 258.59091715 -250.65820312 258.58349609 C-249.44862694 258.6081041 -249.44862694 258.6081041 -248.21461487 258.63320923 C-244.08269668 258.58728945 -242.29017297 258.24677752 -239.09558105 255.52993774 C-238.40403931 254.69505829 -237.71249756 253.86017883 -237 253 C-236.278125 252.649375 -235.55625 252.29875 -234.8125 251.9375 C-232.86309732 251.16814815 -232.86309732 251.16814815 -232.2421875 249.30078125 C-230.49670681 246.06779973 -227.93686992 243.76784568 -225.3125 241.25 C-221.94290411 237.99659707 -218.70272526 234.70719201 -215.64453125 231.15625 C-211.75206636 226.65150538 -207.5944106 222.44704623 -203.375 218.25 C-202.63765625 217.50878906 -201.9003125 216.76757812 -201.140625 216.00390625 C-200.42132813 215.28589844 -199.70203125 214.56789063 -198.9609375 213.828125 C-198.31946777 213.1877832 -197.67799805 212.54744141 -197.01708984 211.88769531 C-196.3514502 211.26475586 -195.68581055 210.64181641 -195 210 C-194.38352097 209.30872513 -193.76704193 208.61745026 -193.13188171 207.90522766 C-188.23886237 204.92864149 -183.48783314 205.52066669 -177.87280273 205.62866211 C-176.64289108 205.63599365 -175.41297943 205.6433252 -174.14579773 205.65087891 C-171.47444005 205.66833733 -168.80413952 205.69279658 -166.13305473 205.72810173 C-161.89930948 205.78202246 -157.66594943 205.79781379 -153.43190002 205.80628967 C-141.39348809 205.83534207 -129.35580454 205.89999764 -117.31811523 206.03735352 C-110.66587163 206.11293482 -104.01461027 206.14862817 -97.36192852 206.14132506 C-93.84715471 206.13927504 -90.33517883 206.15759361 -86.8210125 206.2259655 C-70.57803629 207.29449474 -70.57803629 207.29449474 -56.13709068 201.36767578 C-53.8502384 199.08292397 -51.92127287 196.594603 -50 194 C-48.65858217 192.65065411 -47.29400432 191.32363182 -45.8996582 190.02905273 C-44.69742968 188.83317742 -43.49778618 187.63469756 -42.30078125 186.43359375 C-41.65425095 185.78802017 -41.00772064 185.14244659 -40.34159851 184.47731018 C-39.00393226 183.14031365 -37.66748395 181.80209743 -36.33227539 180.46264648 C-34.28062337 178.4055386 -32.22355247 176.35395454 -30.16601562 174.30273438 C-28.85644931 172.99250878 -27.5471924 171.68197385 -26.23828125 170.37109375 C-25.62487381 169.75971054 -25.01146637 169.14832733 -24.37947083 168.51841736 C-21.31732505 165.54201672 -21.31732505 165.54201672 -19 162 C-18.34 162 -17.68 162 -17 162 C-15.92492912 158.77478737 -15.88580142 156.4898564 -15.90234375 153.09892273 C-15.90556137 151.86658905 -15.90877899 150.63425537 -15.91209412 149.36457825 C-15.92054354 147.99655139 -15.92901284 146.62852467 -15.9375 145.26049805 C-15.94265288 143.82153507 -15.94724218 142.38256997 -15.9513092 140.94360352 C-15.96037569 137.84319243 -15.97167898 134.74279984 -15.98416138 131.64240074 C-16.00210302 126.73837507 -16.00408363 121.83442755 -16.00170898 116.93037415 C-16.00133983 116.10275548 -16.00097067 115.27513682 -16.00059032 114.4224388 C-15.99927258 111.8734226 -15.99771516 109.32440665 -15.99609375 106.77539062 C-15.98938121 96.21439191 -15.99425051 85.65388633 -16.05126953 75.09301758 C-16.09273804 67.39192638 -16.10249385 59.69152905 -16.07515907 51.99036437 C-16.0619113 47.91520569 -16.06479357 43.84148526 -16.10620117 39.76648521 C-16.14483554 35.93181267 -16.14144287 32.09946022 -16.10607719 28.26477814 C-16.1005399 26.85950699 -16.11033037 25.45407704 -16.13676643 24.04904366 C-16.32342239 13.45682396 -16.32342239 13.45682396 -13.06369019 9.86850929 C-10.76078695 8.29622278 -8.55271053 7.11218276 -6 6 C-2.60154578 4.45411248 -1.41065893 3.52664732 0 0 Z " fill="#868686" transform="translate(337,108)"/>
<path d="M0 0 C0.99 0.495 0.99 0.495 2 1 C-0.28819146 2.50554634 -2.58021169 4.00457043 -4.875 5.5 C-5.52597656 5.92925781 -6.17695313 6.35851562 -6.84765625 6.80078125 C-11.7734375 10 -11.7734375 10 -14 10 C-13.99262566 10.77599297 -13.98525131 11.55198593 -13.9776535 12.35149384 C-13.8008503 31.2476739 -13.66853264 50.14368852 -13.58550262 69.04051971 C-13.5442807 78.17900834 -13.48809824 87.31694429 -13.39648438 96.45507812 C-13.3166558 104.42148351 -13.26511297 112.3874886 -13.24729204 120.35428286 C-13.23687712 124.57148588 -13.21246644 128.78754389 -13.15415955 133.00437927 C-13.09967158 136.97738362 -13.08314341 140.94877662 -13.09513855 144.92211914 C-13.09294577 146.37659987 -13.07713846 147.83113697 -13.0463562 149.28529358 C-12.82531063 160.27054685 -12.82531063 160.27054685 -15.76515198 164.59877014 C-17.74728127 166.58752417 -19.78014665 168.28775012 -22 170 C-23.34736973 171.65533995 -24.68334336 173.32012773 -26 175 C-30.0248256 179.26158005 -34.42182758 183.1124249 -38.79296875 187.01171875 C-40.2286351 188.30508896 -41.6336281 189.6336281 -43 191 C-45.43759155 191.32125854 -45.43759155 191.32125854 -48.54443359 191.41748047 C-49.70679535 191.45606171 -50.8691571 191.49464294 -52.06674194 191.53439331 C-57.41991861 191.65006323 -62.77243294 191.7491737 -68.12646484 191.81005859 C-70.94280631 191.84548732 -73.75506341 191.91473279 -76.56982422 192.01513672 C-102.45216634 192.91785072 -102.45216634 192.91785072 -109.23428345 186.83987427 C-111.48445948 184.36007435 -113.23847666 181.85552696 -115 179 C-115.52475324 178.3721397 -116.04950647 177.7442794 -116.59016132 177.09739304 C-118.23569489 174.64936072 -118.38158557 173.37781848 -118.39872742 170.45684814 C-118.41126556 169.551035 -118.42380371 168.64522186 -118.4367218 167.71195984 C-118.43528671 166.72581192 -118.43385162 165.739664 -118.43237305 164.72363281 C-118.4425647 163.67941666 -118.45275635 162.6352005 -118.46325684 161.55934143 C-118.49345544 158.10721519 -118.50266348 154.65536613 -118.51171875 151.203125 C-118.5285603 148.80986606 -118.54670982 146.41661599 -118.56611633 144.02337646 C-118.61367909 137.72368136 -118.64344801 131.42402223 -118.66955566 125.12420654 C-118.69932941 118.69601333 -118.7458707 112.26794414 -118.79101562 105.83984375 C-118.87712022 93.22662987 -118.9450031 80.61338591 -119 68 C-117.02 67.505 -117.02 67.505 -115 67 C-114.67 68.65 -114.34 70.3 -114 72 C-114.66 72 -115.32 72 -116 72 C-116.03148787 85.30885453 -116.02541226 98.61711311 -115.97153378 111.9259119 C-115.94769187 118.10596989 -115.93673339 124.2854886 -115.95532227 130.46557617 C-115.9727901 136.43111708 -115.95627953 142.39568959 -115.91632271 148.36111259 C-115.9070368 150.63562793 -115.90994314 152.91022714 -115.92530632 155.18470955 C-115.94475689 158.37430024 -115.92065012 161.56083894 -115.88647461 164.75024414 C-115.9022908 165.68820328 -115.91810699 166.62616241 -115.93440247 167.59254456 C-115.83074279 172.62863355 -115.23094071 175.32708948 -111.62037659 178.96482849 C-110.42715667 179.99252433 -109.22100042 181.00546971 -108 182 C-105.66666667 184.33333333 -103.33333333 186.66666667 -101 189 C-93.49487554 190.42553623 -85.59468001 190.3609813 -77.97924805 190.6340332 C-75.40982388 190.75110913 -72.84213644 190.92033436 -70.2800293 191.14672852 C-57.86448703 192.22137626 -46.69644579 192.07812332 -36.71473694 184.08361816 C-34.28405768 182.00167838 -31.98604176 179.81881117 -29.71899414 177.56054688 C-29.12167614 176.97169161 -28.52435814 176.38283635 -27.9089396 175.77613699 C-17.27935665 164.97695729 -13.99292067 155.5134379 -13.93235874 140.55692291 C-13.97792376 136.6210358 -14.15860448 132.69743549 -14.35681868 128.76673102 C-14.53448156 124.59895653 -14.54548868 120.43046351 -14.5741272 116.25947571 C-14.65067126 108.40051559 -14.85651795 100.55132434 -15.11898005 92.69658262 C-15.58593809 78.58792961 -15.82440837 64.4741909 -16.01773036 50.3594411 C-16.09060992 45.41663926 -16.22033384 40.47958167 -16.39901137 35.53950441 C-16.5027203 32.47933618 -16.57055349 29.41905095 -16.6304493 26.35774422 C-16.66636883 24.94229926 -16.71806702 23.52715153 -16.78685188 22.11292267 C-17.29660889 11.43728542 -17.29660889 11.43728542 -14.08693314 7.87937355 C-11.78168688 6.31760178 -9.53406987 5.14357331 -7 4 C-5.68194667 3.19654004 -4.36881961 2.38489989 -3.0625 1.5625 C-2.051875 1.046875 -1.04125 0.53125 0 0 Z " fill="#606060" transform="translate(299,82)"/>
<path d="M0 0 C1.65 0.33 3.3 0.66 5 1 C4.83632022 1.51748401 4.67264044 2.03496801 4.50400066 2.56813335 C3.84902593 5.72846888 3.90556946 8.68083931 3.93598938 11.90986633 C3.9433993 12.95267416 3.9433993 12.95267416 3.95095891 14.01654881 C3.96234461 15.5388906 3.97607272 17.06121622 3.99183464 18.58351898 C4.02639765 21.92996065 4.0496369 25.27645789 4.07382143 28.6229881 C4.08699951 30.42554707 4.10078549 32.22810167 4.11513484 34.03065169 C4.20595049 45.61484181 4.22373728 57.19925063 4.24606192 68.78373969 C4.26836554 80.05700545 4.31300689 91.3290738 4.4284668 102.60180664 C4.52009095 111.5607144 4.56173041 120.51830205 4.54560155 129.47768563 C4.53889653 134.21386941 4.55657982 138.94700685 4.63485146 143.68261147 C5.14869404 176.33712432 5.14869404 176.33712432 -1.77928638 184.6546278 C-4.09280624 186.91141133 -6.486501 188.8338746 -9.1550808 190.65299797 C-12.44912776 193.058029 -15.12305352 196.0905962 -17.9140625 199.046875 C-19.03150652 200.17290451 -20.15214251 201.29578446 -21.27734375 202.4140625 C-23.55253993 204.68059761 -25.8231337 206.95154011 -28.08984375 209.2265625 C-29.1975952 210.33365508 -30.30565576 211.44043848 -31.4140625 212.546875 C-31.91821686 213.05305359 -32.42237122 213.55923218 -32.94180298 214.08074951 C-40.2752489 221.36553485 -40.2752489 221.36553485 -47.06616211 221.41650391 C-48.29100815 221.43307037 -49.51585419 221.44963684 -50.77781677 221.46670532 C-52.75758263 221.47158463 -52.75758263 221.47158463 -54.77734375 221.4765625 C-56.14971951 221.49088092 -57.52208094 221.50663945 -58.89442444 221.52377319 C-62.50427394 221.56559891 -66.11403463 221.59060758 -69.72406006 221.61126709 C-75.49821676 221.64709186 -81.27215346 221.70827945 -87.04608345 221.76975632 C-89.05842547 221.78876571 -91.07083578 221.80003811 -93.08323669 221.81118774 C-94.31123489 221.82144989 -95.53923309 221.83171204 -96.80444336 221.84228516 C-97.88269882 221.84878082 -98.96095428 221.85527649 -100.07188416 221.86196899 C-102.8204959 221.9915382 -105.32393071 222.37917929 -108 223 C-108 221.35 -108 219.7 -108 218 C-107.28845261 218.1489119 -106.57690521 218.29782379 -105.84379578 218.45124817 C-97.61166245 220.03975824 -89.26673693 220.76391156 -80.90521717 221.25824261 C-77.55257229 221.46283725 -74.28792114 221.76039046 -70.95581055 222.22338867 C-52.90945488 224.66189859 -39.24848849 219.35300422 -24.85523987 208.42131042 C-8.40402585 194.89335232 0.94350886 180.91583711 3.1071614 159.65135086 C4.93740131 138.20778443 4.02815609 116.60622086 3.02514893 95.14224488 C2.54799198 84.74816887 2.32288459 74.35267674 2.11359143 63.95030951 C1.67907217 42.62134907 0.94460031 21.31208663 0 0 Z " fill="#6A6A6A" transform="translate(109,67)"/>
<path d="M0 0 C0.99 1.32 1.98 2.64 3 4 C2.55269531 4.37511719 2.10539062 4.75023437 1.64453125 5.13671875 C0.73767578 5.90435547 0.73767578 5.90435547 -0.1875 6.6875 C-0.77917969 7.18636719 -1.37085937 7.68523437 -1.98046875 8.19921875 C-6.17966439 11.94356922 -10.04944217 16.05460705 -14.01171875 20.046875 C-15.4208289 21.46287807 -16.82994645 22.87887385 -18.23950195 24.29443359 C-19.21108661 25.2710965 -20.18177923 26.24864755 -21.15161133 27.22705078 C-22.56096541 28.64849113 -23.97378963 30.06648823 -25.38671875 31.484375 C-26.22420654 32.32709961 -27.06169434 33.16982422 -27.92456055 34.03808594 C-31.49351622 37.4118217 -33.90440132 37.14122846 -38.74121094 37.18945312 C-39.780578 37.20189308 -39.780578 37.20189308 -40.84094238 37.21458435 C-42.34799656 37.2319981 -43.85507801 37.24716129 -45.36217499 37.26036072 C-47.75000553 37.28138764 -50.13770087 37.30841409 -52.52545166 37.33703613 C-57.60024891 37.39677162 -62.67510992 37.44885343 -67.75 37.5 C-73.61723096 37.55931126 -79.48439643 37.62177041 -85.35150909 37.69187927 C-87.69897865 37.71835085 -90.04645505 37.73923289 -92.39398193 37.7598877 C-93.84306139 37.77650394 -95.29213793 37.79337692 -96.74121094 37.81054688 C-98.63078522 37.82933899 -98.63078522 37.82933899 -100.55853271 37.84851074 C-104.00661775 37.92933722 -104.00661775 37.92933722 -107.39117432 38.57434082 C-108.25208679 38.71480835 -109.11299927 38.85527588 -110 39 C-111 38 -111 38 -111.0625 35.4375 C-111.041875 34.633125 -111.02125 33.82875 -111 33 C-109.34385343 32.61781233 -107.67542976 32.28604898 -106 32 C-105.67 32.33 -105.34 32.66 -105 33 C-93.76339018 34.46165057 -82.31562344 34.76790568 -71 35.125 C-69.76171448 35.16528824 -69.76171448 35.16528824 -68.49841309 35.20639038 C-41.49441799 36.08133749 -41.49441799 36.08133749 -18.421875 23.45828247 C-11.31492179 16.41881114 -5.27965239 8.47695741 0 0 Z " fill="#909090" transform="translate(111,293)"/>
<path d="M0 0 C0.66 0.33 1.32 0.66 2 1 C-0.62042843 2.67394001 -3.24705905 4.3378835 -5.875 6 C-6.62136719 6.47695312 -7.36773437 6.95390625 -8.13671875 7.4453125 C-8.85214844 7.89648438 -9.56757813 8.34765625 -10.3046875 8.8125 C-10.96452637 9.23144531 -11.62436523 9.65039062 -12.30419922 10.08203125 C-14 11 -14 11 -16 11 C-15.9800145 11.87981537 -15.96002899 12.75963074 -15.93943787 13.66610718 C-15.75846835 21.99204758 -15.62176383 30.31731976 -15.53369045 38.64478111 C-15.48688538 42.92534221 -15.42349735 47.20426721 -15.32104492 51.48388672 C-15.22263841 55.62079342 -15.16931713 59.75613559 -15.14610481 63.89412308 C-15.12958287 65.46586345 -15.0973172 67.03752623 -15.04842949 68.60859299 C-14.81533814 76.41584419 -14.71940129 82.51943818 -20.203125 88.68530273 C-21.77270569 90.15553969 -23.36931465 91.59784254 -25 93 C-26.01315588 94.03438886 -27.01722707 95.07787405 -28.00610352 96.13549805 C-29.30439087 97.43547729 -29.30439087 97.43547729 -30.62890625 98.76171875 C-31.10770737 99.24147659 -31.58650848 99.72123444 -32.07981873 100.2155304 C-33.0740422 101.210423 -34.06948325 102.2041004 -35.06616211 103.1965332 C-36.56806925 104.69304925 -38.06451062 106.194883 -39.56054688 107.69726562 C-44.38544936 112.52514871 -49.25716606 117.24531108 -54.45678711 121.67114258 C-57.29115314 123.9585837 -57.29115314 123.9585837 -58.2784729 127.32852173 C-58.29179657 128.3011496 -58.30512024 129.27377747 -58.31884766 130.27587891 C-58.33871735 131.3768692 -58.35858704 132.4778595 -58.37905884 133.61221313 C-58.39061005 134.80494843 -58.40216125 135.99768372 -58.4140625 137.2265625 C-58.43342865 138.44451508 -58.4527948 139.66246765 -58.4727478 140.91732788 C-58.53268215 144.8198133 -58.57898471 148.72232799 -58.625 152.625 C-58.66316699 155.2656381 -58.70221795 157.90626357 -58.7421875 160.546875 C-58.83839504 167.03113826 -58.92340176 173.51547708 -59 180 C-58.34 180 -57.68 180 -57 180 C-57.33 181.65 -57.66 183.3 -58 185 C-59.32 184.67 -60.64 184.34 -62 184 C-62 182.68 -62 181.36 -62 180 C-61.34 180 -60.68 180 -60 180 C-60.02442673 179.32507507 -60.04885345 178.65015015 -60.07402039 177.95477295 C-60.31881965 170.88163844 -60.48385777 163.8097199 -60.60424805 156.73339844 C-60.65931073 154.09878612 -60.73418845 151.46450602 -60.82983398 148.83105469 C-61.68952288 124.53909678 -61.68952288 124.53909678 -56.26911926 118.00579834 C-54.00841461 115.77126907 -51.55452136 113.88631281 -49 112 C-47.24552086 110.254242 -45.51247806 108.4863726 -43.8125 106.6875 C-40.99396581 103.89551401 -38.13895013 101.20394702 -35.125 98.625 C-34.23697441 97.83798203 -34.23697441 97.83798203 -33.33100891 97.0350647 C-31.59297961 95.51769509 -29.81171104 94.04958471 -28.00993347 92.60848999 C-22.80012912 88.20100411 -18.49431429 84.33201656 -17.76111317 77.18657875 C-17.66010869 74.30814882 -17.68950986 71.45763255 -17.82113075 68.58052444 C-17.92839424 66.23184763 -17.96002504 63.89183902 -17.97465515 61.54086304 C-18.01216809 57.40822031 -18.11346924 53.28017096 -18.23706055 49.14929199 C-18.4351933 42.51953927 -18.58153207 35.89160406 -18.63881493 29.25910568 C-18.67516774 26.95298218 -18.76780106 24.65379424 -18.86433411 22.34951782 C-19.10573417 12.27725893 -19.10573417 12.27725893 -16.04743958 8.74455261 C-13.74758515 7.19106407 -11.55745127 6.06221512 -9 5 C-8.08347656 4.43410156 -7.16695312 3.86820312 -6.22265625 3.28515625 C-5.50980469 2.88167969 -4.79695313 2.47820312 -4.0625 2.0625 C-3.33160156 1.64097656 -2.60070312 1.21945313 -1.84765625 0.78515625 C-1.23792969 0.52605469 -0.62820313 0.26695313 0 0 Z " fill="#7F7F7F" transform="translate(261,69)"/>
<path d="M0 0 C2.475 0.495 2.475 0.495 5 1 C4.76171875 2.90625 4.76171875 2.90625 4 5 C2.14453125 5.90625 2.14453125 5.90625 -0.1875 6.5 C-4.47576463 7.73594888 -7.3786223 9.43853773 -11 12 C-11.66 12 -12.32 12 -13 12 C-12.99539104 12.75206789 -12.99078207 13.50413578 -12.98603344 14.27899361 C-12.87559126 32.5820595 -12.79286148 50.88505886 -12.74093914 69.18838692 C-12.71516216 78.03977554 -12.68002144 86.89094168 -12.62280273 95.7421875 C-12.57295211 103.45733472 -12.5407053 111.17232082 -12.52955753 118.88762462 C-12.52304151 122.972559 -12.50773811 127.05703242 -12.47134972 131.141819 C-12.43736364 134.9881646 -12.42695205 138.83386023 -12.43446159 142.68034172 C-12.43308818 144.09045763 -12.42317042 145.5005957 -12.40397263 146.91058159 C-12.24883988 158.89405855 -12.24883988 158.89405855 -15.53547668 162.88595581 C-16.34876938 163.58359039 -17.16206207 164.28122498 -18 165 C-18.33 164.01 -18.66 163.02 -19 162 C-18.34 162 -17.68 162 -17 162 C-15.92492912 158.77478737 -15.88580142 156.4898564 -15.90234375 153.09892273 C-15.90556137 151.86658905 -15.90877899 150.63425537 -15.91209412 149.36457825 C-15.92054354 147.99655139 -15.92901284 146.62852467 -15.9375 145.26049805 C-15.94265288 143.82153507 -15.94724218 142.38256997 -15.9513092 140.94360352 C-15.96037569 137.84319243 -15.97167898 134.74279984 -15.98416138 131.64240074 C-16.00210302 126.73837507 -16.00408363 121.83442755 -16.00170898 116.93037415 C-16.00133983 116.10275548 -16.00097067 115.27513682 -16.00059032 114.4224388 C-15.99927258 111.8734226 -15.99771516 109.32440665 -15.99609375 106.77539062 C-15.98938121 96.21439191 -15.99425051 85.65388633 -16.05126953 75.09301758 C-16.09273804 67.39192638 -16.10249385 59.69152905 -16.07515907 51.99036437 C-16.0619113 47.91520569 -16.06479357 43.84148526 -16.10620117 39.76648521 C-16.14483554 35.93181267 -16.14144287 32.09946022 -16.10607719 28.26477814 C-16.1005399 26.85950699 -16.11033037 25.45407704 -16.13676643 24.04904366 C-16.32342239 13.45682396 -16.32342239 13.45682396 -13.06369019 9.86850929 C-10.76078695 8.29622278 -8.55271053 7.11218276 -6 6 C-2.60154578 4.45411248 -1.41065893 3.52664732 0 0 Z " fill="#656565" transform="translate(337,108)"/>
<path d="M0 0 C2.0625 0.4375 2.0625 0.4375 4 1 C4 2.32 4 3.64 4 5 C3.34 5 2.68 5 2 5 C1.96851213 18.30885453 1.97458774 31.61711311 2.02846622 44.9259119 C2.05230813 51.10596989 2.06326661 57.2854886 2.04467773 63.46557617 C2.0272099 69.43111708 2.04372047 75.39568959 2.08367729 81.36111259 C2.0929632 83.63562793 2.09005686 85.91022714 2.07469368 88.18470955 C2.05524311 91.37430024 2.07934988 94.56083894 2.11352539 97.75024414 C2.0977092 98.68820328 2.08189301 99.62616241 2.06559753 100.59254456 C2.16925721 105.62863355 2.76905929 108.32708948 6.37962341 111.96482849 C7.57284333 112.99252433 8.77899958 114.00546971 10 115 C12.33333333 117.33333333 14.66666667 119.66666667 17 122 C19.50689829 122.3317253 19.50689829 122.3317253 22.45947266 122.31884766 C23.60050446 122.33871735 24.74153625 122.35858704 25.91714478 122.37905884 C27.15362762 122.39061005 28.39011047 122.40216125 29.6640625 122.4140625 C30.92640717 122.43342865 32.18875183 122.4527948 33.48934937 122.4727478 C36.84634212 122.52249045 40.20322315 122.56372572 43.56036377 122.60089111 C46.98565664 122.64088847 50.41078146 122.69200019 53.8359375 122.7421875 C60.55718381 122.8384006 67.27850305 122.92340582 74 123 C74 123.33 74 123.66 74 124 C66.51577526 124.27990472 59.03210171 124.49217425 51.5438118 124.62174606 C48.0649059 124.68399206 44.58961656 124.76814825 41.11279297 124.90527344 C15.52157753 125.8886756 15.52157753 125.8886756 8.79071045 119.84893799 C6.53673378 117.3656497 4.77143532 114.85537837 3 112 C2.21267046 111.05786541 2.21267046 111.05786541 1.40943527 110.09669781 C-0.23368723 107.65236324 -0.38348084 106.3801476 -0.40545654 103.46357727 C-0.4264315 102.1070253 -0.4264315 102.1070253 -0.4478302 100.72306824 C-0.44796616 99.73849136 -0.44810211 98.75391449 -0.44824219 97.73950195 C-0.46004013 96.69689209 -0.47183807 95.65428223 -0.48399353 94.58007812 C-0.51929406 91.13277304 -0.53336649 87.6857352 -0.546875 84.23828125 C-0.56625604 81.84741779 -0.58679943 79.4565635 -0.60845947 77.0657196 C-0.65082742 72.05644378 -0.68347903 67.04723388 -0.70849609 62.0378418 C-0.740799 55.60110505 -0.79042762 49.16465549 -0.84641647 42.72808552 C-0.88860768 37.79295211 -0.92511264 32.85779127 -0.9595108 27.92259789 C-0.97609754 25.54820241 -0.99367184 23.17381364 -1.01222992 20.79943275 C-1.03656121 17.49039773 -1.05406041 14.18140207 -1.06933594 10.87231445 C-1.07756882 9.88166489 -1.0858017 8.89101532 -1.09428406 7.87034607 C-1.09698807 6.97443756 -1.09969208 6.07852905 -1.10247803 5.1554718 C-1.10687771 4.37253407 -1.11127739 3.58959635 -1.11581039 2.78293324 C-1 1 -1 1 0 0 Z " fill="#707070" transform="translate(181,149)"/>
<path d="M0 0 C1.66611905 -0.042721 3.33382885 -0.04063832 5 0 C6 1 6 1 6.125 3.5 C6 6 6 6 5 7 C4.89156261 8.72054276 4.85313386 10.44552972 4.84178162 12.16944885 C4.8319928 13.28990601 4.82220398 14.41036316 4.81211853 15.56477356 C4.80636307 16.80482651 4.8006076 18.04487946 4.79467773 19.32250977 C4.77982834 21.26856613 4.77982834 21.26856613 4.76467896 23.25393677 C4.73756617 26.82192566 4.71659125 30.38992787 4.69667697 33.95796323 C4.67485658 37.68293278 4.64744865 41.407861 4.62062073 45.13279724 C4.57064029 52.19114364 4.52572139 59.24951292 4.48259836 66.30790418 C4.43327161 74.34165906 4.37833662 82.37537249 4.32291877 90.4090873 C4.20901662 106.93935335 4.10219561 123.46965735 4 140 C3.34 140 2.68 140 2 140 C2 96.11 2 52.22 2 7 C1.01 6.67 0.02 6.34 -1 6 C-0.67 4.02 -0.34 2.04 0 0 Z " fill="#979797" transform="translate(140,123)"/>
<path d="M0 0 C0 1.32 0 2.64 0 4 C-0.84691406 4.35707031 -1.69382812 4.71414063 -2.56640625 5.08203125 C-6.74385165 7.41550758 -9.6351583 10.26890424 -12.9375 13.6875 C-13.51951172 14.27466797 -14.10152344 14.86183594 -14.70117188 15.46679688 C-17.70939037 18.52831713 -20.59920406 21.65989491 -23.40234375 24.91015625 C-27.2822066 29.3885057 -31.42555302 33.57281157 -35.625 37.75 C-36.36234375 38.49121094 -37.0996875 39.23242188 -37.859375 39.99609375 C-38.93832031 41.07310547 -38.93832031 41.07310547 -40.0390625 42.171875 C-40.68053223 42.8122168 -41.32200195 43.45255859 -41.98291016 44.11230469 C-48.80632488 50.49800339 -48.80632488 50.49800339 -54.77540588 50.51225281 C-55.92923767 50.52472046 -57.08306946 50.53718811 -58.27186584 50.55003357 C-59.52865646 50.54343216 -60.78544708 50.53683075 -62.08032227 50.5300293 C-63.42431641 50.53713056 -64.76830222 50.54599549 -66.11227417 50.55648804 C-69.75479269 50.58007038 -73.39695269 50.57936971 -77.03952909 50.57457328 C-80.8534027 50.57397943 -84.66713335 50.59667804 -88.48094177 50.61714172 C-95.70441683 50.65254465 -102.92779132 50.66856784 -110.15134329 50.6769169 C-120.75462988 50.68987535 -131.35783201 50.72816907 -141.96103573 50.77101612 C-143.1275673 50.77572415 -143.1275673 50.77572415 -144.31766516 50.78052729 C-145.86827131 50.78680773 -147.41887721 50.79315131 -148.96948284 50.79955989 C-153.5102643 50.81761998 -158.0509963 50.82873041 -162.59181035 50.83385694 C-165.41522907 50.8376904 -168.23862986 50.84530513 -171.06203842 50.8536644 C-172.99590849 50.85803417 -174.92978788 50.85736437 -176.86366272 50.85655212 C-178.59018066 50.86256439 -178.59018066 50.86256439 -180.35157776 50.86869812 C-181.3516816 50.8699554 -182.35178545 50.87121267 -183.38219547 50.87250805 C-185.74465287 50.98756412 -187.7416147 51.32563612 -190 52 C-190.33 50.68 -190.66 49.36 -191 48 C-189.0625 47.4375 -189.0625 47.4375 -187 47 C-186.67 47.33 -186.34 47.66 -186 48 C-184.31742467 48.16805766 -182.62805388 48.2684472 -180.9387207 48.34231567 C-179.2917067 48.41591309 -179.2917067 48.41591309 -177.61141968 48.49099731 C-175.78702866 48.56337112 -175.78702866 48.56337112 -173.92578125 48.63720703 C-172.01534531 48.71693756 -172.01534531 48.71693756 -170.0663147 48.79827881 C-158.19188146 49.27811366 -146.31271363 49.56247776 -134.43107605 49.79193306 C-126.4611682 49.94972818 -118.50289476 50.16864864 -110.54003906 50.54443359 C-70.82060077 53.82925316 -70.82060077 53.82925316 -35.97889709 38.51753807 C-29.72149402 32.48758045 -24.31499875 25.77703827 -19.48608398 18.5632019 C-17.31435391 15.3233202 -14.83011469 12.69518522 -12 10 C-11.278125 9.071875 -10.55625 8.14375 -9.8125 7.1875 C-9.214375 6.465625 -8.61625 5.74375 -8 5 C-7.34 5 -6.68 5 -6 5 C-6 3.35 -6 1.7 -6 0 C-3.50907189 -1.24546405 -2.58919267 -0.7767578 0 0 Z " fill="#828282" transform="translate(342,295)"/>
<path d="M0 0 C1.65 0 3.3 0 5 0 C4.83236145 0.62894165 4.6647229 1.2578833 4.49200439 1.90588379 C3.81891077 6.13883357 3.99761107 10.2309318 4.12792969 14.50585938 C4.1773327 16.47950605 4.22559847 18.45318144 4.27288818 20.42687988 C4.29864677 21.47122696 4.32440536 22.51557404 4.35094452 23.59156799 C4.4980511 30.3364452 4.55188924 37.08279295 4.6147728 43.82889557 C4.67489799 49.73480901 4.77262806 55.63512128 4.95654297 61.53857422 C6.25172522 104.75887127 6.25172522 104.75887127 -3.31463623 116.9397583 C-12.14365951 125.76837789 -21.71656123 129.1699021 -34.08465576 129.25756836 C-37.39597754 129.15167289 -40.69349443 128.95520127 -44 128.75 C-46.27056671 128.68407823 -48.54144252 128.62803974 -50.8125 128.58203125 C-55.7627113 128.47402498 -60.69902121 128.27339428 -65.6418457 127.98309326 C-68.20791168 128.00149062 -70.50456411 128.42338943 -73 129 C-73 127.35 -73 125.7 -73 124 C-71.91185501 124.23662354 -71.91185501 124.23662354 -70.80172729 124.47802734 C-63.18402709 125.89723442 -55.23787902 125.71770123 -47.51171875 125.89941406 C-45.27075446 125.96597096 -43.03044218 126.06125419 -40.79199219 126.18652344 C-26.72195365 127.25224639 -26.72195365 127.25224639 -14.26074219 121.765625 C-11.02662858 118.74254139 -8.1834621 115.48193542 -5.54586792 111.92871094 C-4 110 -4 110 -1.3560791 107.87084961 C2.01513896 103.7630673 1.67666942 100.49603013 1.58349609 95.33203125 C1.58700073 93.87994766 1.58700073 93.87994766 1.59057617 92.39852905 C1.59218938 89.20263509 1.55816794 86.008189 1.5234375 82.8125 C1.51664689 80.58960491 1.51192541 78.36670261 1.50918579 76.14379883 C1.4957725 70.29289892 1.4514723 64.44260557 1.40161133 58.59191895 C1.36623462 53.81687431 1.35313601 49.04189124 1.34119225 44.26673889 C1.32639472 38.57362106 1.3011812 32.88056778 1.2734375 27.1875 C1.26852673 26.10111237 1.26361595 25.01472473 1.25855637 23.89541626 C1.24226035 20.81952939 1.21885356 17.7437873 1.19287109 14.66796875 C1.18861115 13.7587265 1.1843512 12.84948425 1.17996216 11.91268921 C1.13808423 7.81733207 1.02801331 3.99400756 0 0 Z " fill="#8C8C8C" transform="translate(74,112)"/>
<path d="M0 0 C0.66 0.33 1.32 0.66 2 1 C-0.28819146 2.50554634 -2.58021169 4.00457043 -4.875 5.5 C-5.85146484 6.14388672 -5.85146484 6.14388672 -6.84765625 6.80078125 C-11.7734375 10 -11.7734375 10 -14 10 C-13.89247745 20.10092146 -13.77983966 30.20177166 -13.66066074 40.30256271 C-13.60548294 44.99270039 -13.55207114 49.68284435 -13.50268555 54.37304688 C-13.45496618 58.898851 -13.40262061 63.42458008 -13.34705925 67.95029449 C-13.32667001 69.67744326 -13.3079513 71.40461259 -13.29092598 73.13179779 C-13.26680596 75.54985482 -13.23676187 77.96777079 -13.20532227 80.38574219 C-13.1995668 81.10071869 -13.19381134 81.81569519 -13.18788147 82.55233765 C-13.13927696 85.83839243 -13.00507753 88.85560298 -12 92 C-14.475 92.495 -14.475 92.495 -17 93 C-17.5625 91.0625 -17.5625 91.0625 -18 89 C-17.505 88.505 -17.505 88.505 -17 88 C-16.96004603 85.61777628 -16.98361638 83.26516336 -17.04858398 80.88500977 C-17.08135235 79.34031216 -17.11333257 77.79559769 -17.14463806 76.25086975 C-17.16228651 75.42711412 -17.17993496 74.6033585 -17.19811821 73.75464058 C-17.29686043 68.47904708 -17.32148949 63.20251815 -17.35571194 57.92617893 C-17.38994119 53.29051912 -17.45275096 48.65878387 -17.5793457 44.0246582 C-17.70033461 39.54185839 -17.74203557 35.06437777 -17.73127937 30.58003044 C-17.74107315 28.87695585 -17.77895171 27.17378743 -17.84631157 25.47201729 C-18.33456546 12.52655285 -18.33456546 12.52655285 -14.37785721 8.24445724 C-9.99037745 4.67315368 -5.2377856 2.0999044 0 0 Z " fill="#595959" transform="translate(178,97)"/>
<path d="M0 0 C0.99 0.33 1.98 0.66 3 1 C-1.90776388 5.93313221 -6.81945455 10.86232919 -11.73388672 15.78881836 C-13.40504031 17.46499871 -15.07529501 19.14207575 -16.74462891 20.82006836 C-19.14509749 23.23267495 -21.54878681 25.64203175 -23.953125 28.05078125 C-25.0705307 29.17592888 -25.0705307 29.17592888 -26.21051025 30.32380676 C-27.26114655 31.37455635 -27.26114655 31.37455635 -28.33300781 32.4465332 C-28.94589661 33.06164261 -29.5587854 33.67675201 -30.19024658 34.3105011 C-34.2475903 38.0982424 -36.38037837 39.37382937 -42.06616211 39.41650391 C-43.29100815 39.43307037 -44.51585419 39.44963684 -45.77781677 39.46670532 C-47.09766068 39.46995819 -48.41750458 39.47321106 -49.77734375 39.4765625 C-51.14971951 39.49088092 -52.52208094 39.50663945 -53.89442444 39.52377319 C-57.50427394 39.56559891 -61.11403463 39.59060758 -64.72406006 39.61126709 C-70.49821676 39.64709186 -76.27215346 39.70827945 -82.04608345 39.76975632 C-84.05842547 39.78876571 -86.07083578 39.80003811 -88.08323669 39.81118774 C-89.31123489 39.82144989 -90.53923309 39.83171204 -91.80444336 39.84228516 C-92.88269882 39.84878082 -93.96095428 39.85527649 -95.07188416 39.86196899 C-97.8204959 39.9915382 -100.32393071 40.37917929 -103 41 C-103 39.35 -103 37.7 -103 36 C-102.29008911 36.1505484 -101.58017822 36.3010968 -100.84875488 36.45620728 C-90.54906374 38.42229328 -79.96003777 38.92411831 -69.5 39.375 C-68.47116385 39.42042435 -68.47116385 39.42042435 -67.42154312 39.46676636 C-49.7214214 40.1589878 -35.73516185 38.83504321 -22.04873657 26.30209351 C-13.90807502 18.23303788 -6.61762659 9.34989231 0 0 Z " fill="#6F6F6F" transform="translate(104,249)"/>
<path d="M0 0 C0.66 0.33 1.32 0.66 2 1 C-0.62042843 2.67394001 -3.24705905 4.3378835 -5.875 6 C-6.62136719 6.47695312 -7.36773437 6.95390625 -8.13671875 7.4453125 C-8.85214844 7.89648438 -9.56757813 8.34765625 -10.3046875 8.8125 C-10.96452637 9.23144531 -11.62436523 9.65039062 -12.30419922 10.08203125 C-14 11 -14 11 -16 11 C-15.98667633 11.8864772 -15.97335266 12.77295441 -15.95962524 13.68629456 C-15.83919586 22.05747696 -15.74794817 30.42836672 -15.68912697 38.80021763 C-15.6578688 43.10392396 -15.61549901 47.40691207 -15.54736328 51.71020508 C-15.48197062 55.86645967 -15.4462525 60.02202532 -15.43073654 64.17875481 C-15.41968556 65.76120787 -15.39810461 67.34362496 -15.36561966 68.92578316 C-15.09058204 82.88162574 -15.09058204 82.88162574 -19.03662109 87.52709961 C-20.01453613 88.34315674 -20.99245117 89.15921387 -22 90 C-22.99 89.67 -23.98 89.34 -25 89 C-23.5301062 88.01386719 -23.5301062 88.01386719 -22.03051758 87.0078125 C-18.1527408 83.08979282 -18.36987737 78.99175887 -18.36987019 73.69540405 C-18.38938979 72.20175904 -18.41826752 70.70821298 -18.45551109 69.21490479 C-18.5124891 66.84293057 -18.52908306 64.47369311 -18.53486633 62.10107422 C-18.55887732 55.36141657 -18.65840735 48.62335879 -18.77661133 41.88476562 C-18.84630216 37.75377505 -18.87214148 33.62428371 -18.87244606 29.49273682 C-18.88190649 27.92331961 -18.9086847 26.35390453 -18.95337486 24.78509521 C-19.30250299 12.50317735 -19.30250299 12.50317735 -16.03407288 8.73118591 C-13.73766716 7.18008336 -11.55519979 6.05626434 -9 5 C-8.08347656 4.43410156 -7.16695312 3.86820312 -6.22265625 3.28515625 C-5.50980469 2.88167969 -4.79695313 2.47820312 -4.0625 2.0625 C-3.33160156 1.64097656 -2.60070312 1.21945313 -1.84765625 0.78515625 C-1.23792969 0.52605469 -0.62820313 0.26695313 0 0 Z " fill="#616161" transform="translate(261,69)"/>
<path d="M0 0 C0.99 1.32 1.98 2.64 3 4 C2.32904297 4.56267578 2.32904297 4.56267578 1.64453125 5.13671875 C0.73767578 5.90435547 0.73767578 5.90435547 -0.1875 6.6875 C-0.77917969 7.18636719 -1.37085937 7.68523437 -1.98046875 8.19921875 C-4.41950341 10.37406397 -6.69504487 12.6833361 -9 15 C-16 22 -23 29 -30 36 C-30.66 34.68 -31.32 33.36 -32 32 C-21.44 21.44 -10.88 10.88 0 0 Z " fill="#898989" transform="translate(111,293)"/>
<path d="M0 0 C0 1.32 0 2.64 0 4 C-0.84691406 4.35707031 -1.69382812 4.71414063 -2.56640625 5.08203125 C-6.74385165 7.41550758 -9.6351583 10.26890424 -12.9375 13.6875 C-13.51951172 14.27466797 -14.10152344 14.86183594 -14.70117188 15.46679688 C-17.70389741 18.52272685 -20.5873022 21.64805433 -23.3828125 24.89453125 C-27.35408405 29.48035804 -31.62581617 33.73634693 -35.9375 38 C-37.10635742 39.16208984 -37.10635742 39.16208984 -38.29882812 40.34765625 C-40.1969242 42.23410757 -42.09733149 44.11816245 -44 46 C-44.66 45.34 -45.32 44.68 -46 44 C-37.40991211 35.40991211 -28.81982422 26.81982422 -20.22973633 18.22973633 C-19.68008209 17.67927643 -19.13042786 17.12881653 -18.56411743 16.56167603 C-17.11842347 15.11823862 -15.66442964 13.68312692 -14.2097168 12.2487793 C-11.9063863 9.99120022 -11.9063863 9.99120022 -9.8125 7.1875 C-9.214375 6.465625 -8.61625 5.74375 -8 5 C-7.34 5 -6.68 5 -6 5 C-6 3.35 -6 1.7 -6 0 C-3.50907189 -1.24546405 -2.58919267 -0.7767578 0 0 Z " fill="#808080" transform="translate(342,295)"/>
<path d="M0 0 C0.99 1.485 0.99 1.485 2 3 C-3.61119064 8.04424787 -7.57529863 9.88584652 -15.09057617 9.75708008 C-16.39701332 9.77061523 -16.39701332 9.77061523 -17.72984314 9.78442383 C-20.58484923 9.80727356 -23.43796121 9.7884974 -26.29296875 9.76953125 C-28.28739275 9.77825137 -30.28180637 9.78974383 -32.27619934 9.80387878 C-37.51047189 9.83420737 -42.74413131 9.82985022 -47.97845459 9.81726074 C-54.34180305 9.80782047 -60.70507042 9.83630495 -67.06835651 9.86232281 C-72.01792609 9.88229311 -76.96718247 9.89560527 -81.91679382 9.88813782 C-82.82676117 9.88845505 -83.73672852 9.88877228 -84.67427063 9.88909912 C-86.36793352 9.88961139 -88.06160341 9.88643462 -89.75524902 9.87876892 C-93.62937845 9.88452339 -97.23479015 10.05081878 -101 11 C-101 9.35 -101 7.7 -101 6 C-100.35357544 6.16102203 -99.70715088 6.32204407 -99.0411377 6.48794556 C-95.13727819 7.1452616 -91.28863651 7.17202081 -87.34179688 7.19287109 C-86.48103043 7.20104858 -85.62026398 7.20922607 -84.7334137 7.21765137 C-81.89519941 7.24239318 -79.05703456 7.2589876 -76.21875 7.2734375 C-75.24767807 7.27876118 -74.27660614 7.28408485 -73.27610779 7.28956985 C-68.14159943 7.31624554 -63.00711499 7.33564302 -57.87255859 7.35009766 C-53.62396856 7.36346492 -49.37585563 7.39137673 -45.12744141 7.43212891 C-39.99285559 7.48137525 -34.85870412 7.50620774 -29.72389221 7.51332474 C-27.76863355 7.52004423 -25.81338486 7.53528439 -23.85826111 7.55921555 C-21.12439126 7.59078496 -18.39220688 7.59091715 -15.65820312 7.58349609 C-14.44862694 7.6081041 -14.44862694 7.6081041 -13.21461487 7.63320923 C-9.12190031 7.58772514 -7.28149562 7.23277975 -4.0838623 4.58853149 C-3.39618774 3.7343161 -2.70851318 2.88010071 -2 2 C-1.34 1.34 -0.68 0.68 0 0 Z " fill="#797979" transform="translate(102,359)"/>
<path d="M0 0 C0.99 0.495 0.99 0.495 2 1 C-3.08211039 9.56607974 -9.52974922 18.14360342 -19 22 C-34.25174026 25.50414044 -51.14101463 23.89348511 -66.6418457 22.98309326 C-69.20791168 23.00149062 -71.50456411 23.42338943 -74 24 C-74 22.35 -74 20.7 -74 19 C-73.27457001 19.15774902 -72.54914001 19.31549805 -71.80172729 19.47802734 C-64.18402709 20.89723442 -56.23787902 20.71770123 -48.51171875 20.89941406 C-46.27075446 20.96597096 -44.03044218 21.06125419 -41.79199219 21.18652344 C-27.72195365 22.25224639 -27.72195365 22.25224639 -15.26074219 16.765625 C-11.97989309 13.69885545 -9.1336231 10.37101867 -6.41400146 6.80273438 C-4.46269956 4.31498658 -2.28395647 2.18194222 0 0 Z " fill="#858585" transform="translate(75,217)"/>
<path d="M0 0 C0.33 0 0.66 0 1 0 C1.17800729 6.56493425 1.30028852 13.12924289 1.38452148 19.69604492 C1.41964699 21.92805232 1.46735957 24.15989953 1.52807617 26.39135742 C1.61334144 29.60635942 1.65276794 32.81922694 1.68359375 36.03515625 C1.71972275 37.02709488 1.75585175 38.01903351 1.79307556 39.04103088 C1.79692242 45.88356482 1.79692242 45.88356482 -0.53024292 49.14376831 C-2.27748852 50.88897144 -4.09004936 52.43826179 -6 54 C-7.34294481 55.65893182 -8.67744688 57.32476605 -10 59 C-15.44031028 64.76032853 -21.39768688 70.59845792 -28 75 C-26.46696753 70.89690067 -23.87657078 69.25338547 -20.37109375 66.7578125 C-11.21651056 59.69650699 -1.83696787 52.26220633 0.2734375 40.31884766 C1.8664346 26.97253562 1.06496229 13.3619088 0 0 Z " fill="#818181" transform="translate(283,198)"/>
<path d="M0 0 C0.33 0 0.66 0 1 0 C1.00808685 0.93516449 1.01617371 1.87032898 1.02450562 2.83383179 C1.1018864 11.63358546 1.18960492 20.43318299 1.28752708 29.23273277 C1.33753915 33.75701182 1.38386856 38.28126696 1.421875 42.80566406 C1.45866604 47.16942978 1.50500872 51.53299777 1.55806351 55.896595 C1.57664045 57.56397672 1.59173613 59.23140087 1.60334396 60.89884567 C1.62015033 63.22883233 1.64917067 65.55836288 1.68115234 67.88818359 C1.68331253 68.58229843 1.68547272 69.27641327 1.68769836 69.99156189 C1.66348305 73.93779378 1.66348305 73.93779378 4 77 C3.625 79.125 3.625 79.125 3 81 C1.35 80.67 -0.3 80.34 -2 80 C-1.75885216 79.23988617 -1.75885216 79.23988617 -1.51283264 78.4644165 C-0.82697171 75.16851279 -0.82238416 71.92115851 -0.79467773 68.56933594 C-0.78477814 67.82748047 -0.77487854 67.085625 -0.76467896 66.32128906 C-0.73315853 63.87568321 -0.70834405 61.43005795 -0.68359375 58.984375 C-0.66301605 57.2861481 -0.64201936 55.58792623 -0.62062073 53.88970947 C-0.56548433 49.4247241 -0.51603793 44.95969315 -0.46777344 40.49462891 C-0.41749678 35.93648228 -0.36184291 31.37840166 -0.30664062 26.8203125 C-0.19916222 17.88026475 -0.09769441 8.94015964 0 0 Z " fill="#6B6B6B" transform="translate(162,109)"/>
<path d="M0 0 C0.66 0.33 1.32 0.66 2 1 C-3.75 5 -3.75 5 -6 5 C-6 26.45 -6 47.9 -6 70 C-5.34 70 -4.68 70 -4 70 C-4.33 71.65 -4.66 73.3 -5 75 C-6.32 74.67 -7.64 74.34 -9 74 C-9 72.68 -9 71.36 -9 70 C-8.34 70 -7.68 70 -7 70 C-7 48.22 -7 26.44 -7 4 C-4.69 2.68 -2.38 1.36 0 0 Z " fill="#808080" transform="translate(130,78)"/>
<path d="M0 0 C0.99 0.495 0.99 0.495 2 1 C0.19942422 3.35291279 -0.70025949 3.9561719 -3.68087769 4.39199829 C-4.76055817 4.40008514 -5.84023865 4.408172 -6.95263672 4.41650391 C-8.79001907 4.44135361 -8.79001907 4.44135361 -10.66452026 4.46670532 C-12.00290892 4.4701597 -13.34129803 4.47344118 -14.6796875 4.4765625 C-16.05349253 4.49087636 -17.42728322 4.50663407 -18.80105591 4.52377319 C-22.41914 4.5656501 -26.03713525 4.5906238 -29.65539551 4.61126709 C-35.43946096 4.64705367 -41.22330613 4.70827476 -47.00714493 4.76975632 C-49.02395847 4.78877276 -51.04071353 4.80055802 -53.05758667 4.81118774 C-54.28881256 4.82144989 -55.52003845 4.83171204 -56.78857422 4.84228516 C-57.86984589 4.84878082 -58.95111755 4.85527649 -60.06515503 4.86196899 C-62.81641055 4.99136546 -65.32146801 5.37831613 -68 6 C-68 4.35 -68 2.7 -68 1 C-67.30154465 1.16200394 -66.60308929 1.32400787 -65.88346863 1.49092102 C-62.81825995 2.03208637 -59.9765341 2.13414114 -56.86450195 2.14526367 C-55.65006912 2.15164352 -54.43563629 2.15802338 -53.18440247 2.16459656 C-51.88218246 2.16570938 -50.57996246 2.1668222 -49.23828125 2.16796875 C-47.88258326 2.17118386 -46.52688562 2.17454812 -45.17118835 2.17805481 C-42.33766881 2.18402744 -39.50417969 2.18589641 -36.6706543 2.18530273 C-33.03550268 2.18520071 -29.40054462 2.1989025 -25.76543903 2.21607494 C-22.96967159 2.22717169 -20.1739515 2.22922274 -17.37816429 2.22869301 C-15.38501415 2.2304496 -13.39187878 2.24129625 -11.39875793 2.25224304 C-10.19378159 2.24916641 -8.98880524 2.24608978 -7.74731445 2.24291992 C-6.68317825 2.24434494 -5.61904205 2.24576996 -4.5226593 2.24723816 C-1.82956597 2.25274205 -1.82956597 2.25274205 0 0 Z " fill="#919191" transform="translate(69,284)"/>
<path d="M0 0 C0 3 0 3 -1.46040344 4.83462524 C-2.14418564 5.51777802 -2.82796783 6.20093079 -3.5324707 6.90478516 C-4.30359695 7.6821402 -5.07472321 8.45949524 -5.86921692 9.26040649 C-6.71288315 10.09486298 -7.55654938 10.92931946 -8.42578125 11.7890625 C-9.28431198 12.64809174 -10.14284271 13.50712097 -11.02738953 14.3921814 C-12.84727003 16.20971804 -14.67085269 18.02355403 -16.49780273 19.83398438 C-19.29908938 22.61170222 -22.08685093 25.40246692 -24.87304688 28.1953125 C-26.6398343 29.95652273 -28.40738718 31.71696548 -30.17578125 33.4765625 C-31.01337479 34.31506744 -31.85096832 35.15357239 -32.71394348 36.01748657 C-33.49452621 36.78853729 -34.27510895 37.55958801 -35.0793457 38.35400391 C-35.76551468 39.03556549 -36.45168365 39.71712708 -37.15864563 40.41934204 C-39 42 -39 42 -42 43 C-40.61109744 39.77190977 -39.06436232 37.95379442 -36.36132812 35.73022461 C-32.09924237 32.1199442 -28.15128153 28.27975275 -24.21875 24.31640625 C-23.51979614 23.61603745 -22.82084229 22.91566864 -22.10070801 22.19407654 C-19.89808461 19.98591542 -17.69898919 17.77427963 -15.5 15.5625 C-13.99502492 14.05250186 -12.48981865 12.5427341 -10.984375 11.03320312 C-7.32024171 7.35812359 -3.6592652 3.67992644 0 0 Z " fill="#818181" transform="translate(317,272)"/>
<path d="M0 0 C0 0.99 0 1.98 0 3 C-1.33333333 4.33333333 -2.66666667 5.66666667 -4 7 C-4.22945312 7.71800781 -4.45890625 8.43601562 -4.6953125 9.17578125 C-6.62797865 13.35936695 -9.72839038 16.12300909 -13 19.3125 C-13.64195313 19.95767578 -14.28390625 20.60285156 -14.9453125 21.26757812 C-19.73282077 26 -19.73282077 26 -22 26 C-20.52754246 20.94487506 -17.51657451 18.20478829 -13.8125 14.6875 C-12.63612751 13.54361053 -11.46163705 12.39778232 -10.2890625 11.25 C-9.72348633 10.69699219 -9.15791016 10.14398438 -8.57519531 9.57421875 C-5.53855331 6.53945936 -2.74203798 3.30041663 0 0 Z " fill="#808080" transform="translate(125,335)"/>
<path d="M0 0 C0.33 0 0.66 0 1 0 C1 18.15 1 36.3 1 55 C1.66 55 2.32 55 3 55 C2.505 57.475 2.505 57.475 2 60 C0.68 59.67 -0.64 59.34 -2 59 C-2 57.68 -2 56.36 -2 55 C-1.34 55 -0.68 55 0 55 C0 36.85 0 18.7 0 0 Z " fill="#949494" transform="translate(201,194)"/>
<path d="M0 0 C1.32 0.33 2.64 0.66 4 1 C4 2.65 4 4.3 4 6 C2.09541016 6.31904297 2.09541016 6.31904297 0.15234375 6.64453125 C-5.65547684 7.93351474 -10.35113581 10.68997625 -15.4375 13.6875 C-17.20290626 14.71932983 -18.97224869 15.74446472 -20.74609375 16.76171875 C-21.51622803 17.21506592 -22.2863623 17.66841309 -23.07983398 18.13549805 C-24.03031616 18.56342651 -24.03031616 18.56342651 -25 19 C-25.66 18.67 -26.32 18.34 -27 18 C-26.2886792 17.5968457 -25.5773584 17.19369141 -24.84448242 16.77832031 C-21.62036232 14.94439298 -18.40392707 13.09738375 -15.1875 11.25 C-14.06794922 10.61578125 -12.94839844 9.9815625 -11.79492188 9.328125 C-10.72177734 8.709375 -9.64863281 8.090625 -8.54296875 7.453125 C-7.0583313 6.60476074 -7.0583313 6.60476074 -5.54370117 5.73925781 C-3.05072148 4.03468086 -1.62754715 2.51727293 0 0 Z " fill="#696969" transform="translate(304,42)"/>
<path d="M0 0 C-0.33 1.32 -0.66 2.64 -1 4 C-12.55 4 -24.1 4 -36 4 C-36 3.67 -36 3.34 -36 3 C-29.4 3 -22.8 3 -16 3 C-16 2.34 -16 1.68 -16 1 C-13.70839646 0.83246763 -11.41671509 0.66599948 -9.125 0.5 C-7.84882812 0.4071875 -6.57265625 0.314375 -5.2578125 0.21875 C-3.50763316 0.10123196 -1.75412035 0 0 0 Z " fill="#929292" transform="translate(80,326)"/>
<path d="M0 0 C1.32 0.33 2.64 0.66 4 1 C3.7265625 2.92578125 3.7265625 2.92578125 3 5 C0.99492829 5.65683383 -1.01629729 6.29794682 -3.046875 6.87109375 C-7.67413867 8.63998158 -11.71608783 11.34572359 -15.85791016 14.03979492 C-17.52827888 15.09876281 -19.26118762 16.05762207 -21 17 C-21.99 16.67 -22.98 16.34 -24 16 C-23.37955811 15.65743164 -22.75911621 15.31486328 -22.11987305 14.96191406 C-19.30391408 13.40039193 -16.49572273 11.82538913 -13.6875 10.25 C-12.71103516 9.71117188 -11.73457031 9.17234375 -10.72851562 8.6171875 C-9.79072266 8.08867188 -8.85292969 7.56015625 -7.88671875 7.015625 C-7.02264404 6.53383789 -6.15856934 6.05205078 -5.26831055 5.55566406 C-2.91255667 3.94002918 -1.56325564 2.37060226 0 0 Z " fill="#6D6D6D" transform="translate(339,57)"/>
<path d="M0 0 C1.32 0 2.64 0 4 0 C4 1.65 4 3.3 4 5 C2.741875 5.37125 1.48375 5.7425 0.1875 6.125 C-4.82613132 7.76437786 -9.18532969 10.21496269 -13.71484375 12.890625 C-14.46894531 13.25671875 -15.22304687 13.6228125 -16 14 C-16.66 13.67 -17.32 13.34 -18 13 C-15.54481265 11.49462965 -13.0861548 9.99555574 -10.625 8.5 C-9.92632812 8.07074219 -9.22765625 7.64148437 -8.5078125 7.19921875 C-3.2265625 4 -3.2265625 4 -1 4 C-0.67 2.68 -0.34 1.36 0 0 Z " fill="#707070" transform="translate(181,46)"/>
<path d="M0 0 C0 1.32 0 2.64 0 4 C-1.2684375 4.5259375 -1.2684375 4.5259375 -2.5625 5.0625 C-6.78944647 7.44496074 -9.72624641 10.46473355 -13 14 C-13.99 13.67 -14.98 13.34 -16 13 C-14.50260417 11.79557292 -13.00520833 10.59114583 -11.5078125 9.38671875 C-9.74707893 7.87729455 -9.74707893 7.87729455 -8 5 C-7.34 5 -6.68 5 -6 5 C-6 3.35 -6 1.7 -6 0 C-3.50907189 -1.24546405 -2.58919267 -0.7767578 0 0 Z " fill="#797979" transform="translate(342,295)"/>
<path d="M0 0 C1.65 0.33 3.3 0.66 5 1 C5 2.32 5 3.64 5 5 C3.2984375 5.3403125 3.2984375 5.3403125 1.5625 5.6875 C-2.81526305 6.74877589 -6.30601408 8.71713414 -10.1171875 11.07421875 C-10.73851562 11.37972656 -11.35984375 11.68523437 -12 12 C-12.66 11.67 -13.32 11.34 -14 11 C-12.73542969 10.31164062 -12.73542969 10.31164062 -11.4453125 9.609375 C-10.34960938 8.99578125 -9.25390625 8.3821875 -8.125 7.75 C-7.03445312 7.14671875 -5.94390625 6.5434375 -4.8203125 5.921875 C-2.07007102 4.04774923 -1.07640946 3.07934858 0 0 Z " fill="#757575" transform="translate(238,60)"/>
<path d="M0 0 C0.99 0.33 1.98 0.66 3 1 C-1.62 5.62 -6.24 10.24 -11 15 C-11.33 14.01 -11.66 13.02 -12 12 C-8.04 8.04 -4.08 4.08 0 0 Z " fill="#8D8D8D" transform="translate(235,159)"/>
<path d="M0 0 C0.66 0.99 1.32 1.98 2 3 C-3.07296125 7.77339105 -6.80923536 9.68182753 -13.8125 9.52734375 C-14.699375 9.47707031 -15.58625 9.42679687 -16.5 9.375 C-17.4178125 9.34792969 -18.335625 9.32085937 -19.28125 9.29296875 C-21.52336547 9.22290264 -23.76037714 9.12477899 -26 9 C-26 8.67 -26 8.34 -26 8 C-24.68644531 7.98582031 -23.37289062 7.97164063 -22.01953125 7.95703125 C-20.28381949 7.91012012 -18.54814348 7.86187279 -16.8125 7.8125 C-15.94818359 7.80669922 -15.08386719 7.80089844 -14.19335938 7.79492188 C-9.67006678 7.63894627 -7.6260201 7.50818103 -4.01171875 4.57421875 C-3.34785156 3.72472656 -2.68398437 2.87523437 -2 2 C-1.34 1.34 -0.68 0.68 0 0 Z " fill="#757575" transform="translate(102,359)"/>
<path d="M0 0 C2.0625 0.4375 2.0625 0.4375 4 1 C4 2.65 4 4.3 4 6 C1.69 6 -0.62 6 -3 6 C-1.125 1.125 -1.125 1.125 0 0 Z " fill="#787878" transform="translate(304,42)"/>
<path d="M0 0 C0 3 0 3 -2.30078125 5.6640625 C-3.2969247 6.65887598 -4.30120803 7.64558987 -5.3125 8.625 C-5.81201172 9.12773437 -6.31152344 9.63046875 -6.82617188 10.1484375 C-9.19483114 12.4825865 -10.80481278 13.93493759 -14 15 C-12.58143752 11.66564695 -10.90068437 9.80434174 -8.125 7.5 C-5.28915088 5.10241847 -2.57491762 2.68220585 0 0 Z " fill="#7A7A7A" transform="translate(289,300)"/>
<path d="M0 0 C1.98 0.495 1.98 0.495 4 1 C4 2.32 4 3.64 4 5 C3.34 5 2.68 5 2 5 C2 6.98 2 8.96 2 11 C1.67 11 1.34 11 1 11 C-0.62950412 6.87831311 -1.26264601 4.29299643 0 0 Z " fill="#858585" transform="translate(181,149)"/>
<path d="M0 0 C0.99 1.32 1.98 2.64 3 4 C1.35 5.32 -0.3 6.64 -2 8 C-3.32 7.34 -4.64 6.68 -6 6 C-4.02 4.02 -2.04 2.04 0 0 Z " fill="#797979" transform="translate(111,293)"/>
<path d="M0 0 C0.66 0.66 1.32 1.32 2 2 C0.39801112 3.46072532 -1.20667116 4.91849716 -2.8125 6.375 C-3.70582031 7.18710937 -4.59914063 7.99921875 -5.51953125 8.8359375 C-8 11 -8 11 -11 13 C-9.46356148 9.31930113 -7.21849055 7.01224796 -4.375 4.25 C-3.55773437 3.45078125 -2.74046875 2.6515625 -1.8984375 1.828125 C-0.95871094 0.92320312 -0.95871094 0.92320312 0 0 Z " fill="#7B7B7B" transform="translate(266,260)"/>
<path d="M0 0 C0.66 0.66 1.32 1.32 2 2 C1.01 3.32 0.02 4.64 -1 6 C-1.99 5.67 -2.98 5.34 -4 5 C-4.66 5.66 -5.32 6.32 -6 7 C-6 4 -6 4 -4.6875 2.375 C-3 1 -3 1 0 0 Z " fill="#868686" transform="translate(107,299)"/>
<path d="M0 0 C0.66 0.66 1.32 1.32 2 2 C-0.31 4.31 -2.62 6.62 -5 9 C-5.66 8.34 -6.32 7.68 -7 7 C-4.66666667 4.66666667 -2.33333333 2.33333333 0 0 Z " fill="#919191" transform="translate(91,315)"/>
<path d="M0 0 C1.65 0 3.3 0 5 0 C4.67 1.65 4.34 3.3 4 5 C2.68 4.67 1.36 4.34 0 4 C0 2.68 0 1.36 0 0 Z " fill="#8A8A8A" transform="translate(121,148)"/>
<path d="M0 0 C2.475 0.495 2.475 0.495 5 1 C5 2.32 5 3.64 5 5 C3.35 4.67 1.7 4.34 0 4 C0 2.68 0 1.36 0 0 Z " fill="#838383" transform="translate(238,60)"/>
<path d="M0 0 C2.475 0.495 2.475 0.495 5 1 C4.67 2.32 4.34 3.64 4 5 C2.68 4.67 1.36 4.34 0 4 C0 2.68 0 1.36 0 0 Z " fill="#888888" transform="translate(337,108)"/>
<path d="M0 0 C1.98 0.495 1.98 0.495 4 1 C3.67 2.32 3.34 3.64 3 5 C1.68 4.67 0.36 4.34 -1 4 C-0.67 2.68 -0.34 1.36 0 0 Z " fill="#909090" transform="translate(152,342)"/>
<path d="M0 0 C1.98 0.495 1.98 0.495 4 1 C3.67 2.32 3.34 3.64 3 5 C1.68 4.67 0.36 4.34 -1 4 C-0.67 2.68 -0.34 1.36 0 0 Z " fill="#8E8E8E" transform="translate(339,57)"/>
<path d="M0 0 C1.32 0 2.64 0 4 0 C4 1.65 4 3.3 4 5 C2.68 5 1.36 5 0 5 C0 3.35 0 1.7 0 0 Z " fill="#888888" transform="translate(1,365)"/>
<path d="M0 0 C1.32 0 2.64 0 4 0 C4 1.65 4 3.3 4 5 C2.68 5 1.36 5 0 5 C0 3.35 0 1.7 0 0 Z " fill="#909090" transform="translate(181,46)"/>
<path d="M0 0 C0.99 0.33 1.98 0.66 3 1 C2.67 2.32 2.34 3.64 2 5 C0.68 5 -0.64 5 -2 5 C-1.34 3.35 -0.68 1.7 0 0 Z " fill="#838383" transform="translate(163,185)"/>
<path d="M0 0 C2.475 0.495 2.475 0.495 5 1 C4.67 2.32 4.34 3.64 4 5 C2.66666667 5 1.33333333 5 0 5 C0 3.35 0 1.7 0 0 Z " fill="#878787" transform="translate(109,67)"/>
</svg>
