<?xml version="1.0" encoding="UTF-8"?>
<svg version="1.1" xmlns="http://www.w3.org/2000/svg" width="555" height="111">
<path d="M0 0 C183.15 0 366.3 0 555 0 C555 36.63 555 73.26 555 111 C371.85 111 188.7 111 0 111 C0 74.37 0 37.74 0 0 Z " fill="#709F4C" transform="translate(0,0)"/>
<path d="M0 0 C0.91713044 -0.00199105 1.83426088 -0.0039821 2.77918315 -0.00603348 C4.28501236 -0.00166422 4.28501236 -0.00166422 5.82126236 0.00279331 C6.89048723 0.00193889 7.95971209 0.00108446 9.06133771 0.00020415 C12.65582897 -0.00144726 16.25027391 0.00406522 19.84476089 0.00952244 C22.41674676 0.00980441 24.98873271 0.00964638 27.56071854 0.00907993 C33.10406095 0.00855545 38.6473916 0.01169442 44.19073105 0.01731777 C52.20548019 0.02544292 60.22022363 0.02804904 68.23497644 0.02930576 C81.2382086 0.03149468 94.24143449 0.03815045 107.24466324 0.04760838 C119.87649886 0.05678662 132.50833277 0.06386544 145.14017105 0.06811619 C145.918726 0.06837891 146.69728095 0.06864164 147.49942848 0.06891232 C151.40518853 0.07021735 155.31094859 0.07148106 159.21670866 0.07272422 C191.62170203 0.08309186 224.02668752 0.10078015 256.43167496 0.12304783 C256.43167496 4.08304783 256.43167496 8.04304783 256.43167496 12.12304783 C260.72167496 12.45304783 265.01167496 12.78304783 269.43167496 13.12304783 C269.43167496 9.16304783 269.43167496 5.20304783 269.43167496 1.12304783 C288.97193405 0.96950782 308.51222452 0.82125919 328.05257702 0.68008423 C337.12484815 0.61440473 346.19709792 0.54683283 355.26932144 0.47485447 C363.17373705 0.41214616 371.07816967 0.35293897 378.98264319 0.29799229 C383.17063952 0.26875633 387.35860579 0.23772911 391.54655647 0.20251369 C395.48379917 0.16946162 399.42104725 0.14107063 403.35835075 0.11634159 C404.80763293 0.10640147 406.25690432 0.09472029 407.70615768 0.08121777 C409.67634824 0.06311538 411.64659722 0.05173425 413.61684036 0.04075718 C414.72207015 0.03246104 415.82729994 0.02416491 416.96602154 0.01561737 C419.43167496 0.12304783 419.43167496 0.12304783 420.43167496 1.12304783 C420.57522612 5.12525436 420.47383899 9.11746466 420.43167496 13.12304783 C424.72167496 13.12304783 429.01167496 13.12304783 433.43167496 13.12304783 C433.4585011 17.10225877 433.47842889 21.08129124 433.49417496 25.06054783 C433.50255386 26.19685642 433.51093277 27.33316502 433.51956558 28.5039072 C433.52439957 30.12329197 433.52439957 30.12329197 433.52933121 31.77539158 C433.53718643 33.27573948 433.53718643 33.27573948 433.54520035 34.80639744 C433.43167496 37.12304783 433.43167496 37.12304783 432.43167496 38.12304783 C430.41203297 38.19548836 428.39000372 38.20681971 426.36917496 38.18554783 C425.26444839 38.17652439 424.15972183 38.16750095 423.02151871 38.15820408 C422.16687027 38.14660252 421.31222183 38.13500095 420.43167496 38.12304783 C420.44327652 38.97769627 420.45487808 39.8323447 420.46683121 40.71289158 C420.48036636 42.36998142 420.48036636 42.36998142 420.49417496 44.06054783 C420.50577652 45.16269627 420.51737808 46.2648447 420.52933121 47.40039158 C420.43167496 50.12304783 420.43167496 50.12304783 419.43167496 51.12304783 C417.51036719 51.22184455 415.58537947 51.24937 413.66153336 51.25003147 C411.78107567 51.25426121 411.78107567 51.25426121 409.86262894 51.25857639 C408.46051393 51.2566318 407.05839906 51.25458361 405.65628433 51.25244236 C404.18979728 51.25379635 402.72331056 51.25557627 401.25682449 51.25775242 C397.26313385 51.26232699 393.26946893 51.2605371 389.27577782 51.25737333 C385.10553414 51.25484985 380.93529274 51.25718724 376.76504898 51.2587595 C369.76052834 51.26058123 362.75601822 51.25817479 355.75149918 51.25341892 C347.64162207 51.24797629 339.5317701 51.24973895 331.4218936 51.25524533 C324.47159468 51.25977636 317.52130335 51.26042706 310.57100344 51.25780666 C306.41434218 51.25624383 302.25769276 51.25605028 298.10103226 51.25934315 C294.19411092 51.26222172 290.28722214 51.26024643 286.38030434 51.25444889 C284.94232296 51.25312122 283.50433887 51.25351553 282.06635857 51.25571156 C280.11151219 51.25842274 278.15665987 51.25442852 276.20181656 51.25003147 C275.10525993 51.24965445 274.00870331 51.24927742 272.87891769 51.24888897 C270.43167496 51.12304783 270.43167496 51.12304783 269.43167496 50.12304783 C269.28812379 46.1208413 269.38951092 42.128631 269.43167496 38.12304783 C265.14167496 38.12304783 260.85167496 38.12304783 256.43167496 38.12304783 C256.43167496 42.41304783 256.43167496 46.70304783 256.43167496 51.12304783 C161.06167496 51.12304783 65.69167496 51.12304783 -32.56832504 51.12304783 C-32.56832504 47.16304783 -32.56832504 43.20304783 -32.56832504 39.12304783 C-30.04357042 37.86067052 -28.25632039 38.02448379 -25.44332504 38.06054783 C-23.83457504 38.08117283 -22.22582504 38.10179783 -20.56832504 38.12304783 C-20.56832504 34.16304783 -20.56832504 30.20304783 -20.56832504 26.12304783 C-16.60832504 26.12304783 -12.64832504 26.12304783 -8.56832504 26.12304783 C-8.56832504 17.87304783 -8.56832504 9.62304783 -8.56832504 1.12304783 C-5.35791531 0.32044539 -3.21393142 -0.00154219 0 0 Z " fill="#7ED557" transform="translate(121.56832504272461,34.876952171325684)"/>
<path d="M0 0 C183.15 0 366.3 0 555 0 C555 15.84 555 31.68 555 48 C550.71 48 546.42 48 542 48 C541.67 44.04 541.34 40.08 541 36 C537.04 35.67 533.08 35.34 529 35 C529 31.04 529 27.08 529 23 C387.76 23 246.52 23 101 23 C100.505 17.06 100.505 17.06 100 11 C88.12 11 76.24 11 64 11 C63.67 14.63 63.34 18.26 63 22 C60.47524538 23.26237731 58.68799534 23.09856404 55.875 23.0625 C54.26625 23.041875 52.6575 23.02125 51 23 C51 18.71 51 14.42 51 10 C38.46 10 25.92 10 13 10 C13 14.29 13 18.58 13 23 C8.71 23 4.42 23 0 23 C0 15.41 0 7.82 0 0 Z " fill="#010301" transform="translate(0,0)"/>
<path d="M0 0 C4.29 0 8.58 0 13 0 C13 4.29 13 8.58 13 13 C16.96 13 20.92 13 25 13 C25.33 17.29 25.66 21.58 26 26 C29.96 26 33.92 26 38 26 C38 29.96 38 33.92 38 38 C42.29 38 46.58 38 51 38 C51 41.96 51 45.92 51 50 C54.96 50 58.92 50 63 50 C63 46.04 63 42.08 63 38 C216.78 38 370.56 38 529 38 C529 34.04 529 30.08 529 26 C532.96 25.67 536.92 25.34 541 25 C541.33 21.04 541.66 17.08 542 13 C546.29 12.67 550.58 12.34 555 12 C555 24.87 555 37.74 555 51 C371.85 51 188.7 51 0 51 C0 34.17 0 17.34 0 0 Z " fill="#000200" transform="translate(0,60)"/>
<path d="M0 0 C1.18482153 -0.00906876 2.36964306 -0.01813751 3.59036827 -0.02748108 C5.19261364 -0.04364094 5.19261364 -0.04364094 6.82722759 -0.06012726 C9.27461815 0.04075623 9.27461815 0.04075623 10.27461815 1.04075623 C10.41816932 5.04296275 10.31678218 9.03517306 10.27461815 13.04075623 C14.56461815 13.04075623 18.85461815 13.04075623 23.27461815 13.04075623 C23.30144429 17.01996717 23.32137208 20.99899964 23.33711815 24.97825623 C23.34549706 26.11456482 23.35387596 27.25087341 23.36250877 28.4216156 C23.36573143 29.50120544 23.36895409 30.58079529 23.3722744 31.69309998 C23.37751122 32.69333191 23.38274803 33.69356384 23.38814354 34.72410583 C23.27461815 37.04075623 23.27461815 37.04075623 22.27461815 38.04075623 C20.25497616 38.11319676 18.23294691 38.12452811 16.21211815 38.10325623 C15.10739159 38.09423279 14.00266502 38.08520935 12.8644619 38.07591248 C12.00981346 38.06431091 11.15516502 38.05270935 10.27461815 38.04075623 C10.28621971 38.89540466 10.29782127 39.7500531 10.3097744 40.63059998 C10.31879784 41.73532654 10.32782127 42.8400531 10.33711815 43.97825623 C10.34871971 45.08040466 10.36032127 46.1825531 10.3722744 47.31809998 C10.27461815 50.04075623 10.27461815 50.04075623 9.27461815 51.04075623 C7.35331038 51.13955295 5.42832267 51.1670784 3.50447655 51.16773987 C1.62401886 51.1719696 1.62401886 51.1719696 -0.29442787 51.17628479 C-1.69654288 51.17434019 -3.09865775 51.17229201 -4.50077248 51.17015076 C-5.96725953 51.17150475 -7.43374625 51.17328467 -8.90023232 51.17546082 C-12.89392295 51.18003538 -16.88758788 51.1782455 -20.88127899 51.17508173 C-25.05152267 51.17255825 -29.22176407 51.17489563 -33.39200783 51.1764679 C-40.39652847 51.17828963 -47.40103859 51.17588319 -54.40555763 51.17112732 C-62.51543474 51.16568469 -70.62528671 51.16744735 -78.73516321 51.17295372 C-85.68546213 51.17748476 -92.63575346 51.17813545 -99.58605337 51.17551506 C-103.74271463 51.17395223 -107.89936405 51.17375868 -112.05602455 51.17705154 C-115.96294589 51.17993012 -119.86983467 51.17795483 -123.77675247 51.17215729 C-125.21473384 51.17082961 -126.65271793 51.17122393 -128.09069824 51.17341995 C-130.04554461 51.17613113 -132.00039694 51.17213692 -133.95524025 51.16773987 C-135.60007519 51.16717433 -135.60007519 51.16717433 -137.27813911 51.16659737 C-139.72538185 51.04075623 -139.72538185 51.04075623 -140.72538185 50.04075623 C-140.86893302 46.0385497 -140.76754588 42.04633939 -140.72538185 38.04075623 C-136.76538185 38.04075623 -132.80538185 38.04075623 -128.72538185 38.04075623 C-128.72538185 29.79075623 -128.72538185 21.54075623 -128.72538185 13.04075623 C-132.68538185 13.04075623 -136.64538185 13.04075623 -140.72538185 13.04075623 C-140.72538185 9.08075623 -140.72538185 5.12075623 -140.72538185 1.04075623 C-123.0873235 0.90980881 -105.44926148 0.77937331 -87.81119442 0.6496048 C-79.62039753 0.58932997 -71.42960203 0.52887855 -63.23880959 0.46800232 C-56.09455806 0.41490473 -48.95030412 0.36214773 -41.80604714 0.30978918 C-38.02793423 0.28208868 -34.2498227 0.25422479 -30.47171402 0.22595215 C-26.90540548 0.19926987 -23.33909384 0.17304782 -19.77277946 0.14715767 C-17.86086481 0.13316411 -15.94895362 0.11870153 -14.03704262 0.10421753 C-11.72781497 0.08761917 -9.41857205 0.07299048 -7.10931778 0.06063843 C-4.73949989 0.04671464 -2.36971699 0.02592505 0 0 Z " fill="#D7DAD5" transform="translate(531.7253818511963,34.95924377441406)"/>
<path d="M0 0 C140.58 0 281.16 0 426 0 C426 3.96 426 7.92 426 12 C425 13 425 13 422.7373724 13.12304783 C421.22332742 13.12166514 421.22332742 13.12166514 419.67869568 13.12025452 C418.52458191 13.12162918 417.37046814 13.12300385 416.18138123 13.12442017 C414.90392532 13.12082489 413.62646942 13.11722961 412.31030273 13.11352539 C410.96041872 13.11324352 409.61053456 13.11340125 408.26065063 13.1139679 C404.58519392 13.11425587 400.90976957 13.10835916 397.2343204 13.10139394 C393.39726851 13.09516038 389.56021596 13.0945566 385.72315979 13.09336853 C378.45228782 13.09025522 371.18143081 13.08204183 363.91056544 13.07201904 C355.63500648 13.0608579 347.35944682 13.05534745 339.08388221 13.05032361 C322.05591256 13.03985922 305.02795843 13.02205934 288 13 C288 16.96 288 20.92 288 25 C277.25 25.125 277.25 25.125 275 24 C275 20.04 275 16.08 275 12 C187.55 12.33 100.1 12.66 10 13 C10 21.25 10 29.5 10 38 C6.04 38 2.08 38 -2 38 C-1.360625 37.113125 -0.72125 36.22625 -0.0625 35.3125 C1.80829757 32.30788572 2.59423966 30.4489629 3 27 C2.34 27 1.68 27 1 27 C1.01160156 25.96359375 1.02320312 24.9271875 1.03515625 23.859375 C1.04453837 22.48958514 1.05363812 21.11979332 1.0625 19.75 C1.07087891 19.06808594 1.07925781 18.38617188 1.08789062 17.68359375 C1.10448113 14.26594898 0.85397898 11.29391891 0 8 C0.9375 5.25 0.9375 5.25 2 3 C1.34 3 0.68 3 0 3 C0 2.01 0 1.02 0 0 Z " fill="#729F50" transform="translate(103,23)"/>
<path d="M0 0 C12.54 0 25.08 0 38 0 C39.18475859 3.55427577 39.14345718 6.77862078 39.1328125 10.4765625 C39.13376923 11.20241547 39.13472595 11.92826843 39.13571167 12.67611694 C39.13639134 14.20758145 39.13455189 15.73904886 39.13037109 17.27050781 C39.12500431 19.62311201 39.13033116 21.97552662 39.13671875 24.328125 C39.13605823 25.81510459 39.13477762 27.30208406 39.1328125 28.7890625 C39.13483673 29.49632477 39.13686096 30.20358704 39.13894653 30.93228149 C39.11496243 35.88503757 39.11496243 35.88503757 38 37 C34.04 37 30.08 37 26 37 C26 29.08 26 21.16 26 13 C22.37 13.33 18.74 13.66 15 14 C14.67 21.59 14.34 29.18 14 37 C16.97 37 19.94 37 23 37 C24.485 37.99 24.485 37.99 26 39 C22.37 39 18.74 39 15 39 C15 42.3 15 45.6 15 49 C14.67 49 14.34 49 14 49 C14 45.37 14 41.74 14 38 C10.04 38 6.08 38 2 38 C1.67 41.63 1.34 45.26 1 49 C4.96 49.33 8.92 49.66 13 50 C12.01 50.495 12.01 50.495 11 51 C10.773125 51.928125 10.54625 52.85625 10.3125 53.8125 C8.77483404 57.54683162 7.25892059 58.18811399 3.73828125 59.9375 C0.94525048 61.64470083 -0.33514997 64.24438616 -2 67 C-4.125 69.375 -4.125 69.375 -6 71 C-6.66 71 -7.32 71 -8 71 C-8 70.34 -8 69.68 -8 69 C-8.66 69 -9.32 69 -10 69 C-10.33 67.02 -10.66 65.04 -11 63 C-11.66 63 -12.32 63 -13 63 C-13 62.34 -13 61.68 -13 61 C-13.66 61 -14.32 61 -15 61 C-15 60.34 -15 59.68 -15 59 C-16.32 59 -17.64 59 -19 59 C-20.33333333 56.33333333 -21.66666667 53.66666667 -23 51 C-23.598125 50.896875 -24.19625 50.79375 -24.8125 50.6875 C-27.94934764 49.7016336 -29.00956217 47.55024847 -31 45 C-31.721875 44.67 -32.44375 44.34 -33.1875 44 C-33.785625 43.67 -34.38375 43.34 -35 43 C-35.75 40.375 -35.75 40.375 -36 38 C-36.99 38 -37.98 38 -39 38 C-40.35500919 36.68870078 -41.68671343 35.35308313 -43 34 C-43.721875 33.690625 -44.44375 33.38125 -45.1875 33.0625 C-47 32 -47 32 -47.59765625 30.0625 C-48.17293898 25.68364892 -48.2245504 21.34982385 -48.25 16.9375 C-48.270625 16.03966797 -48.29125 15.14183594 -48.3125 14.21679688 C-48.3337336 10.64689716 -48.34730719 7.80409164 -46.921875 4.50390625 C-41.62758473 0.3610165 -34.843453 0.66233915 -28.4375 0.6875 C-27.61314453 0.67138672 -26.78878906 0.65527344 -25.93945312 0.63867188 C-20.89577909 0.63464016 -17.33991043 1.14533364 -13 4 C-11.75 6.5 -11.75 6.5 -11 9 C-9.39519216 12.12606964 -9.39519216 12.12606964 -7.0546875 12.51171875 C-6.33539063 12.56972656 -5.61609375 12.62773438 -4.875 12.6875 C-3.59625 12.790625 -2.3175 12.89375 -1 13 C-0.83147753 11.39602723 -0.66525114 9.7918131 -0.5 8.1875 C-0.36078125 6.84751953 -0.36078125 6.84751953 -0.21875 5.48046875 C0.04392401 2.91694901 0.04392401 2.91694901 0 0 Z " fill="#EE766E" transform="translate(62,23)"/>
<path d="M0 0 C12.54 0 25.08 0 38 0 C38 4.29 38 8.58 38 13 C43.94 12.505 43.94 12.505 50 12 C49.979375 10.205625 49.95875 8.41125 49.9375 6.5625 C49.9161878 4.70833878 49.92773498 2.85287502 50 1 C51.78830448 -0.78830448 54.19581152 -0.12848711 56.57641602 -0.13894653 C57.35557373 -0.1369223 58.13473145 -0.13489807 58.9375 -0.1328125 C59.732771 -0.13376923 60.52804199 -0.13472595 61.34741211 -0.13571167 C63.0320646 -0.13639343 64.71671971 -0.13453943 66.40136719 -0.13037109 C68.98899197 -0.12502275 71.57644316 -0.13031619 74.1640625 -0.13671875 C75.79687539 -0.13605797 77.42968816 -0.1347768 79.0625 -0.1328125 C79.84165771 -0.13483673 80.62081543 -0.13686096 81.42358398 -0.13894653 C86.88504895 -0.11495105 86.88504895 -0.11495105 88 1 C88.07244053 3.01964199 88.08377188 5.04167124 88.0625 7.0625 C88.05347656 8.16722656 88.04445313 9.27195312 88.03515625 10.41015625 C88.02355469 11.26480469 88.01195313 12.11945312 88 13 C88.66 13 89.32 13 90 13 C90 13.99 90 14.98 90 16 C90.66 16 91.32 16 92 16 C91.7215625 17.11375 91.7215625 17.11375 91.4375 18.25 C90.83373853 20.85060151 90.83373853 20.85060151 91.46484375 22.7578125 C92.17784394 25.74512715 92.1319252 28.557136 92.125 31.625 C92.12886719 33.34589844 92.12886719 33.34589844 92.1328125 35.1015625 C92 38 92 38 91 40 C91.66 40 92.32 40 93 40 C92.16183675 48.00531429 92.16183675 48.00531429 89.34375 50.41796875 C87.59929297 51.35096729 85.80096551 52.18137931 84 53 C83.505 53.99 83.505 53.99 83 55 C82.195625 55.2475 81.39125 55.495 80.5625 55.75 C77.6915826 56.79392838 77.6915826 56.79392838 76.8125 60 C76.544375 60.99 76.27625 61.98 76 63 C74 65 74 65 71.125 65.8125 C67.44830893 67.20964261 66.29140332 68.89023835 64 72 C63.34 72 62.68 72 62 72 C61.505 73.485 61.505 73.485 61 75 C59.824375 75.45052734 59.824375 75.45052734 58.625 75.91015625 C55.4275409 77.23767275 54.70874588 78.48117546 53 81.4375 C50.75023928 85.01064938 49.12443078 87.51943511 45 89 C43.32376729 88.71869451 41.65768506 88.37545858 40 88 C37.89707754 87.63851898 35.79285439 87.28453644 33.6875 86.9375 C32.61886719 86.76089844 31.55023438 86.58429688 30.44921875 86.40234375 C29.64097656 86.26957031 28.83273438 86.13679688 28 86 C27.67 82.7 27.34 79.4 27 76 C22.38 76 17.76 76 13 76 C11.07427479 72.14854957 11.95116782 67.19956748 12 63 C8.04 63 4.08 63 0 63 C0 58.71 0 54.42 0 50 C-4.29 50 -8.58 50 -13 50 C-13 37.79 -13 25.58 -13 13 C-8.71 13 -4.42 13 0 13 C0 8.71 0 4.42 0 0 Z M49 13 C49 13.99 49 14.98 49 16 C48.84739214 17.73046409 48.67951995 19.45962045 48.5 21.1875 C48.36078125 22.53908203 48.36078125 22.53908203 48.21875 23.91796875 C48.1465625 24.60503906 48.074375 25.29210938 48 26 C40.54785894 25.51133501 40.54785894 25.51133501 38.125 23.25 C37 21 37 21 36.125 18.375 C35.21775353 15.87187174 35.21775353 15.87187174 33.01171875 14.87109375 C28.86771031 13.67250246 24.98007529 13.67079737 20.6875 13.6875 C19.87087891 13.67138672 19.05425781 13.65527344 18.21289062 13.63867188 C12.48480742 13.63410767 8.19531932 14.53784534 3 17 C0.91147709 20.13278437 0.74465052 20.88592132 0.734375 24.45703125 C0.73179688 25.32263672 0.72921875 26.18824219 0.7265625 27.08007812 C0.73429688 27.98177734 0.74203125 28.88347656 0.75 29.8125 C0.74226562 30.70259766 0.73453125 31.59269531 0.7265625 32.50976562 C0.74088797 37.34103149 0.88503424 41.55224808 3 46 C5.98352894 47.78379415 5.98352894 47.78379415 9 49 C9.33 49.66 9.66 50.32 10 51 C10.99 51 11.98 51 13 51 C13.061875 51.78375 13.12375 52.5675 13.1875 53.375 C13.455625 54.24125 13.72375 55.1075 14 56 C15.6635479 56.67441131 17.33066942 57.3400321 19 58 C20.35162508 59.98768394 21.68693567 61.9866347 23 64 C23.99 64 24.98 64 26 64 C27.33333333 66.66666667 28.66666667 69.33333333 30 72 C31.32 72 32.64 72 34 72 C34 72.66 34 73.32 34 74 C34.66 74 35.32 74 36 74 C36 74.66 36 75.32 36 76 C36.66 76 37.32 76 38 76 C38.33 77.98 38.66 79.96 39 82 C39.66 82 40.32 82 41 82 C41 82.66 41 83.32 41 84 C42.87880872 83.95231597 42.87880872 83.95231597 45 83 C46.38442 81.03501678 47.71203834 79.02951535 49 77 C51.47366793 74.27262254 53.51382083 72.26518864 56.75 70.5 C59.2621123 69.18512222 59.2621123 69.18512222 59.6875 66.375 C59.8421875 65.199375 59.8421875 65.199375 60 64 C60.66 63.67 61.32 63.34 62 63 C58.04 62.67 54.08 62.34 50 62 C50.33 58.37 50.66 54.74 51 51 C54.96 51 58.92 51 63 51 C63 54.63 63 58.26 63 62 C63.33 62 63.66 62 64 62 C64 58.7 64 55.4 64 52 C67.63 52 71.26 52 75 52 C71.35284977 49.16794971 71.35284977 49.16794971 63 50 C63.33 42.41 63.66 34.82 64 27 C67.63 26.67 71.26 26.34 75 26 C75 33.92 75 41.84 75 50 C78.96 50 82.92 50 87 50 C88.69542684 48.30457316 88.12799427 46.193941 88.13894653 43.93228149 C88.1369223 43.22501923 88.13489807 42.51775696 88.1328125 41.7890625 C88.13424759 40.70315323 88.13424759 40.70315323 88.13571167 39.5953064 C88.13639353 38.06028151 88.13453886 36.52525376 88.13037109 34.99023438 C88.12503829 32.64186084 88.13030784 30.29367992 88.13671875 27.9453125 C88.13605767 26.45572874 88.13477588 24.96614511 88.1328125 23.4765625 C88.13584885 22.42174179 88.13584885 22.42174179 88.13894653 21.34561157 C88.12427044 18.28562232 87.97574438 15.92723313 87 13 C74.46 13 61.92 13 49 13 Z " fill="#9D8651" transform="translate(13,10)"/>
<path d="M0 0 C0.66 0.33 1.32 0.66 2 1 C-2.34391565 6.56021203 -6.89475833 11.99504013 -11.9375 16.9375 C-12.618125 17.618125 -13.29875 18.29875 -14 19 C-14 19.33 -14 19.66 -14 20 C137.8 20.33 289.6 20.66 446 21 C446 18.36 446 15.72 446 13 C446.33 13 446.66 13 447 13 C447 16.3 447 19.6 447 23 C293.22 23 139.44 23 -19 23 C-19 26.96 -19 30.92 -19 35 C-22.96 35 -26.92 35 -31 35 C-31 31.04 -31 27.08 -31 23 C-35.29 23 -39.58 23 -44 23 C-44 19.04 -44 15.08 -44 11 C-43.34 11 -42.68 11 -42 11 C-40.39274365 14.21451269 -40.94251815 17.43612536 -41 21 C-40.14728516 20.96519531 -40.14728516 20.96519531 -39.27734375 20.9296875 C-35.24344061 20.83540596 -32.1620821 20.95137537 -28.25 22.125 C-24.41668065 23.15704752 -23.42411154 22.86093018 -20 21 C-18.08686082 18.69574342 -18.08686082 18.69574342 -16.5 16 C-14.02023724 11.97623401 -12.45245714 10.54351848 -8 9 C-7.67 8.34 -7.34 7.68 -7 7 C-6.34 7 -5.68 7 -5 7 C-4.731875 6.401875 -4.46375 5.80375 -4.1875 5.1875 C-3.01506533 3.02775192 -1.80630718 1.64209744 0 0 Z " fill="#8CB270" transform="translate(82,75)"/>
<path d="M0 0 C12.54 0 25.08 0 38 0 C38 4.29 38 8.58 38 13 C43.94 12.505 43.94 12.505 50 12 C49.979375 10.205625 49.95875 8.41125 49.9375 6.5625 C49.9161878 4.70833878 49.92773498 2.85287502 50 1 C51.78830448 -0.78830448 54.19581152 -0.12848711 56.57641602 -0.13894653 C57.35557373 -0.1369223 58.13473145 -0.13489807 58.9375 -0.1328125 C59.732771 -0.13376923 60.52804199 -0.13472595 61.34741211 -0.13571167 C63.0320646 -0.13639343 64.71671971 -0.13453943 66.40136719 -0.13037109 C68.98899197 -0.12502275 71.57644316 -0.13031619 74.1640625 -0.13671875 C75.79687539 -0.13605797 77.42968816 -0.1347768 79.0625 -0.1328125 C79.84165771 -0.13483673 80.62081543 -0.13686096 81.42358398 -0.13894653 C86.88504895 -0.11495105 86.88504895 -0.11495105 88 1 C88.203125 2.99609375 88.203125 2.99609375 88.25 5.4375 C88.27578125 6.24058594 88.3015625 7.04367188 88.328125 7.87109375 C88.21984375 8.57363281 88.1115625 9.27617187 88 10 C84.36403965 12.42397357 82.93274189 12.15214982 78.625 12 C68.67578428 11.84439154 58.88079301 12.92640423 49 14 C49.18433594 15.10472656 49.36867187 16.20945312 49.55859375 17.34765625 C49.99306957 20.94265528 49.97371347 22.09748019 48 25 C42.80976828 25.17594006 42.80976828 25.17594006 40 24 C37.776148 20.88012997 36.43075496 17.53697362 35 14 C33.85411899 12.62682912 33.85411899 12.62682912 30.76538086 12.88647461 C29.33185874 12.88663369 27.89833088 12.89232593 26.46484375 12.90234375 C25.71159317 12.9037587 24.95834259 12.90517365 24.18226624 12.90663147 C21.7673044 12.91224624 19.35243399 12.92480117 16.9375 12.9375 C15.30403779 12.9425131 13.67057414 12.94707634 12.03710938 12.95117188 C8.02470415 12.96222046 4.01236759 12.97949494 0 13 C0 8.71 0 4.42 0 0 Z " fill="#8A9463" transform="translate(13,10)"/>
<path d="M0 0 C0 7.59 0 15.18 0 23 C3.63 23 7.26 23 11 23 C12.58272601 24.58272601 12.34735747 26.38034003 12.5625 28.5625 C12.68818359 29.80193359 12.68818359 29.80193359 12.81640625 31.06640625 C12.87699219 31.70449219 12.93757813 32.34257813 13 33 C13.57234375 33.14308594 14.1446875 33.28617188 14.734375 33.43359375 C15.48203125 33.62050781 16.2296875 33.80742188 17 34 C17.70640625 34.17660156 18.4128125 34.35320313 19.140625 34.53515625 C21.09375 35.0234375 23.046875 35.51171875 25 36 C25.495 41.94 25.495 41.94 26 48 C29.63 48 33.26 48 37 48 C38.34479465 58.14708691 38.34479465 58.14708691 36.8125 61.9375 C33.06666667 66.2 33.06666667 66.2 31 68 C30.34 68 29.68 68 29 68 C29 67.34 29 66.68 29 66 C28.34 66 27.68 66 27 66 C26.505 63.03 26.505 63.03 26 60 C25.34 60 24.68 60 24 60 C24 59.34 24 58.68 24 58 C23.34 58 22.68 58 22 58 C22 57.34 22 56.68 22 56 C20.68 56 19.36 56 18 56 C16.66666667 53.33333333 15.33333333 50.66666667 14 48 C13.401875 47.896875 12.80375 47.79375 12.1875 47.6875 C9.05065236 46.7016336 7.99043783 44.55024847 6 42 C5.278125 41.67 4.55625 41.34 3.8125 41 C3.214375 40.67 2.61625 40.34 2 40 C1.25 37.375 1.25 37.375 1 35 C0.01 35 -0.98 35 -2 35 C-3.35500919 33.68870078 -4.68671343 32.35308313 -6 31 C-6.721875 30.690625 -7.44375 30.38125 -8.1875 30.0625 C-10 29 -10 29 -10.59765625 27.0625 C-11.17293898 22.68364892 -11.2245504 18.34982385 -11.25 13.9375 C-11.270625 13.03966797 -11.29125 12.14183594 -11.3125 11.21679688 C-11.35157095 4.64799351 -11.35157095 4.64799351 -9.60546875 1.4296875 C-6.28034536 -1.53137129 -4.26321526 -1.06580382 0 0 Z " fill="#D95E54" transform="translate(25,26)"/>
<path d="M0 0 C117.81 0 235.62 0 357 0 C354.63469592 2.36530408 353.80088502 2.33785256 350.5625 2.625 C349.78003906 2.69976563 348.99757813 2.77453125 348.19140625 2.8515625 C345.67814308 3.02180136 343.4979364 3.14456218 341.0625 2.4375 C338.70335078 1.93707441 337.2714844 2.26988002 335 3 C335 2.34 335 1.68 335 1 C333.68 1.66 332.36 2.32 331 3 C331 2.34 331 1.68 331 1 C329.824375 1.165 328.64875 1.33 327.4375 1.5 C321.67936215 2.16227784 315.94404474 2.03013485 310.16015625 1.9375 C307.09857527 1.771779 307.09857527 1.771779 305 3 C302.6670134 3.04022391 300.33293334 3.04320247 298 3 C298 2.34 298 1.68 298 1 C296.1128125 1.2165625 296.1128125 1.2165625 294.1875 1.4375 C293.47980469 1.51871094 292.77210938 1.59992187 292.04296875 1.68359375 C289.80603607 1.97170735 289.80603607 1.97170735 287 3 C285.03171699 3.09448329 283.06039208 3.13071729 281.08984375 3.1328125 C279.35831055 3.13474609 279.35831055 3.13474609 277.59179688 3.13671875 C276.38587891 3.13285156 275.17996094 3.12898438 273.9375 3.125 C272.12282227 3.13080078 272.12282227 3.13080078 270.27148438 3.13671875 C269.11841797 3.13542969 267.96535156 3.13414063 266.77734375 3.1328125 C265.71765381 3.13168457 264.65796387 3.13055664 263.56616211 3.12939453 C261 3 261 3 259 2 C257.38588416 1.99562916 255.77132443 2.05864799 254.16015625 2.15625 C253.17853516 2.20910156 252.19691406 2.26195312 251.18554688 2.31640625 C249.13854976 2.43674254 247.09166833 2.55906678 245.04492188 2.68359375 C239.0436813 3.00293296 233.3659746 2.81967355 227.39404297 2.17382812 C224.45729239 1.96059476 221.87773493 2.41880248 219 3 C216.47952791 3.04267466 213.95800484 3.04069433 211.4375 3 C206.3263107 2.89707985 206.3263107 2.89707985 201.28515625 3.5625 C199 4 199 4 197.19615173 3.53543091 C194.59327961 2.90083988 192.25598657 2.87284221 189.57641602 2.87060547 C187.94936485 2.86587723 187.94936485 2.86587723 186.28944397 2.86105347 C185.12271652 2.8630777 183.95598907 2.86510193 182.75390625 2.8671875 C181.55064194 2.86623077 180.34737762 2.86527405 179.10765076 2.86428833 C176.56322172 2.86360789 174.01879094 2.86545271 171.47436523 2.86962891 C167.5811777 2.87497436 163.68810579 2.86968168 159.79492188 2.86328125 C157.32291641 2.86394215 154.85091102 2.86522355 152.37890625 2.8671875 C151.21420303 2.86516327 150.04949982 2.86313904 148.84950256 2.86105347 C147.76164963 2.86420563 146.67379669 2.86735779 145.55297852 2.87060547 C144.5990773 2.87140106 143.64517609 2.87219666 142.66236877 2.87301636 C139.9823769 2.93356711 139.9823769 2.93356711 137.33262634 3.53933716 C135 4 135 4 132.125 3.5 C128.94030168 2.8323094 128.94030168 2.8323094 125.5 3.5 C121.92980118 4.0100284 119.51622721 3.64583765 116 3 C112.14211793 2.801216 108.70683062 2.76438979 105 4 C104.505 3.505 104.505 3.505 104 3 C102.65984779 2.84417697 101.31241097 2.74955858 99.96484375 2.68359375 C98.75151367 2.62075195 98.75151367 2.62075195 97.51367188 2.55664062 C96.2384668 2.49766602 96.2384668 2.49766602 94.9375 2.4375 C94.08349609 2.39431641 93.22949219 2.35113281 92.34960938 2.30664062 C90.23327963 2.20023298 88.11666187 2.09958269 86 2 C85.67 2.66 85.34 3.32 85 4 C84.01386719 3.89171875 84.01386719 3.89171875 83.0078125 3.78125 C67.61795833 2.27980081 52.27867696 2.62331692 37 5 C37 4.34 37 3.68 37 3 C35.8553125 3.2165625 35.8553125 3.2165625 34.6875 3.4375 C31.60222957 3.90813447 28.54062833 4.30210692 25.4375 4.625 C24.52871094 4.72039063 23.61992188 4.81578125 22.68359375 4.9140625 C19.93035516 5.00223026 17.68212674 4.58176912 15 4 C13.46022421 3.91303592 11.91722052 3.86970027 10.375 3.875 C9.61960937 3.87242188 8.86421875 3.86984375 8.0859375 3.8671875 C5.80450231 3.92332827 5.80450231 3.92332827 3 5 C3 4.34 3 3.68 3 3 C2.01 3 1.02 3 0 3 C0 2.01 0 1.02 0 0 Z " fill="#84A766" transform="translate(103,23)"/>
<path d="M0 0 C4.29 0 8.58 0 13 0 C12.97905273 0.9787207 12.95810547 1.95744141 12.93652344 2.96582031 C12.86402037 6.60352904 12.81816367 10.24117416 12.78027344 13.87939453 C12.7601812 15.45274604 12.73290201 17.02602308 12.69824219 18.59912109 C12.64961506 20.86314272 12.62700865 23.12617573 12.609375 25.390625 C12.58872986 26.09181458 12.56808472 26.79300415 12.54681396 27.51544189 C12.54526906 30.89228915 12.74678106 32.67096377 14.83300781 35.38183594 C17.05059413 37.14178871 17.05059413 37.14178871 20.0625 38.5 C23.8774468 40.44805794 25.36892928 42.06822241 26.703125 46.15234375 C26.94546875 46.94769531 27.1878125 47.74304688 27.4375 48.5625 C28.5931903 52.31849346 29.59576931 53.88702923 33 56 C33 56.99 33 57.98 33 59 C33.66 59 34.32 59 35 59 C35 59.66 35 60.32 35 61 C35.99 61.495 35.99 61.495 37 62 C31.555 62.495 31.555 62.495 26 63 C24.07427479 59.14854957 24.95116782 54.19956748 25 50 C21.04 50 17.08 50 13 50 C13 45.71 13 41.42 13 37 C8.71 37 4.42 37 0 37 C0 24.79 0 12.58 0 0 Z " fill="#7C9855" transform="translate(0,23)"/>
<path d="M0 0 C3.63 0 7.26 0 11 0 C11 7.92 11 15.84 11 24 C11.99 24.33 12.98 24.66 14 25 C13.34 25 12.68 25 12 25 C12.04125 26.175625 12.0825 27.35125 12.125 28.5625 C11.76333641 31.76096239 11.27402633 32.76022696 8.8125 34.9140625 C7.05259782 36.0753933 5.26334894 37.1936886 3.4453125 38.26171875 C0.68463342 40.22418231 -0.3708598 42.07036459 -2 45 C-6.09283425 48.36521927 -8.70122324 49.50464541 -14 49 C-9.375 44.125 -9.375 44.125 -6 43 C-4.78130071 40.49552484 -4.78130071 40.49552484 -4 38 C-7.3 37.34 -10.6 36.68 -14 36 C-14.125 27.25 -14.125 27.25 -13 25 C-11.02090602 24.97313447 -9.04171029 24.95366625 -7.0625 24.9375 C-5.96035156 24.92589844 -4.85820313 24.91429688 -3.72265625 24.90234375 C-1 25 -1 25 0 26 C1.91424457 25.8981629 1.91424457 25.8981629 4.0625 25.5625 C5.361875 25.376875 6.66125 25.19125 8 25 C5.03 24.67 2.06 24.34 -1 24 C-1.02887236 20.18751574 -1.04675492 16.3750593 -1.0625 12.5625 C-1.07087891 11.47388672 -1.07925781 10.38527344 -1.08789062 9.26367188 C-1.09111328 8.22919922 -1.09433594 7.19472656 -1.09765625 6.12890625 C-1.10289307 5.17056885 -1.10812988 4.21223145 -1.11352539 3.22485352 C-1 1 -1 1 0 0 Z " fill="#BF7B64" transform="translate(77,36)"/>
<path d="M0 0 C12.54 0 25.08 0 38 0 C39.18475859 3.55427577 39.14345718 6.77862078 39.1328125 10.4765625 C39.13376923 11.20241547 39.13472595 11.92826843 39.13571167 12.67611694 C39.13639134 14.20758145 39.13455189 15.73904886 39.13037109 17.27050781 C39.12500431 19.62311201 39.13033116 21.97552662 39.13671875 24.328125 C39.13605823 25.81510459 39.13477762 27.30208406 39.1328125 28.7890625 C39.13483673 29.49632477 39.13686096 30.20358704 39.13894653 30.93228149 C39.11496243 35.88503757 39.11496243 35.88503757 38 37 C35.98035801 37.07244053 33.95832876 37.08377188 31.9375 37.0625 C30.83277344 37.05347656 29.72804688 37.04445312 28.58984375 37.03515625 C27.73519531 37.02355469 26.88054687 37.01195312 26 37 C26.495 36.01 26.495 36.01 27 35 C28.65 35.33 30.3 35.66 32 36 C32 35.34 32 34.68 32 34 C32.474375 33.608125 32.94875 33.21625 33.4375 32.8125 C38.03282108 27.48192755 36.27083431 16.53985199 36 10 C35.55912344 7.69939725 35.55912344 7.69939725 35 6 C32.36 6 29.72 6 27 6 C27 5.34 27 4.68 27 4 C26.071875 4.185625 25.14375 4.37125 24.1875 4.5625 C21 5 21 5 18 4 C14.26598292 3.92678398 11.87277891 4.2620132 8.9765625 6.7109375 C7.60733472 8.12213394 6.25064024 9.54559071 4.90625 10.98046875 C2.34773119 13.69103069 0.39383796 15.411395 -3 17 C-6.875 16.25 -6.875 16.25 -10 15 C-10 14.34 -10 13.68 -10 13 C-11.32 13.33 -12.64 13.66 -14 14 C-14.66 10.7 -15.32 7.4 -16 4 C-16.928125 4.185625 -17.85625 4.37125 -18.8125 4.5625 C-25.14621789 5.4802428 -31.85168257 4.69906664 -38 3 C-38 2.34 -38 1.68 -38 1 C-34.95778935 0.91867358 -31.9177762 0.85934626 -28.875 0.8125 C-28.0190625 0.78736328 -27.163125 0.76222656 -26.28125 0.73632812 C-21.09912797 0.67653441 -17.45272316 1.02445008 -13 4 C-11.75 6.5 -11.75 6.5 -11 9 C-9.39519216 12.12606964 -9.39519216 12.12606964 -7.0546875 12.51171875 C-5.97574219 12.59873047 -5.97574219 12.59873047 -4.875 12.6875 C-3.59625 12.790625 -2.3175 12.89375 -1 13 C-0.83147753 11.39602723 -0.66525114 9.7918131 -0.5 8.1875 C-0.36078125 6.84751953 -0.36078125 6.84751953 -0.21875 5.48046875 C0.04392401 2.91694901 0.04392401 2.91694901 0 0 Z " fill="#D6826A" transform="translate(62,23)"/>
<path d="M0 0 C1.51122432 -0.01656403 3.02237014 -0.04386078 4.53320312 -0.08203125 C6.71476759 -0.13684443 8.89449961 -0.15867593 11.07666016 -0.17333984 C12.3836084 -0.19315918 13.69055664 -0.21297852 15.03710938 -0.23339844 C18.39697266 0.35009766 18.39697266 0.35009766 20.80273438 2.7565918 C22.80278158 6.01026736 23.52776862 8.65598049 24.39697266 12.35009766 C27.03697266 12.68009766 29.67697266 13.01009766 32.39697266 13.35009766 C32.39697266 13.68009766 32.39697266 14.01009766 32.39697266 14.35009766 C27.19563486 14.78354247 27.19563486 14.78354247 24.39697266 14.35009766 C21.90587657 12.05062434 20.62745219 10.50249534 19.95947266 7.16259766 C19.5623604 5.14831892 19.5623604 5.14831892 17.44384766 4.25634766 C13.28327298 3.01884339 9.40238 3.02079646 5.08447266 3.03759766 C4.26785156 3.02148438 3.45123047 3.00537109 2.60986328 2.98876953 C-3.11345235 2.98420912 -7.39716827 3.93246141 -12.60302734 6.35009766 C-13.77878882 8.70162061 -13.73212632 10.12526525 -13.73583984 12.74462891 C-13.73777344 14.05463867 -13.73777344 14.05463867 -13.73974609 15.39111328 C-13.73587891 16.30570313 -13.73201172 17.22029297 -13.72802734 18.16259766 C-13.73189453 19.06558594 -13.73576172 19.96857422 -13.73974609 20.89892578 C-13.8575351 27.21939181 -13.8575351 27.21939181 -12.60302734 33.35009766 C-10.63687073 34.41509915 -8.63575808 35.4184294 -6.60302734 36.35009766 C-6.27302734 37.34009766 -5.94302734 38.33009766 -5.60302734 39.35009766 C-4.61302734 39.35009766 -3.62302734 39.35009766 -2.60302734 39.35009766 C-2.27302734 41.00009766 -1.94302734 42.65009766 -1.60302734 44.35009766 C-0.67490234 44.57697266 0.25322266 44.80384766 1.20947266 45.03759766 C5.00647922 46.60107095 5.41331843 47.90026422 7.39697266 51.35009766 C9.0551405 52.03763066 10.72156602 52.70571049 12.39697266 53.35009766 C14.16091475 55.95401217 14.39697266 57.15790062 14.39697266 60.35009766 C15.71697266 60.35009766 17.03697266 60.35009766 18.39697266 60.35009766 C18.39697266 61.01009766 18.39697266 61.67009766 18.39697266 62.35009766 C19.05697266 62.35009766 19.71697266 62.35009766 20.39697266 62.35009766 C20.39697266 63.01009766 20.39697266 63.67009766 20.39697266 64.35009766 C21.05697266 64.35009766 21.71697266 64.35009766 22.39697266 64.35009766 C22.89197266 63.36009766 22.89197266 63.36009766 23.39697266 62.35009766 C23.39697266 64.99009766 23.39697266 67.63009766 23.39697266 70.35009766 C24.05697266 70.35009766 24.71697266 70.35009766 25.39697266 70.35009766 C25.39697266 71.01009766 25.39697266 71.67009766 25.39697266 72.35009766 C27.34696395 72.15538655 27.34696395 72.15538655 29.39697266 71.35009766 C30.59700608 69.53408401 30.59700608 69.53408401 31.39697266 67.35009766 C32.06363932 66.01676432 32.73030599 64.68343099 33.39697266 63.35009766 C34.71697266 63.68009766 36.03697266 64.01009766 37.39697266 64.35009766 C36.13124352 69.29794791 34.59727819 72.33683499 30.39697266 75.35009766 C27.51019556 75.46792529 25.25749372 74.98038196 22.39697266 74.35009766 C22.23841797 73.79580078 22.07986328 73.24150391 21.91650391 72.67041016 C21.20451516 70.45970475 20.46700367 68.41311746 19.39697266 66.35009766 C17.74936885 65.63762034 16.07933737 64.97609383 14.39697266 64.35009766 C11.36501949 60.95221911 8.91848496 57.13236611 6.39697266 53.35009766 C5.32447266 52.79322266 4.25197266 52.23634766 3.14697266 51.66259766 C-0.77118059 49.56967108 -2.63935895 46.76801659 -5.13037109 43.17431641 C-7.19596411 40.61561099 -9.62489054 39.64493975 -12.60302734 38.35009766 C-15.37973913 36.16059161 -16.48766792 35.04656894 -17.07299805 31.51269531 C-17.05841553 30.44067871 -17.04383301 29.36866211 -17.02880859 28.26416016 C-17.02042969 27.08595703 -17.01205078 25.90775391 -17.00341797 24.69384766 C-16.97441406 23.46666016 -16.94541016 22.23947266 -16.91552734 20.97509766 C-16.90585937 19.75564453 -16.89619141 18.53619141 -16.88623047 17.27978516 C-16.74910244 6.35723968 -16.74910244 6.35723968 -15.60302734 1.35009766 C-11.10216522 -0.9003334 -5.00413428 0.04022441 0 0 Z " fill="#B3764F" transform="translate(28.60302734375,21.64990234375)"/>
<path d="M0 0 C11.88 0 23.76 0 36 0 C36 0.33 36 0.66 36 1 C22.635 1.495 22.635 1.495 9 2 C11.52120545 2 14.0414079 1.98482432 16.5625 1.96484375 C18.37499905 1.95554207 20.18749911 1.94643486 22 1.9375 C22.91523437 1.92912109 23.83046875 1.92074219 24.7734375 1.91210938 C25.65257813 1.90888672 26.53171875 1.90566406 27.4375 1.90234375 C28.24058594 1.89710693 29.04367188 1.89187012 29.87109375 1.88647461 C32 2 32 2 35 3 C35.04241723 5.33294775 35.04092937 7.66702567 35 10 C32.38604779 12.61395221 25.2478477 11.23009544 21.69921875 11.24023438 C19.64021227 11.24992838 17.58220893 11.28093283 15.5234375 11.3125 C14.22921875 11.31765625 12.935 11.3228125 11.6015625 11.328125 C9.81226318 11.34214355 9.81226318 11.34214355 7.98681641 11.35644531 C5 11 5 11 3.09912109 9.70996094 C1.31658513 6.93677526 1.81912262 4.19550044 2 1 C1.34 0.67 0.68 0.34 0 0 Z " fill="#799857" transform="translate(13,10)"/>
<path d="M0 0 C4.29 0 8.58 0 13 0 C13.02682614 3.97921094 13.04675393 7.95824341 13.0625 11.9375 C13.07087891 13.07380859 13.07925781 14.21011719 13.08789062 15.38085938 C13.09111328 16.46044922 13.09433594 17.54003906 13.09765625 18.65234375 C13.10289307 19.65257568 13.10812988 20.65280762 13.11352539 21.68334961 C13 24 13 24 12 25 C8.04 25 4.08 25 0 25 C0 16.75 0 8.5 0 0 Z " fill="#769958" transform="translate(542,48)"/>
<path d="M0 0 C3.96 0 7.92 0 12 0 C12 8.25 12 16.5 12 25 C8.04 25 4.08 25 0 25 C0 16.75 0 8.5 0 0 Z " fill="#719A51" transform="translate(391,48)"/>
<path d="M0 0 C3.63 0 7.26 0 11 0 C11 7.92 11 15.84 11 24 C7.04 24 3.08 24 -1 24 C-1.02682792 20.18745377 -1.04675477 16.37509388 -1.0625 12.5625 C-1.07087891 11.47388672 -1.07925781 10.38527344 -1.08789062 9.26367188 C-1.09111328 8.22919922 -1.09433594 7.19472656 -1.09765625 6.12890625 C-1.10289307 5.17056885 -1.10812988 4.21223145 -1.11352539 3.22485352 C-1 1 -1 1 0 0 Z " fill="#080000" transform="translate(77,36)"/>
<path d="M0 0 C11.88 0 23.76 0 36 0 C36 0.33 36 0.66 36 1 C27.585 1.495 27.585 1.495 19 2 C23.95 2 28.9 2 34 2 C35 4 35 4 35 10 C24.11 10 13.22 10 2 10 C3 3 3 3 4 2 C2.68 1.34 1.36 0.68 0 0 Z " fill="#7A9859" transform="translate(64,10)"/>
<path d="M0 0 C0.66 0.33 1.32 0.66 2 1 C-2.32179108 6.53189259 -6.7807138 12.03955786 -12 16.75 C-12.99 17.86375 -12.99 17.86375 -14 19 C-13.95502158 21.27523089 -13.95502158 21.27523089 -13 23 C-14.98 23 -16.96 23 -19 23 C-19 26.96 -19 30.92 -19 35 C-22.96 35 -26.92 35 -31 35 C-31 31.04 -31 27.08 -31 23 C-35.29 23 -39.58 23 -44 23 C-44 19.04 -44 15.08 -44 11 C-43.34 11 -42.68 11 -42 11 C-40.39274365 14.21451269 -40.94251815 17.43612536 -41 21 C-40.14728516 20.96519531 -40.14728516 20.96519531 -39.27734375 20.9296875 C-35.24344061 20.83540596 -32.1620821 20.95137537 -28.25 22.125 C-24.41668065 23.15704752 -23.42411154 22.86093018 -20 21 C-18.08686082 18.69574342 -18.08686082 18.69574342 -16.5 16 C-14.02023724 11.97623401 -12.45245714 10.54351848 -8 9 C-7.67 8.34 -7.34 7.68 -7 7 C-6.34 7 -5.68 7 -5 7 C-4.731875 6.401875 -4.46375 5.80375 -4.1875 5.1875 C-3.01506533 3.02775192 -1.80630718 1.64209744 0 0 Z " fill="#8B9155" transform="translate(82,75)"/>
<path d="M0 0 C0.66 0.33 1.32 0.66 2 1 C4.14276771 1.09757427 6.28860657 1.13077146 8.43359375 1.1328125 C10.3662207 1.13474609 10.3662207 1.13474609 12.33789062 1.13671875 C13.01053955 1.13462402 13.68318848 1.1325293 14.3762207 1.13037109 C16.42601965 1.12502991 18.47559859 1.13031546 20.52539062 1.13671875 C21.81509766 1.13542969 23.10480469 1.13414063 24.43359375 1.1328125 C25.62009521 1.13168457 26.80659668 1.13055664 28.02905273 1.12939453 C31.05635379 1.13379825 31.05635379 1.13379825 34 0 C34 0.66 34 1.32 34 2 C35.72945653 1.85764543 37.45855654 1.71095618 39.1875 1.5625 C40.15042969 1.48128906 41.11335938 1.40007813 42.10546875 1.31640625 C44.97623084 1.0457542 44.97623084 1.0457542 47.67578125 0.46484375 C50 0 50 0 53 0 C53 0.66 53 1.32 53 2 C53.51304687 1.835 54.02609375 1.67 54.5546875 1.5 C57.78305247 0.83988703 60.83287831 0.94501676 64.125 1 C68.72725335 1.26438564 68.72725335 1.26438564 73 0 C73 0.66 73 1.32 73 2 C73.515625 1.855625 74.03125 1.71125 74.5625 1.5625 C82.90909091 -0.36363636 82.90909091 -0.36363636 87 1 C88.72622232 1.08204982 90.45545041 1.10746753 92.18359375 1.09765625 C93.69856445 1.09282227 93.69856445 1.09282227 95.24414062 1.08789062 C96.82485352 1.07532227 96.82485352 1.07532227 98.4375 1.0625 C99.48744141 1.05798828 100.53738281 1.05347656 101.61914062 1.04882812 C103.57349776 1.04010888 105.52784756 1.02933787 107.48217773 1.01586914 C113.96253782 0.97502521 113.96253782 0.97502521 117 3 C72.12 3 27.24 3 -19 3 C-19 2.67 -19 2.34 -19 2 C-13.60061976 1.20009182 -8.46186219 0.92917589 -3.00390625 1.0625 C-1.00068975 1.22892969 -1.00068975 1.22892969 0 0 Z " fill="#708D55" transform="translate(410,32)"/>
<path d="M0 0 C5.60655738 1.3704918 5.60655738 1.3704918 7.5625 4.5 C8.036875 5.325 8.51125 6.15 9 7 C10.65816784 7.68753301 12.32459336 8.35561283 14 9 C15.76394209 11.60391451 16 12.80780296 16 16 C17.32 16 18.64 16 20 16 C20 16.66 20 17.32 20 18 C20.66 18 21.32 18 22 18 C22 18.66 22 19.32 22 20 C22.66 20 23.32 20 24 20 C24.33 19.34 24.66 18.68 25 18 C25 20.64 25 23.28 25 26 C25.66 26 26.32 26 27 26 C27 26.66 27 27.32 27 28 C28.94999129 27.80528889 28.94999129 27.80528889 31 27 C32.20003343 25.18398635 32.20003343 25.18398635 33 23 C33.66666667 21.66666667 34.33333333 20.33333333 35 19 C36.32 19.33 37.64 19.66 39 20 C37.73427086 24.94785026 36.20030554 27.98673733 32 31 C29.1132229 31.11782764 26.86052106 30.6302843 24 30 C23.84144531 29.44570312 23.68289062 28.89140625 23.51953125 28.3203125 C22.8075425 26.1096071 22.07003102 24.0630198 21 22 C19.3523962 21.28752268 17.68236471 20.62599617 16 20 C12.96804684 16.60212145 10.52151231 12.78226846 8 9 C5.94996045 7.80767387 5.94996045 7.80767387 4 7 C4 5.68 4 4.36 4 3 C2.68 2.34 1.36 1.68 0 1 C0 0.67 0 0.34 0 0 Z " fill="#B67251" transform="translate(27,66)"/>
<path d="M0 0 C4.29 0 8.58 0 13 0 C13.09765625 9.27734375 13.09765625 9.27734375 13 12 C12 13 12 13 9.27734375 13.09765625 C6.18489583 13.06510417 3.09244792 13.03255208 0 13 C0 8.71 0 4.42 0 0 Z " fill="#7B9C5C" transform="translate(529,73)"/>
<path d="M0 0 C9.27734375 -0.09765625 9.27734375 -0.09765625 12 0 C13 1 13 1 13.09765625 3.72265625 C13.04882812 8.36132812 13.04882812 8.36132812 13 13 C8.71 13 4.42 13 0 13 C0 8.71 0 4.42 0 0 Z " fill="#74925A" transform="translate(529,35)"/>
<path d="M0 0 C1.32 0 2.64 0 4 0 C4.02686553 1.97909398 4.04633375 3.95828971 4.0625 5.9375 C4.07410156 7.03964844 4.08570313 8.14179688 4.09765625 9.27734375 C4 12 4 12 3 13 C1.22839682 13.09634459 -0.54708408 13.12187481 -2.32130432 13.12025452 C-3.47541809 13.12162918 -4.62953186 13.12300385 -5.81861877 13.12442017 C-7.09607468 13.12082489 -8.37353058 13.11722961 -9.68969727 13.11352539 C-11.03958128 13.11324352 -12.38946544 13.11340125 -13.73934937 13.1139679 C-17.41480608 13.11425587 -21.09023043 13.10835916 -24.7656796 13.10139394 C-28.60273149 13.09516038 -32.43978404 13.0945566 -36.27684021 13.09336853 C-43.54771218 13.09025522 -50.81856919 13.08204183 -58.08943456 13.07201904 C-66.36499352 13.0608579 -74.64055318 13.05534745 -82.91611779 13.05032361 C-99.94408719 13.03985922 -116.97204202 13.02225978 -134 13 C-134 12.67 -134 12.34 -134 12 C-89.12 12 -44.24 12 2 12 C2 9.03 2 6.06 2 3 C1.34 3 0.68 3 0 3 C0 2.01 0 1.02 0 0 Z " fill="#A6BB90" transform="translate(525,23)"/>
<path d="M0 0 C12.54 0 25.08 0 38 0 C39.18975795 3.56927385 39.12478155 6.79946972 39.09765625 10.51171875 C39.0962413 11.23994339 39.09482635 11.96816803 39.09336853 12.71846008 C39.08777659 15.04151539 39.07522562 17.36447388 39.0625 19.6875 C39.05748396 21.26367048 39.05292123 22.83984248 39.04882812 24.41601562 C39.0378098 28.27738098 39.02055074 32.13867408 39 36 C36.525 36.495 36.525 36.495 34 37 C34.48726562 36.23816406 34.97453125 35.47632813 35.4765625 34.69140625 C37.54082105 29.68954899 37.43861891 25.29209188 37.375 19.9375 C37.38660156 18.95716797 37.39820313 17.97683594 37.41015625 16.96679688 C37.49738692 9.89375402 37.49738692 9.89375402 34 4 C24.38913574 -0.46266704 12.69251224 1.76916259 3 5 C2.64587656 6.32796291 2.31478446 7.66216607 2 9 C1.03259701 10.03156747 0.03514907 11.03643039 -1 12 C-0.9278125 11.38511719 -0.855625 10.77023438 -0.78125 10.13671875 C-0.64203125 8.92435547 -0.64203125 8.92435547 -0.5 7.6875 C-0.4071875 6.88699219 -0.314375 6.08648437 -0.21875 5.26171875 C0.04813463 2.88103445 0.04813463 2.88103445 0 0 Z " fill="#BF8B64" transform="translate(62,23)"/>
<path d="M0 0 C4.29 0 8.58 0 13 0 C13 0.33 13 0.66 13 1 C8.545 1.495 8.545 1.495 4 2 C3.67 12.89 3.34 23.78 3 35 C5.97 35 8.94 35 12 35 C12 35.66 12 36.32 12 37 C8.04 37 4.08 37 0 37 C0 24.79 0 12.58 0 0 Z " fill="#8FA774" transform="translate(0,23)"/>
<path d="M0 0 C0 4.62 0 9.24 0 14 C0.66 14 1.32 14 2 14 C2 16.31 2 18.62 2 21 C1.731875 20.4225 1.46375 19.845 1.1875 19.25 C0.5996875 18.13625 0.5996875 18.13625 0 17 C-0.36005127 16.30165039 -0.72010254 15.60330078 -1.09106445 14.88378906 C-3.49451372 12.51200053 -5.2292559 12.54535126 -8.52372742 12.54681396 C-9.25195206 12.56745911 -9.9801767 12.58810425 -10.73046875 12.609375 C-11.48088943 12.61503479 -12.23131012 12.62069458 -13.00447083 12.62652588 C-15.39946504 12.64890332 -17.79295869 12.69909829 -20.1875 12.75 C-21.81182734 12.77006341 -23.43617815 12.78831447 -25.06054688 12.8046875 C-29.04094207 12.84877206 -33.02021671 12.91780573 -37 13 C-37 9.04 -37 5.08 -37 1 C-36.34 1 -35.68 1 -35 1 C-34.87625 2.11375 -34.7525 3.2275 -34.625 4.375 C-34.3534187 8.03103677 -34.3534187 8.03103677 -32 10 C-28.98736275 10.27891147 -28.98736275 10.27891147 -25.4609375 10.1953125 C-24.15898437 10.18886719 -22.85703125 10.18242187 -21.515625 10.17578125 C-20.13541405 10.15906929 -18.75520571 10.14213939 -17.375 10.125 C-15.98698548 10.11497006 -14.59896411 10.10584423 -13.2109375 10.09765625 C-9.80711974 10.07401863 -6.40364494 10.04106867 -3 10 C-2.67 7.69 -2.34 5.38 -2 3 C-5.77081722 2.97100401 -9.54160583 2.95320271 -13.3125 2.9375 C-14.38435547 2.92912109 -15.45621094 2.92074219 -16.56054688 2.91210938 C-17.58857422 2.90888672 -18.61660156 2.90566406 -19.67578125 2.90234375 C-20.62364502 2.89710693 -21.57150879 2.89187012 -22.5480957 2.88647461 C-25.13838681 2.89501146 -25.13838681 2.89501146 -28 4 C-28.33 3.01 -28.66 2.02 -29 1 C-25.03068844 0.8573582 -21.06136866 0.71494744 -17.09204102 0.57275391 C-15.74080174 0.5243154 -14.38956475 0.47581297 -13.03833008 0.42724609 C-11.09977813 0.35758049 -9.16121732 0.28816139 -7.22265625 0.21875 C-5.47094116 0.1559082 -5.47094116 0.1559082 -3.68383789 0.09179688 C-1 0 -1 0 0 0 Z " fill="#92A46C" transform="translate(50,10)"/>
<path d="M0 0 C3.3 0 6.6 0 10 0 C10.02886984 3.97915159 10.04675406 7.95827653 10.0625 11.9375 C10.07087891 13.07380859 10.07925781 14.21011719 10.08789062 15.38085938 C10.09111328 16.46044922 10.09433594 17.54003906 10.09765625 18.65234375 C10.10289307 19.65257568 10.10812988 20.65280762 10.11352539 21.68334961 C10 24 10 24 9 25 C6.98035801 25.07244053 4.95832876 25.08377188 2.9375 25.0625 C1.83277344 25.05347656 0.72804688 25.04445313 -0.41015625 25.03515625 C-1.69212891 25.01775391 -1.69212891 25.01775391 -3 25 C-3 24.34 -3 23.68 -3 23 C-0.03 22.67 2.94 22.34 6 22 C5.814375 21.13375 5.62875 20.2675 5.4375 19.375 C4.53050901 13.2906021 5.45112688 7.0882695 6 1 C4.02 1 2.04 1 0 1 C0 0.67 0 0.34 0 0 Z " fill="#839B6D" transform="translate(545,48)"/>
<path d="M0 0 C3.63 0 7.26 0 11 0 C11 3.63 11 7.26 11 11 C7.04 11 3.08 11 -1 11 C-1.125 2.25 -1.125 2.25 0 0 Z " fill="#3B0A09" transform="translate(64,61)"/>
<path d="M0 0 C0.66 0 1.32 0 2 0 C3.60725635 3.21451269 3.05748185 6.43612536 3 10 C3.59167969 9.97679688 4.18335938 9.95359375 4.79296875 9.9296875 C9.33801959 9.82588536 12.85940059 9.86291643 17 12 C16.814375 13.11375 16.62875 14.2275 16.4375 15.375 C15.68319343 18.82568861 15.68319343 18.82568861 17 21 C18.65 20.67 20.3 20.34 22 20 C22.33 18.02 22.66 16.04 23 14 C23.66 14.33 24.32 14.66 25 15 C25 17.97 25 20.94 25 24 C21.04 24 17.08 24 13 24 C13 20.04 13 16.08 13 12 C8.71 12 4.42 12 0 12 C0 8.04 0 4.08 0 0 Z " fill="#90A371" transform="translate(38,86)"/>
<path d="M0 0 C3.63 0 7.26 0 11 0 C11 7.92 11 15.84 11 24 C7.04 24 3.08 24 -1 24 C-1.02682792 20.18745377 -1.04675477 16.37509388 -1.0625 12.5625 C-1.07087891 11.47388672 -1.07925781 10.38527344 -1.08789062 9.26367188 C-1.09111328 8.22919922 -1.09433594 7.19472656 -1.09765625 6.12890625 C-1.10289307 5.17056885 -1.10812988 4.21223145 -1.11352539 3.22485352 C-1 1 -1 1 0 0 Z M1.703125 1.98828125 C-0.91821458 5.08458832 -0.42482333 8.33802483 -0.25 12.1875 C-0.23195313 12.93708984 -0.21390625 13.68667969 -0.1953125 14.45898438 C-0.14824109 16.3065371 -0.07649766 18.15343159 0 20 C1.65 20 3.3 20 5 20 C5.33 20.66 5.66 21.32 6 22 C7.92536938 20.39441516 8.91074167 19.52230522 9.34057617 17.00708008 C9.3170105 15.89949341 9.3170105 15.89949341 9.29296875 14.76953125 C9.28330078 13.96708984 9.27363281 13.16464844 9.26367188 12.33789062 C9.23853516 11.50451172 9.21339844 10.67113281 9.1875 9.8125 C9.17396484 8.96751953 9.16042969 8.12253906 9.14648438 7.25195312 C9.11115799 5.16769616 9.05735139 3.08376723 9 1 C6.1811271 0.76509392 4.31813812 0.86311404 1.703125 1.98828125 Z " fill="#441312" transform="translate(77,36)"/>
<path d="M0 0 C0.99 0 1.98 0 3 0 C2.97905273 0.94842773 2.95810547 1.89685547 2.93652344 2.87402344 C2.8682644 6.40016425 2.81816071 9.92560099 2.78027344 13.45214844 C2.76018401 14.97700085 2.73290684 16.50177648 2.69824219 18.02636719 C2.64960204 20.22089598 2.62700604 22.41440469 2.609375 24.609375 C2.58842773 25.92905273 2.56748047 27.24873047 2.54589844 28.60839844 C2.7171549 32.04370297 2.7171549 32.04370297 4.83300781 34.36816406 C7.04798947 36.14302363 7.04798947 36.14302363 10.0625 37.5 C13.04590085 39.02343873 14.2604263 40.19735348 16 43 C15.67 43.66 15.34 44.32 15 45 C12 44 12 44 10.6875 42.625 C8.94176511 40.76551027 8.94176511 40.76551027 5.875 39.5625 C3 38 3 38 2.125 35.8125 C2.063125 34.9153125 2.063125 34.9153125 2 34 C1.34 34 0.68 34 0 34 C0 22.78 0 11.56 0 0 Z " fill="#918E52" transform="translate(10,24)"/>
<path d="M0 0 C9.9 0 19.8 0 30 0 C30 2.97 30 5.94 30 9 C26.34658786 11.43560809 24.77519539 11.17948208 20.4375 11.0625 C14.28920349 10.95184449 8.20079445 11.13259486 2.0625 11.5 C1.26320068 11.54777588 0.46390137 11.59555176 -0.35961914 11.64477539 C-2.23995374 11.75983911 -4.12001204 11.87940512 -6 12 C-5.67 11.01 -5.34 10.02 -5 9 C6.09046577 7.68452505 16.88844641 8.27990929 28 9 C27.505 5.04 27.505 5.04 27 1 C26.32420898 1.0407666 25.64841797 1.0815332 24.95214844 1.12353516 C21.88530682 1.30210941 18.81779817 1.46372985 15.75 1.625 C14.68652344 1.68945312 13.62304688 1.75390625 12.52734375 1.8203125 C10.99013672 1.89765625 10.99013672 1.89765625 9.421875 1.9765625 C8.47924805 2.02893066 7.53662109 2.08129883 6.56542969 2.13525391 C4 2 4 2 0 0 Z " fill="#8B8E55" transform="translate(71,11)"/>
<path d="M0 0 C3.63 0 7.26 0 11 0 C10.67 0.66 10.34 1.32 10 2 C7.36 1.67 4.72 1.34 2 1 C2.08378906 1.92941406 2.16757812 2.85882813 2.25390625 3.81640625 C3.26537786 16.09490334 3.26537786 16.09490334 2 22 C4.64 22 7.28 22 10 22 C10.33 16.39 10.66 10.78 11 5 C11.33 5 11.66 5 12 5 C12 11.6 12 18.2 12 25 C8.04 25 4.08 25 0 25 C0 16.75 0 8.5 0 0 Z " fill="#5A8D39" transform="translate(391,48)"/>
<path d="M0 0 C2.71224618 1.61268692 5.37352812 3.24901874 8 5 C8 5.99 8 6.98 8 8 C8.639375 8.268125 9.27875 8.53625 9.9375 8.8125 C12 10 12 10 13 13 C13.763125 12.9175 14.52625 12.835 15.3125 12.75 C18 13 18 13 19.8125 14.6875 C21.17577792 17.34230436 21.24535485 19.05574183 21 22 C18.36 22 15.72 22 13 22 C12.67 18.7 12.34 15.4 12 12 C8.37 12 4.74 12 1 12 C1 11.67 1 11.34 1 11 C2.98 10.67 4.96 10.34 7 10 C7 9.34 7 8.68 7 8 C6.34 8 5.68 8 5 8 C4.731875 7.38125 4.46375 6.7625 4.1875 6.125 C3.04443152 3.7004767 3.04443152 3.7004767 0 2 C0 1.34 0 0.68 0 0 Z " fill="#8F8C54" transform="translate(28,74)"/>
<path d="M0 0 C17.49 0 34.98 0 53 0 C52.67 0.66 52.34 1.32 52 2 C51.20335937 1.98839844 50.40671875 1.97679688 49.5859375 1.96484375 C44.24418145 1.91935434 39.26718705 2.0297287 34 3 C33.34 2.67 32.68 2.34 32 2 C29.57178729 1.87219933 27.51323999 1.84866 25.171875 2.5390625 C22.4999251 3.106131 20.33176544 2.83360695 17.625 2.5 C13.48797811 2.05930526 10.09842965 2.20030641 6 3 C2.9597814 2.57774742 2.22050056 2.22050056 0 0 Z " fill="#81A766" transform="translate(461,23)"/>
<path d="M0 0 C0.33 0 0.66 0 1 0 C1 7.59 1 15.18 1 23 C3.97 23 6.94 23 10 23 C10.99 23.66 11.98 24.32 13 25 C9.37 25 5.74 25 2 25 C2 28.3 2 31.6 2 35 C1.67 35 1.34 35 1 35 C1 31.37 1 27.74 1 24 C-3.29 24 -7.58 24 -12 24 C-12.33 23.34 -12.66 22.68 -13 22 C-12.30132812 21.96261719 -11.60265625 21.92523438 -10.8828125 21.88671875 C-9.97273438 21.82097656 -9.06265625 21.75523438 -8.125 21.6875 C-7.22007813 21.62949219 -6.31515625 21.57148437 -5.3828125 21.51171875 C-2.63778399 21.2117961 -2.63778399 21.2117961 -1 18 C-0.54084493 15.03157342 -0.54084493 15.03157342 -0.375 11.8125 C-0.30023438 10.72582031 -0.22546875 9.63914062 -0.1484375 8.51953125 C-0.09945312 7.68808594 -0.05046875 6.85664062 0 6 C-0.66 6 -1.32 6 -2 6 C-1.34 4.02 -0.68 2.04 0 0 Z " fill="#ED8E8B" transform="translate(75,37)"/>
<path d="M0 0 C0.33 0.99 0.66 1.98 1 3 C1.66 3 2.32 3 3 3 C2.67 14.22 2.34 25.44 2 37 C1.67 37 1.34 37 1 37 C0.67 25.78 0.34 14.56 0 3 C-9.9 3 -19.8 3 -30 3 C-30 2.67 -30 2.34 -30 2 C-22.01541893 1.23435524 -14.13323706 0.89754216 -6.11914062 1.03710938 C-4.41285608 1.05900641 -2.70608725 1.03395198 -1 1 C-0.67 0.67 -0.34 0.34 0 0 Z " fill="#A18C5D" transform="translate(100,20)"/>
<path d="M0 0 C0.99 0 1.98 0 3 0 C2.814375 0.7425 2.62875 1.485 2.4375 2.25 C1.83373853 4.85060151 1.83373853 4.85060151 2.46484375 6.7578125 C3.17784394 9.74512715 3.1319252 12.557136 3.125 15.625 C3.12757812 16.77226563 3.13015625 17.91953125 3.1328125 19.1015625 C3 22 3 22 2 24 C2.66 24 3.32 24 4 24 C3.745504 25.48206495 3.47088238 26.96068615 3.1875 28.4375 C3.03667969 29.26121094 2.88585937 30.08492187 2.73046875 30.93359375 C2.48941406 31.61550781 2.24835938 32.29742187 2 33 C0.515 33.495 0.515 33.495 -1 34 C-0.67 22.78 -0.34 11.56 0 0 Z " fill="#8B8D54" transform="translate(102,26)"/>
<path d="M0 0 C3.63 0 7.26 0 11 0 C10.125 6.75 10.125 6.75 9 9 C2.84765625 8.4140625 2.84765625 8.4140625 1 8 C-0.35439668 5.29120665 -0.06501451 2.99066732 0 0 Z " fill="#868E4E" transform="translate(52,26)"/>
<path d="M0 0 C3.582906 -0.14533755 7.16505417 -0.23407931 10.75 -0.3125 C11.76578125 -0.35439453 12.7815625 -0.39628906 13.828125 -0.43945312 C21.35193426 -0.56319999 21.35193426 -0.56319999 24.625 2.28125 C26.29633119 5.58592758 27.15423196 8.40548584 28 12 C30.64 12.33 33.28 12.66 36 13 C36 13.33 36 13.66 36 14 C30.79866221 14.43344482 30.79866221 14.43344482 28 14 C25.50890391 11.70052669 24.23047954 10.15239769 23.5625 6.8125 C23.16733037 4.80385809 23.16733037 4.80385809 21.078125 3.92578125 C16.79403514 2.63729229 12.6395282 2.53435671 8.1875 2.375 C7.30384766 2.33632813 6.42019531 2.29765625 5.50976562 2.2578125 C3.34017028 2.16399216 1.17011453 2.08092674 -1 2 C-0.67 1.34 -0.34 0.68 0 0 Z " fill="#B58B61" transform="translate(25,22)"/>
<path d="M0 0 C3.3 0 6.6 0 10 0 C8.30978261 6.76086957 8.30978261 6.76086957 6.44140625 8.203125 C4.65989705 9.19573304 2.83044883 10.10083215 1 11 C0.34 10.67 -0.32 10.34 -1 10 C-0.67 6.7 -0.34 3.4 0 0 Z " fill="#D87E72" transform="translate(77,62)"/>
<path d="M0 0 C3.37885998 -0.2852696 6.62910102 -0.42408084 10 0 C13.37209337 3.37209337 13.70036608 7.35567427 14 12 C13.64183381 22.35816619 13.64183381 22.35816619 11 25 C10 24 10 24 9.88647461 21.86694336 C9.89171143 20.95050049 9.89694824 20.03405762 9.90234375 19.08984375 C9.90556641 18.10048828 9.90878906 17.11113281 9.91210938 16.09179688 C9.92048828 15.05087891 9.92886719 14.00996094 9.9375 12.9375 C9.94201172 11.89271484 9.94652344 10.84792969 9.95117188 9.77148438 C9.96300073 7.18096546 9.98093681 4.59047578 10 2 C6.7 1.67 3.4 1.34 0 1 C0 0.67 0 0.34 0 0 Z " fill="#EE8E8B" transform="translate(78,34)"/>
<path d="M0 0 C1.2727658 2.5455316 0.87758049 3.75209978 0.5 6.5625 C-0.32616383 14.4058275 0.40277237 22.16253591 1 30 C0.01 29.67 -0.98 29.34 -2 29 C-3.28950605 24.01876294 -3.22052806 19.04719758 -3.25 13.9375 C-3.270625 13.03966797 -3.29125 12.14183594 -3.3125 11.21679688 C-3.35180641 4.60840747 -3.35180641 4.60840747 -1.484375 1.37890625 C-0.99453125 0.92386719 -0.5046875 0.46882813 0 0 Z " fill="#C7694F" transform="translate(17,26)"/>
<path d="M0 0 C0.33 0.66 0.66 1.32 1 2 C-3.455 3.485 -3.455 3.485 -8 5 C-8.74957157 8.47147842 -8.74957157 8.47147842 -9 12 C-8.01 11.67 -7.02 11.34 -6 11 C-3.99124558 11.27571139 -1.98821313 11.60235737 0 12 C0 12.33 0 12.66 0 13 C-3.96 13 -7.92 13 -12 13 C-12 9.04 -12 5.08 -12 1 C-6.06 0.505 -6.06 0.505 0 0 Z " fill="#E1F0D1" transform="translate(403,72)"/>
<path d="M0 0 C0.66 0 1.32 0 2 0 C2.12375 1.11375 2.2475 2.2275 2.375 3.375 C2.6465813 7.03103677 2.6465813 7.03103677 5 9 C8.11038944 9.27904629 8.11038944 9.27904629 11.7578125 9.1953125 C12.42086395 9.1924826 13.08391541 9.18965271 13.76705933 9.18673706 C15.88655583 9.17553435 18.00563104 9.15043051 20.125 9.125 C21.56119182 9.11497028 22.99739025 9.10584441 24.43359375 9.09765625 C27.95586628 9.075595 31.47789203 9.04106494 35 9 C35 9.66 35 10.32 35 11 C17.675 11.495 17.675 11.495 0 12 C0 8.04 0 4.08 0 0 Z " fill="#948D55" transform="translate(13,11)"/>
<path d="M0 0 C2.64 0 5.28 0 8 0 C8 2.31 8 4.62 8 7 C5.29120665 8.35439668 2.99066732 8.06501451 0 8 C0 5.36 0 2.72 0 0 Z " fill="#110000" transform="translate(66,63)"/>
<path d="M0 0 C1.33333333 2.66666667 2.66666667 5.33333333 4 8 C5.65 7.67 7.3 7.34 9 7 C9.33 5.02 9.66 3.04 10 1 C10.66 1.33 11.32 1.66 12 2 C12 4.97 12 7.94 12 11 C8.04 11 4.08 11 0 11 C0 7.37 0 3.74 0 0 Z " fill="#A9B183" transform="translate(51,99)"/>
<path d="M0 0 C3.63 0 7.26 0 11 0 C10.67 0.66 10.34 1.32 10 2 C7.4375 2.625 7.4375 2.625 5 3 C4.34 5.64 3.68 8.28 3 11 C2.01 11 1.02 11 0 11 C0 7.37 0 3.74 0 0 Z " fill="#718959" transform="translate(529,73)"/>
<path d="M0 0 C0.33 0 0.66 0 1 0 C1 7.26 1 14.52 1 22 C-1.31 22 -3.62 22 -6 22 C-6 21.34 -6 20.68 -6 20 C-4.35 20 -2.7 20 -1 20 C-1.00523682 19.42967041 -1.01047363 18.85934082 -1.01586914 18.27172852 C-1.03658221 15.70199677 -1.0496419 13.13228253 -1.0625 10.5625 C-1.07087891 9.66466797 -1.07925781 8.76683594 -1.08789062 7.84179688 C-1.09111328 6.98779297 -1.09433594 6.13378906 -1.09765625 5.25390625 C-1.10289307 4.46314697 -1.10812988 3.6723877 -1.11352539 2.85766602 C-1 1 -1 1 0 0 Z " fill="#629B3B" transform="translate(112,38)"/>
<path d="M0 0 C1.97909398 -0.02686553 3.95828971 -0.04633375 5.9375 -0.0625 C7.03964844 -0.07410156 8.14179687 -0.08570313 9.27734375 -0.09765625 C12 0 12 0 13 1 C13.07244053 3.01964199 13.08377188 5.04167124 13.0625 7.0625 C13.05347656 8.16722656 13.04445313 9.27195312 13.03515625 10.41015625 C13.02355469 11.26480469 13.01195312 12.11945312 13 13 C11.68 12.67 10.36 12.34 9 12 C9.66 12 10.32 12 11 12 C11 8.7 11 5.4 11 2 C7.7 2 4.4 2 1 2 C0.67 3.32 0.34 4.64 0 6 C0 4.02 0 2.04 0 0 Z " fill="#89A275" transform="translate(529,35)"/>
<path d="M0 0 C0.33 0 0.66 0 1 0 C1 6.6 1 13.2 1 20 C-2.96 20 -6.92 20 -11 20 C-10.67 18.35 -10.34 16.7 -10 15 C-9.67 15.66 -9.34 16.32 -9 17 C-6.36 17 -3.72 17 -1 17 C-0.67 11.39 -0.34 5.78 0 0 Z " fill="#62804A" transform="translate(402,53)"/>
<path d="M0 0 C9.9 0 19.8 0 30 0 C30 2.97 30 5.94 30 9 C29.01 9.495 29.01 9.495 28 10 C27.67 7.03 27.34 4.06 27 1 C26.32420898 1.0407666 25.64841797 1.0815332 24.95214844 1.12353516 C21.88530682 1.30210941 18.81779817 1.46372985 15.75 1.625 C14.68652344 1.68945312 13.62304688 1.75390625 12.52734375 1.8203125 C11.50253906 1.871875 10.47773437 1.9234375 9.421875 1.9765625 C8.47924805 2.02893066 7.53662109 2.08129883 6.56542969 2.13525391 C4 2 4 2 0 0 Z " fill="#88AB6A" transform="translate(71,11)"/>
<path d="M0 0 C0.66 0.33 1.32 0.66 2 1 C2.02888514 4.14581423 2.04675923 7.29159469 2.0625 10.4375 C2.07087891 11.33533203 2.07925781 12.23316406 2.08789062 13.15820312 C2.09111328 14.01220703 2.09433594 14.86621094 2.09765625 15.74609375 C2.10289307 16.53685303 2.10812988 17.3276123 2.11352539 18.14233398 C2 20 2 20 1 21 C-1.33297433 21.04092937 -3.66705225 21.04241723 -6 21 C-6 20.67 -6 20.34 -6 20 C-4.02 20 -2.04 20 0 20 C-0.185625 19.113125 -0.37125 18.22625 -0.5625 17.3125 C-1.41838507 11.55905036 -0.56226754 5.75242941 0 0 Z " fill="#81A061" transform="translate(551,50)"/>
<path d="M0 0 C2.31 0.33 4.62 0.66 7 1 C6.360625 1.185625 5.72125 1.37125 5.0625 1.5625 C2.57873787 2.94246056 2.57873787 2.94246056 2.25 6.625 C2.1675 7.73875 2.085 8.8525 2 10 C2.66 10 3.32 10 4 10 C4.33 9.34 4.66 8.68 5 8 C5.99 8 6.98 8 8 8 C8 8.66 8 9.32 8 10 C9.32 10.33 10.64 10.66 12 11 C8.0186217 12.3271261 4.14954773 12.06915913 0 12 C0 8.04 0 4.08 0 0 Z " fill="#E4F3D4" transform="translate(391,36)"/>
<path d="M0 0 C1.5159375 0.2475 1.5159375 0.2475 3.0625 0.5 C6.19716647 0.89805289 8.01109737 0.96610567 11 0.5 C14.90824166 -0.10302947 18.12263393 0.27299386 22 1 C22 1.66 22 2.32 22 3 C12.1 3 2.2 3 -8 3 C-8 2.67 -8 2.34 -8 2 C-6.865625 1.855625 -5.73125 1.71125 -4.5625 1.5625 C-1.19222799 1.38828522 -1.19222799 1.38828522 0 0 Z " fill="#DDE7D4" transform="translate(484,82)"/>
<path d="M0 0 C0 0.66 0 1.32 0 2 C-0.66 2 -1.32 2 -2 2 C-2 2.66 -2 3.32 -2 4 C-2.8971875 4.2784375 -2.8971875 4.2784375 -3.8125 4.5625 C-6.37479084 5.94252369 -6.37479084 5.94252369 -7.375 9.5625 C-7.91125 10.696875 -8.4475 11.83125 -9 13 C-12.1875 13.9375 -12.1875 13.9375 -15 14 C-11.25 10.125 -11.25 10.125 -9 9 C-8.38932856 7.14255793 -8.38932856 7.14255793 -8 5 C-7.5625 2.8125 -7.5625 2.8125 -7 1 C-4.53721199 -0.231394 -2.7204945 -0.07159196 0 0 Z " fill="#AD8258" transform="translate(96,60)"/>
<path d="M0 0 C0.66 0 1.32 0 2 0 C2.02686553 1.97909398 2.04633375 3.95828971 2.0625 5.9375 C2.07410156 7.03964844 2.08570313 8.14179687 2.09765625 9.27734375 C2 12 2 12 1 13 C-1.01964199 13.07244053 -3.04167124 13.08377188 -5.0625 13.0625 C-6.16722656 13.05347656 -7.27195312 13.04445313 -8.41015625 13.03515625 C-9.69212891 13.01775391 -9.69212891 13.01775391 -11 13 C-11 12.34 -11 11.68 -11 11 C-7.37 11 -3.74 11 0 11 C0 7.37 0 3.74 0 0 Z " fill="#859F70" transform="translate(540,73)"/>
<path d="M0 0 C0.33 0 0.66 0 1 0 C1.01981934 0.77714355 1.03963867 1.55428711 1.06005859 2.35498047 C1.15507009 5.86200691 1.26484559 9.36841794 1.375 12.875 C1.4059375 14.09832031 1.436875 15.32164063 1.46875 16.58203125 C1.52675781 18.33193359 1.52675781 18.33193359 1.5859375 20.1171875 C1.6173584 21.19597168 1.6487793 22.27475586 1.68115234 23.38623047 C1.74676322 26.15761654 1.74676322 26.15761654 4 28 C4.66 28.12375 5.32 28.2475 6 28.375 C8 29 8 29 9.25 31.0625 C9.4975 31.701875 9.745 32.34125 10 33 C5.56173102 31.789563 2.86658998 30.64433503 0 27 C-0.45410156 24.06738281 -0.45410156 24.06738281 -0.390625 20.703125 C-0.37773437 19.49785156 -0.36484375 18.29257812 -0.3515625 17.05078125 C-0.31804688 15.79652344 -0.28453125 14.54226562 -0.25 13.25 C-0.23195313 11.98027344 -0.21390625 10.71054687 -0.1953125 9.40234375 C-0.14817153 6.26746923 -0.08237664 3.1341144 0 0 Z " fill="#9E8451" transform="translate(12,29)"/>
<path d="M0 0 C0.33 0 0.66 0 1 0 C1 7.26 1 14.52 1 22 C-3.29 22 -7.58 22 -12 22 C-12 21.67 -12 21.34 -12 21 C-8.97265625 20.75585938 -8.97265625 20.75585938 -5.9453125 20.51171875 C-3.60480784 20.12606964 -3.60480784 20.12606964 -2 17 C-1.34 17 -0.68 17 0 17 C0 11.39 0 5.78 0 0 Z " fill="#C2D5AE" transform="translate(541,51)"/>
<path d="M0 0 C2.31 0 4.62 0 7 0 C6.34 0.66 5.68 1.32 5 2 C4.39688385 3.68761858 3.86149763 5.40014476 3.375 7.125 C3.11460938 8.03507812 2.85421875 8.94515625 2.5859375 9.8828125 C2.39257812 10.58148438 2.19921875 11.28015625 2 12 C1.34 12 0.68 12 0 12 C0 8.04 0 4.08 0 0 Z " fill="#839C6B" transform="translate(63,11)"/>
<path d="M0 0 C2.9375 0.8125 2.9375 0.8125 6 2 C6.33 2.99 6.66 3.98 7 5 C7.66 5 8.32 5 9 5 C9 5.66 9 6.32 9 7 C2.84765625 7.09765625 2.84765625 7.09765625 1 7 C0 6 0 6 -0.0625 2.9375 C-0.041875 1.968125 -0.02125 0.99875 0 0 Z " fill="#7F9B56" transform="translate(15,63)"/>
<path d="M0 0 C2.64 0 5.28 0 8 0 C6.625 2.5 6.625 2.5 5 5 C4.34 5 3.68 5 3 5 C2.8453125 5.8971875 2.8453125 5.8971875 2.6875 6.8125 C1.90576469 9.29983964 0.8735926 10.24696028 -1 12 C-0.9278125 11.38511719 -0.855625 10.77023438 -0.78125 10.13671875 C-0.64203125 8.92435547 -0.64203125 8.92435547 -0.5 7.6875 C-0.4071875 6.88699219 -0.314375 6.08648437 -0.21875 5.26171875 C0.04813463 2.88103445 0.04813463 2.88103445 0 0 Z " fill="#BB8A61" transform="translate(62,23)"/>
<path d="M0 0 C2 2 2 2 3 5 C4.65 5.33 6.3 5.66 8 6 C8.33 4.02 8.66 2.04 9 0 C9.66 0 10.32 0 11 0 C10.125 6.75 10.125 6.75 9 9 C2.84765625 8.4140625 2.84765625 8.4140625 1 8 C-0.35439668 5.29120665 -0.06501451 2.99066732 0 0 Z " fill="#9C8C57" transform="translate(52,26)"/>
<path d="M0 0 C0.33 0.99 0.66 1.98 1 3 C0 4 0 4 -2.77563477 4.11352539 C-3.98533936 4.10828857 -5.19504395 4.10305176 -6.44140625 4.09765625 C-7.74658203 4.09443359 -9.05175781 4.09121094 -10.39648438 4.08789062 C-11.7851569 4.07953401 -13.17382877 4.07106905 -14.5625 4.0625 C-15.95507656 4.05748666 -17.34765481 4.05292347 -18.74023438 4.04882812 C-22.1601987 4.03699434 -25.58007844 4.0205088 -29 4 C-29 3.67 -29 3.34 -29 3 C-28.40050537 2.97494385 -27.80101074 2.9498877 -27.18334961 2.92407227 C-24.43456676 2.80714227 -21.68604625 2.68486053 -18.9375 2.5625 C-17.99455078 2.52318359 -17.05160156 2.48386719 -16.08007812 2.44335938 C-7.51529271 2.69162115 -7.51529271 2.69162115 0 0 Z " fill="#879253" transform="translate(47,17)"/>
<path d="M0 0 C0.66 0.33 1.32 0.66 2 1 C1.2884375 2.175625 1.2884375 2.175625 0.5625 3.375 C-0.33898023 4.88948678 -1.21179485 6.4235897 -2 8 C-2.66 8 -3.32 8 -4 8 C-4.33 8.99 -4.66 9.98 -5 11 C-7.6352539 12.42446157 -9.19404974 13.16845087 -12.16796875 12.546875 C-12.77253906 12.36640625 -13.37710938 12.1859375 -14 12 C-13.24074219 11.55269531 -12.48148437 11.10539062 -11.69921875 10.64453125 C-10.20841797 9.73767578 -10.20841797 9.73767578 -8.6875 8.8125 C-7.70136719 8.22082031 -6.71523437 7.62914063 -5.69921875 7.01953125 C-2.88107911 4.91102446 -1.57518324 3.11273412 0 0 Z " fill="#AF8959" transform="translate(79,74)"/>
<path d="M0 0 C0.33 0 0.66 0 1 0 C1.33 2.64 1.66 5.28 2 8 C4.64 8.33 7.28 8.66 10 9 C10 9.66 10 10.32 10 11 C6.37 11 2.74 11 -1 11 C-1.09765625 3.28515625 -1.09765625 3.28515625 -1 1 C-0.67 0.67 -0.34 0.34 0 0 Z " fill="#8FAD72" transform="translate(14,61)"/>
<path d="M0 0 C0.33 0 0.66 0 1 0 C1.33 1.65 1.66 3.3 2 5 C4.31 5.33 6.62 5.66 9 6 C9 6.66 9 7.32 9 8 C9.66 8.33 10.32 8.66 11 9 C7.37 9.33 3.74 9.66 0 10 C0 6.7 0 3.4 0 0 Z " fill="#8AA76F" transform="translate(26,76)"/>
<path d="M0 0 C5.94 0.33 11.88 0.66 18 1 C17.67 1.99 17.34 2.98 17 4 C14.72886197 3.85899143 12.45809275 3.71203245 10.1875 3.5625 C8.92292969 3.48128906 7.65835937 3.40007813 6.35546875 3.31640625 C3 3 3 3 0 2 C0 1.34 0 0.68 0 0 Z " fill="#DB7D69" transform="translate(24,24)"/>
<path d="M0 0 C0 0.33 0 0.66 0 1 C-1.24136719 1.10957031 -2.48273438 1.21914063 -3.76171875 1.33203125 C-5.40370897 1.49153887 -7.04563278 1.6517312 -8.6875 1.8125 C-9.50412109 1.88275391 -10.32074219 1.95300781 -11.16210938 2.02539062 C-15.88070683 2.50298146 -19.0248238 3.22573745 -23 6 C-23.66 6 -24.32 6 -25 6 C-25 5.34 -25 4.68 -25 4 C-17.80982799 -1.44710001 -8.55066417 -0.11572327 0 0 Z " fill="#D18569" transform="translate(90,24)"/>
<path d="M0 0 C0 0.99 0 1.98 0 3 C0.66 3.33 1.32 3.66 2 4 C-3.61 4 -9.22 4 -15 4 C-10.51862317 0.63896738 -9.33076793 0.80256415 -4 1 C-2 0 -2 0 0 0 Z " fill="#76A356" transform="translate(233,92)"/>
<path d="M0 0 C0.33 0 0.66 0 1 0 C1.55447997 3.77046382 0.98118117 5.02933524 -1.125 8.3125 C-4 11 -4 11 -7.3125 11.375 C-8.199375 11.25125 -9.08625 11.1275 -10 11 C-5.375 6.125 -5.375 6.125 -2 5 C-0.78130071 2.49552484 -0.78130071 2.49552484 0 0 Z " fill="#D67D66" transform="translate(73,74)"/>
<path d="M0 0 C0 0.99 0 1.98 0 3 C-2.64 3.33 -5.28 3.66 -8 4 C-8 8.95 -8 13.9 -8 19 C-8.33 19 -8.66 19 -9 19 C-9.10792837 16.39472895 -9.18724878 13.79391689 -9.25 11.1875 C-9.30027344 10.08051758 -9.30027344 10.08051758 -9.3515625 8.95117188 C-9.45043249 3.48860474 -9.45043249 3.48860474 -7.15625 1 C-4.60789414 -0.1818462 -2.7780546 -0.23150455 0 0 Z " fill="#190000" transform="translate(86,37)"/>
<path d="M0 0 C1.52519276 0.08937803 3.04681929 0.24537146 4.5625 0.4375 C5.80193359 0.59025391 5.80193359 0.59025391 7.06640625 0.74609375 C7.70449219 0.82988281 8.34257813 0.91367188 9 1 C9 1.33 9 1.66 9 2 C6.36 2 3.72 2 1 2 C1 6.29 1 10.58 1 15 C-1 13 -1 13 -1.23046875 10.21484375 C-1.21628906 9.13332031 -1.20210937 8.05179688 -1.1875 6.9375 C-1.18105469 5.85339844 -1.17460938 4.76929687 -1.16796875 3.65234375 C-1 1 -1 1 0 0 Z " fill="#E6EFDD" transform="translate(528,70)"/>
<path d="M0 0 C1.98 0 3.96 0 6 0 C5.01 0.495 5.01 0.495 4 1 C3.896875 2.258125 3.79375 3.51625 3.6875 4.8125 C3.34896216 8.30445515 3.16439665 8.83138805 0.5625 11.5 C-2 13 -2 13 -4 13 C-3.34 11.68 -2.68 10.36 -2 9 C-1.34 9 -0.68 9 0 9 C0.144375 8.401875 0.28875 7.80375 0.4375 7.1875 C0.8872439 5.43849596 1.42892341 3.71322977 2 2 C1.34 1.34 0.68 0.68 0 0 Z " fill="#C48668" transform="translate(85,60)"/>
<path d="M0 0 C2.97 0.495 2.97 0.495 6 1 C6 2.65 6 4.3 6 6 C4.02 6 2.04 6 0 6 C0 4.02 0 2.04 0 0 Z " fill="#839551" transform="translate(41,90)"/>
<path d="M0 0 C0.99 0.33 1.98 0.66 3 1 C3 3.31 3 5.62 3 8 C0.69 8 -1.62 8 -4 8 C-3.67 7.01 -3.34 6.02 -3 5 C-2.34 4.67 -1.68 4.34 -1 4 C-0.34786708 1.97536745 -0.34786708 1.97536745 0 0 Z " fill="#639F38" transform="translate(98,64)"/>
<path d="M0 0 C0.33 1.32 0.66 2.64 1 4 C0.01 3.67 -0.98 3.34 -2 3 C-2 3.99 -2 4.98 -2 6 C-4.65228812 7.07525194 -7.28368454 8.09456151 -10 9 C-9.67 7.68 -9.34 6.36 -9 5 C-7.35 4.67 -5.7 4.34 -4 4 C-3.67 3.01 -3.34 2.02 -3 1 C-2.01 0.67 -1.02 0.34 0 0 Z " fill="#819748" transform="translate(100,61)"/>
<path d="M0 0 C0.66 0 1.32 0 2 0 C2.33 3.63 2.66 7.26 3 11 C-0.63 11 -4.26 11 -8 11 C-8 10.67 -8 10.34 -8 10 C-5.03 10 -2.06 10 1 10 C0.46375 9.46375 -0.0725 8.9275 -0.625 8.375 C-2 6 -2 6 -1.1875 2.75 C-0.795625 1.8425 -0.40375 0.935 0 0 Z " fill="#E86E69" transform="translate(59,63)"/>
<path d="M0 0 C1.32 0 2.64 0 4 0 C4 3.96 4 7.92 4 12 C3.34 12 2.68 12 2 12 C2 9.03 2 6.06 2 3 C1.34 3 0.68 3 0 3 C0 2.01 0 1.02 0 0 Z " fill="#99B17C" transform="translate(525,23)"/>
<path d="M0 0 C0.66 0 1.32 0 2 0 C2.12375 1.093125 2.2475 2.18625 2.375 3.3125 C2.75464801 7.07381802 2.75464801 7.07381802 5 10 C4.01 10 3.02 10 2 10 C2 10.66 2 11.32 2 12 C1.34 12 0.68 12 0 12 C0 8.04 0 4.08 0 0 Z " fill="#96A772" transform="translate(13,11)"/>
<path d="M0 0 C0.33 0.66 0.66 1.32 1 2 C-0.98 2 -2.96 2 -5 2 C-5.33 2.99 -5.66 3.98 -6 5 C-6.66 5.99 -7.32 6.98 -8 8 C-8.33 6.02 -8.66 4.04 -9 2 C-5.5647952 -0.29013653 -4.014669 -0.17842973 0 0 Z " fill="#969768" transform="translate(68,96)"/>
<path d="M0 0 C0.91007812 0.00902344 1.82015625 0.01804687 2.7578125 0.02734375 C3.45648438 0.03894531 4.15515625 0.05054687 4.875 0.0625 C4.875 0.3925 4.875 0.7225 4.875 1.0625 C4.26011719 1.25585938 3.64523438 1.44921875 3.01171875 1.6484375 C1.79935547 2.03902344 1.79935547 2.03902344 0.5625 2.4375 C-0.63826172 2.82035156 -0.63826172 2.82035156 -1.86328125 3.2109375 C-4.35224528 4.05081811 -4.35224528 4.05081811 -7.125 6.0625 C-7.125 4.4125 -7.125 2.7625 -7.125 1.0625 C-4.60024538 -0.19987731 -2.81299534 -0.03606404 0 0 Z " fill="#9D7C4C" transform="translate(20.125,21.9375)"/>
<path d="M0 0 C4.54805635 -0.17835515 7.8794254 0.00214565 12 2 C11.34 3.65 10.68 5.3 10 7 C9.835 6.360625 9.67 5.72125 9.5 5.0625 C8.218214 2.83880759 8.218214 2.83880759 6.0859375 2.51171875 C4.06424845 2.2724022 2.03158061 2.13106972 0 2 C0 1.34 0 0.68 0 0 Z " fill="#959864" transform="translate(43,96)"/>
<path d="M0 0 C0.66 0 1.32 0 2 0 C1.745504 1.48206495 1.47088238 2.96068615 1.1875 4.4375 C1.03667969 5.26121094 0.88585937 6.08492187 0.73046875 6.93359375 C0.48941406 7.61550781 0.24835938 8.29742187 0 9 C-0.99 9.33 -1.98 9.66 -3 10 C-2.69201674 8.51988629 -2.378482 7.04092675 -2.0625 5.5625 C-1.88847656 4.73878906 -1.71445313 3.91507813 -1.53515625 3.06640625 C-1 1 -1 1 0 0 Z " fill="#83914F" transform="translate(104,50)"/>
<path d="M0 0 C1.98 0 3.96 0 6 0 C4.68 2.31 3.36 4.62 2 7 C1.34 7 0.68 7 0 7 C0 4.69 0 2.38 0 0 Z " fill="#91D169" transform="translate(101,61)"/>
<path d="M0 0 C1.65 0 3.3 0 5 0 C5 2.97 5 5.94 5 9 C4.01 9.495 4.01 9.495 3 10 C2.92652344 9.04287109 2.92652344 9.04287109 2.8515625 8.06640625 C2.77679688 7.24011719 2.70203125 6.41382813 2.625 5.5625 C2.55539063 4.73878906 2.48578125 3.91507813 2.4140625 3.06640625 C2.27742188 2.38449219 2.14078125 1.70257813 2 1 C1.34 0.67 0.68 0.34 0 0 Z " fill="#99B27E" transform="translate(96,11)"/>
<path d="M0 0 C1.32 0.33 2.64 0.66 4 1 C-0.625 6.875 -0.625 6.875 -4 8 C-2.66666667 5.33333333 -1.33333333 2.66666667 0 0 Z " fill="#C26E58" transform="translate(62,85)"/>
<path d="M0 0 C0.99 0 1.98 0 3 0 C3 0.66 3 1.32 3 2 C4.32 2.33 5.64 2.66 7 3 C3.0186217 4.3271261 -0.85045227 4.06915913 -5 4 C-4.34 3.34 -3.68 2.68 -3 2 C-2.34 2 -1.68 2 -1 2 C-0.67 1.34 -0.34 0.68 0 0 Z " fill="#D9EECD" transform="translate(396,44)"/>
<path d="M0 0 C0.99 0.33 1.98 0.66 3 1 C0.69 3.31 -1.62 5.62 -4 8 C-4.33 7.34 -4.66 6.68 -5 6 C-3.35 4.02 -1.7 2.04 0 0 Z " fill="#7C984E" transform="translate(84,75)"/>
<path d="M0 0 C0.33 0 0.66 0 1 0 C1 2.64 1 5.28 1 8 C-0.32 7.67 -1.64 7.34 -3 7 C-3 6.01 -3 5.02 -3 4 C-2.34 3.67 -1.68 3.34 -1 3 C-0.67 2.01 -0.34 1.02 0 0 Z " fill="#7A9959" transform="translate(526,26)"/>
<path d="M0 0 C2.05078125 0.03255208 4.1015625 0.06510417 6.15234375 0.09765625 C1.40234375 3.97265625 1.40234375 3.97265625 -0.84765625 5.09765625 C-1.50765625 3.77765625 -2.16765625 2.45765625 -2.84765625 1.09765625 C-1.84765625 0.09765625 -1.84765625 0.09765625 0 0 Z " fill="#A89661" transform="translate(63.84765625,22.90234375)"/>
<path d="M0 0 C1.32 0.66 2.64 1.32 4 2 C4 2.99 4 3.98 4 5 C2.35 5 0.7 5 -1 5 C-0.67 3.35 -0.34 1.7 0 0 Z " fill="#7B9553" transform="translate(29,77)"/>
<path d="M0 0 C6.64615385 2.46153846 6.64615385 2.46153846 8.4375 5.1875 C8.623125 5.785625 8.80875 6.38375 9 7 C2.29787234 5.06382979 2.29787234 5.06382979 0 2 C0 1.34 0 0.68 0 0 Z " fill="#A87D4F" transform="translate(13,55)"/>
<path d="M0 0 C2.4375 0.8125 2.4375 0.8125 5 2 C5.33 2.99 5.66 3.98 6 5 C6.99 5 7.98 5 9 5 C8.67 5.99 8.34 6.98 8 8 C6.2925002 6.71937515 4.62626404 5.38232443 3 4 C3 3.34 3 2.68 3 2 C2.01 2 1.02 2 0 2 C0 1.34 0 0.68 0 0 Z " fill="#BB6F50" transform="translate(17,56)"/>
<path d="M0 0 C0.66 0.33 1.32 0.66 2 1 C2.625 4.0625 2.625 4.0625 3 7 C1.02 7.99 1.02 7.99 -1 9 C-0.42415568 6.61435923 0.22227595 4.33317216 1 2 C0.34 1.67 -0.32 1.34 -1 1 C-0.67 0.67 -0.34 0.34 0 0 Z " fill="#8D925E" transform="translate(58,99)"/>
<path d="M0 0 C0.33 0.99 0.66 1.98 1 3 C-0.75 5.0625 -0.75 5.0625 -3 7 C-5.25 6.75 -5.25 6.75 -7 6 C-6.030625 5.38125 -5.06125 4.7625 -4.0625 4.125 C-0.97164638 2.34321154 -0.97164638 2.34321154 0 0 Z " fill="#AD935D" transform="translate(88,67)"/>
<path d="M0 0 C1.32 0.33 2.64 0.66 4 1 C3.01 1.495 3.01 1.495 2 2 C1.67 2.99 1.34 3.98 1 5 C1.66 5 2.32 5 3 5 C2.67 6.32 2.34 7.64 2 9 C1.34 9 0.68 9 0 9 C0 6.03 0 3.06 0 0 Z " fill="#DE857E" transform="translate(77,62)"/>
<path d="M0 0 C2 1 2 1 2 1 Z M-3 1 C-2.01 1 -1.02 1 0 1 C-0.66 3.97 -1.32 6.94 -2 10 C-2.33 10 -2.66 10 -3 10 C-3 7.03 -3 4.06 -3 1 Z " fill="#60A73D" transform="translate(382,73)"/>
<path d="M0 0 C1.98 0 3.96 0 6 0 C4.3545622 1.68762851 2.68711423 3.3540349 1 5 C0.67 5 0.34 5 0 5 C0 3.35 0 1.7 0 0 Z " fill="#83CC60" transform="translate(114,36)"/>
<path d="M0 0 C5.625 -0.25 5.625 -0.25 9 2 C9.1875 4.625 9.1875 4.625 9 7 C8.443125 6.195625 7.88625 5.39125 7.3125 4.5625 C4.78135513 1.75771784 3.67420866 1.30618405 0 1 C0 0.67 0 0.34 0 0 Z " fill="#CD8766" transform="translate(91,25)"/>
</svg>
